#N canvas 0 72 209 256 10;
#X declare -path include;
#X declare -stdpath extra/iemmatrix -lib iemmatrix;
#X declare -stdpath extra/zexy -lib zexy;
#X declare -stdpath extra/readanysf~ -lib readanysf~;
#X declare -stdpath extra/iemlib -lib iemlib;
#X declare -stdpath extra/ggee -lib ggee;
#N canvas 0 392 581 210 guts 0;
#X obj 259 21 loadbang;
#X msg 259 43 dsp 1;
#X obj 259 65 s pd;
#N canvas 25 186 205 201 gui.guts 0;
#N canvas 37 57 450 412 color.choser 0;
#X obj 13 232 clr.conv;
#X obj 13 43 farb.kreis;
#X msg 13 256 color \$1 -1 -1;
#X obj 13 308 table \$0.color.r 25;
#X obj 13 329 table \$0.color.g 25;
#X obj 13 350 table \$0.color.b 25;
#X obj 193 231 tabwrite \$0.color.r;
#X obj 233 253 tabwrite \$0.color.g;
#X obj 274 275 tabwrite \$0.color.b;
#X obj 193 180 list;
#X obj 193 202 unpack f f f;
#X obj 13 67 bright.ness 0;
#X msg 170 131 colorchange \$1;
#X obj 170 152 s \$0.MTX;
#X obj 170 107 t a b a;
#X obj 321 7 r \$0.MTX;
#X obj 321 31 route color;
#X obj 321 52 list split 1;
#X obj 13 10 r \$0.set.color.s;
#X obj 13 279 s \$0.set.color.r;
#X obj 170 30 r \$0.MTX;
#X obj 170 52 route setcolor;
#X obj 13 162 t a b;
#X obj 45 184 del 2000;
#X msg 45 206 220 220 220;
#X obj 13 90 t b a;
#X obj 13 136 list;
#X obj 78 108 b;
#X connect 0 0 2 0;
#X connect 1 0 11 0;
#X connect 2 0 19 0;
#X connect 9 0 10 0;
#X connect 10 0 6 0;
#X connect 10 1 7 0;
#X connect 10 2 8 0;
#X connect 11 0 9 1;
#X connect 11 0 25 0;
#X connect 12 0 13 0;
#X connect 14 0 12 0;
#X connect 14 1 9 0;
#X connect 14 2 8 1;
#X connect 14 2 7 1;
#X connect 14 2 6 1;
#X connect 15 0 16 0;
#X connect 16 0 17 0;
#X connect 17 0 14 0;
#X connect 17 1 9 1;
#X connect 18 0 1 0;
#X connect 20 0 21 0;
#X connect 21 0 14 0;
#X connect 21 0 27 0;
#X connect 22 0 0 0;
#X connect 22 1 23 0;
#X connect 23 0 24 0;
#X connect 24 0 0 0;
#X connect 25 0 26 0;
#X connect 25 1 26 1;
#X connect 26 0 22 0;
#X connect 27 0 26 0;
#X restore 10 39 pd color.choser;
#N canvas 0 0 731 319 some.buttons 0;
#X obj 45 107 b;
#X obj 45 127 t b b;
#X msg 77 175 0;
#X msg 45 168 1;
#X obj 77 153 del 100;
#X obj 13 18 r \$0.stopall.s;
#N canvas 116 227 291 254 stopall.colors 0;
#X obj 13 155 clr.conv;
#X obj 13 87 route 0 1;
#X obj 13 5 inlet;
#X msg 13 182 color \$1 \$1 -1;
#X msg 43 112 100 100 100;
#X msg 13 134 255 220 220;
#X obj 13 204 s \$0.stopall.r;
#X connect 0 0 3 0;
#X connect 1 0 5 0;
#X connect 1 1 4 0;
#X connect 2 0 1 0;
#X connect 3 0 6 0;
#X connect 4 0 0 0;
#X connect 5 0 0 0;
#X restore 45 205 pd stopall.colors;
#X obj 13 82 t b b;
#X msg 13 227 stopall;
#X obj 13 249 s \$0.MTX;
#X obj 214 127 t b b;
#X msg 246 175 0;
#X msg 214 168 1;
#X obj 246 153 del 100;
#X obj 182 82 t b b;
#X obj 182 249 s \$0.MTX;
#X obj 182 28 r \$0.reset.s;
#N canvas 200 155 189 238 reset.colors 0;
#X obj 13 155 clr.conv;
#X obj 13 87 route 0 1;
#X obj 13 5 inlet;
#X msg 13 182 color \$1 \$1 -1;
#X msg 43 112 100 100 100;
#X obj 13 204 s \$0.reset.r;
#X msg 13 134 255 127 127;
#X connect 0 0 3 0;
#X connect 1 0 6 0;
#X connect 1 1 4 0;
#X connect 2 0 1 0;
#X connect 3 0 5 0;
#X connect 4 0 0 0;
#X connect 6 0 0 0;
#X restore 214 205 pd reset.colors;
#X msg 182 227 stopall \, reset;
#N canvas 820 459 177 146 speedlim 0;
#X msg 121 80 1;
#X msg 122 54 0;
#X obj 11 58 t a b b;
#X obj 34 81 del 100;
#X obj 11 38 spigot 1;
#X obj 11 14 inlet;
#X obj 11 101 outlet;
#X connect 0 0 4 1;
#X connect 1 0 4 1;
#X connect 2 0 6 0;
#X connect 2 1 3 0;
#X connect 2 2 1 0;
#X connect 3 0 0 0;
#X connect 4 0 2 0;
#X connect 5 0 4 0;
#X restore 182 53 pd speedlim;
#N canvas 820 459 177 146 speedlim 0;
#X msg 121 80 1;
#X msg 122 54 0;
#X obj 11 58 t a b b;
#X obj 34 81 del 100;
#X obj 11 38 spigot 1;
#X obj 11 14 inlet;
#X obj 11 101 outlet;
#X connect 0 0 4 1;
#X connect 1 0 4 1;
#X connect 2 0 6 0;
#X connect 2 1 3 0;
#X connect 2 2 1 0;
#X connect 3 0 0 0;
#X connect 4 0 2 0;
#X connect 5 0 4 0;
#X restore 13 49 pd speedlim;
#X obj 393 81 b;
#N canvas 820 459 177 146 speedlim 0;
#X msg 121 80 1;
#X msg 122 54 0;
#X obj 11 58 t a b b;
#X obj 34 81 del 100;
#X obj 11 38 spigot 1;
#X obj 11 14 inlet;
#X obj 11 101 outlet;
#X connect 0 0 4 1;
#X connect 1 0 4 1;
#X connect 2 0 6 0;
#X connect 2 1 3 0;
#X connect 2 2 1 0;
#X connect 3 0 0 0;
#X connect 4 0 2 0;
#X connect 5 0 4 0;
#X restore 393 60 pd speedlim;
#X obj 393 102 == 0;
#X obj 393 35 r \$0.debug.s;
#N canvas 200 155 189 238 debug.colors 0;
#X obj 13 155 clr.conv;
#X obj 13 87 route 0 1;
#X obj 13 5 inlet;
#X msg 13 182 color \$1 \$1 -1;
#X obj 13 204 s \$0.debug.r;
#X msg 13 134 220 220 220;
#X msg 43 112 220 255 220;
#X connect 0 0 3 0;
#X connect 1 0 5 0;
#X connect 1 1 6 0;
#X connect 2 0 1 0;
#X connect 3 0 4 0;
#X connect 5 0 0 0;
#X connect 6 0 0 0;
#X restore 416 145 pd debug.colors;
#X obj 393 123 t a a a;
#X obj 353 165 r \$0.MTX;
#X obj 353 187 spigot;
#X obj 182 105 del 10;
#X obj 353 208 print SONOPLANES_DEBUG;
#X connect 0 0 1 0;
#X connect 1 0 3 0;
#X connect 1 1 4 0;
#X connect 2 0 6 0;
#X connect 3 0 6 0;
#X connect 4 0 2 0;
#X connect 5 0 20 0;
#X connect 7 0 8 0;
#X connect 7 1 0 0;
#X connect 8 0 9 0;
#X connect 10 0 12 0;
#X connect 10 1 13 0;
#X connect 11 0 17 0;
#X connect 12 0 17 0;
#X connect 13 0 11 0;
#X connect 14 0 29 0;
#X connect 14 1 10 0;
#X connect 16 0 19 0;
#X connect 18 0 15 0;
#X connect 19 0 14 0;
#X connect 20 0 7 0;
#X connect 21 0 23 0;
#X connect 22 0 21 0;
#X connect 23 0 26 0;
#X connect 24 0 22 0;
#X connect 26 0 28 1;
#X connect 26 1 25 0;
#X connect 26 2 23 1;
#X connect 27 0 28 0;
#X connect 28 0 30 0;
#X connect 29 0 18 0;
#X restore 10 61 pd some.buttons;
#N canvas 132 179 692 282 error.display 0;
#N canvas 371 273 504 223 ERROR 0;
#X obj 0 0 cnv 15 500 220 empty empty Error: 25 20 0 30 -261234 -66577
0;
#X obj 192 149 bng 44 250 50 0 \$0.error.button.s empty empty 17 7
0 10 -262144 -1 -1;
#X obj 251 149 bng 44 250 50 0 \$0.error.button.s empty empty 17 7
0 10 -262144 -1 -1;
#X obj 216 149 bng 44 250 50 0 \$0.error.button.s empty empty 17 7
0 10 -262144 -1 -1;
#X obj 191 149 cnv 15 104 44 empty empty empty 30 16 0 30 -99865 -66577
0;
#X obj 193 151 cnv 15 100 40 empty \$0.error.button.r Ok 30 16 0 30
-228856 -1 0;
#N canvas 233 151 642 226 error.message 0;
#X obj 1 1 cnv 3 3 3 empty empty empty 20 12 0 30 -261234 -66577 0
;
#X coords 0 -1 1 1 440 100 2 0 0;
#X restore 28 36 pd error.message;
#X restore 26 250 pd ERROR;
#N canvas 406 162 224 267 error.button 0;
#X obj 56 71 t b b;
#X msg 120 146 0;
#X msg 56 150 1;
#X obj 88 97 del 100;
#N canvas 116 227 291 254 stopall.colors 0;
#X obj 13 155 clr.conv;
#X obj 13 87 route 0 1;
#X obj 13 5 inlet;
#X msg 13 182 color \$1 \$1 -1;
#X obj 13 204 s \$0.error.button.r;
#X msg 13 134 220 220 220;
#X msg 43 112 96 96 96;
#X connect 0 0 3 0;
#X connect 1 0 5 0;
#X connect 1 1 6 0;
#X connect 2 0 1 0;
#X connect 3 0 4 0;
#X connect 5 0 0 0;
#X connect 6 0 0 0;
#X restore 56 187 pd stopall.colors;
#N canvas 820 459 177 146 speedlim 0;
#X msg 121 80 1;
#X msg 122 54 0;
#X obj 11 58 t a b b;
#X obj 34 81 del 100;
#X obj 11 38 spigot 1;
#X obj 11 14 inlet;
#X obj 11 101 outlet;
#X connect 0 0 4 1;
#X connect 1 0 4 1;
#X connect 2 0 6 0;
#X connect 2 1 3 0;
#X connect 2 2 1 0;
#X connect 3 0 0 0;
#X connect 4 0 2 0;
#X connect 5 0 4 0;
#X restore 18 49 pd speedlim;
#X obj 18 18 r \$0.error.button.s;
#X obj 88 120 t b b;
#X obj 21 184 b;
#X obj 21 212 outlet;
#X connect 0 0 2 0;
#X connect 0 1 3 0;
#X connect 1 0 4 0;
#X connect 2 0 4 0;
#X connect 3 0 7 0;
#X connect 5 0 0 0;
#X connect 6 0 5 0;
#X connect 7 0 8 0;
#X connect 7 1 1 0;
#X connect 8 0 9 0;
#X restore 257 28 pd error.button;
#X obj 257 93 t b b;
#X obj 289 149 s pd-error.message;
#X msg 257 172 vis 0;
#X obj 257 194 s pd-ERROR;
#X obj 26 18 r \$0.MTX;
#X obj 26 40 route ERROR;
#X obj 26 216 s pd-ERROR;
#X msg 26 194 vis 1;
#N canvas 0 0 550 309 create.error.display.msg 0;
#X obj 49 156 list trim;
#X obj 26 232 s pd-error.message;
#X obj 49 135 list prepend text 7 7;
#X obj 26 21 inlet;
#X obj 26 43 t b a b;
#X msg 72 94 obj 0 0 cnv 15 440 100 empty empty empty 20 12 0 14 -261234
-66577 0;
#X connect 0 0 1 0;
#X connect 2 0 0 0;
#X connect 3 0 4 0;
#X connect 4 1 2 0;
#X connect 4 2 5 0;
#X connect 5 0 1 0;
#X restore 58 127 pd create.error.display.msg;
#X obj 26 66 t b a;
#X msg 289 115 clear \, obj 1 1 cnv 3 3 3 empty empty empty 20 12 0
30 -261234 -66577 0;
#X connect 1 0 2 0;
#X connect 2 0 4 0;
#X connect 2 1 12 0;
#X connect 4 0 5 0;
#X connect 6 0 7 0;
#X connect 7 0 11 0;
#X connect 9 0 8 0;
#X connect 11 0 9 0;
#X connect 11 1 10 0;
#X connect 12 0 3 0;
#X restore 10 82 pd error.display;
#X restore 4 29 pd gui.guts;
#N canvas 501 206 623 546 manage.instances 0;
#X msg 186 157 whichinstances;
#X obj 186 178 s \$0.MTX;
#X obj 186 197 r \$0.MTX;
#X obj 186 219 route instanceid;
#X obj 186 295 list;
#X obj 299 354 t a;
#X obj 186 352 t a a;
#X obj 112 436 list append;
#X obj 112 503 s \$0.MTX;
#X obj 112 368 r \$0.MTX;
#X obj 112 481 list trim;
#X obj 186 17 r \$0.MTX;
#X obj 186 39 route register.instances;
#X obj 186 61 b;
#X obj 186 83 del 0;
#X obj 254 83 bng 15 250 50 0 empty empty empty 17 7 0 10 -262144 -1
-1;
#X text 273 82 register.instances;
#X obj 112 392 route getinstancelist.loop;
#X obj 112 458 list prepend instancelist.loop;
#X obj 186 271 route loop time;
#X obj 437 301 list;
#X obj 550 360 t a;
#X obj 437 358 t a a;
#X obj 363 442 list append;
#X obj 363 509 s \$0.MTX;
#X obj 363 374 r \$0.MTX;
#X obj 363 487 list trim;
#X obj 363 398 route getinstancelist.time;
#X obj 363 464 list prepend instancelist.time;
#X obj 437 336 list append;
#X obj 186 330 list append;
#X obj 422 187 symbol <none>;
#X obj 388 228 t b;
#X obj 186 109 t b b b b;
#X connect 0 0 1 0;
#X connect 2 0 3 0;
#X connect 3 0 19 0;
#X connect 4 0 30 0;
#X connect 5 0 30 1;
#X connect 6 0 7 1;
#X connect 6 1 5 0;
#X connect 7 0 18 0;
#X connect 9 0 17 0;
#X connect 10 0 8 0;
#X connect 11 0 12 0;
#X connect 12 0 13 0;
#X connect 13 0 14 0;
#X connect 14 0 33 0;
#X connect 15 0 33 0;
#X connect 17 0 7 0;
#X connect 18 0 10 0;
#X connect 19 0 4 0;
#X connect 19 1 20 0;
#X connect 20 0 29 0;
#X connect 21 0 29 1;
#X connect 22 0 23 1;
#X connect 22 1 21 0;
#X connect 23 0 28 0;
#X connect 25 0 27 0;
#X connect 26 0 24 0;
#X connect 27 0 23 0;
#X connect 28 0 26 0;
#X connect 29 0 22 0;
#X connect 30 0 6 0;
#X connect 31 0 4 0;
#X connect 31 0 20 0;
#X connect 32 0 7 1;
#X connect 32 0 23 1;
#X connect 32 0 29 1;
#X connect 32 0 30 1;
#X connect 33 0 7 0;
#X connect 33 0 23 0;
#X connect 33 1 31 0;
#X connect 33 2 0 0;
#X connect 33 3 32 0;
#X restore 4 6 pd manage.instances;
#N canvas 521 60 826 606 store.defaults 0;
#X obj 10 35 r \$0.MTX;
#X obj 10 75 route currentpreset colorchange;
#X obj 10 100 b;
#X obj 10 122 del 2000;
#X text 9 9 ---AUTOSTORE----------;
#X obj 34 495 textfile;
#X obj 34 472 r \$0.def.i.0;
#X obj 87 517 s \$0.def.o.1;
#X obj 34 536 s \$0.def.o.0;
#X obj 10 409 s \$0.def.i.0;
#X obj 27 336 list prepend add;
#X obj 27 358 list trim;
#X obj 98 188 s \$0.def.i.0;
#X msg 98 169 clear;
#X text 360 11 ------RESTORE----------;
#X obj 353 34 loadbang;
#X obj 353 553 s \$0.MTX;
#X obj 399 121 s \$0.def.i.0;
#X obj 376 169 until;
#X obj 399 148 r \$0.def.o.1;
#X obj 376 193 s \$0.def.i.0;
#X obj 376 215 r \$0.def.o.0;
#X obj 408 395 s \$0.MTX;
#X obj 408 260 route loadpreset;
#X obj 408 304 t b a;
#X obj 408 282 symbol;
#X obj 408 347 symbol;
#X text 473 303 pd hangs \, if preset is loaded;
#X text 473 319 immediately.;
#X msg 408 369 loadpreset \$1;
#X obj 408 326 del 100;
#X msg 399 99 read ../sonoplanes.defaults cr \, rewind;
#X msg 10 383 write ../sonoplanes.defaults cr;
#X obj 457 35 bng 15 250 50 0 empty empty empty 17 7 0 10 -262144 -1
-1;
#N canvas 0 0 249 227 colors 0;
#X obj 39 119 tabread \$0.color.r;
#X obj 59 100 tabread \$0.color.g;
#X obj 79 80 tabread \$0.color.b;
#N canvas 365 152 124 205 seq24 0;
#X obj 9 13 inlet;
#X obj 9 35 t b b;
#X msg 9 57 24;
#X obj 9 79 until;
#X obj 9 101 f;
#X obj 9 123 + 1;
#X obj 9 145 t a a;
#X msg 47 55 0;
#X obj 41 166 outlet;
#X connect 0 0 1 0;
#X connect 1 0 2 0;
#X connect 1 1 7 0;
#X connect 2 0 3 0;
#X connect 3 0 4 0;
#X connect 4 0 5 0;
#X connect 5 0 6 0;
#X connect 6 0 4 1;
#X connect 6 1 8 0;
#X connect 7 0 4 1;
#X restore 19 37 pd seq24;
#X obj 19 58 t a a a a;
#X obj 19 146 pack f f f f;
#X obj 19 168 list prepend color;
#X obj 19 13 inlet;
#X obj 19 197 outlet;
#X connect 0 0 5 1;
#X connect 1 0 5 2;
#X connect 2 0 5 3;
#X connect 3 0 4 0;
#X connect 4 0 5 0;
#X connect 4 1 0 0;
#X connect 4 2 1 0;
#X connect 4 3 2 0;
#X connect 5 0 6 0;
#X connect 6 0 8 0;
#X connect 7 0 3 0;
#X restore 80 212 pd colors;
#N canvas 154 86 218 196 preset 0;
#X obj 68 27 r \$0.MTX;
#X obj 68 49 route currentpreset;
#X msg 16 147 loadpreset \$1;
#X obj 16 25 inlet;
#X obj 16 169 outlet;
#X obj 68 71 list;
#X obj 16 123 list append <no_preset>;
#X connect 0 0 1 0;
#X connect 1 0 5 0;
#X connect 2 0 4 0;
#X connect 3 0 6 0;
#X connect 5 0 6 1;
#X connect 6 0 2 0;
#X restore 62 234 pd preset;
#X obj 10 145 t b b b b b b;
#N canvas 0 0 431 207 soundfiles.dir 0;
#X obj 194 37 r \$0.MTX;
#X obj 12 31 inlet;
#X obj 12 175 outlet;
#X obj 194 59 route soundfiles.dir;
#X msg 12 153 soundfiles.dir \$1;
#X obj 194 81 list;
#X obj 12 130 list append <sonoplanes.install.dir>/sonoplanes_sounds
;
#X connect 0 0 3 0;
#X connect 1 0 6 0;
#X connect 3 0 5 0;
#X connect 4 0 2 0;
#X connect 5 0 6 1;
#X connect 6 0 4 0;
#X restore 45 259 pd soundfiles.dir;
#N canvas 0 0 414 212 presets.dir 0;
#X obj 194 37 r \$0.MTX;
#X obj 12 31 inlet;
#X obj 12 175 outlet;
#X obj 194 81 list;
#X msg 12 153 presets.dir \$1;
#X obj 194 59 route presets.dir;
#X obj 12 130 list append <sonoplanes.install.dir>/sonoplanes_presets
;
#X connect 0 0 5 0;
#X connect 1 0 6 0;
#X connect 3 0 6 1;
#X connect 4 0 2 0;
#X connect 5 0 3 0;
#X connect 6 0 4 0;
#X restore 27 283 pd presets.dir;
#X obj 353 77 t b b b;
#X obj 353 283 f;
#X msg 376 259 1;
#X obj 353 311 sel 0;
#X obj 353 426 t b b;
#N canvas 365 152 124 205 seq24 0;
#X obj 9 13 inlet;
#X obj 9 35 t b b;
#X msg 9 57 24;
#X obj 9 79 until;
#X obj 9 101 f;
#X obj 9 123 + 1;
#X obj 9 145 t a a;
#X msg 47 55 0;
#X obj 41 166 outlet;
#X connect 0 0 1 0;
#X connect 1 0 2 0;
#X connect 1 1 7 0;
#X connect 2 0 3 0;
#X connect 3 0 4 0;
#X connect 4 0 5 0;
#X connect 5 0 6 0;
#X connect 6 0 4 1;
#X connect 6 1 8 0;
#X connect 7 0 4 1;
#X restore 385 448 pd seq24;
#X msg 385 470 color \$1 240 240 240;
#X obj 376 236 t b a;
#X msg 353 502 currentpreset <no_preset> \, soundfiles.dir <sonoplanes.install.dir>/sonoplanes_sounds
\, presets.dir <sonoplanes.install.dir>/sonoplanes_presets;
#X obj 283 464 loadbang;
#X connect 0 0 1 0;
#X connect 1 0 2 0;
#X connect 1 1 2 0;
#X connect 2 0 3 0;
#X connect 3 0 36 0;
#X connect 5 0 8 0;
#X connect 5 1 7 0;
#X connect 6 0 5 0;
#X connect 10 0 11 0;
#X connect 11 0 9 0;
#X connect 13 0 12 0;
#X connect 15 0 39 0;
#X connect 18 0 20 0;
#X connect 19 0 18 1;
#X connect 21 0 46 0;
#X connect 23 0 25 0;
#X connect 23 1 22 0;
#X connect 24 0 30 0;
#X connect 24 1 26 1;
#X connect 25 0 24 0;
#X connect 26 0 29 0;
#X connect 29 0 22 0;
#X connect 30 0 26 0;
#X connect 31 0 17 0;
#X connect 32 0 9 0;
#X connect 33 0 39 0;
#X connect 34 0 10 0;
#X connect 35 0 10 0;
#X connect 36 0 32 0;
#X connect 36 1 38 0;
#X connect 36 2 37 0;
#X connect 36 3 35 0;
#X connect 36 4 34 0;
#X connect 36 5 13 0;
#X connect 37 0 10 0;
#X connect 38 0 10 0;
#X connect 39 0 40 0;
#X connect 39 1 18 0;
#X connect 39 2 31 0;
#X connect 40 0 42 0;
#X connect 41 0 40 1;
#X connect 42 0 43 0;
#X connect 43 0 47 0;
#X connect 43 1 44 0;
#X connect 44 0 45 0;
#X connect 45 0 16 0;
#X connect 46 0 41 0;
#X connect 46 1 23 0;
#X connect 47 0 16 0;
#X connect 48 0 47 0;
#X restore 4 52 pd store.defaults;
#N canvas 0 122 637 173 declare 0;
#X obj 10 12 declare -path include;
#X obj 10 56 declare -stdpath extra/iemmatrix -lib iemmatrix;
#X obj 10 78 declare -stdpath extra/zexy -lib zexy;
#X obj 10 100 declare -stdpath extra/readanysf~ -lib readanysf~;
#X obj 10 34 declare -stdpath extra/iemlib -lib iemlib;
#X obj 10 122 declare -stdpath extra/ggee -lib ggee;
#X restore 4 96 pd declare;
#N canvas 488 0 483 275 pathes 0;
#X obj 83 63 r \$0.MTX;
#X obj 83 92 route soundfiles.dir;
#X obj 83 117 list;
#X obj 9 176 list append;
#X obj 9 13 r \$0.MTX;
#X obj 9 35 route get.soundfiles.path;
#X obj 9 220 s \$0.MTX;
#X msg 9 198 soundfiles.path \$1;
#X obj 83 140 resolve.dir;
#X obj 330 69 r \$0.MTX;
#X obj 330 123 list;
#X obj 256 182 list append;
#X obj 256 19 r \$0.MTX;
#X obj 256 226 s \$0.MTX;
#X obj 330 98 route presets.dir;
#X msg 256 204 presets.path \$1;
#X obj 256 41 route get.presets.path;
#X obj 330 146 resolve.dir;
#X connect 0 0 1 0;
#X connect 1 0 2 0;
#X connect 2 0 8 0;
#X connect 3 0 7 0;
#X connect 4 0 5 0;
#X connect 5 0 3 0;
#X connect 7 0 6 0;
#X connect 8 0 3 1;
#X connect 9 0 14 0;
#X connect 10 0 17 0;
#X connect 11 0 15 0;
#X connect 12 0 16 0;
#X connect 14 0 10 0;
#X connect 15 0 13 0;
#X connect 16 0 11 0;
#X connect 17 0 11 1;
#X restore 4 74 pd pathes;
#N canvas 0 0 432 290 stderr 0;
#X obj 12 13 r \$0.MTX;
#X obj 12 35 route ERROR;
#X obj 12 57 list prepend stderr ERROR:;
#X obj 12 79 list trim;
#X obj 12 100 s \$0.MTX;
#X obj 19 164 r \$0.MTX;
#X obj 19 186 route stderr;
#X obj 19 251 print -n;
#X obj 19 208 list prepend SONOPLANES;
#X obj 19 230 list trim;
#X obj 224 15 r \$0.MTX;
#X obj 224 81 list trim;
#X obj 224 102 s \$0.MTX;
#X obj 224 37 route INFO;
#X obj 224 59 list prepend stderr INFO:;
#X connect 0 0 1 0;
#X connect 1 0 2 0;
#X connect 2 0 3 0;
#X connect 3 0 4 0;
#X connect 5 0 6 0;
#X connect 6 0 8 0;
#X connect 8 0 9 0;
#X connect 9 0 7 0;
#X connect 10 0 13 0;
#X connect 11 0 12 0;
#X connect 13 0 14 0;
#X connect 14 0 11 0;
#X restore 5 118 pd stderr;
#X connect 0 0 1 0;
#X connect 1 0 2 0;
#X restore 20 184 pd guts;
#N canvas 0 44 1124 592 CONTROL 1;
#X obj 5 9 cnv 14 442 155 empty empty master.mixer 6 8 0 10 -237184
-1 0;
#X obj 298 25 mas.fader \$0 17;
#X obj 5 170 cnv 14 442 51 empty empty group.colors 6 8 0 10 -237184
-1 0;
#X obj 13 200 hsl 427 14 0 1 0 0 \$0.set.color.s \$0.set.color.r empty
-2 -8 0 10 -228856 -1 -1 0 1;
#X obj 10 186 set.color \$0 1;
#X obj 28 186 set.color \$0 2;
#X obj 46 186 set.color \$0 3;
#X obj 64 186 set.color \$0 4;
#X obj 82 186 set.color \$0 5;
#X obj 100 186 set.color \$0 6;
#X obj 118 186 set.color \$0 7;
#X obj 136 186 set.color \$0 8;
#X obj 154 186 set.color \$0 9;
#X obj 172 186 set.color \$0 10;
#X obj 190 186 set.color \$0 11;
#X obj 208 186 set.color \$0 12;
#X obj 226 186 set.color \$0 13;
#X obj 244 186 set.color \$0 14;
#X obj 262 186 set.color \$0 15;
#X obj 280 186 set.color \$0 16;
#X obj 298 186 set.color \$0 17;
#X obj 316 186 set.color \$0 18;
#X obj 334 186 set.color \$0 19;
#X obj 352 186 set.color \$0 20;
#X obj 370 186 set.color \$0 21;
#X obj 388 186 set.color \$0 22;
#X obj 406 186 set.color \$0 23;
#X obj 424 186 set.color \$0 24;
#X obj 5 227 preset.week \$0;
#X obj 453 9 cnv 14 630 106 empty empty serial.loop.sequencers 6 8
0 10 -237184 -1 0;
#X obj 453 233 cnv 14 630 106 empty empty parallel.loop.sequencers
6 8 0 10 -237184 -1 0;
#X obj 453 121 cnv 14 630 106 empty empty serial.time.sequencers 6
8 0 10 -237184 -1 0;
#X obj 453 345 cnv 14 630 106 empty empty parallel.time.sequencers
6 8 0 10 -237184 -1 0;
#X obj 458 25 serial.loop.sequence \$0 ser.seq1;
#X obj 458 39 serial.loop.sequence \$0 ser.seq2;
#X obj 458 53 serial.loop.sequence \$0 ser.seq3;
#X obj 458 67 serial.loop.sequence \$0 ser.seq4;
#X obj 458 81 serial.loop.sequence \$0 ser.seq5;
#X obj 458 95 serial.loop.sequence \$0 ser.seq6;
#X obj 458 137 serial.time.sequence \$0 ser.seq7;
#X obj 458 151 serial.time.sequence \$0 ser.seq8;
#X obj 458 165 serial.time.sequence \$0 ser.seq9;
#X obj 458 179 serial.time.sequence \$0 ser.seq10;
#X obj 458 193 serial.time.sequence \$0 ser.seq11;
#X obj 458 207 serial.time.sequence \$0 ser.seq12;
#X obj 458 249 parallel.loop.sequence \$0 par.seq1;
#X obj 458 263 parallel.loop.sequence \$0 par.seq2;
#X obj 458 277 parallel.loop.sequence \$0 par.seq3;
#X obj 458 291 parallel.loop.sequence \$0 par.seq4;
#X obj 458 305 parallel.loop.sequence \$0 par.seq5;
#X obj 458 319 parallel.loop.sequence \$0 par.seq6;
#X obj 458 361 parallel.time.sequence \$0 par.seq7;
#X obj 458 375 parallel.time.sequence \$0 par.seq8;
#X obj 458 389 parallel.time.sequence \$0 par.seq9;
#X obj 458 403 parallel.time.sequence \$0 par.seq10;
#X obj 458 417 parallel.time.sequence \$0 par.seq11;
#X obj 458 431 parallel.time.sequence \$0 par.seq12;
#X obj 5 375 cnv 14 226 189 empty empty timed.loop.triggers 6 8 0 10
-237184 -1 0;
#X obj 10 391 timed.loop.trigger \$0 1;
#X obj 237 375 cnv 14 210 189 empty empty timed.time.triggers 6 8 0
10 -237184 -1 0;
#X obj 10 405 timed.loop.trigger \$0 2;
#X obj 10 419 timed.loop.trigger \$0 3;
#X obj 10 433 timed.loop.trigger \$0 4;
#X obj 10 447 timed.loop.trigger \$0 5;
#X obj 10 461 timed.loop.trigger \$0 6;
#X obj 10 475 timed.loop.trigger \$0 7;
#X obj 10 489 timed.loop.trigger \$0 8;
#X obj 10 503 timed.loop.trigger \$0 9;
#X obj 10 517 timed.loop.trigger \$0 10;
#X obj 10 531 timed.loop.trigger \$0 11;
#X obj 10 545 timed.loop.trigger \$0 12;
#X obj 242 391 timed.time.trigger \$0 13;
#X obj 242 405 timed.time.trigger \$0 14;
#X obj 242 419 timed.time.trigger \$0 15;
#X obj 242 433 timed.time.trigger \$0 16;
#X obj 242 447 timed.time.trigger \$0 17;
#X obj 242 461 timed.time.trigger \$0 18;
#X obj 242 475 timed.time.trigger \$0 19;
#X obj 242 489 timed.time.trigger \$0 20;
#X obj 242 503 timed.time.trigger \$0 21;
#X obj 242 517 timed.time.trigger \$0 22;
#X obj 242 531 timed.time.trigger \$0 23;
#X obj 242 545 timed.time.trigger \$0 24;
#X obj 453 515 cnv 14 461 49 empty empty misc.controls 6 8 0 10 -237184
-1 0;
#X obj 563 531 play.once \$0;
#X obj 563 545 play.once \$0;
#X obj 458 531 clock.display;
#X obj 754 531 hsl 85 28 1 1 0 0 \$0.stopall.s \$0.stopall.r stopall
5 16 0 20 -261624 -261624 -1 0 1;
#X obj 844 531 hsl 63 28 1 1 0 0 \$0.reset.s \$0.reset.r reset 5 16
0 20 -260064 -260064 -1 0 1;
#X obj 686 531 hsl 63 28 1 1 0 0 \$0.debug.s \$0.debug.r debug 5 16
0 20 -228856 -228856 -1 0 1;
#X text 925 548 Roman Haefeli \, 2012;
#X obj 28 25 mas.fader \$0 2;
#X obj 46 25 mas.fader \$0 3;
#X obj 64 25 mas.fader \$0 4;
#X obj 82 25 mas.fader \$0 5;
#X obj 100 25 mas.fader \$0 6;
#X obj 118 25 mas.fader \$0 7;
#X obj 136 25 mas.fader \$0 8;
#X obj 154 25 mas.fader \$0 9;
#X obj 172 25 mas.fader \$0 10;
#X obj 190 25 mas.fader \$0 11;
#X obj 208 25 mas.fader \$0 12;
#X obj 226 25 mas.fader \$0 13;
#X obj 244 25 mas.fader \$0 14;
#X obj 262 25 mas.fader \$0 15;
#X obj 280 25 mas.fader \$0 16;
#X obj 316 25 mas.fader \$0 18;
#X obj 334 25 mas.fader \$0 19;
#X obj 352 25 mas.fader \$0 20;
#X obj 370 25 mas.fader \$0 21;
#X obj 388 25 mas.fader \$0 22;
#X obj 406 25 mas.fader \$0 23;
#X obj 424 25 mas.fader \$0 24;
#X obj 10 25 mas.fader \$0 1;
#X restore 19 17 pd CONTROL;
#N canvas 192 44 553 592 PLAYER 1;
#X obj 11 13 instance \$0 player1;
#X obj 11 92 instance \$0 player2;
#X obj 11 171 instance \$0 player3;
#X obj 11 250 instance \$0 player4;
#X obj 11 329 instance \$0 player5;
#X obj 11 408 instance \$0 player6;
#X obj 11 487 instance \$0 player7;
#X obj 11 566 instance \$0 player8;
#X obj 11 645 instance \$0 player9;
#X obj 11 724 instance \$0 player10;
#X obj 11 803 instance \$0 player11;
#X obj 11 882 instance \$0 player12;
#X obj 11 961 instance \$0 player13;
#X obj 11 1040 instance \$0 player14;
#X obj 11 1119 instance \$0 player15;
#X obj 11 1198 instance \$0 player16;
#X obj 11 1277 instance \$0 player17;
#X obj 11 1356 instance \$0 player18;
#X obj 11 1435 instance \$0 player19;
#X obj 11 1514 instance \$0 player20;
#X obj 11 1593 instance \$0 player21;
#X obj 11 1751 instance \$0 player22;
#X obj 11 1672 instance \$0 player23;
#X obj 11 1830 instance \$0 player24;
#X obj 11 1909 instance \$0 player25;
#X obj 11 1988 instance \$0 player26;
#X obj 11 2067 instance \$0 player27;
#X obj 11 2225 instance \$0 player28;
#X obj 11 2146 instance \$0 player29;
#X obj 11 2304 instance \$0 player30;
#X obj 271 13 player.live \$0 live1;
#X obj 271 69 player.walk \$0 walkplayer1;
#X obj 271 148 player.walk \$0 walkplayer2;
#X obj 271 227 player.walk \$0 walkplayer3;
#X obj 271 306 player.walk \$0 walkplayer4;
#X obj 271 385 player.walk \$0 walkplayer5;
#X obj 271 464 player.walk \$0 walkplayer6;
#X obj 271 543 player.walk \$0 walkplayer7;
#X obj 271 622 player.walk \$0 walkplayer8;
#X obj 271 701 player.walk \$0 walkplayer9;
#X obj 271 780 player.walk \$0 walkplayer10;
#X obj 271 859 player.walk \$0 walkplayer11;
#X obj 271 938 player.walk \$0 walkplayer12;
#X obj 271 1017 player.walk \$0 walkplayer13;
#X obj 271 1096 player.walk \$0 walkplayer14;
#X obj 271 1175 player.walk \$0 walkplayer15;
#X obj 271 1254 player.walk \$0 walkplayer16;
#X obj 271 1333 player.walk \$0 walkplayer17;
#X obj 271 1412 player.walk \$0 walkplayer18;
#X obj 271 1491 player.walk \$0 walkplayer19;
#X obj 271 1570 player.walk \$0 walkplayer20;
#X obj 271 1649 player.walk \$0 walkplayer21;
#X obj 271 1728 player.walk \$0 walkplayer22;
#X obj 271 1807 player.walk \$0 walkplayer23;
#X obj 271 1886 player.walk \$0 walkplayer24;
#X restore 19 39 pd PLAYER;
