#N canvas 0 0 277 320 10;
#X obj 19 30 inlet;
#X obj 19 125 unpack f f f;
#X obj 19 234 pack f f f;
#X obj 19 272 outlet;
#X obj 138 9 inlet;
#X obj 19 98 list;
#X obj 19 69 t b a;
#X obj 138 51 clip 0 255;
#N canvas 0 0 450 300 white 0;
#X obj 19 83 -;
#X obj 19 127 / 2;
#X obj 19 171 -;
#X msg 19 61 255 \$1;
#X msg 19 149 255 \$1;
#X obj 81 97 /;
#X msg 81 75 255 \$1;
#X obj 19 6 inlet;
#X obj 19 196 int;
#X msg 81 31 255 \$1;
#X obj 81 53 -;
#X obj 81 7 inlet;
#X obj 19 218 outlet;
#X connect 0 0 1 0;
#X connect 1 0 4 0;
#X connect 2 0 8 0;
#X connect 3 0 0 0;
#X connect 4 0 2 0;
#X connect 5 0 1 1;
#X connect 6 0 5 0;
#X connect 7 0 3 0;
#X connect 8 0 12 0;
#X connect 9 0 10 0;
#X connect 10 0 6 0;
#X connect 11 0 9 0;
#X restore 19 202 pd white;
#N canvas 0 0 450 300 white 0;
#X obj 19 83 -;
#X obj 19 127 / 2;
#X obj 19 171 -;
#X msg 19 61 255 \$1;
#X msg 19 149 255 \$1;
#X obj 81 97 /;
#X msg 81 75 255 \$1;
#X obj 19 6 inlet;
#X obj 19 196 int;
#X msg 81 31 255 \$1;
#X obj 81 53 -;
#X obj 81 7 inlet;
#X obj 19 218 outlet;
#X connect 0 0 1 0;
#X connect 1 0 4 0;
#X connect 2 0 8 0;
#X connect 3 0 0 0;
#X connect 4 0 2 0;
#X connect 5 0 1 1;
#X connect 6 0 5 0;
#X connect 7 0 3 0;
#X connect 8 0 12 0;
#X connect 9 0 10 0;
#X connect 10 0 6 0;
#X connect 11 0 9 0;
#X restore 59 174 pd white;
#N canvas 0 0 450 300 white 0;
#X obj 19 83 -;
#X obj 19 127 / 2;
#X obj 19 171 -;
#X msg 19 61 255 \$1;
#X msg 19 149 255 \$1;
#X obj 81 97 /;
#X msg 81 75 255 \$1;
#X obj 19 6 inlet;
#X obj 19 196 int;
#X msg 81 31 255 \$1;
#X obj 81 53 -;
#X obj 81 7 inlet;
#X obj 19 218 outlet;
#X connect 0 0 1 0;
#X connect 1 0 4 0;
#X connect 2 0 8 0;
#X connect 3 0 0 0;
#X connect 4 0 2 0;
#X connect 5 0 1 1;
#X connect 6 0 5 0;
#X connect 7 0 3 0;
#X connect 8 0 12 0;
#X connect 9 0 10 0;
#X connect 10 0 6 0;
#X connect 11 0 9 0;
#X restore 100 149 pd white;
#X obj 138 72 t b a;
#X obj 186 8 loadbang;
#X obj 138 30 int \$1;
#X connect 0 0 6 0;
#X connect 1 0 8 0;
#X connect 1 1 9 0;
#X connect 1 2 10 0;
#X connect 2 0 3 0;
#X connect 4 0 13 0;
#X connect 5 0 1 0;
#X connect 6 0 5 0;
#X connect 6 1 5 1;
#X connect 7 0 11 0;
#X connect 8 0 2 0;
#X connect 9 0 2 1;
#X connect 10 0 2 2;
#X connect 11 0 5 0;
#X connect 11 1 10 1;
#X connect 11 1 9 1;
#X connect 11 1 8 1;
#X connect 12 0 13 0;
#X connect 13 0 7 0;
