#N canvas 85 283 593 440 10;
#X obj 167 29 r \$0.channel.s;
#X obj 167 53 t a a;
#X obj 167 75 *;
#X obj 367 180 rmstodb;
#X obj 367 203 - 100;
#X obj 367 266 int;
#X obj 20 22 vsl 18 10 0 0 0 0 \$0.reset \$0.label 1 2 7 0 12 -262144
-262144 -1 0 1;
#X obj 20 37 vsl 18 100 0 1.5 0 0 \$0.channel.s \$0.channel.r 0 2 9
0 9 -262144 -162280 -1 6600 1;
#X msg 367 340 label \$1;
#X obj 367 361 s \$0.channel.r;
#X obj 420 314 makefilename %3d;
#X obj 367 286 sel -100;
#X msg 367 313 symbol -∞;
#X obj 299 4 r \$0.reset;
#X msg 299 97 1;
#X obj 299 118 s \$0.channel.r;
#X obj 465 17 loadbang;
#X obj 167 101 t a a a;
#X obj 465 70 makefilename %2d;
#X obj 465 46 \$2;
#X msg 465 93 label \$1;
#X obj 465 117 s \$0.label;
#X obj 15 172 r \$3.MTX;
#X obj 15 193 route colorchange;
#X obj 15 214 sel \$2;
#N canvas 23 165 225 187 getcolor 0;
#X obj 11 62 tabread \$3.color.r;
#X obj 44 82 tabread \$3.color.g;
#X obj 78 101 tabread \$3.color.b;
#X obj 11 8 inlet;
#X obj 11 30 t a a a;
#X obj 11 126 pack f f f;
#X obj 11 151 outlet;
#X connect 0 0 5 0;
#X connect 1 0 5 1;
#X connect 2 0 5 2;
#X connect 3 0 4 0;
#X connect 4 0 0 0;
#X connect 4 1 1 0;
#X connect 4 2 2 0;
#X connect 5 0 6 0;
#X restore 15 257 pd getcolor;
#X obj 15 236 \$2;
#X obj 15 411 s \$0.channel.r;
#X obj 185 399 s \$0.label;
#X obj 15 327 clr.conv;
#X msg 185 380 color \$1 \$1 -1;
#X obj 88 356 clr.conv;
#X msg 15 388 color \$1 \$2 -1;
#X obj 15 358 pack f f;
#N canvas 131 35 493 214 state.save 0;
#X obj 30 13 inlet;
#X obj 12 78 f;
#X obj 12 34 r \$1.MTX;
#X obj 12 55 route getpreset;
#X obj 44 124 list prepend preset sublevel \$2;
#X obj 44 147 list trim;
#X obj 44 168 s \$1.MTX;
#X obj 340 164 s \$0.channel.r;
#X obj 340 29 r \$1.MTX;
#X obj 340 50 route sublevel;
#X obj 340 72 route \$2;
#X obj 340 98 + 100;
#X obj 340 120 dbtorms;
#X obj 340 142 pow 0.5;
#X obj 12 100 sel 0;
#X connect 0 0 1 1;
#X connect 1 0 14 0;
#X connect 2 0 3 0;
#X connect 3 0 1 0;
#X connect 4 0 5 0;
#X connect 5 0 6 0;
#X connect 8 0 9 0;
#X connect 9 0 10 0;
#X connect 10 0 11 0;
#X connect 11 0 12 0;
#X connect 12 0 13 0;
#X connect 13 0 7 0;
#X connect 14 1 4 0;
#X restore 457 256 pd state.save;
#X obj 318 29 r \$1.MTX;
#X obj 318 51 route reset;
#X obj 15 280 t a b a;
#X msg 88 331 120 120 120;
#X obj 185 336 clr.conv;
#X obj 15 304 bright.ness 100;
#X obj 167 144 list prepend submixlevel \$2;
#X obj 167 166 list trim;
#X obj 167 188 s \$1.MTX;
#X connect 0 0 1 0;
#X connect 1 0 2 0;
#X connect 1 1 2 1;
#X connect 2 0 17 0;
#X connect 3 0 4 0;
#X connect 4 0 5 0;
#X connect 4 0 34 0;
#X connect 5 0 11 0;
#X connect 8 0 9 0;
#X connect 10 0 8 0;
#X connect 11 0 12 0;
#X connect 11 1 10 0;
#X connect 12 0 8 0;
#X connect 13 0 14 0;
#X connect 14 0 15 0;
#X connect 16 0 14 0;
#X connect 16 0 19 0;
#X connect 17 0 41 0;
#X connect 17 1 3 0;
#X connect 18 0 20 0;
#X connect 19 0 18 0;
#X connect 20 0 21 0;
#X connect 22 0 23 0;
#X connect 23 0 24 0;
#X connect 24 0 26 0;
#X connect 25 0 37 0;
#X connect 26 0 25 0;
#X connect 29 0 33 0;
#X connect 30 0 28 0;
#X connect 31 0 33 1;
#X connect 32 0 27 0;
#X connect 33 0 32 0;
#X connect 35 0 36 0;
#X connect 36 0 14 0;
#X connect 37 0 40 0;
#X connect 37 1 38 0;
#X connect 37 2 39 0;
#X connect 38 0 31 0;
#X connect 39 0 30 0;
#X connect 40 0 29 0;
#X connect 41 0 42 0;
#X connect 42 0 43 0;
#X coords 0 -1 1 1 18 120 2 20 20;
