#N canvas 874 90 379 414 10;
#X obj 23 20 hsl 100 28 0 0 0 0 \$0.clock.display.s \$0.clock.display.r
12:36:48 5 16 0 20 -249661 -249661 -1 0 1;
#X obj 20 93 time . . . . . . . . . . .;
#X obj 219 135 t a a;
#X obj 246 231 del;
#X obj 246 254 s \$0.schedule;
#X obj 20 67 r \$0.schedule;
#X msg 246 158 1000 \$1;
#X obj 246 181 -;
#X obj 246 208 max 10;
#X obj 180 29 loadbang;
#X obj 180 51 s \$0.schedule;
#X obj 122 121 change;
#X obj 39 189 f;
#X obj 39 211 pack f f f;
#X obj 122 142 t b a;
#X obj 39 232 unpack f f f;
#X obj 108 254 makefilename %02d;
#X obj 73 274 makefilename %02d;
#X obj 39 297 makefilename %02d;
#X obj 39 323 pack s s s;
#X msg 39 347 label \$1:\$2:\$3;
#X obj 39 369 s \$0.clock.display.r;
#X text 219 361 Roman Haefeli \, 2012;
#X obj 39 142 f;
#X msg 122 166 1;
#X obj 39 164 sel 1;
#X obj 20 115 t b b a;
#X msg 88 155 0;
#X connect 1 0 26 0;
#X connect 1 1 13 1;
#X connect 1 2 11 0;
#X connect 1 3 2 0;
#X connect 2 1 6 0;
#X connect 3 0 4 0;
#X connect 5 0 1 0;
#X connect 6 0 7 0;
#X connect 7 0 8 0;
#X connect 8 0 3 0;
#X connect 9 0 10 0;
#X connect 11 0 14 0;
#X connect 12 0 13 0;
#X connect 13 0 15 0;
#X connect 14 0 24 0;
#X connect 14 1 13 2;
#X connect 15 0 18 0;
#X connect 15 1 17 0;
#X connect 15 2 16 0;
#X connect 16 0 19 2;
#X connect 17 0 19 1;
#X connect 18 0 19 0;
#X connect 19 0 20 0;
#X connect 20 0 21 0;
#X connect 23 0 25 0;
#X connect 24 0 23 1;
#X connect 25 0 12 0;
#X connect 26 0 27 0;
#X connect 26 1 23 0;
#X connect 26 2 12 1;
#X connect 27 0 23 1;
#X coords 0 -1 1 1 105 28 2 20 20;
