#N canvas 484 423 119 239 10;
#X obj 10 85 +;
#X obj 10 107 +;
#X obj 10 16 inlet;
#X obj 10 177 outlet;
#X obj 10 39 unpack f f f;
#X obj 50 62 << 8;
#X obj 10 62 << 16;
#X obj 10 131 * -1;
#X obj 10 156 - 1;
#X connect 0 0 1 0;
#X connect 1 0 7 0;
#X connect 2 0 4 0;
#X connect 4 0 6 0;
#X connect 4 1 5 0;
#X connect 4 2 1 1;
#X connect 5 0 0 1;
#X connect 6 0 0 0;
#X connect 7 0 8 0;
#X connect 8 0 3 0;
