#N canvas 368 244 357 247 10;
#X obj 20 16 inlet~;
#X obj 20 207 outlet~;
#X obj 21 174 *~;
#X obj 139 16 inlet;
#X obj 139 42 route fadetime;
#X obj 234 67 sel 0;
#X msg 234 89 0;
#X msg 266 89 1;
#X obj 86 96 pack f f;
#X obj 86 120 line~;
#X obj 234 116 t a a;
#X obj 266 142 sel 0;
#X obj 266 166 del;
#X obj 139 68 t a a;
#X obj 266 225 switch~;
#X obj 70 16 loadbang;
#X obj 70 38 f \$1;
#X msg 266 190 0;
#X obj 171 91 + 2;
#X msg 306 169 stop;
#X connect 0 0 2 0;
#X connect 2 0 1 0;
#X connect 3 0 4 0;
#X connect 4 0 13 0;
#X connect 4 1 5 0;
#X connect 5 0 6 0;
#X connect 5 1 7 0;
#X connect 6 0 10 0;
#X connect 7 0 10 0;
#X connect 8 0 9 0;
#X connect 9 0 2 1;
#X connect 10 0 8 0;
#X connect 10 1 11 0;
#X connect 11 0 12 0;
#X connect 11 1 14 0;
#X connect 11 1 19 0;
#X connect 12 0 17 0;
#X connect 13 0 8 1;
#X connect 13 1 18 0;
#X connect 15 0 16 0;
#X connect 16 0 13 0;
#X connect 17 0 14 0;
#X connect 18 0 12 1;
#X connect 19 0 12 0;
