#N canvas 25 143 379 259 10;
#X obj 22 24 inlet~;
#N canvas 473 272 703 460 stuff 0;
#X obj 80 24 inlet;
#X obj 80 47 route fadetime;
#X obj 175 73 sel 0;
#X msg 175 95 0;
#X msg 207 96 1;
#X obj 175 119 change;
#X obj 112 155 + 2;
#X obj 230 218 del;
#X msg 193 165 1;
#X msg 212 191 0;
#X obj 175 140 t a b b b a;
#X msg 230 261 0;
#X obj 230 239 t b b;
#X obj 262 262 f;
#X obj 48 220 pack f f;
#X obj 80 131 t a a;
#X obj 88 73 loadbang;
#X obj 88 95 f \$1;
#X obj 193 358 outlet;
#X obj 48 268 outlet;
#X obj 325 314 s \$0.eco.mul;
#X msg 325 259 connect 0 0 4 0;
#X msg 348 286 disconnect 0 0 4 0;
#X obj 247 427 s \$0.eco.mul;
#X obj 247 346 sel 1 0;
#X obj 193 309 t a a;
#X obj 262 292 change;
#X obj 325 237 sel 1 0;
#X msg 247 367 connect 3 0 4 0;
#X msg 270 401 disconnect 3 0 4 0;
#X obj 247 325 change;
#X obj 445 400 ||;
#X obj 445 368 t b a;
#X obj 445 422 outlet;
#X connect 0 0 1 0;
#X connect 1 0 15 0;
#X connect 1 1 2 0;
#X connect 2 0 3 0;
#X connect 2 1 4 0;
#X connect 3 0 5 0;
#X connect 4 0 5 0;
#X connect 5 0 10 0;
#X connect 6 0 7 1;
#X connect 7 0 12 0;
#X connect 8 0 25 0;
#X connect 9 0 26 0;
#X connect 10 0 14 0;
#X connect 10 1 8 0;
#X connect 10 2 9 0;
#X connect 10 3 7 0;
#X connect 10 4 13 1;
#X connect 11 0 25 0;
#X connect 12 0 11 0;
#X connect 12 1 13 0;
#X connect 13 0 26 0;
#X connect 14 0 19 0;
#X connect 15 0 14 1;
#X connect 15 1 6 0;
#X connect 16 0 17 0;
#X connect 16 0 17 0;
#X connect 17 0 15 0;
#X connect 21 0 20 0;
#X connect 22 0 20 0;
#X connect 24 0 28 0;
#X connect 24 1 29 0;
#X connect 25 0 18 0;
#X connect 25 1 30 0;
#X connect 26 0 27 0;
#X connect 26 0 32 0;
#X connect 27 0 21 0;
#X connect 27 1 22 0;
#X connect 28 0 23 0;
#X connect 29 0 23 0;
#X connect 30 0 24 0;
#X connect 30 0 31 0;
#X connect 31 0 33 0;
#X connect 32 0 31 0;
#X connect 32 1 31 1;
#X restore 99 59 pd stuff;
#X obj 99 34 inlet;
#N canvas 0 0 284 287 ramp~ 0;
#X obj 16 21 inlet~;
#X obj 16 264 outlet~;
#X obj 214 29 inlet;
#X obj 214 100 switch~;
#X obj 17 197 *~;
#X obj 101 27 inlet;
#X obj 101 125 line~;
#X connect 0 0 4 0;
#X connect 2 0 3 0;
#X connect 4 0 1 0;
#X connect 5 0 6 0;
#X connect 6 0 4 1;
#X restore 63 134 pd ramp~;
#X obj 21 230 outlet~;
#X obj 195 24 namecanvas \$0.eco.mul;
#X obj 156 134 switch~;
#X connect 0 0 3 0;
#X connect 1 0 3 1;
#X connect 1 1 3 2;
#X connect 1 2 6 0;
#X connect 2 0 1 0;
