#N canvas 25 143 332 413 10;
#X obj 80 24 inlet;
#X obj 80 47 route fadetime;
#X obj 175 73 sel 0;
#X msg 175 95 0;
#X msg 207 96 1;
#X obj 175 119 change;
#N canvas 0 0 450 300 direct~ 0;
#X obj 16 21 inlet~;
#X obj 15 264 outlet~;
#X obj 147 27 inlet;
#X obj 147 98 switch~;
#X connect 0 0 1 0;
#X connect 2 0 3 0;
#X restore 85 328 pd direct~;
#X obj 22 24 inlet~;
#X obj 22 376 outlet~;
#N canvas 0 0 284 287 ramp~ 0;
#X obj 16 21 inlet~;
#X obj 16 264 outlet~;
#X obj 214 29 inlet;
#X obj 214 100 switch~;
#X obj 17 197 *~;
#X obj 101 27 inlet;
#X obj 101 125 line~;
#X connect 0 0 4 0;
#X connect 2 0 3 0;
#X connect 4 0 1 0;
#X connect 5 0 6 0;
#X connect 6 0 4 1;
#X restore 22 328 pd ramp~;
#X obj 112 155 + 2;
#X obj 230 218 del;
#X msg 193 165 1;
#X msg 212 191 0;
#X obj 175 140 t a b b b a;
#X msg 230 261 0;
#X obj 230 239 t b b;
#X obj 262 262 f;
#X obj 48 220 pack f f;
#X obj 80 131 t a a;
#X obj 88 73 loadbang;
#X obj 88 95 f \$1;
#X connect 0 0 1 0;
#X connect 1 0 19 0;
#X connect 1 1 2 0;
#X connect 2 0 3 0;
#X connect 2 1 4 0;
#X connect 3 0 5 0;
#X connect 4 0 5 0;
#X connect 5 0 14 0;
#X connect 6 0 8 0;
#X connect 7 0 9 0;
#X connect 7 0 6 0;
#X connect 9 0 8 0;
#X connect 10 0 11 1;
#X connect 11 0 16 0;
#X connect 12 0 9 2;
#X connect 13 0 6 1;
#X connect 14 0 18 0;
#X connect 14 1 12 0;
#X connect 14 2 13 0;
#X connect 14 3 11 0;
#X connect 14 4 17 1;
#X connect 15 0 9 2;
#X connect 16 0 15 0;
#X connect 16 1 17 0;
#X connect 17 0 6 1;
#X connect 18 0 9 1;
#X connect 19 0 18 1;
#X connect 19 1 10 0;
#X connect 20 0 21 0;
#X connect 21 0 19 0;
