#N canvas 75 58 260 103 10;
#N canvas 91 0 885 457 loopplaycontrol 0;
#X obj 19 55 route loopplay;
#X msg 19 175 ctlplay;
#X obj 19 76 max 1;
#X obj 51 249 f;
#X obj 51 270 - 1;
#X obj 51 291 t a a;
#X obj 82 118 del 0;
#X obj 82 95 b;
#X obj 19 147 t b b;
#X obj 19 97 t b a;
#X obj 166 210 route stop;
#X obj 166 266 sel 0;
#X obj 198 290 > 0;
#X obj 198 311 sel 1;
#X msg 166 359 loopend \$1;
#X obj 134 292 t b b;
#X obj 166 236 f -1;
#X msg 192 112 0;
#X msg 160 135 ctlstop;
#X obj 160 158 s \$1.MTX;
#X obj 166 188 r \$1.MTX;
#X obj 19 199 s \$1.MTX;
#X obj 160 68 route stopall;
#X obj 166 335 list append \$3;
#X obj 19 10 r \$2.MTX;
#X obj 166 383 s \$2.MTX;
#X obj 19 33 route \$3;
#X obj 160 46 r \$1.MTX;
#X obj 160 89 t b b b;
#X obj 413 61 route loopplay;
#X obj 413 16 r \$2.MTX;
#X obj 413 39 route \$3;
#X obj 541 400 s \$1.MTX;
#X obj 591 141 t b a;
#X obj 655 141 t b a;
#X obj 559 183 min;
#X obj 655 186 min;
#X obj 541 264 f;
#X msg 541 354 fadeinnow \$1;
#X obj 637 250 -;
#X obj 637 306 delay;
#X obj 637 328 f;
#X msg 637 354 fadeoutnow \$1;
#X obj 655 208 t a a;
#X obj 637 273 * 1000;
#X obj 527 38 r \$1.MTX;
#X obj 527 60 route segment fadein fadeout;
#X obj 413 95 *;
#X obj 413 120 t b a a;
#X obj 748 211 r \$1.MTX;
#X obj 748 233 route ctlstop;
#X msg 748 257 stop;
#X obj 508 143 * 0.5;
#X connect 0 0 2 0;
#X connect 1 0 21 0;
#X connect 2 0 9 0;
#X connect 3 0 4 0;
#X connect 4 0 5 0;
#X connect 5 0 16 1;
#X connect 5 1 3 1;
#X connect 6 0 8 0;
#X connect 7 0 6 0;
#X connect 8 0 1 0;
#X connect 8 1 3 0;
#X connect 9 0 8 0;
#X connect 9 1 3 1;
#X connect 10 0 16 0;
#X connect 11 0 15 0;
#X connect 11 1 12 0;
#X connect 12 0 13 0;
#X connect 13 0 7 0;
#X connect 14 0 25 0;
#X connect 15 0 3 0;
#X connect 15 1 23 0;
#X connect 16 0 11 0;
#X connect 17 0 3 0;
#X connect 18 0 19 0;
#X connect 20 0 10 0;
#X connect 22 0 28 0;
#X connect 23 0 14 0;
#X connect 24 0 26 0;
#X connect 26 0 0 0;
#X connect 27 0 22 0;
#X connect 28 0 18 0;
#X connect 28 1 17 0;
#X connect 28 2 23 0;
#X connect 29 0 47 0;
#X connect 30 0 31 0;
#X connect 31 0 29 0;
#X connect 33 0 35 0;
#X connect 33 1 35 1;
#X connect 34 0 36 0;
#X connect 34 1 36 1;
#X connect 35 0 37 1;
#X connect 36 0 43 0;
#X connect 37 0 38 0;
#X connect 38 0 32 0;
#X connect 39 0 44 0;
#X connect 40 0 41 0;
#X connect 41 0 42 0;
#X connect 42 0 32 0;
#X connect 43 0 39 1;
#X connect 43 1 41 1;
#X connect 44 0 40 0;
#X connect 45 0 46 0;
#X connect 46 0 47 1;
#X connect 46 1 33 0;
#X connect 46 2 34 0;
#X connect 47 0 48 0;
#X connect 48 0 37 0;
#X connect 48 1 39 0;
#X connect 48 2 52 0;
#X connect 49 0 50 0;
#X connect 50 0 51 0;
#X connect 51 0 40 0;
#X connect 52 0 35 0;
#X connect 52 0 36 0;
#X restore 11 14 pd loopplaycontrol;
#N canvas 296 111 547 403 timeplaycontrol 0;
#X obj 277 366 s \$1.MTX;
#X obj 327 116 t b a;
#X obj 391 116 t b a;
#X obj 295 158 min;
#X obj 391 161 min;
#X obj 15 41 r \$2.MTX;
#X obj 15 64 route \$3;
#X obj 15 86 route timeplay;
#X msg 15 319 ctlplay;
#X obj 15 374 s \$1.MTX;
#X obj 28 209 r \$1.MTX;
#X obj 28 231 route stop;
#X obj 28 252 spigot;
#X msg 33 184 1;
#X obj 113 260 * 1000;
#X obj 113 282 delay;
#X msg 113 304 ctlstop;
#X obj 277 210 f;
#X msg 277 320 fadeinnow \$1;
#X obj 373 225 -;
#X obj 373 272 delay;
#X obj 373 294 f;
#X msg 373 320 fadeoutnow \$1;
#X obj 391 183 t a a;
#X obj 373 248 * 1000;
#X obj 28 273 b;
#X obj 28 295 del 0;
#X obj 160 22 r \$1.MTX;
#X obj 160 44 route ctlstop;
#X msg 192 209 stop;
#X obj 160 67 t b b;
#X msg 160 94 0;
#X obj 327 22 r \$1.MTX;
#X obj 327 44 route fadein fadeout;
#X obj 15 109 t b b a b a a;
#X obj 137 328 list append \$3;
#X msg 137 350 loopend \$1;
#X obj 137 372 s \$2.MTX;
#X connect 1 0 3 0;
#X connect 1 1 3 1;
#X connect 2 0 4 0;
#X connect 2 1 4 1;
#X connect 3 0 17 1;
#X connect 4 0 23 0;
#X connect 5 0 6 0;
#X connect 6 0 7 0;
#X connect 7 0 34 0;
#X connect 8 0 9 0;
#X connect 10 0 11 0;
#X connect 11 0 12 0;
#X connect 12 0 25 0;
#X connect 13 0 12 1;
#X connect 14 0 15 0;
#X connect 15 0 16 0;
#X connect 15 0 35 0;
#X connect 16 0 9 0;
#X connect 17 0 18 0;
#X connect 18 0 0 0;
#X connect 19 0 24 0;
#X connect 20 0 21 0;
#X connect 21 0 22 0;
#X connect 22 0 0 0;
#X connect 23 0 19 1;
#X connect 23 1 21 1;
#X connect 24 0 20 0;
#X connect 25 0 26 0;
#X connect 26 0 8 0;
#X connect 27 0 28 0;
#X connect 28 0 30 0;
#X connect 29 0 15 0;
#X connect 29 0 20 0;
#X connect 30 0 31 0;
#X connect 30 1 29 0;
#X connect 31 0 12 1;
#X connect 32 0 33 0;
#X connect 33 0 1 0;
#X connect 33 1 2 0;
#X connect 34 0 8 0;
#X connect 34 1 13 0;
#X connect 34 2 14 0;
#X connect 34 3 17 0;
#X connect 34 4 19 0;
#X connect 34 5 3 0;
#X connect 34 5 4 0;
#X connect 35 0 36 0;
#X connect 36 0 37 0;
#X restore 11 40 pd timeplaycontrol;
