#N canvas 46 275 402 336 10;
#X obj 214 183 * -1;
#X obj 154 162 moses 512;
#X obj 214 206 + 1024;
#X obj 154 227 clip 0 255;
#X obj 154 140 mod 1536;
#X obj 99 182 * -1;
#X obj 39 161 moses 512;
#X obj 99 204 + 1024;
#X obj 39 226 clip 0 255;
#X obj 39 139 mod 1536;
#X obj 330 185 * -1;
#X obj 270 164 moses 512;
#X obj 330 207 + 1024;
#X obj 270 229 clip 0 255;
#X obj 270 142 mod 1536;
#X obj 39 84 t a a a;
#X obj 270 119 - 512;
#X obj 39 111 + 512;
#X obj 39 272 pack f f f;
#X obj 39 49 * 1536;
#X obj 39 25 inlet;
#X obj 39 296 outlet;
#X connect 0 0 2 0;
#X connect 1 0 3 0;
#X connect 1 1 0 0;
#X connect 2 0 3 0;
#X connect 3 0 18 1;
#X connect 4 0 1 0;
#X connect 5 0 7 0;
#X connect 6 0 8 0;
#X connect 6 1 5 0;
#X connect 7 0 8 0;
#X connect 8 0 18 0;
#X connect 9 0 6 0;
#X connect 10 0 12 0;
#X connect 11 0 13 0;
#X connect 11 1 10 0;
#X connect 12 0 13 0;
#X connect 13 0 18 2;
#X connect 14 0 11 0;
#X connect 15 0 17 0;
#X connect 15 1 4 0;
#X connect 15 2 16 0;
#X connect 16 0 14 0;
#X connect 17 0 9 0;
#X connect 18 0 21 0;
#X connect 19 0 15 0;
#X connect 20 0 19 0;
