#N canvas 233 44 314 258 10;
#X obj 23 20 hsl 85 28 1 1 0 0 \$0.stopall.s \$0.stopall.r stopall
5 16 0 20 -261624 -261624 -1 0 1;
#X msg 22 129 stopall;
#X text 169 228 Roman Haefeli \, 2012;
#X obj 19 67 parent.comm \$0 \$1 \$2 3;
#X obj 22 151 s \$1.MTX;
#N canvas 162 72 229 285 button.deco 0;
#X obj 49 103 b;
#X obj 49 123 t b b;
#X msg 81 171 0;
#X msg 49 164 1;
#X obj 17 14 r \$0.stopall.s;
#N canvas 116 255 291 254 stopall.colors 0;
#X obj 13 155 clr.conv;
#X obj 13 87 route 0 1;
#X obj 13 5 inlet;
#X msg 13 182 color \$1 \$1 -1;
#X msg 43 112 100 100 100;
#X msg 13 134 255 220 220;
#X obj 13 204 s \$0.stopall.r;
#X connect 0 0 3 0;
#X connect 1 0 5 0;
#X connect 1 1 4 0;
#X connect 2 0 1 0;
#X connect 3 0 6 0;
#X connect 4 0 0 0;
#X connect 5 0 0 0;
#X restore 49 201 pd stopall.colors;
#X obj 17 78 t b b;
#N canvas 820 459 177 146 speedlim 0;
#X msg 121 80 1;
#X msg 122 54 0;
#X obj 11 58 t a b b;
#X obj 34 81 del 100;
#X obj 11 38 spigot 1;
#X obj 11 14 inlet;
#X obj 11 101 outlet;
#X connect 0 0 4 1;
#X connect 1 0 4 1;
#X connect 2 0 6 0;
#X connect 2 1 3 0;
#X connect 2 2 1 0;
#X connect 3 0 0 0;
#X connect 4 0 2 0;
#X connect 5 0 4 0;
#X restore 17 45 pd speedlim;
#X obj 81 149 del 200;
#X obj 17 232 outlet;
#X connect 0 0 1 0;
#X connect 1 0 3 0;
#X connect 1 1 8 0;
#X connect 2 0 5 0;
#X connect 3 0 5 0;
#X connect 4 0 7 0;
#X connect 6 0 9 0;
#X connect 6 1 0 0;
#X connect 7 0 6 0;
#X connect 8 0 2 0;
#X restore 22 101 pd button.deco;
#X connect 1 0 4 0;
#X connect 5 0 1 0;
#X coords 0 -1 1 1 90 28 2 20 20;
