#N canvas 461 332 407 354 10;
#X obj 15 17 vsl 17 9 0 2 0 0 \$0.time.m.s \$0.time.m.r 00 3 5 0 10
-228856 -228856 -1 400 1;
#X obj 33 17 vsl 17 9 0 2 0 0 \$0.time.s.s \$0.time.s.r 00 3 5 0 10
-228856 -228856 -1 400 1;
#X obj 32 16 cnv 1 1 12 empty \$0.colon.r : -1 5 0 10 -228856 -1 0
;
#N canvas 38 17 549 402 display.stuff 0;
#X msg 14 311 label \$1;
#X obj 14 289 makefilename %02d;
#X obj 13 62 sel 0 2;
#X obj 13 89 t b b;
#X obj 57 89 t b b;
#X obj 13 121 f;
#X obj 13 145 - 1;
#X obj 57 125 f;
#X obj 57 146 + 1;
#X obj 13 217 s \$0.MTX;
#X msg 371 345 label \$1;
#X obj 371 323 makefilename %02d;
#X obj 307 50 sel 0 2;
#X obj 307 77 t b b;
#X obj 351 77 t b b;
#X obj 307 112 f;
#X obj 307 133 - 1;
#X obj 351 113 f;
#X obj 351 134 + 1;
#X obj 371 250 s \$0.MTX;
#X obj 339 180 mod 60;
#X obj 14 245 r \$0.MTX;
#X obj 371 279 r \$0.MTX;
#X obj 107 62 r \$0.MTX;
#X msg 97 148 set 1;
#X obj 406 60 r \$0.MTX;
#X msg 388 131 set 1;
#X obj 97 125 loadbang;
#X obj 394 109 loadbang;
#X obj 13 171 max 0;
#X obj 307 156 t a a;
#X obj 177 298 sel -1 60;
#X obj 191 229 ||;
#X obj 191 206 t b a;
#X obj 339 201 t a a;
#X obj 13 27 r \$0.time.m.s;
#X msg 13 195 setmin \$1;
#X obj 97 169 s \$0.time.m.r;
#X obj 14 267 route setmin;
#X obj 14 332 s \$0.time.m.r;
#X obj 307 23 r \$0.time.s.s;
#X obj 406 82 route setsec;
#X obj 388 155 s \$0.time.s.r;
#X msg 371 225 setsec \$1;
#X obj 371 301 route setsec;
#X obj 371 367 s \$0.time.s.r;
#X obj 107 84 route setmin;
#X connect 0 0 39 0;
#X connect 1 0 0 0;
#X connect 2 0 3 0;
#X connect 2 1 4 0;
#X connect 3 0 5 0;
#X connect 3 1 24 0;
#X connect 4 0 7 0;
#X connect 4 1 24 0;
#X connect 5 0 6 0;
#X connect 6 0 29 0;
#X connect 7 0 8 0;
#X connect 8 0 29 0;
#X connect 10 0 45 0;
#X connect 11 0 10 0;
#X connect 12 0 13 0;
#X connect 12 1 14 0;
#X connect 13 0 15 0;
#X connect 13 1 26 0;
#X connect 14 0 17 0;
#X connect 14 1 26 0;
#X connect 15 0 16 0;
#X connect 16 0 30 0;
#X connect 17 0 18 0;
#X connect 18 0 30 0;
#X connect 20 0 34 0;
#X connect 21 0 38 0;
#X connect 22 0 44 0;
#X connect 23 0 46 0;
#X connect 24 0 37 0;
#X connect 25 0 41 0;
#X connect 26 0 42 0;
#X connect 27 0 24 0;
#X connect 28 0 26 0;
#X connect 29 0 36 0;
#X connect 29 0 32 0;
#X connect 30 0 31 0;
#X connect 30 1 20 0;
#X connect 31 0 5 0;
#X connect 31 1 7 0;
#X connect 32 0 16 1;
#X connect 33 0 32 0;
#X connect 33 1 32 1;
#X connect 34 0 33 0;
#X connect 34 1 43 0;
#X connect 35 0 2 0;
#X connect 36 0 9 0;
#X connect 38 0 1 0;
#X connect 40 0 12 0;
#X connect 41 0 17 1;
#X connect 41 0 15 1;
#X connect 43 0 19 0;
#X connect 44 0 11 0;
#X connect 46 0 7 1;
#X connect 46 0 5 1;
#X restore 15 42 pd display.stuff;
#X obj 15 99 r \$1.MTX;
#X obj 15 151 route \$2;
#X obj 109 255 mod 60;
#X msg 109 277 setsec \$1;
#X obj 35 304 s \$0.MTX;
#X obj 35 234 / 60;
#X obj 35 256 int;
#X msg 35 278 setmin \$1;
#X obj 217 89 r \$0.MTX;
#X obj 217 119 route setmin setsec;
#X obj 217 141 * 60;
#X obj 282 142 t b a;
#X obj 217 174 +;
#X obj 217 236 list prepend \$2;
#X obj 217 258 list trim;
#X obj 240 324 s \$1.MTX;
#X obj 15 173 t b a a b;
#X obj 217 280 t b a b;
#X obj 15 126 spigot 1;
#X obj 217 201 spigot 1;
#X msg 263 302 0;
#X msg 217 303 1;
#X msg 75 198 0;
#X msg 15 198 1;
#N canvas 667 515 165 295 highlight 0;
#X obj 37 214 s \$0.time.s.r;
#X obj 14 238 s \$0.time.m.r;
#X obj 50 190 s \$0.colon.r;
#X obj 14 135 clr.conv;
#X msg 14 157 color \$1 \$1 -1;
#X msg 14 87 220 220 220;
#X msg 37 112 255 127 127;
#X obj 14 64 sel 0 1;
#X obj 14 19 r \$1.MTX;
#X obj 14 41 route \$2.highlight;
#X connect 3 0 4 0;
#X connect 4 0 2 0;
#X connect 4 0 0 0;
#X connect 4 0 1 0;
#X connect 5 0 3 0;
#X connect 6 0 3 0;
#X connect 7 0 5 0;
#X connect 7 1 6 0;
#X connect 8 0 9 0;
#X connect 9 0 7 0;
#X restore 142 43 pd highlight;
#X connect 4 0 22 0;
#X connect 5 0 20 0;
#X connect 6 0 7 0;
#X connect 7 0 8 0;
#X connect 9 0 10 0;
#X connect 10 0 11 0;
#X connect 11 0 8 0;
#X connect 12 0 13 0;
#X connect 13 0 14 0;
#X connect 13 1 15 0;
#X connect 14 0 16 0;
#X connect 15 0 16 0;
#X connect 15 1 16 1;
#X connect 16 0 23 0;
#X connect 17 0 18 0;
#X connect 18 0 21 0;
#X connect 20 0 27 0;
#X connect 20 1 9 0;
#X connect 20 2 6 0;
#X connect 20 3 26 0;
#X connect 21 0 25 0;
#X connect 21 1 19 0;
#X connect 21 2 24 0;
#X connect 22 0 5 0;
#X connect 23 0 17 0;
#X connect 24 0 22 1;
#X connect 25 0 22 1;
#X connect 26 0 23 1;
#X connect 27 0 23 1;
#X coords 0 -1 1 1 35 14 2 15 15;
