#N canvas 284 272 509 405 10;
#X obj 33 17 vsl 17 9 0 2 0 0 \$0.time.m.s \$0.time.m.r 00 3 5 0 10
-228856 -228856 -1 600 1;
#X obj 51 17 vsl 17 9 0 2 0 0 \$0.time.s.s \$0.time.s.r 00 3 5 0 10
-228856 -228856 -1 700 1;
#X obj 50 16 cnv 1 1 12 empty \$0.colon.r : -1 5 0 10 -228856 -1 0
;
#N canvas 691 117 854 421 display.stuff 0;
#X msg 379 364 label \$1;
#X obj 379 342 makefilename %02d;
#X obj 314 63 sel 0 2;
#X obj 314 90 t b b;
#X obj 358 90 t b b;
#X obj 314 122 f;
#X obj 314 146 - 1;
#X obj 358 126 f;
#X obj 358 147 + 1;
#X obj 378 270 s \$0.MTX;
#X msg 672 346 label \$1;
#X obj 672 324 makefilename %02d;
#X obj 608 51 sel 0 2;
#X obj 608 78 t b b;
#X obj 652 78 t b b;
#X obj 608 113 f;
#X obj 652 114 f;
#X obj 652 135 + 1;
#X obj 672 251 s \$0.MTX;
#X obj 640 181 mod 60;
#X obj 379 298 r \$0.MTX;
#X obj 672 280 r \$0.MTX;
#X obj 408 63 r \$0.MTX;
#X msg 398 149 set 1;
#X obj 707 61 r \$0.MTX;
#X msg 689 132 set 1;
#X obj 398 126 loadbang;
#X obj 695 110 loadbang;
#X obj 608 157 t a a;
#X obj 518 337 sel -1 60;
#X obj 640 202 t a a;
#X obj 314 28 r \$0.time.m.s;
#X msg 378 247 setmin \$1;
#X obj 398 170 s \$0.time.m.r;
#X obj 379 320 route setmin;
#X obj 379 385 s \$0.time.m.r;
#X obj 608 24 r \$0.time.s.s;
#X obj 707 83 route setsec;
#X obj 689 156 s \$0.time.s.r;
#X msg 672 226 setsec \$1;
#X obj 672 302 route setsec;
#X obj 672 368 s \$0.time.s.r;
#X obj 408 85 route setmin;
#X msg 93 339 label \$1;
#X obj 93 317 makefilename %02d;
#X obj 60 62 sel 0 2;
#X obj 60 89 t b b;
#X obj 104 89 t b b;
#X obj 60 121 f;
#X obj 60 145 - 1;
#X obj 104 125 f;
#X obj 104 146 + 1;
#X obj 92 245 s \$0.MTX;
#X obj 93 273 r \$0.MTX;
#X obj 154 62 r \$0.MTX;
#X msg 144 148 set 1;
#X obj 144 125 loadbang;
#X obj 60 27 r \$0.time.h.s;
#X obj 144 169 s \$0.time.h.r;
#X obj 154 84 route sethour;
#X msg 92 223 sethour \$1;
#X obj 93 295 route sethour;
#X obj 93 360 s \$0.time.h.r;
#X obj 314 172 t a a;
#X obj 346 199 mod 60;
#X obj 225 309 sel -1 60;
#X obj 608 134 - 1;
#X obj 346 221 t a a;
#X obj 60 194 t a a;
#X obj 60 171 mod 24;
#X connect 0 0 35 0;
#X connect 1 0 0 0;
#X connect 2 0 3 0;
#X connect 2 1 4 0;
#X connect 3 0 5 0;
#X connect 3 1 23 0;
#X connect 4 0 7 0;
#X connect 4 1 23 0;
#X connect 5 0 6 0;
#X connect 6 0 63 0;
#X connect 7 0 8 0;
#X connect 8 0 63 0;
#X connect 10 0 41 0;
#X connect 11 0 10 0;
#X connect 12 0 13 0;
#X connect 12 1 14 0;
#X connect 13 0 15 0;
#X connect 13 1 25 0;
#X connect 14 0 16 0;
#X connect 14 1 25 0;
#X connect 15 0 66 0;
#X connect 16 0 17 0;
#X connect 17 0 28 0;
#X connect 19 0 30 0;
#X connect 20 0 34 0;
#X connect 21 0 40 0;
#X connect 22 0 42 0;
#X connect 23 0 33 0;
#X connect 24 0 37 0;
#X connect 25 0 38 0;
#X connect 26 0 23 0;
#X connect 27 0 25 0;
#X connect 28 0 29 0;
#X connect 28 1 19 0;
#X connect 29 0 5 0;
#X connect 29 1 7 0;
#X connect 30 1 39 0;
#X connect 31 0 2 0;
#X connect 32 0 9 0;
#X connect 34 0 1 0;
#X connect 36 0 12 0;
#X connect 37 0 16 1;
#X connect 37 0 15 1;
#X connect 39 0 18 0;
#X connect 40 0 11 0;
#X connect 42 0 7 1;
#X connect 42 0 5 1;
#X connect 43 0 62 0;
#X connect 44 0 43 0;
#X connect 45 0 46 0;
#X connect 45 1 47 0;
#X connect 46 0 48 0;
#X connect 46 1 55 0;
#X connect 47 0 50 0;
#X connect 47 1 55 0;
#X connect 48 0 49 0;
#X connect 49 0 69 0;
#X connect 50 0 51 0;
#X connect 51 0 69 0;
#X connect 53 0 61 0;
#X connect 54 0 59 0;
#X connect 55 0 58 0;
#X connect 56 0 55 0;
#X connect 57 0 45 0;
#X connect 59 0 50 1;
#X connect 59 0 48 1;
#X connect 60 0 52 0;
#X connect 61 0 44 0;
#X connect 63 0 65 0;
#X connect 63 1 64 0;
#X connect 64 0 67 0;
#X connect 65 0 48 0;
#X connect 65 1 50 0;
#X connect 66 0 28 0;
#X connect 67 1 32 0;
#X connect 68 1 60 0;
#X connect 69 0 68 0;
#X restore 15 42 pd display.stuff;
#X obj 15 99 r \$1.MTX;
#X obj 15 151 route \$2;
#X obj 137 258 mod 60;
#X msg 137 280 setsec \$1;
#X obj 86 236 / 60;
#X obj 86 258 int;
#X obj 302 79 r \$0.MTX;
#X obj 364 131 * 60;
#X obj 426 130 t b a;
#X obj 364 154 +;
#X obj 302 276 list prepend \$2;
#X obj 302 298 list trim;
#X obj 325 364 s \$1.MTX;
#X obj 302 320 t b a b;
#X obj 15 126 spigot 1;
#X obj 302 244 spigot 1;
#X msg 348 342 0;
#X msg 302 343 1;
#X msg 89 197 0;
#X msg 15 198 1;
#X obj 15 17 vsl 17 9 0 2 0 0 \$0.time.h.s \$0.time.h.r 00 3 5 0 10
-228856 -228856 -1 400 1;
#X obj 32 16 cnv 1 1 12 empty \$0.colon.r : -1 5 0 10 -228856 -1 0
;
#X obj 302 107 route sethour setmin setsec;
#X obj 302 130 * 3600;
#X obj 302 210 +;
#X obj 364 176 t b a;
#X obj 15 173 t b a a a b;
#X obj 33 353 s \$0.MTX;
#X msg 86 305 setmin \$1;
#X obj 86 280 mod 60;
#X obj 33 283 / 3600;
#X obj 33 305 int;
#X msg 33 327 sethour \$1;
#N canvas 667 515 174 300 highlight 0;
#X obj 63 234 s \$0.time.s.r;
#X obj 40 258 s \$0.time.m.r;
#X obj 76 210 s \$0.colon.r;
#X obj 14 155 clr.conv;
#X msg 14 177 color \$1 \$1 -1;
#X msg 14 107 220 220 220;
#X msg 37 132 255 127 127;
#X obj 14 84 sel 0 1;
#X obj 14 19 r \$1.MTX;
#X obj 14 279 s \$0.time.h.r;
#X obj 14 41 route \$2.highlight;
#X connect 3 0 4 0;
#X connect 4 0 2 0;
#X connect 4 0 0 0;
#X connect 4 0 1 0;
#X connect 4 0 9 0;
#X connect 5 0 3 0;
#X connect 6 0 3 0;
#X connect 7 0 5 0;
#X connect 7 1 6 0;
#X connect 8 0 10 0;
#X connect 10 0 7 0;
#X restore 142 43 pd highlight;
#X connect 4 0 18 0;
#X connect 5 0 30 0;
#X connect 6 0 7 0;
#X connect 7 0 31 0;
#X connect 8 0 9 0;
#X connect 9 0 33 0;
#X connect 10 0 26 0;
#X connect 11 0 13 0;
#X connect 12 0 13 0;
#X connect 12 1 13 1;
#X connect 13 0 29 0;
#X connect 14 0 15 0;
#X connect 15 0 17 0;
#X connect 17 0 21 0;
#X connect 17 1 16 0;
#X connect 17 2 20 0;
#X connect 18 0 5 0;
#X connect 19 0 14 0;
#X connect 20 0 18 1;
#X connect 21 0 18 1;
#X connect 22 0 19 1;
#X connect 23 0 19 1;
#X connect 26 0 27 0;
#X connect 26 1 11 0;
#X connect 26 2 12 0;
#X connect 27 0 28 0;
#X connect 28 0 19 0;
#X connect 29 0 28 0;
#X connect 29 1 28 1;
#X connect 30 0 23 0;
#X connect 30 1 34 0;
#X connect 30 2 8 0;
#X connect 30 3 6 0;
#X connect 30 4 22 0;
#X connect 32 0 31 0;
#X connect 33 0 32 0;
#X connect 34 0 35 0;
#X connect 35 0 36 0;
#X connect 36 0 31 0;
#X coords 0 -1 1 1 53 14 2 15 15;
