#N canvas 49 98 436 441 10;
#X obj 20 20 nbx 2 14 5 12000 1 0 \$0.number.s \$0.number.r empty 0
-8 0 4 -262144 -1 -1 5 256;
#X obj 21 92 moses 1000;
#X obj 21 158 int;
#X obj 78 155 / 1000;
#X obj 78 177 t a a;
#X obj 78 200 int;
#X obj 128 252 * 10;
#X obj 128 274 mod 10;
#X msg 21 286 symbol \$1;
#X obj 21 263 makefilename %3d;
#X obj 78 324 pack s s;
#X msg 78 346 symbo \$1k\$2;
#X obj 78 223 makefilename %d;
#X obj 128 298 makefilename %0d;
#X obj 20 22 vsl 18 9 0 0 0 0 \$0.blublu \$0.label empty 2 6 0 8 -253822
-253822 -1 0 1;
#X obj 21 56 r \$0.number.s;
#X msg 21 382 label \$1;
#X obj 21 404 s \$0.label;
#X obj 78 117 moses 10000;
#X obj 141 139 / 1000;
#X obj 141 161 makefilename %d;
#X msg 141 186 symbo \$1k;
#X obj 256 114 r \$0.number.s;
#X obj 343 93 s \$0.label;
#X obj 256 136 s \$1;
#X obj 256 22 r \$2;
#X obj 256 44 route float set;
#X msg 299 67 set \$1;
#X obj 256 94 s \$0.number.r;
#X connect 1 0 2 0;
#X connect 1 1 18 0;
#X connect 2 0 9 0;
#X connect 3 0 4 0;
#X connect 4 0 5 0;
#X connect 4 1 6 0;
#X connect 5 0 12 0;
#X connect 6 0 7 0;
#X connect 7 0 13 0;
#X connect 8 0 16 0;
#X connect 9 0 8 0;
#X connect 10 0 11 0;
#X connect 11 0 16 0;
#X connect 12 0 10 0;
#X connect 13 0 10 1;
#X connect 15 0 1 0;
#X connect 16 0 17 0;
#X connect 18 0 3 0;
#X connect 18 1 19 0;
#X connect 19 0 20 0;
#X connect 20 0 21 0;
#X connect 21 0 16 0;
#X connect 22 0 24 0;
#X connect 25 0 26 0;
#X connect 26 0 28 0;
#X connect 26 1 27 0;
#X connect 26 1 1 0;
#X connect 26 2 23 0;
#X connect 27 0 28 0;
#X coords 0 -1 1 1 18 14 2 20 20;
