#N canvas 668 0 455 301 10;
#X obj 331 27 r \$0.MTX;
#X obj 315 47 spigot;
#X obj 331 76 print DEBUG;
#X obj 399 32 tgl 15 0 empty empty empty 17 7 0 10 -262144 -1 -1 0
1;
#X obj 20 20 cnv 14 254 14 empty \$0.front.label.r player1 6 8 0 10
-237184 -1 0;
#X obj 20 35 cnv 14 254 58 empty \$0.front.background.r empty 20 12
0 14 -237184 -1 0;
#X obj 28 35 hsl 190 15 0 1 0 0 \$0.front.start.s \$0.front.start.r
0:00.00 137 8 0 10 -262144 -166441 -1 0 1;
#X obj 28 58 hsl 190 15 0 1 0 0 \$0.front.end.s \$0.front.end.r 0:00.00
137 8 0 10 -262144 -166441 -1 0 1;
#X obj 28 73 hsl 60 14 1 1 0 0 \$0.front.prelisten.s \$0.front.prelisten.r
prelisten 4 7 0 10 -228856 -228856 -1 0 1;
#X obj 93 73 hsl 52 14 1 1 0 0 \$0.front.stop.s \$0.front.stop.r stop
7 7 0 10 -228856 -228856 -1 0 1;
#X obj 208 73 hsl 59 14 1 1 0 0 \$0.bli \$0.front.length 0:00.00 6
8 0 10 -228856 -228856 -1 0 1;
#X obj 28 50 hsl 239 8 0 1.25926 0 0 \$0.bla \$0.front.cursor.r empty
8 8 0 10 -228856 -228856 -1 0 1;
#X obj 150 73 hsl 53 14 1 1 0 0 \$0.front.details.s \$0.front.details.r
details 7 7 0 10 -228856 -228856 -1 0 1;
#N canvas 150 0 712 552 matrix.router 0;
#X obj 17 419 chn.fader \$0 1 \$1;
#X obj 608 476 namecanvas \$2;
#X obj 450 420 cnv 14 254 14 empty \$0.front.label.r player1 6 8 0
10 -237184 -1 0;
#X obj 450 435 cnv 14 254 104 empty \$0.front.background.r empty 20
12 0 14 -237184 -1 0;
#X obj 458 473 hsl 60 14 1 1 0 0 \$0.front.prelisten.s \$0.front.prelisten.r
prelisten 4 7 0 10 -228856 -228856 -1 0 1;
#X obj 523 473 hsl 52 14 1 1 0 0 \$0.front.stop.s \$0.front.stop.r
stop 7 7 0 10 -228856 -228856 -1 0 1;
#X obj 638 473 hsl 59 14 1 1 0 0 \$0.bli \$0.front.length 0:00.00 6
8 0 10 -228856 -228856 -1 0 1;
#X obj 580 473 hsl 53 14 1 1 0 0 \$0.front.hide.s \$0.front.hide.r
hide 7 7 0 10 -228856 -228856 -1 0 1;
#X obj 35 419 chn.fader \$0 2 \$1;
#X obj 53 419 chn.fader \$0 3 \$1;
#X obj 71 419 chn.fader \$0 4 \$1;
#X obj 89 419 chn.fader \$0 5 \$1;
#X obj 107 419 chn.fader \$0 6 \$1;
#X obj 125 419 chn.fader \$0 7 \$1;
#X obj 143 419 chn.fader \$0 8 \$1;
#X obj 161 419 chn.fader \$0 9 \$1;
#X obj 179 419 chn.fader \$0 10 \$1;
#X obj 197 419 chn.fader \$0 11 \$1;
#X obj 215 419 chn.fader \$0 12 \$1;
#X obj 233 419 chn.fader \$0 13 \$1;
#X obj 251 419 chn.fader \$0 14 \$1;
#X obj 269 419 chn.fader \$0 15 \$1;
#X obj 287 419 chn.fader \$0 16 \$1;
#X obj 305 419 chn.fader \$0 17 \$1;
#X obj 323 419 chn.fader \$0 18 \$1;
#X obj 341 419 chn.fader \$0 19 \$1;
#X obj 359 419 chn.fader \$0 20 \$1;
#X obj 377 419 chn.fader \$0 21 \$1;
#X obj 395 419 chn.fader \$0 22 \$1;
#X obj 413 419 chn.fader \$0 23 \$1;
#X obj 431 419 chn.fader \$0 24 \$1;
#X obj 458 435 hsl 190 15 0 1 0 0 \$0.front.start.s \$0.front.start.r
0:00.00 137 8 0 10 -262144 -166441 -1 0 1;
#X obj 458 458 hsl 190 15 0 1 0 0 \$0.front.end.s \$0.front.end.r 0:00.00
137 8 0 10 -262144 -166441 -1 0 1;
#X obj 458 450 hsl 239 8 0 1.25926 0 0 \$0.bla \$0.front.cursor.r empty
8 8 0 10 -228856 -228856 -1 0 1;
#X obj 653 458 hsl 44 15 0 10 0 0 \$0.fadeout.s \$0.fadeout.r 0.0s
4 8 0 10 -262144 -166441 -1 0 1;
#X obj 653 435 hsl 44 15 0 10 0 0 \$0.fadein.s \$0.fadein.r 0.0s 4
8 0 10 -262144 -166441 -1 0 1;
#X obj 17 113 player.row.file \$0 7;
#X obj 17 79 player.row.file \$0 5;
#X obj 17 28 player.row.file \$0 2;
#X obj 17 147 player.row.file \$0 9;
#X obj 17 11 player.row.file \$0 1;
#X obj 17 45 player.row.file \$0 3;
#X obj 17 62 player.row.file \$0 4;
#X obj 17 96 player.row.file \$0 6;
#X obj 17 130 player.row.file \$0 8;
#X obj 17 164 player.row.file \$0 10;
#X obj 17 181 player.row.file \$0 11;
#X obj 17 198 player.row.file \$0 12;
#X obj 17 215 player.row.file \$0 13;
#X obj 17 232 player.row.file \$0 14;
#X obj 17 249 player.row.file \$0 15;
#X obj 17 266 player.row.file \$0 16;
#X obj 17 283 player.row.file \$0 17;
#X obj 17 300 player.row.file \$0 18;
#X obj 17 317 player.row.file \$0 19;
#X obj 17 334 player.row.file \$0 20;
#X obj 17 351 player.row.file \$0 21;
#X obj 17 368 player.row.file \$0 22;
#X obj 17 385 player.row.file \$0 23;
#X obj 17 402 player.row.file \$0 24;
#X obj 455 520 cnv 14 244 14 empty empty empty 20 12 0 14 -262144 -1
0;
#X symbolatom 455 520 34 0 0 0 - #0.description.r #0.description.s
;
#X restore 26 107 pd matrix.router;
#N canvas 1037 419 170 155 number.of.rows 0;
#X obj 8 57 list prepend row.num;
#X obj 8 79 list trim;
#X obj 8 102 s \$0.MTX;
#X msg 8 35 24;
#X obj 8 13 loadbang;
#X connect 0 0 1 0;
#X connect 1 0 2 0;
#X connect 3 0 0 0;
#X connect 4 0 3 0;
#X restore 26 176 pd number.of.rows;
#X obj 230 233 s \$0.MTX;
#X msg 230 207 reset;
#N canvas 195 112 592 572 state.save 0;
#X obj 19 10 r \$1.MTX;
#X obj 19 32 route getpreset;
#X msg 19 54 getpreset;
#X obj 19 76 s \$0.MTX;
#X obj 17 136 route preset;
#X obj 17 159 list prepend preset \$2;
#X obj 17 114 r \$0.MTX;
#X obj 17 181 list trim;
#X obj 17 203 s \$1.MTX;
#X obj 111 332 r \$0.MTX;
#X obj 13 377 f;
#X obj 13 294 r \$0.MTX;
#X obj 97 385 f;
#X obj 13 316 route getpreset;
#X obj 13 412 sel 0;
#X obj 97 415 sel 0;
#X obj 13 488 list prepend preset;
#X obj 13 511 list trim;
#X obj 13 533 s \$0.MTX;
#X msg 13 445 loopstop \$1;
#X msg 100 444 loopstart \$1;
#X obj 247 27 r \$0.MTX;
#X obj 247 49 route doneloading loopstart loopstop duration;
#X obj 247 72 route 2;
#X obj 247 211 f;
#X obj 288 211 f;
#X obj 247 264 /;
#X obj 288 264 /;
#X obj 247 312 s \$0.front.start.r;
#X obj 288 291 s \$0.front.end.r;
#X obj 247 125 f;
#X obj 325 71 t b a;
#X obj 403 71 t b a;
#X msg 265 103 1;
#X obj 247 178 t b b b;
#X msg 322 171 0;
#X obj 481 162 t a;
#X obj 247 152 sel 1;
#X obj 204 382 f;
#X obj 288 390 f;
#X obj 204 417 sel 0;
#X obj 288 420 sel 0;
#X msg 200 448 fadein \$1;
#X msg 291 447 fadeout \$1;
#X obj 111 354 route endpos startpos fadein fadeout description;
#X obj 396 403 list append;
#X obj 396 425 sel empty;
#X obj 13 338 t b b b b b;
#X msg 396 447 description \$1;
#X connect 0 0 1 0;
#X connect 1 0 2 0;
#X connect 2 0 3 0;
#X connect 4 0 5 0;
#X connect 5 0 7 0;
#X connect 6 0 4 0;
#X connect 7 0 8 0;
#X connect 9 0 44 0;
#X connect 10 0 14 0;
#X connect 11 0 13 0;
#X connect 12 0 15 0;
#X connect 13 0 47 0;
#X connect 14 1 19 0;
#X connect 15 1 20 0;
#X connect 16 0 17 0;
#X connect 17 0 18 0;
#X connect 19 0 16 0;
#X connect 20 0 16 0;
#X connect 21 0 22 0;
#X connect 22 0 23 0;
#X connect 22 1 31 0;
#X connect 22 2 32 0;
#X connect 22 3 36 0;
#X connect 23 0 30 0;
#X connect 24 0 26 0;
#X connect 25 0 27 0;
#X connect 26 0 28 0;
#X connect 27 0 29 0;
#X connect 30 0 37 0;
#X connect 31 0 33 0;
#X connect 31 1 24 1;
#X connect 32 0 33 0;
#X connect 32 1 25 1;
#X connect 33 0 30 1;
#X connect 34 0 24 0;
#X connect 34 1 25 0;
#X connect 34 2 35 0;
#X connect 35 0 30 1;
#X connect 36 0 26 1;
#X connect 36 0 27 1;
#X connect 37 0 34 0;
#X connect 38 0 40 0;
#X connect 39 0 41 0;
#X connect 40 1 42 0;
#X connect 41 1 43 0;
#X connect 42 0 16 0;
#X connect 43 0 16 0;
#X connect 44 0 10 1;
#X connect 44 1 12 1;
#X connect 44 2 38 1;
#X connect 44 3 39 1;
#X connect 44 4 45 1;
#X connect 45 0 46 0;
#X connect 46 1 48 0;
#X connect 47 0 10 0;
#X connect 47 1 12 0;
#X connect 47 2 38 0;
#X connect 47 3 39 0;
#X connect 47 4 45 0;
#X connect 48 0 16 0;
#X restore 26 199 pd state.save;
#N canvas 318 473 434 281 gui.guts 0;
#N canvas 391 242 435 634 toggle 0;
#X obj 22 16 r \$0.MTX;
#X obj 37 434 s;
#X msg 37 259 \$3;
#X obj 37 280 sel 0 1;
#X obj 194 260 list prepend \$0;
#X msg 106 377 color \$1 \$1 -1;
#X msg 37 403 range \$1 \$1;
#X msg 37 320 1;
#X msg 69 321 0;
#X msg 194 281 symbol \$1.r\$2.\$3;
#X obj 22 118 t a a;
#X obj 22 162 route float;
#X obj 22 182 b;
#X obj 22 203 list append;
#X msg 22 140 \$2;
#X obj 22 36 route event;
#X obj 106 354 clr.conv;
#X obj 22 505 list prepend route;
#X obj 22 547 s \$0.MTX;
#X obj 22 526 list trim;
#X obj 22 458 unpack f f f;
#X obj 22 481 pack f f f;
#X obj 37 358 t a a;
#X text 22 568 route <row> <col> <0/1>;
#N canvas 203 201 215 248 clr.on 0;
#X obj 15 153 tabread \$1.color.r;
#X obj 38 131 tabread \$1.color.g;
#X obj 61 111 tabread \$1.color.b;
#X obj 15 25 inlet;
#X obj 80 25 inlet;
#X obj 15 61 f;
#X obj 15 182 pack f f f;
#X obj 15 214 outlet;
#X obj 15 86 t 0 0 0;
#X connect 0 0 6 0;
#X connect 1 0 6 1;
#X connect 2 0 6 2;
#X connect 3 0 5 0;
#X connect 4 0 5 1;
#X connect 5 0 8 0;
#X connect 6 0 7 0;
#X connect 8 0 0 0;
#X connect 8 1 1 0;
#X connect 8 2 2 0;
#X restore 106 313 pd clr.on;
#X obj 22 238 t a a b b b b b b b b a a;
#X msg 166 286 \$2;
#N canvas 203 201 214 286 clr.off 0;
#X obj 15 153 tabread \$1.color.r;
#X obj 38 131 tabread \$1.color.g;
#X obj 61 111 tabread \$1.color.b;
#X obj 15 25 inlet;
#X obj 80 25 inlet;
#X obj 15 61 f;
#X obj 15 182 pack f f f;
#X obj 15 239 outlet;
#X obj 15 86 t 0 0 0;
#X obj 15 207 bright.ness 220;
#X connect 0 0 6 0;
#X connect 1 0 6 1;
#X connect 2 0 6 2;
#X connect 3 0 5 0;
#X connect 4 0 5 1;
#X connect 5 0 8 0;
#X connect 6 0 9 0;
#X connect 8 0 0 0;
#X connect 8 1 1 0;
#X connect 8 2 2 0;
#X connect 9 0 7 0;
#X restore 124 333 pd clr.off;
#N canvas 73 44 447 324 colorize.em 0;
#X obj 23 14 inlet;
#X obj 23 238 outlet;
#N canvas 820 459 177 146 speedlim 0;
#X msg 121 80 1;
#X msg 122 54 0;
#X obj 11 58 t a b b;
#X obj 34 81 del 100;
#X obj 11 38 spigot 1;
#X obj 11 14 inlet;
#X obj 11 101 outlet;
#X connect 0 0 4 1;
#X connect 1 0 4 1;
#X connect 2 0 6 0;
#X connect 2 1 3 0;
#X connect 2 2 1 0;
#X connect 3 0 0 0;
#X connect 4 0 2 0;
#X connect 5 0 4 0;
#X restore 23 141 pd speedlim;
#X obj 274 25 r \$0.MTX;
#X obj 274 47 route colorchange;
#X obj 274 68 t b a b;
#N canvas 0 0 156 226 seq24 0;
#X obj 26 24 inlet;
#X msg 26 68 24;
#X obj 26 90 until;
#X obj 26 112 f;
#X obj 26 134 + 1;
#X obj 58 179 outlet;
#X obj 26 46 t b b;
#X msg 73 91 0;
#X obj 26 156 t a a;
#X connect 0 0 6 0;
#X connect 1 0 2 0;
#X connect 2 0 3 0;
#X connect 3 0 4 0;
#X connect 4 0 8 0;
#X connect 6 0 1 0;
#X connect 6 1 7 0;
#X connect 7 0 3 1;
#X connect 8 0 3 1;
#X connect 8 1 5 0;
#X restore 297 149 pd seq24;
#X obj 297 126 t b a;
#X obj 297 173 pack f f;
#X obj 297 194 list prepend \$0;
#X msg 297 216 \; \$1.r\$2.\$3 bang \;;
#X msg 274 94 0;
#X msg 320 94 1;
#X obj 23 76 route 0 1;
#X obj 23 51 list prepend 0;
#X obj 110 116 list split 2;
#X obj 152 136 * -1;
#X obj 152 156 + 1;
#X obj 110 184 list append;
#X connect 0 0 14 0;
#X connect 2 0 1 0;
#X connect 3 0 4 0;
#X connect 4 0 5 0;
#X connect 5 0 11 0;
#X connect 5 1 7 0;
#X connect 5 2 12 0;
#X connect 6 0 8 0;
#X connect 7 0 6 0;
#X connect 7 1 8 1;
#X connect 8 0 9 0;
#X connect 9 0 10 0;
#X connect 11 0 14 1;
#X connect 12 0 14 1;
#X connect 13 0 2 0;
#X connect 13 1 15 0;
#X connect 14 0 13 0;
#X connect 15 0 18 0;
#X connect 15 1 16 0;
#X connect 16 0 17 0;
#X connect 17 0 18 1;
#X connect 18 0 1 0;
#X restore 22 75 pd colorize.em;
#X obj 135 56 r \$0.MTX;
#X obj 135 76 route routereset routeset;
#X obj 221 98 list append 0;
#X connect 0 0 15 0;
#X connect 2 0 3 0;
#X connect 3 0 7 0;
#X connect 3 0 24 0;
#X connect 3 1 8 0;
#X connect 3 1 27 0;
#X connect 4 0 9 0;
#X connect 5 0 1 0;
#X connect 6 0 1 0;
#X connect 7 0 22 0;
#X connect 8 0 22 0;
#X connect 9 0 1 1;
#X connect 10 0 14 0;
#X connect 10 1 13 1;
#X connect 11 0 12 0;
#X connect 12 0 13 0;
#X connect 13 0 25 0;
#X connect 14 0 11 0;
#X connect 15 0 28 0;
#X connect 16 0 5 0;
#X connect 17 0 19 0;
#X connect 19 0 18 0;
#X connect 20 0 21 0;
#X connect 20 1 21 1;
#X connect 21 0 17 0;
#X connect 22 0 6 0;
#X connect 22 1 21 2;
#X connect 24 0 16 0;
#X connect 25 0 20 0;
#X connect 25 1 2 0;
#X connect 25 10 26 0;
#X connect 25 11 4 0;
#X connect 26 0 24 1;
#X connect 26 0 27 1;
#X connect 27 0 16 0;
#X connect 28 0 10 0;
#X connect 29 0 30 0;
#X connect 30 0 10 0;
#X connect 30 1 31 0;
#X connect 31 0 10 0;
#X restore 29 130 pd toggle routing;
#N canvas 714 84 554 541 load 0;
#X obj 22 16 r \$0.MTX;
#X obj 22 57 list;
#X obj 22 172 t b a;
#X obj 331 259 list prepend \$0;
#X obj 215 396 s;
#X msg 215 303 color \$1 \$1 -1;
#X msg 215 259 240 240 240;
#X obj 22 36 route event;
#X obj 386 476 s;
#X msg 404 328 symbol \$1.r\$2.clear;
#X obj 215 282 clr.conv;
#X msg 386 400 color \$1 \$1 -1;
#X obj 386 379 clr.conv;
#X msg 386 356 220 220 220;
#X obj 22 405 s \$0.MTX;
#X obj 22 194 del 10;
#N canvas 820 459 177 146 speedlim 0;
#X msg 121 80 1;
#X msg 122 54 0;
#X obj 11 58 t a b b;
#X obj 11 38 spigot 1;
#X obj 11 14 inlet;
#X obj 11 101 outlet;
#X obj 34 81 del 500;
#X connect 0 0 3 1;
#X connect 1 0 3 1;
#X connect 2 0 5 0;
#X connect 2 1 6 0;
#X connect 2 2 1 0;
#X connect 3 0 2 0;
#X connect 4 0 3 0;
#X connect 6 0 0 0;
#X restore 22 77 pd speedlim;
#X obj 215 36 r \$0.MTX;
#X obj 215 56 route setload;
#X obj 215 236 t a a a a a a;
#X msg 331 295 symbol \$1.r\$2.load;
#X obj 215 77 list;
#X msg 247 336 label \$2;
#X msg 215 197 \$1 \$2;
#X text 25 426 load <row> <filename>;
#X obj 22 356 list append;
#X msg 22 382 load \$2 \$1;
#X msg 246 366 range 1 1;
#X msg 395 426 range 1 1;
#X msg 22 102 \$2 \$3 \$1;
#X obj 22 125 route load;
#X obj 22 147 route 0;
#X obj 22 243 openpanel;
#N canvas 913 193 256 215 get.soundfiles.path 0;
#X obj 42 141 list;
#X obj 10 11 inlet;
#X obj 10 188 outlet;
#X obj 10 165 list append;
#X obj 10 33 t b b;
#X msg 42 54 get.soundfiles.path;
#X obj 42 75 s \$1.MTX;
#X obj 42 97 r \$1.MTX;
#X obj 42 119 route soundfiles.path;
#X connect 0 0 3 1;
#X connect 1 0 4 0;
#X connect 3 0 2 0;
#X connect 4 0 3 0;
#X connect 4 1 5 0;
#X connect 5 0 6 0;
#X connect 7 0 8 0;
#X connect 8 0 0 0;
#X restore 22 220 pd get.soundfiles.path;
#N canvas 36 85 572 269 check.validity 0;
#X obj 13 11 inlet;
#X obj 13 190 outlet;
#X obj 13 36 t a b;
#X obj 13 167 list append;
#X obj 152 115 b;
#X obj 152 136 list;
#N canvas 0 0 176 199 get.soundfiles.path 0;
#X obj 9 138 list;
#X obj 9 25 inlet;
#X obj 9 160 outlet;
#X msg 9 51 get.soundfiles.path;
#X obj 9 116 route soundfiles.path;
#X obj 9 94 r \$1.MTX;
#X obj 9 72 s \$1.MTX;
#X connect 0 0 2 0;
#X connect 1 0 3 0;
#X connect 3 0 6 0;
#X connect 4 0 0 0;
#X connect 5 0 4 0;
#X restore 80 66 pd get.soundfiles.path;
#X obj 152 195 s \$1.MTX;
#X obj 80 91 t a a;
#X obj 13 115 path.is.in;
#X obj 13 137 sel 1 0;
#X msg 152 160 ERROR Cannot load soundfiles from this location. Please
move your soundfiles to the folder \$1.;
#X connect 0 0 2 0;
#X connect 2 0 9 0;
#X connect 2 1 6 0;
#X connect 3 0 1 0;
#X connect 4 0 5 0;
#X connect 5 0 11 0;
#X connect 6 0 8 0;
#X connect 8 0 9 1;
#X connect 8 1 5 1;
#X connect 9 0 10 0;
#X connect 9 1 3 1;
#X connect 10 0 3 0;
#X connect 10 1 4 0;
#X connect 11 0 7 0;
#X restore 22 329 pd check.validity;
#X connect 0 0 7 0;
#X connect 1 0 16 0;
#X connect 2 0 15 0;
#X connect 2 1 25 1;
#X connect 3 0 20 0;
#X connect 3 0 9 0;
#X connect 5 0 4 0;
#X connect 6 0 10 0;
#X connect 7 0 1 0;
#X connect 9 0 8 1;
#X connect 10 0 5 0;
#X connect 11 0 8 0;
#X connect 12 0 11 0;
#X connect 13 0 12 0;
#X connect 15 0 33 0;
#X connect 16 0 29 0;
#X connect 17 0 18 0;
#X connect 18 0 21 0;
#X connect 19 0 6 0;
#X connect 19 1 13 0;
#X connect 19 2 22 0;
#X connect 19 4 27 0;
#X connect 19 4 28 0;
#X connect 19 5 3 0;
#X connect 20 0 4 1;
#X connect 21 0 23 0;
#X connect 22 0 4 0;
#X connect 23 0 19 0;
#X connect 25 0 26 0;
#X connect 26 0 14 0;
#X connect 27 0 4 0;
#X connect 28 0 8 0;
#X connect 29 0 30 0;
#X connect 30 0 31 0;
#X connect 31 0 2 0;
#X connect 32 0 34 0;
#X connect 33 0 32 0;
#X connect 34 0 25 0;
#X restore 29 151 pd load file;
#N canvas 747 132 531 592 clear 0;
#X obj 22 16 r \$0.MTX;
#X obj 22 57 list;
#X obj 22 97 t a a;
#X obj 22 161 b;
#X obj 22 182 list append;
#X msg 22 119 \$2;
#N canvas 820 459 177 146 speedlim 0;
#X msg 121 80 1;
#X msg 122 54 0;
#X obj 11 58 t a b b;
#X obj 11 38 spigot 1;
#X obj 11 14 inlet;
#X obj 11 101 outlet;
#X obj 34 81 del 300;
#X connect 0 0 3 1;
#X connect 1 0 3 1;
#X connect 2 0 5 0;
#X connect 2 1 6 0;
#X connect 2 2 1 0;
#X connect 3 0 2 0;
#X connect 4 0 3 0;
#X connect 6 0 0 0;
#X restore 22 77 pd speedlim;
#X obj 300 298 list prepend \$0;
#X obj 167 444 s;
#X msg 167 334 color \$1 \$1 -1;
#X obj 22 36 route event;
#X obj 168 262 t a a a a;
#X obj 355 515 s;
#X msg 373 367 symbol \$1.r\$2.clear;
#X obj 167 313 clr.conv;
#X msg 355 439 color \$1 \$1 -1;
#X obj 355 418 clr.conv;
#X obj 22 522 s \$0.MTX;
#X obj 22 141 route clear;
#X msg 22 224 \$3;
#X obj 22 246 sel 1;
#X obj 22 203 t a a;
#X obj 96 247 list;
#X obj 22 271 list append;
#X msg 96 226 \$1;
#X msg 167 289 255 255 255;
#X msg 186 359 label;
#X msg 341 463 range 0 0;
#X msg 355 395 255 255 255;
#X msg 300 334 symbol \$1.r\$2.load;
#X msg 22 496 clear \$1;
#X msg 192 403 range 0 0;
#X text 22 543 clear <row>;
#X obj 168 204 r \$0.MTX;
#X obj 168 227 route setclear;
#X connect 0 0 10 0;
#X connect 1 0 6 0;
#X connect 2 0 5 0;
#X connect 2 1 4 1;
#X connect 3 0 4 0;
#X connect 4 0 21 0;
#X connect 5 0 18 0;
#X connect 6 0 2 0;
#X connect 7 0 29 0;
#X connect 7 0 13 0;
#X connect 9 0 8 0;
#X connect 10 0 1 0;
#X connect 11 0 27 0;
#X connect 11 1 25 0;
#X connect 11 1 28 0;
#X connect 11 2 26 0;
#X connect 11 2 31 0;
#X connect 11 3 7 0;
#X connect 13 0 12 1;
#X connect 14 0 9 0;
#X connect 15 0 12 0;
#X connect 16 0 15 0;
#X connect 18 0 3 0;
#X connect 19 0 20 0;
#X connect 20 0 23 0;
#X connect 21 0 19 0;
#X connect 21 1 24 0;
#X connect 22 0 23 1;
#X connect 23 0 30 0;
#X connect 24 0 22 0;
#X connect 25 0 14 0;
#X connect 26 0 8 0;
#X connect 27 0 12 0;
#X connect 28 0 16 0;
#X connect 29 0 8 1;
#X connect 30 0 17 0;
#X connect 31 0 8 0;
#X connect 33 0 34 0;
#X connect 34 0 11 0;
#X restore 29 172 pd clear file;
#X obj 25 206 loadbang;
#X obj 25 252 s \$0.r1.load;
#X msg 25 228 label >>>>>>>>click_here_to_load_file<<<<<<<<;
#N canvas 472 179 255 345 s2displayformat 0;
#X obj 19 59 t a a a;
#X obj 56 142 mod 60;
#X obj 19 126 int;
#X obj 56 165 makefilename %02d;
#X obj 19 189 makefilename %d;
#X obj 19 214 pack s s s;
#X msg 19 240 symbol \$1:\$2.\$3;
#X obj 107 119 mod 100;
#X obj 107 143 makefilename %02d;
#X obj 107 96 * 100;
#X obj 19 104 / 60;
#X obj 19 32 route convert.s2hd;
#X obj 19 262 list prepend s2hd;
#X obj 19 284 list trim;
#X obj 19 6 r \$0.UTIL;
#X obj 19 305 s \$0.UTIL;
#X connect 0 0 10 0;
#X connect 0 1 1 0;
#X connect 0 2 9 0;
#X connect 1 0 3 0;
#X connect 2 0 4 0;
#X connect 3 0 5 1;
#X connect 4 0 5 0;
#X connect 5 0 6 0;
#X connect 6 0 12 0;
#X connect 7 0 8 0;
#X connect 8 0 5 2;
#X connect 9 0 7 0;
#X connect 10 0 2 0;
#X connect 11 0 0 0;
#X connect 12 0 13 0;
#X connect 13 0 15 0;
#X connect 14 0 11 0;
#X restore 29 90 pd s2displayformat;
#N canvas 82 47 456 769 player.logic 0;
#N canvas 424 167 510 477 start.end.pos 0;
#X obj 23 11 r \$0.MTX;
#X obj 23 35 route duration;
#X obj 160 104 r \$0.front.start.s;
#X obj 160 138 *;
#N canvas 146 452 247 232 displayformat 0;
#X obj 57 58 list prepend convert.s2hd;
#X obj 56 141 route s2hd;
#X obj 57 79 list trim;
#X obj 56 162 list;
#X obj 25 187 symbol;
#X obj 25 36 t b a;
#X obj 25 13 inlet;
#X obj 25 208 outlet;
#X obj 57 100 s \$0.UTIL;
#X obj 56 121 r \$0.UTIL;
#X connect 0 0 2 0;
#X connect 1 0 3 0;
#X connect 2 0 8 0;
#X connect 3 0 4 1;
#X connect 4 0 7 0;
#X connect 5 0 4 0;
#X connect 5 1 0 0;
#X connect 6 0 5 0;
#X connect 9 0 1 0;
#X restore 180 380 pd displayformat;
#X msg 180 401 label \$1;
#X obj 180 424 s \$0.front.start.r;
#X obj 327 140 *;
#N canvas 146 452 247 232 displayformat 0;
#X obj 57 58 list prepend convert.s2hd;
#X obj 56 141 route s2hd;
#X obj 57 79 list trim;
#X obj 56 162 list;
#X obj 25 187 symbol;
#X obj 25 36 t b a;
#X obj 25 13 inlet;
#X obj 25 208 outlet;
#X obj 57 100 s \$0.UTIL;
#X obj 56 121 r \$0.UTIL;
#X connect 0 0 2 0;
#X connect 1 0 3 0;
#X connect 2 0 8 0;
#X connect 3 0 4 1;
#X connect 4 0 7 0;
#X connect 5 0 4 0;
#X connect 5 1 0 0;
#X connect 6 0 5 0;
#X connect 9 0 1 0;
#X restore 346 379 pd displayformat;
#X msg 346 400 label \$1;
#X obj 327 108 r \$0.front.end.s;
#X obj 346 423 s \$0.front.end.r;
#X obj 295 258 min;
#X obj 23 57 change;
#X obj 367 210 - 0.1;
#X obj 329 261 r \$0.MTX;
#X obj 329 285 route duration;
#X obj 295 287 /;
#X obj 295 308 change;
#X obj 236 289 /;
#X obj 236 310 change;
#X obj 236 260 max;
#X obj 200 206 + 0.1;
#X obj 23 79 t b a a;
#X obj 23 211 s \$0.front.start.r;
#X obj 37 166 s \$0.front.end.r;
#X msg 23 188 0;
#X msg 37 144 1;
#X obj 160 160 t a a a a;
#X obj 327 162 t a a a a;
#X obj 160 186 outlet;
#X obj 327 189 outlet;
#X connect 0 0 1 0;
#X connect 1 0 13 0;
#X connect 2 0 3 0;
#X connect 3 0 28 0;
#X connect 4 0 5 0;
#X connect 5 0 6 0;
#X connect 7 0 29 0;
#X connect 8 0 9 0;
#X connect 9 0 11 0;
#X connect 10 0 7 0;
#X connect 12 0 17 0;
#X connect 13 0 23 0;
#X connect 14 0 12 0;
#X connect 15 0 16 0;
#X connect 16 0 17 1;
#X connect 16 0 19 1;
#X connect 17 0 18 0;
#X connect 18 0 6 0;
#X connect 19 0 20 0;
#X connect 20 0 11 0;
#X connect 21 0 19 0;
#X connect 22 0 21 0;
#X connect 23 0 26 0;
#X connect 23 0 27 0;
#X connect 23 1 3 1;
#X connect 23 2 7 1;
#X connect 26 0 24 0;
#X connect 27 0 25 0;
#X connect 28 0 30 0;
#X connect 28 1 4 0;
#X connect 28 2 22 0;
#X connect 28 3 12 1;
#X connect 29 0 31 0;
#X connect 29 1 8 0;
#X connect 29 2 14 0;
#X connect 29 3 21 1;
#X restore 17 14 pd start.end.pos;
#N canvas 146 452 247 232 displayformat 0;
#X obj 57 58 list prepend convert.s2hd;
#X obj 56 141 route s2hd;
#X obj 57 79 list trim;
#X obj 56 162 list;
#X obj 25 187 symbol;
#X obj 25 36 t b a;
#X obj 25 13 inlet;
#X obj 25 208 outlet;
#X obj 57 100 s \$0.UTIL;
#X obj 56 121 r \$0.UTIL;
#X connect 0 0 2 0;
#X connect 1 0 3 0;
#X connect 2 0 8 0;
#X connect 3 0 4 1;
#X connect 4 0 7 0;
#X connect 5 0 4 0;
#X connect 5 1 0 0;
#X connect 6 0 5 0;
#X connect 9 0 1 0;
#X restore 255 131 pd displayformat;
#X obj 232 42 -;
#X obj 232 13 t b a;
#X msg 255 152 label \$1;
#X obj 255 174 s \$0.front.length;
#X obj 17 693 s \$0.MTX;
#X obj 17 646 list prepend player;
#X obj 17 669 list trim;
#N canvas 928 351 154 181 wait 0;
#X obj 13 12 inlet;
#X obj 13 125 outlet;
#X obj 13 45 t b a;
#X obj 13 100 list append;
#X obj 13 76 del 200;
#X connect 0 0 2 0;
#X connect 2 0 4 0;
#X connect 2 1 3 1;
#X connect 3 0 1 0;
#X connect 4 0 3 0;
#X restore 17 38 pd wait;
#X msg 17 567 time_seek \$1;
#X obj 17 539 f;
#X obj 17 493 t b a;
#X obj 17 516 spigot 1;
#X obj 137 348 route start stop;
#X msg 160 574 0;
#X msg 137 596 play;
#X obj 234 559 t b b b;
#X msg 257 587 1;
#X msg 280 607 stop;
#X msg 137 262 start;
#X msg 214 312 stop;
#X obj 183 618 f;
#X obj 137 547 t b b b;
#X obj 183 641 sel 0;
#X obj 214 289 del;
#X obj 232 266 * 1000;
#X obj 137 284 t a b;
#X msg 154 435 start;
#X obj 155 471 s \$0.MTX;
#X msg 201 435 stop;
#X obj 17 72 t a a a;
#X obj 126 65 t a a a;
#X msg 63 106 startpos \$1;
#X msg 172 108 endpos \$1;
#X obj 101 155 s \$0.MTX;
#N canvas 928 351 154 181 wait 0;
#X obj 13 12 inlet;
#X obj 13 125 outlet;
#X obj 13 45 t b a;
#X obj 13 100 list append;
#X obj 13 76 del 200;
#X connect 0 0 2 0;
#X connect 2 0 4 0;
#X connect 2 1 3 1;
#X connect 3 0 1 0;
#X connect 4 0 3 0;
#X restore 126 36 pd wait;
#X obj 232 65 t a a a;
#X msg 278 109 segment \$1;
#X obj 246 648 r \$0.front.stop.s;
#X msg 316 342 stop;
#X obj 316 366 t a a;
#X obj 36 194 r \$0.MTX;
#X obj 36 216 route ctlplay;
#X obj 316 236 r \$0.MTX;
#X obj 246 692 s \$0.MTX;
#X text 241 714 check [pd external.control];
#X obj 316 278 b;
#X obj 316 300 f;
#X obj 316 322 sel 1;
#X obj 316 258 route ctlstop stop;
#X msg 377 281 0;
#X msg 265 241 1;
#N canvas 0 0 337 244 check.nonempty 0;
#X obj 13 18 inlet;
#X obj 45 212 outlet;
#X obj 81 20 r \$0.MTX;
#X obj 81 42 route duration;
#X obj 13 67 f;
#X obj 13 43 b;
#X obj 13 92 sel 0;
#X obj 115 172 list prepend ERROR;
#X obj 115 193 list trim;
#X obj 115 214 s \$0.MTX;
#X msg 115 150 no soundfiles loaded in "\$1".;
#X obj 115 128 list append \$2;
#X connect 0 0 5 0;
#X connect 2 0 3 0;
#X connect 3 0 4 1;
#X connect 4 0 6 0;
#X connect 5 0 4 0;
#X connect 6 0 11 0;
#X connect 6 1 1 0;
#X connect 7 0 8 0;
#X connect 8 0 9 0;
#X connect 10 0 7 0;
#X connect 11 0 10 0;
#X restore 36 241 pd check.nonempty;
#X obj 140 197 r \$0.front.prelisten.s;
#X obj 140 218 t b b;
#X obj 181 223 s \$0.preprelisten.;
#X msg 246 669 stopall;
#X connect 0 0 9 0;
#X connect 0 1 36 0;
#X connect 1 0 4 0;
#X connect 2 0 37 0;
#X connect 3 0 2 0;
#X connect 3 1 2 1;
#X connect 4 0 5 0;
#X connect 7 0 8 0;
#X connect 8 0 6 0;
#X connect 9 0 31 0;
#X connect 10 0 7 0;
#X connect 11 0 10 0;
#X connect 12 0 13 0;
#X connect 12 1 11 1;
#X connect 13 0 11 0;
#X connect 14 0 23 0;
#X connect 14 0 28 0;
#X connect 14 1 30 0;
#X connect 15 0 13 1;
#X connect 15 0 22 1;
#X connect 16 0 7 0;
#X connect 17 0 11 0;
#X connect 17 1 18 0;
#X connect 17 2 19 0;
#X connect 18 0 13 1;
#X connect 18 0 22 1;
#X connect 19 0 7 0;
#X connect 20 0 27 0;
#X connect 21 0 14 0;
#X connect 22 0 24 0;
#X connect 23 0 16 0;
#X connect 23 1 15 0;
#X connect 23 2 22 0;
#X connect 24 0 17 0;
#X connect 25 0 21 0;
#X connect 26 0 25 1;
#X connect 27 0 14 0;
#X connect 27 1 25 0;
#X connect 27 1 52 0;
#X connect 28 0 29 0;
#X connect 30 0 29 0;
#X connect 31 0 12 0;
#X connect 31 1 3 0;
#X connect 31 2 33 0;
#X connect 32 1 2 0;
#X connect 32 2 34 0;
#X connect 33 0 35 0;
#X connect 34 0 35 0;
#X connect 36 0 32 0;
#X connect 37 0 26 0;
#X connect 37 1 1 0;
#X connect 37 2 38 0;
#X connect 38 0 35 0;
#X connect 39 0 57 0;
#X connect 40 0 41 0;
#X connect 41 0 14 0;
#X connect 41 1 25 0;
#X connect 42 0 43 0;
#X connect 43 0 53 0;
#X connect 44 0 50 0;
#X connect 47 0 48 0;
#X connect 48 0 49 0;
#X connect 49 0 40 0;
#X connect 50 0 47 0;
#X connect 50 1 51 0;
#X connect 51 0 48 1;
#X connect 52 0 48 1;
#X connect 53 0 20 0;
#X connect 54 0 55 0;
#X connect 55 0 53 0;
#X connect 55 1 56 0;
#X connect 57 0 45 0;
#X restore 29 8 pd player.logic;
#N canvas 705 544 450 300 cursor.logic 0;
#X obj 18 257 s \$0.front.cursor.r;
#X obj 18 231 /;
#X obj 18 7 r \$0.MTX;
#X obj 18 29 route start stop startpos endpos segment duration;
#N canvas 335 546 291 254 cursor.colors 0;
#X obj 13 125 clr.conv;
#X msg 13 104 220 220 220;
#X obj 13 158 pack f f;
#X msg 13 182 color \$1 \$2 -1;
#X obj 106 129 clr.conv;
#X msg 106 108 220 220 220;
#X obj 13 26 t b a;
#X obj 106 61 route 0 1;
#X obj 13 5 inlet;
#X obj 13 204 s \$0.front.cursor.r;
#X msg 136 88 0 0 0;
#X connect 0 0 2 0;
#X connect 1 0 0 0;
#X connect 2 0 3 0;
#X connect 3 0 9 0;
#X connect 4 0 2 1;
#X connect 5 0 4 0;
#X connect 6 0 1 0;
#X connect 6 1 7 0;
#X connect 7 0 5 0;
#X connect 7 1 10 0;
#X connect 8 0 6 0;
#X connect 10 0 4 0;
#X restore 172 161 pd cursor.colors;
#X msg 172 125 1;
#X msg 210 125 0;
#X obj 18 206 line 0 40;
#X obj 50 95 f;
#X obj 18 70 t b b;
#X obj 18 125 f;
#X obj 18 151 pack f f;
#X obj 71 124 * 1000;
#X obj 18 178 t a;
#X connect 1 0 0 0;
#X connect 2 0 3 0;
#X connect 3 0 5 0;
#X connect 3 0 9 0;
#X connect 3 1 6 0;
#X connect 3 2 8 1;
#X connect 3 3 10 1;
#X connect 3 4 12 0;
#X connect 3 5 1 1;
#X connect 5 0 4 0;
#X connect 6 0 4 0;
#X connect 7 0 1 0;
#X connect 8 0 13 0;
#X connect 9 0 10 0;
#X connect 9 1 8 0;
#X connect 10 0 11 0;
#X connect 11 0 13 0;
#X connect 12 0 11 1;
#X connect 13 0 7 0;
#X restore 29 32 pd cursor.logic;
#N canvas 722 305 387 531 prelisten.stop.details 0;
#N canvas 367 611 291 254 prelisten.colors 0;
#X obj 13 155 clr.conv;
#X msg 13 134 220 220 220;
#X obj 13 87 route 0 1;
#X obj 13 5 inlet;
#X obj 13 204 s \$0.front.prelisten.r;
#X msg 43 114 255 0 0;
#X msg 13 182 color \$1 \$1 -1;
#X connect 0 0 6 0;
#X connect 1 0 0 0;
#X connect 2 0 1 0;
#X connect 2 1 5 0;
#X connect 3 0 2 0;
#X connect 5 0 0 0;
#X connect 6 0 4 0;
#X restore 11 176 pd prelisten.colors;
#X obj 11 15 r \$0.MTX;
#X msg 65 102 0;
#X obj 14 220 r \$0.front.stop.s;
#N canvas 367 611 291 254 stop.colors 0;
#X obj 13 155 clr.conv;
#X msg 13 134 220 220 220;
#X obj 13 87 route 0 1;
#X obj 13 5 inlet;
#X msg 13 182 color \$1 \$1 -1;
#X msg 43 112 100 100 100;
#X obj 13 204 s \$0.front.stop.r;
#X connect 0 0 4 0;
#X connect 1 0 0 0;
#X connect 2 0 1 0;
#X connect 2 1 5 0;
#X connect 3 0 2 0;
#X connect 4 0 6 0;
#X connect 5 0 0 0;
#X restore 14 340 pd stop.colors;
#X obj 14 242 b;
#X obj 14 262 t b b;
#X msg 46 310 0;
#X msg 14 303 1;
#X obj 46 288 del 100;
#X obj 15 395 b;
#X obj 15 415 t b b;
#X msg 47 463 0;
#X msg 15 456 1;
#X obj 47 441 del 100;
#X obj 15 373 r \$0.front.details.s;
#N canvas 367 611 291 254 details.colors 0;
#X obj 13 155 clr.conv;
#X msg 13 134 220 220 220;
#X obj 13 87 route 0 1;
#X obj 13 5 inlet;
#X msg 13 182 color \$1 \$1 -1;
#X msg 43 112 100 100 100;
#X obj 13 204 s \$0.front.details.r;
#X connect 0 0 4 0;
#X connect 1 0 0 0;
#X connect 2 0 1 0;
#X connect 2 1 5 0;
#X connect 3 0 2 0;
#X connect 4 0 6 0;
#X connect 5 0 0 0;
#X restore 15 493 pd details.colors;
#X obj 200 40 r \$0.front.details.s;
#X msg 200 109 vis 1;
#X obj 200 133 s \$2;
#X obj 200 61 b;
#X obj 200 85 delay 300;
#X obj 208 351 b;
#X obj 208 371 t b b;
#X msg 240 419 0;
#X msg 208 412 1;
#X obj 240 397 del 100;
#N canvas 367 611 291 254 details.colors 0;
#X obj 13 155 clr.conv;
#X msg 13 134 220 220 220;
#X obj 13 87 route 0 1;
#X obj 13 5 inlet;
#X msg 13 182 color \$1 \$1 -1;
#X msg 43 112 100 100 100;
#X obj 13 204 s \$0.front.hide.r;
#X connect 0 0 4 0;
#X connect 1 0 0 0;
#X connect 2 0 1 0;
#X connect 2 1 5 0;
#X connect 3 0 2 0;
#X connect 4 0 6 0;
#X connect 5 0 0 0;
#X restore 208 449 pd details.colors;
#X obj 208 329 r \$0.front.hide.s;
#X obj 202 251 s \$2;
#X obj 202 179 b;
#X obj 202 203 delay 300;
#X obj 202 159 r \$0.front.hide.s;
#X msg 202 227 vis 0;
#X obj 11 40 route start stop;
#X obj 11 125 f;
#X obj 29 79 r \$0.preprelisten.;
#X msg 29 101 1;
#X obj 11 60 b;
#X obj 118 108 sel 1;
#X msg 118 129 prlfadin;
#X obj 118 150 s \$0.MTX;
#X connect 1 0 34 0;
#X connect 2 0 0 0;
#X connect 2 0 35 1;
#X connect 3 0 5 0;
#X connect 5 0 6 0;
#X connect 6 0 8 0;
#X connect 6 1 9 0;
#X connect 7 0 4 0;
#X connect 8 0 4 0;
#X connect 9 0 7 0;
#X connect 10 0 11 0;
#X connect 11 0 13 0;
#X connect 11 1 14 0;
#X connect 12 0 16 0;
#X connect 13 0 16 0;
#X connect 14 0 12 0;
#X connect 15 0 10 0;
#X connect 17 0 20 0;
#X connect 18 0 19 0;
#X connect 20 0 21 0;
#X connect 21 0 18 0;
#X connect 22 0 23 0;
#X connect 23 0 25 0;
#X connect 23 1 26 0;
#X connect 24 0 27 0;
#X connect 25 0 27 0;
#X connect 26 0 24 0;
#X connect 28 0 22 0;
#X connect 30 0 31 0;
#X connect 31 0 33 0;
#X connect 32 0 30 0;
#X connect 33 0 29 0;
#X connect 34 0 38 0;
#X connect 34 1 2 0;
#X connect 35 0 0 0;
#X connect 35 0 39 0;
#X connect 36 0 37 0;
#X connect 37 0 35 1;
#X connect 38 0 35 0;
#X connect 39 0 40 0;
#X connect 40 0 41 0;
#X restore 30 61 pd prelisten.stop.details;
#N canvas 489 447 283 228 background.label 0;
#N canvas 367 611 224 141 background.label.colors 0;
#X obj 13 28 clr.conv;
#X obj 13 5 inlet;
#X msg 13 57 color \$1 \$1 -1;
#X obj 13 79 s \$0.front.background.r;
#X obj 27 99 s \$0.front.label.r;
#X connect 0 0 2 0;
#X connect 1 0 0 0;
#X connect 2 0 3 0;
#X connect 2 0 4 0;
#X restore 13 137 pd background.label.colors;
#X obj 13 -10 r \$0.MTX;
#X obj 13 13 route duration start stop;
#X obj 112 77 loadbang;
#X obj 13 35 sel 0;
#X msg 13 67 230 230 226;
#X msg 70 39 255 230 230;
#X msg 112 100 230 230 255;
#X connect 1 0 2 0;
#X connect 2 0 4 0;
#X connect 2 1 6 0;
#X connect 2 2 5 0;
#X connect 3 0 7 0;
#X connect 4 0 7 0;
#X connect 4 1 5 0;
#X connect 5 0 0 0;
#X connect 6 0 0 0;
#X connect 7 0 0 0;
#X restore 213 61 pd background.label;
#N canvas 172 178 190 134 color.stuff 0;
#X obj 34 38 route colorchange;
#X msg 34 60 colorchange \$1;
#X obj 34 82 s \$0.MTX;
#X obj 34 16 r \$1.MTX;
#X connect 0 0 1 0;
#X connect 1 0 2 0;
#X connect 3 0 0 0;
#X restore 222 101 pd color.stuff;
#N canvas 550 275 804 476 fadein.fadeout 0;
#X obj 16 126 makefilename %.1f;
#X msg 16 148 label \$1s;
#X msg 16 40 fadein \$1;
#X obj 16 62 s \$0.MTX;
#X obj 16 84 r \$0.MTX;
#X obj 16 106 route fadein;
#X obj 16 19 r \$0.fadein.s;
#X obj 16 169 s \$0.fadein.r;
#X obj 161 125 makefilename %.1f;
#X msg 161 147 label \$1s;
#X obj 161 61 s \$0.MTX;
#X obj 161 83 r \$0.MTX;
#X obj 161 18 r \$0.fadeout.s;
#X msg 161 39 fadeout \$1;
#X obj 161 105 route fadeout;
#X obj 161 168 s \$0.fadeout.r;
#X msg 238 147 set \$1;
#X msg 90 148 set \$1;
#X obj 502 100 t b a;
#X obj 566 100 t b a;
#X obj 470 133 min;
#X obj 566 136 min;
#X obj 452 214 f;
#X msg 452 304 fadeinnow \$1;
#X obj 548 200 -;
#X obj 548 256 delay;
#X obj 548 278 f;
#X msg 548 304 fadeoutnow \$1;
#X obj 566 158 t a a;
#X obj 548 223 * 1000;
#X obj 438 60 route segment fadein fadeout;
#X obj 659 183 route ctlstop;
#X msg 659 207 stop;
#X obj 438 101 * 0.5;
#X obj 529 173 f;
#X obj 320 59 route prlfadin;
#X obj 320 100 t b b;
#X obj 24 255 loadbang;
#X msg 24 286 fadein 0 \, fadeout 0;
#X obj 24 308 s \$0.MTX;
#X obj 116 242 r \$0.MTX;
#X obj 116 264 route reset;
#X obj 320 37 r \$0.MTX;
#X obj 438 38 r \$0.MTX;
#X obj 659 161 r \$0.MTX;
#X obj 452 350 s \$0.MTX;
#X connect 0 0 1 0;
#X connect 1 0 7 0;
#X connect 2 0 3 0;
#X connect 4 0 5 0;
#X connect 5 0 0 0;
#X connect 5 0 17 0;
#X connect 6 0 2 0;
#X connect 8 0 9 0;
#X connect 9 0 15 0;
#X connect 11 0 14 0;
#X connect 12 0 13 0;
#X connect 13 0 10 0;
#X connect 14 0 8 0;
#X connect 14 0 16 0;
#X connect 16 0 15 0;
#X connect 17 0 7 0;
#X connect 18 0 20 0;
#X connect 18 1 20 1;
#X connect 19 0 21 0;
#X connect 19 1 21 1;
#X connect 20 0 22 1;
#X connect 21 0 28 0;
#X connect 22 0 23 0;
#X connect 23 0 45 0;
#X connect 24 0 29 0;
#X connect 25 0 26 0;
#X connect 26 0 27 0;
#X connect 27 0 45 0;
#X connect 28 0 24 1;
#X connect 28 1 26 1;
#X connect 29 0 25 0;
#X connect 30 0 33 0;
#X connect 30 0 34 1;
#X connect 30 1 18 0;
#X connect 30 2 19 0;
#X connect 31 0 32 0;
#X connect 32 0 25 0;
#X connect 33 0 20 0;
#X connect 33 0 21 0;
#X connect 34 0 24 0;
#X connect 35 0 36 0;
#X connect 36 0 22 0;
#X connect 36 1 34 0;
#X connect 37 0 38 0;
#X connect 38 0 39 0;
#X connect 40 0 41 0;
#X connect 41 0 38 0;
#X connect 42 0 35 0;
#X connect 43 0 30 0;
#X connect 44 0 31 0;
#X restore 200 13 pd fadein.fadeout;
#N canvas 411 279 375 151 stderr.stuff 0;
#X obj 27 21 r \$0.MTX;
#X obj 27 43 route INFO;
#X obj 27 65 list prepend INFO;
#X obj 27 87 list trim;
#X obj 27 109 s \$1.MTX;
#X obj 183 25 r \$0.MTX;
#X obj 183 91 list trim;
#X obj 183 113 s \$1.MTX;
#X obj 183 69 list prepend ERROR;
#X obj 183 47 route ERROR;
#X connect 0 0 1 0;
#X connect 1 0 2 0;
#X connect 2 0 3 0;
#X connect 3 0 4 0;
#X connect 5 0 9 0;
#X connect 6 0 7 0;
#X connect 8 0 6 0;
#X connect 9 0 8 0;
#X restore 219 161 pd stderr.stuff;
#N canvas 192 128 453 358 description 0;
#X obj 11 329 s \$0.front.label.r;
#X obj 11 15 loadbang;
#X msg 11 303 label \$1;
#X obj 11 282 makefilename %d;
#X obj 11 260 route float;
#X obj 11 115 list append \$2;
#X obj 153 147 makefilename %c;
#X obj 153 173 list prepend \$2;
#X obj 153 195 list append;
#X msg 153 123 32;
#X obj 153 103 t b a;
#X msg 153 216 symbol \$1\$2-\$2\$3;
#X obj 296 172 s \$0.description.r;
#X obj 295 11 r \$0.description.s;
#X msg 296 151 set \$1;
#X obj 79 14 r \$0.MTX;
#X obj 79 36 route description;
#X obj 153 82 list;
#X obj 296 86 r \$0.MTX;
#X obj 296 108 route description;
#X msg 295 33 description \$1;
#X obj 295 55 s \$0.MTX;
#X obj 296 130 list;
#X obj 79 58 route empty;
#X obj 79 82 b;
#X obj 306 228 r \$0.MTX;
#X obj 306 250 route reset;
#X msg 306 272 description empty;
#X obj 306 294 s \$0.MTX;
#X connect 1 0 5 0;
#X connect 2 0 0 0;
#X connect 3 0 2 0;
#X connect 4 0 3 0;
#X connect 4 1 2 0;
#X connect 5 0 4 0;
#X connect 6 0 7 0;
#X connect 7 0 8 0;
#X connect 8 0 11 0;
#X connect 9 0 6 0;
#X connect 10 0 9 0;
#X connect 10 1 8 1;
#X connect 11 0 4 0;
#X connect 13 0 20 0;
#X connect 14 0 12 0;
#X connect 15 0 16 0;
#X connect 16 0 23 0;
#X connect 17 0 10 0;
#X connect 18 0 19 0;
#X connect 19 0 22 0;
#X connect 20 0 21 0;
#X connect 22 0 14 0;
#X connect 23 0 24 0;
#X connect 23 1 17 0;
#X connect 24 0 5 0;
#X connect 25 0 26 0;
#X connect 26 0 27 0;
#X connect 27 0 28 0;
#X restore 220 129 pd description;
#X connect 3 0 5 0;
#X connect 5 0 4 0;
#X restore 26 130 pd gui.guts;
#N canvas 512 251 276 367 signal.guts 0;
#X obj 20 19 catch~ \$0.dummy;
#N canvas 0 0 344 540 duration 0;
#X obj 18 19 r \$0.MTX;
#X obj 18 66 list split 2;
#X msg 18 92 \$2 \$1;
#X obj 18 117 list append;
#X obj 18 139 list trim;
#X obj 18 162 route length;
#X obj 41 252 tabwrite \$0.durations;
#X msg 73 222 \$1;
#X msg 41 221 \$2;
#X obj 176 145 list append 0;
#X obj 103 19 table \$0.durations 25;
#X obj 109 119 route bang;
#X obj 18 197 t b a a;
#X msg 110 414 0;
#X obj 41 440 tabread \$0.durations;
#X obj 41 473 max;
#X obj 73 473 t a;
#X obj 18 498 f;
#X obj 18 519 outlet;
#X obj 18 42 route status setclear;
#N canvas 365 152 124 205 seq24 0;
#X obj 9 13 inlet;
#X obj 9 35 t b b;
#X msg 9 57 24;
#X obj 9 79 until;
#X obj 9 101 f;
#X obj 9 123 + 1;
#X obj 9 145 t a a;
#X msg 47 55 0;
#X obj 41 166 outlet;
#X connect 0 0 1 0;
#X connect 1 0 2 0;
#X connect 1 1 7 0;
#X connect 2 0 3 0;
#X connect 3 0 4 0;
#X connect 4 0 5 0;
#X connect 5 0 6 0;
#X connect 6 0 4 1;
#X connect 6 1 8 0;
#X connect 7 0 4 1;
#X restore 41 412 pd seq24;
#X obj 18 387 t b b b;
#X obj 18 333 route doneloading;
#X obj 176 166 t b a;
#X obj 18 312 r \$0.MTX;
#X obj 176 194 del 0;
#X obj 18 356 route 1;
#X connect 0 0 19 0;
#X connect 1 0 2 0;
#X connect 1 1 3 1;
#X connect 2 0 3 0;
#X connect 3 0 4 0;
#X connect 4 0 5 0;
#X connect 5 0 12 0;
#X connect 7 0 6 1;
#X connect 8 0 6 0;
#X connect 9 0 23 0;
#X connect 11 1 9 0;
#X connect 12 1 8 0;
#X connect 12 2 7 0;
#X connect 13 0 15 1;
#X connect 14 0 15 0;
#X connect 15 0 16 0;
#X connect 15 0 17 1;
#X connect 16 0 15 1;
#X connect 17 0 18 0;
#X connect 19 0 1 0;
#X connect 19 1 11 0;
#X connect 20 0 14 0;
#X connect 21 0 17 0;
#X connect 21 1 20 0;
#X connect 21 2 13 0;
#X connect 22 0 26 0;
#X connect 23 0 25 0;
#X connect 23 1 12 0;
#X connect 24 0 22 0;
#X connect 25 0 21 0;
#X connect 26 0 21 0;
#X restore 21 48 pd duration;
#X obj 21 93 s \$0.MTX;
#X msg 21 70 duration \$1;
#N canvas 649 82 634 651 matrix.mixer 0;
#X obj 66 31 catch~ \$0.1.ROUTER;
#X obj 83 52 catch~ \$0.2.ROUTER;
#X obj 100 73 catch~ \$0.3.ROUTER;
#X obj 116 94 catch~ \$0.4.ROUTER;
#X obj 133 115 catch~ \$0.5.ROUTER;
#X obj 150 135 catch~ \$0.6.ROUTER;
#X obj 166 157 catch~ \$0.7.ROUTER;
#X obj 183 178 catch~ \$0.8.ROUTER;
#X obj 200 201 catch~ \$0.9.ROUTER;
#X obj 216 221 catch~ \$0.10.ROUTER;
#X obj 233 243 catch~ \$0.11.ROUTER;
#X obj 250 265 catch~ \$0.12.ROUTER;
#X obj 265 30 catch~ \$0.13.ROUTER;
#X obj 282 51 catch~ \$0.14.ROUTER;
#X obj 299 72 catch~ \$0.15.ROUTER;
#X obj 315 93 catch~ \$0.16.ROUTER;
#X obj 333 114 catch~ \$0.17.ROUTER;
#X obj 350 134 catch~ \$0.18.ROUTER;
#X obj 366 156 catch~ \$0.19.ROUTER;
#X obj 383 177 catch~ \$0.20.ROUTER;
#X obj 400 200 catch~ \$0.21.ROUTER;
#X obj 416 220 catch~ \$0.22.ROUTER;
#X obj 433 242 catch~ \$0.23.ROUTER;
#X obj 450 264 catch~ \$0.24.ROUTER;
#X obj 51 594 throw~ \$1.1.MASTER;
#X obj 69 570 throw~ \$1.2.MASTER;
#X obj 87 548 throw~ \$1.3.MASTER;
#X obj 105 527 throw~ \$1.4.MASTER;
#X obj 123 507 throw~ \$1.5.MASTER;
#X obj 141 486 throw~ \$1.6.MASTER;
#X obj 159 464 throw~ \$1.7.MASTER;
#X obj 177 443 throw~ \$1.8.MASTER;
#X obj 196 421 throw~ \$1.9.MASTER;
#X obj 214 400 throw~ \$1.10.MASTER;
#X obj 232 378 throw~ \$1.11.MASTER;
#X obj 250 357 throw~ \$1.12.MASTER;
#X obj 268 594 throw~ \$1.13.MASTER;
#X obj 286 570 throw~ \$1.14.MASTER;
#X obj 304 548 throw~ \$1.15.MASTER;
#X obj 322 527 throw~ \$1.16.MASTER;
#X obj 341 507 throw~ \$1.17.MASTER;
#X obj 359 486 throw~ \$1.18.MASTER;
#X obj 377 464 throw~ \$1.19.MASTER;
#X obj 395 443 throw~ \$1.20.MASTER;
#X obj 413 421 throw~ \$1.21.MASTER;
#X obj 431 400 throw~ \$1.22.MASTER;
#X obj 449 378 throw~ \$1.23.MASTER;
#X obj 468 357 throw~ \$1.24.MASTER;
#X obj 50 209 r \$0.MTX;
#X obj 50 231 route matrix~;
#X obj 467 285 r \$0.MTX;
#X obj 467 307 route mtxfadetime;
#X obj 50 329 mtx_mul~ 24 24 100 . . . . . . . . . . . . . . . . .
. . . .;
#X connect 0 0 52 1;
#X connect 1 0 52 2;
#X connect 2 0 52 3;
#X connect 3 0 52 4;
#X connect 4 0 52 5;
#X connect 5 0 52 6;
#X connect 6 0 52 7;
#X connect 7 0 52 8;
#X connect 8 0 52 9;
#X connect 9 0 52 10;
#X connect 10 0 52 11;
#X connect 11 0 52 12;
#X connect 12 0 52 13;
#X connect 13 0 52 14;
#X connect 14 0 52 15;
#X connect 15 0 52 16;
#X connect 16 0 52 17;
#X connect 17 0 52 18;
#X connect 18 0 52 19;
#X connect 19 0 52 20;
#X connect 20 0 52 21;
#X connect 21 0 52 22;
#X connect 22 0 52 23;
#X connect 23 0 52 24;
#X connect 48 0 49 0;
#X connect 49 0 52 0;
#X connect 50 0 51 0;
#X connect 51 0 52 25;
#X connect 52 0 24 0;
#X connect 52 1 25 0;
#X connect 52 2 26 0;
#X connect 52 3 27 0;
#X connect 52 4 28 0;
#X connect 52 5 29 0;
#X connect 52 6 30 0;
#X connect 52 7 31 0;
#X connect 52 8 32 0;
#X connect 52 9 33 0;
#X connect 52 10 34 0;
#X connect 52 11 35 0;
#X connect 52 12 36 0;
#X connect 52 13 37 0;
#X connect 52 14 38 0;
#X connect 52 15 39 0;
#X connect 52 16 40 0;
#X connect 52 17 41 0;
#X connect 52 18 42 0;
#X connect 52 19 43 0;
#X connect 52 20 44 0;
#X connect 52 21 45 0;
#X connect 52 22 46 0;
#X connect 52 23 47 0;
#X restore 17 296 pd matrix.mixer;
#N canvas 335 155 972 702 matrix.manager 0;
#X obj 10 9 r \$0.MTX;
#X obj 10 31 route route;
#X obj 10 312 matrix;
#X obj 49 289 matrix;
#X obj 10 76 t b a;
#X msg 49 269 zeros 24;
#X obj 10 505 s \$0.MTX;
#X obj 10 459 list prepend matrix~;
#X obj 10 484 list trim;
#X obj 49 246 loadbang;
#X msg 10 53 element \$2 \$1 \$3;
#X obj 150 10 r \$0.MTX;
#X obj 150 32 route submixlevel;
#X msg 150 55 row \$1 \$2 \$2 \$2 \$2 \$2 \$2 \$2 \$2 \$2 \$2 \$2 \$2
\$2 \$2 \$2 \$2 \$2 \$2 \$2 \$2 \$2 \$2 \$2 \$2;
#X obj 150 90 t b b a;
#X msg 308 147 row \$1 \$2 \$2 \$2 \$2 \$2 \$2 \$2 \$2 \$2 \$2 \$2
\$2 \$2 \$2 \$2 \$2 \$2 \$2 \$2 \$2 \$2 \$2 \$2 \$2;
#X obj 308 182 t b b a;
#X obj 308 124 route mastermixlevel;
#X obj 308 102 r \$1.MTX;
#N canvas 0 0 230 264 slowing.down 0;
#X obj 25 119 f;
#X obj 25 166 sel 1;
#X obj 25 44 t b b;
#X obj 25 142 spigot 1;
#X obj 25 191 t b b b;
#X msg 144 165 0;
#X msg 57 81 1;
#X msg 146 120 1;
#X obj 114 93 t b b;
#X obj 114 71 del 200;
#X obj 25 21 inlet;
#X obj 25 216 outlet;
#X connect 0 0 3 0;
#X connect 1 0 4 0;
#X connect 2 0 0 0;
#X connect 2 1 6 0;
#X connect 3 0 1 0;
#X connect 4 0 11 0;
#X connect 4 1 9 0;
#X connect 4 2 5 0;
#X connect 5 0 3 1;
#X connect 5 0 0 1;
#X connect 6 0 0 1;
#X connect 7 0 3 1;
#X connect 8 0 0 0;
#X connect 8 1 7 0;
#X connect 9 0 8 0;
#X connect 10 0 2 0;
#X restore 10 206 pd slowing.down;
#X obj 10 162 t b;
#X obj 173 155 matrix 24 24;
#X obj 331 249 matrix 24 24;
#X obj 418 559 t b a;
#X obj 395 451 s \$0.MTX;
#X msg 395 360 0;
#X obj 395 382 t b a b;
#X msg 441 407 0;
#X msg 395 407 100;
#X msg 395 430 mtxfadetime \$1;
#X obj 506 232 r \$0.MTX;
#X obj 506 261 route fadeinnow fadeoutnow;
#X obj 506 327 t a b;
#X msg 506 361 0 \, 1 \$1;
#X obj 506 400 line 0 100;
#X msg 595 373 0 \$1;
#X obj 506 296 * 1000;
#X obj 595 326 * 1000;
#X obj 754 529 s \$0.MTX;
#X msg 774 463 0;
#X msg 754 508 mtxfadetime \$1;
#X obj 507 463 f;
#X obj 507 433 spigot 1;
#X obj 714 440 t b b b b;
#X msg 734 554 0;
#X obj 824 287 t b b;
#X obj 824 386 t b b;
#X msg 856 408 100;
#X msg 824 415 1;
#X text 425 208 === FADING IN / OUT ===;
#X obj 714 210 r \$0.MTX;
#X obj 714 314 f;
#X obj 714 286 b;
#X obj 769 284 * 1000;
#X msg 754 485 30;
#X obj 824 365 del 30;
#X obj 507 487 t a a;
#X obj 507 509 *;
#X obj 769 307 - 30;
#X obj 714 374 delay;
#X obj 714 232 route start segment stop stopall;
#X msg 911 324 stop;
#X text 679 181 === AVOID CLICKS ON LOOP BOUNDARIES ===;
#X obj 879 300 t b b;
#X obj 714 349 t a a;
#X obj 639 358 delay;
#X msg 639 381 stop;
#X obj 74 343 mtx_mul;
#X obj 10 371 mtx_.*;
#X obj 10 341 mtx_.*;
#X obj 10 405 mtx_.* 1;
#X text 130 341 <-to make it load on pd-extended;
#X obj 595 305 max 0;
#X obj 595 283 - 0.1;
#X connect 0 0 1 0;
#X connect 1 0 10 0;
#X connect 2 0 69 0;
#X connect 3 0 2 1;
#X connect 4 0 20 0;
#X connect 4 1 2 0;
#X connect 5 0 3 0;
#X connect 7 0 8 0;
#X connect 8 0 6 0;
#X connect 9 0 5 0;
#X connect 10 0 4 0;
#X connect 11 0 12 0;
#X connect 12 0 13 0;
#X connect 13 0 14 0;
#X connect 14 0 20 0;
#X connect 14 1 21 0;
#X connect 14 2 21 0;
#X connect 15 0 16 0;
#X connect 16 0 20 0;
#X connect 16 1 22 0;
#X connect 16 2 22 0;
#X connect 17 0 15 0;
#X connect 18 0 17 0;
#X connect 19 0 2 0;
#X connect 20 0 19 0;
#X connect 21 0 69 1;
#X connect 22 0 68 1;
#X connect 23 0 2 0;
#X connect 23 1 70 1;
#X connect 25 0 26 0;
#X connect 26 0 28 0;
#X connect 26 1 23 0;
#X connect 26 2 27 0;
#X connect 27 0 29 0;
#X connect 28 0 29 0;
#X connect 29 0 24 0;
#X connect 30 0 31 0;
#X connect 31 0 36 0;
#X connect 31 1 73 0;
#X connect 32 0 33 0;
#X connect 32 1 25 0;
#X connect 33 0 34 0;
#X connect 34 0 42 0;
#X connect 35 0 34 0;
#X connect 36 0 32 0;
#X connect 37 0 35 0;
#X connect 37 0 65 0;
#X connect 39 0 42 1;
#X connect 40 0 38 0;
#X connect 41 0 56 0;
#X connect 42 0 41 0;
#X connect 43 1 44 0;
#X connect 43 2 54 0;
#X connect 43 3 39 0;
#X connect 44 0 23 0;
#X connect 45 0 55 0;
#X connect 45 1 41 0;
#X connect 46 0 48 0;
#X connect 46 1 47 0;
#X connect 47 0 40 0;
#X connect 48 0 42 1;
#X connect 50 0 60 0;
#X connect 51 0 64 0;
#X connect 52 0 51 0;
#X connect 53 0 58 0;
#X connect 54 0 40 0;
#X connect 55 0 46 0;
#X connect 56 0 57 0;
#X connect 56 1 57 1;
#X connect 57 0 23 0;
#X connect 58 0 51 1;
#X connect 59 0 43 0;
#X connect 60 0 52 0;
#X connect 60 1 53 0;
#X connect 60 2 45 0;
#X connect 60 3 63 0;
#X connect 61 0 55 0;
#X connect 61 0 59 0;
#X connect 61 0 65 0;
#X connect 63 0 48 0;
#X connect 63 1 61 0;
#X connect 64 0 59 0;
#X connect 65 0 66 0;
#X connect 66 0 59 0;
#X connect 68 0 70 0;
#X connect 69 0 68 0;
#X connect 70 0 7 0;
#X connect 72 0 37 0;
#X connect 73 0 72 0;
#X restore 17 318 pd matrix.manager;
#N canvas 0 0 317 621 ready 0;
#X obj 18 19 r \$0.MTX;
#X obj 18 66 list split 2;
#X msg 18 92 \$2 \$1;
#X obj 18 117 list append;
#X obj 18 139 list trim;
#X obj 18 162 route ready;
#X obj 18 42 route status;
#X obj 172 16 table \$0.loading 25;
#X obj 41 228 sel 0 1;
#X msg 41 250 1;
#X msg 64 250 0;
#X obj 41 277 tabwrite \$0.loading;
#X msg 41 204 \$2;
#X msg 171 216 \$1;
#X obj 18 183 t a a a;
#X msg 18 298 \$2;
#X obj 18 319 sel 1;
#X obj 18 339 del 50;
#X msg 110 390 0;
#X obj 18 483 f;
#X obj 18 531 outlet;
#N canvas 365 152 124 205 seq24 0;
#X obj 9 13 inlet;
#X obj 9 35 t b b;
#X msg 9 57 24;
#X obj 9 79 until;
#X obj 9 101 f;
#X obj 9 123 + 1;
#X obj 9 145 t a a;
#X msg 47 55 0;
#X obj 41 166 outlet;
#X connect 0 0 1 0;
#X connect 1 0 2 0;
#X connect 1 1 7 0;
#X connect 2 0 3 0;
#X connect 3 0 4 0;
#X connect 4 0 5 0;
#X connect 5 0 6 0;
#X connect 6 0 4 1;
#X connect 6 1 8 0;
#X connect 7 0 4 1;
#X restore 41 388 pd seq24;
#X obj 18 363 t b b b;
#X obj 41 416 tabread \$0.loading;
#X obj 41 438 sel 1;
#X msg 41 459 1;
#X obj 18 505 sel 0;
#X connect 0 0 6 0;
#X connect 1 0 2 0;
#X connect 1 1 3 1;
#X connect 2 0 3 0;
#X connect 3 0 4 0;
#X connect 4 0 5 0;
#X connect 5 0 14 0;
#X connect 6 0 1 0;
#X connect 8 0 9 0;
#X connect 8 1 10 0;
#X connect 9 0 11 0;
#X connect 10 0 11 0;
#X connect 12 0 8 0;
#X connect 13 0 11 1;
#X connect 14 0 15 0;
#X connect 14 1 12 0;
#X connect 14 2 13 0;
#X connect 15 0 16 0;
#X connect 16 0 17 0;
#X connect 17 0 22 0;
#X connect 18 0 19 1;
#X connect 19 0 26 0;
#X connect 21 0 23 0;
#X connect 22 0 19 0;
#X connect 22 1 21 0;
#X connect 22 2 18 0;
#X connect 23 0 24 0;
#X connect 24 0 25 0;
#X connect 25 0 19 1;
#X connect 26 0 20 0;
#X restore 25 136 pd ready;
#X obj 25 206 s \$0.MTX;
#X msg 25 183 doneloading \$1;
#X msg 25 158 1 \, 2 \, 3;
#X text 83 159 <- execution ordering;
#N canvas 913 193 272 270 get.soundfiles.path 0;
#X obj 84 181 list;
#X obj 10 205 list append;
#X obj 84 137 r \$1.MTX;
#X obj 84 159 route soundfiles.path;
#X obj 10 45 route get.soundfiles.path;
#X obj 10 23 r \$0.MTX;
#X obj 10 249 s \$0.MTX;
#X msg 84 94 get.soundfiles.path;
#X obj 84 115 s \$1.MTX;
#X obj 10 67 t b b;
#X msg 10 227 soundfiles.path \$1;
#X connect 0 0 1 1;
#X connect 1 0 10 0;
#X connect 2 0 3 0;
#X connect 3 0 0 0;
#X connect 4 0 9 0;
#X connect 5 0 4 0;
#X connect 7 0 8 0;
#X connect 9 0 1 0;
#X connect 9 1 7 0;
#X connect 10 0 6 0;
#X restore 21 249 pd get.soundfiles.path;
#X connect 1 0 3 0;
#X connect 3 0 2 0;
#X connect 6 0 9 0;
#X connect 8 0 7 0;
#X connect 9 0 8 0;
#X restore 26 153 pd signal.guts;
#X obj 26 245 external.control \$0 \$1 \$2;
#X obj 313 123 r \$0.MTX;
#X obj 313 145 route start stop;
#X msg 313 167 1;
#X obj 313 189 switch~;
#X msg 367 167 0;
#X obj 223 58 hsl 44 15 0 10 0 0 \$0.fadeout.s \$0.fadeout.r 0.0s 4
8 0 10 -262144 -166441 -1 0 1;
#X obj 223 35 hsl 44 15 0 10 0 0 \$0.fadein.s \$0.fadein.r 0.0s 4 8
0 10 -262144 -166441 -1 0 1;
#X obj 26 222 parent.comm \$0 \$1 \$2 3;
#X text 281 262 Roman Haefeli \, 2010;
#X connect 0 0 1 0;
#X connect 1 0 2 0;
#X connect 3 0 1 1;
#X connect 16 0 15 0;
#X connect 21 0 22 0;
#X connect 22 0 23 0;
#X connect 22 1 25 0;
#X connect 23 0 24 0;
#X connect 25 0 24 0;
#X coords 0 -1 1 1 254 73 1 20 20;
