#N canvas 962 44 334 513 10;
#X obj 88 203 pack f f;
#X msg 88 225 \$2 \$1;
#X obj 88 247 -;
#X obj 88 322 div 7;
#X obj 88 344 + 1;
#X obj 130 109 mod 7;
#X obj 130 130 + 1;
#X obj 130 88 - 1;
#X obj 115 155 -;
#X obj 88 129 t a a;
#X obj 88 178 -;
#X obj 88 299 + 1;
#X obj 146 217 * 7;
#X obj 88 269 -;
#X obj 146 195 > 3;
#X obj 88 402 mod 53;
#X obj 88 381 - 1;
#X obj 88 424 + 1;
#X text 111 68 < day of year;
#X text 11 73 day of week >;
#X text 159 442 ISO week of year;
#X obj 40 50 date . . . . .;
#X text 88 27 get current ISO week number;
#X obj 40 15 inlet;
#X obj 88 446 outlet;
#X connect 0 0 1 0;
#X connect 1 0 2 0;
#X connect 2 0 13 0;
#X connect 3 0 4 0;
#X connect 4 0 16 0;
#X connect 5 0 6 0;
#X connect 6 0 8 1;
#X connect 7 0 5 0;
#X connect 8 0 10 1;
#X connect 8 0 14 0;
#X connect 9 0 10 0;
#X connect 9 1 8 0;
#X connect 10 0 0 0;
#X connect 11 0 3 0;
#X connect 12 0 13 1;
#X connect 13 0 11 0;
#X connect 14 0 12 0;
#X connect 15 0 17 0;
#X connect 16 0 15 0;
#X connect 17 0 24 0;
#X connect 21 3 9 0;
#X connect 21 4 0 1;
#X connect 21 4 7 0;
#X connect 23 0 21 0;
