#N canvas 0 23 436 763 10;
#X obj 11 6 inlet;
#N canvas 225 107 159 137 imply_0 0;
#X obj 12 32 list split 2;
#X msg 93 54 \$1 0;
#X obj 12 78 t a;
#X obj 12 10 inlet;
#X obj 12 99 outlet;
#X connect 0 0 2 0;
#X connect 0 2 1 0;
#X connect 1 0 2 0;
#X connect 2 0 4 0;
#X connect 3 0 0 0;
#X restore 11 28 pd imply_0;
#X obj 11 514 timer;
#X obj 11 490 t b a;
#X obj 11 537 list append;
#X msg 11 588 \$2;
#X msg 44 588 \$3;
#X msg 76 588 \$1;
#X obj 44 610 -;
#X obj 44 632 max 0;
#X obj 11 653 pack f f;
#X obj 58 490 inlet;
#X obj 11 559 t a a a a;
#X obj 122 122 r \$0.last.value;
#X obj 34 145 list append 0;
#X obj 34 167 t a b b;
#X obj 57 190 timer;
#X obj 34 215 list append;
#X msg 131 278 \$1;
#X msg 161 278 \$3;
#X obj 131 301 -;
#X msg 34 345 \$4;
#X msg 52 283 \$2;
#X obj 34 366 /;
#X obj 34 407 *;
#X obj 34 429 +;
#X msg 206 278 \$3;
#X obj 34 451 s \$0.last.value;
#X obj 34 237 t a a a a a;
#X obj 52 262 t a a;
#X obj 52 305 sel 0;
#X obj 52 325 f;
#X msg 83 284 \$4;
#X obj 34 102 list append 0 0;
#X obj 34 387 min 1;
#X obj 11 675 outlet;
#X obj 11 55 t a a b a;
#X obj 296 112 t a a;
#X msg 296 136 \$2;
#X msg 328 136 \$1;
#X obj 296 161 delay;
#X obj 296 186 f;
#X obj 296 254 s \$0.last.value;
#X obj 277 552 -;
#X obj 180 617 /;
#X obj 180 658 *;
#X obj 180 680 +;
#X obj 180 488 t a a a a a;
#X obj 198 513 t a a;
#X obj 198 556 sel 0;
#X obj 198 576 f;
#X obj 180 638 min 1;
#X obj 180 466 list append 0;
#X obj 255 440 r \$0.last.value;
#X obj 180 702 outlet;
#X text 225 705 current value;
#X msg 198 534 \$3;
#X msg 229 535 \$1;
#X msg 180 596 \$1;
#X msg 277 529 \$2;
#X msg 307 529 \$4;
#X msg 343 529 \$4;
#X obj 296 208 t a a;
#X obj 323 230 outlet;
#X text 370 231 finished;
#X connect 0 0 1 0;
#X connect 1 0 36 0;
#X connect 2 0 4 0;
#X connect 3 0 2 0;
#X connect 3 1 4 1;
#X connect 4 0 12 0;
#X connect 5 0 10 0;
#X connect 6 0 8 0;
#X connect 7 0 8 1;
#X connect 8 0 9 0;
#X connect 9 0 10 1;
#X connect 10 0 35 0;
#X connect 11 0 2 1;
#X connect 12 0 5 0;
#X connect 12 1 6 0;
#X connect 12 2 7 0;
#X connect 12 3 52 0;
#X connect 13 0 14 1;
#X connect 14 0 15 0;
#X connect 15 0 17 0;
#X connect 15 1 16 0;
#X connect 15 2 16 1;
#X connect 16 0 17 1;
#X connect 17 0 28 0;
#X connect 18 0 20 0;
#X connect 19 0 20 1;
#X connect 20 0 24 1;
#X connect 21 0 23 0;
#X connect 22 0 30 0;
#X connect 23 0 34 0;
#X connect 24 0 25 0;
#X connect 25 0 27 0;
#X connect 26 0 25 1;
#X connect 28 0 21 0;
#X connect 28 1 29 0;
#X connect 28 2 18 0;
#X connect 28 3 19 0;
#X connect 28 4 26 0;
#X connect 29 0 22 0;
#X connect 29 1 32 0;
#X connect 30 0 31 0;
#X connect 30 1 23 1;
#X connect 31 0 23 1;
#X connect 32 0 31 1;
#X connect 33 0 14 0;
#X connect 34 0 24 0;
#X connect 36 0 3 0;
#X connect 36 1 33 1;
#X connect 36 2 33 0;
#X connect 36 3 37 0;
#X connect 37 0 38 0;
#X connect 37 1 39 0;
#X connect 38 0 40 0;
#X connect 39 0 41 1;
#X connect 40 0 41 0;
#X connect 41 0 62 0;
#X connect 43 0 45 1;
#X connect 44 0 51 0;
#X connect 45 0 46 0;
#X connect 46 0 54 0;
#X connect 47 0 58 0;
#X connect 47 1 48 0;
#X connect 47 2 59 0;
#X connect 47 3 60 0;
#X connect 47 4 61 0;
#X connect 48 0 56 0;
#X connect 48 1 57 0;
#X connect 49 0 50 0;
#X connect 49 1 44 1;
#X connect 50 0 44 1;
#X connect 51 0 45 0;
#X connect 52 0 47 0;
#X connect 53 0 52 1;
#X connect 56 0 49 0;
#X connect 57 0 50 1;
#X connect 58 0 44 0;
#X connect 59 0 43 0;
#X connect 60 0 43 1;
#X connect 61 0 46 1;
#X connect 62 0 42 0;
#X connect 62 1 63 0;
