#N canvas 156 219 362 268 10;
#X declare -stdpath extra/iemguts;
#X obj 20 52 vsl 80 9 0 2 0 0 \$0.inst.id.s \$0.inst.id.r empty 7 5
0 10 -195568 -195568 -33289 400 1;
#N canvas 657 18 580 773 selector.code 0;
#X obj 14 10 loadbang;
#X obj 15 143 t b b;
#X obj 59 143 t b b;
#X obj 15 178 f;
#X obj 15 199 - 1;
#X obj 59 179 f;
#X obj 59 200 + 1;
#X obj 15 540 s \$0.MTX;
#X msg 15 513 setinstid \$1;
#X obj 135 215 s \$0.inst.id.r;
#X obj 14 54 s \$0.inst.id.r;
#X obj 15 81 r \$0.inst.id.s;
#X obj 103 172 t b b;
#X obj 103 358 list length;
#X msg 15 449 \$1;
#X msg 38 422 set \, adddollar \$1;
#X obj 15 470 list;
#X obj 15 397 list append;
#X obj 15 492 t a a;
#X obj 16 570 r \$0.MTX;
#X obj 16 592 route setinstid;
#X msg 14 32 set 1;
#X msg 135 193 set 1;
#X msg 16 682 label \$1;
#X obj 16 704 s \$0.inst.id.r;
#X obj 16 660 makefilename %d;
#X obj 16 638 route float;
#X obj 16 616 list;
#X obj 15 228 min;
#X obj 15 250 max 1;
#N canvas 392 0 976 753 side.labels 0;
#X msg 13 583 label \$1;
#X obj 13 726 s \$0.up.1.r;
#X obj 13 15 inlet;
#X obj 344 22 inlet;
#X msg 13 492 \$1;
#X msg 45 466 set \, adddollar \$1;
#X obj 13 513 list;
#X obj 13 419 t b a;
#X obj 13 440 list append;
#X obj 13 370 moses 1;
#X obj 344 44 t a a;
#X obj 376 65 list length;
#X obj 376 87 + 1;
#X obj 59 392 moses;
#X msg 60 512 symbol empty;
#X msg 199 495 \$1;
#X msg 231 469 set \, adddollar \$1;
#X obj 199 516 list;
#X obj 199 422 t b a;
#X obj 199 443 list append;
#X obj 199 373 moses 1;
#X obj 245 395 moses;
#X msg 246 515 symbol empty;
#X obj 199 719 s \$0.up.2.r;
#X msg 523 505 \$2;
#X msg 555 479 set \, adddollar \$1;
#X obj 523 526 list;
#X obj 523 432 t b a;
#X obj 523 453 list append;
#X obj 523 383 moses 1;
#X obj 569 405 moses;
#X msg 570 525 symbol empty;
#X msg 709 508 \$3;
#X msg 741 482 set \, adddollar \$1;
#X obj 709 529 list;
#X obj 709 435 t b a;
#X obj 709 456 list append;
#X obj 709 386 moses 1;
#X obj 755 408 moses;
#X msg 756 528 symbol empty;
#X obj 523 729 s \$0.down.1.r;
#X obj 709 732 s \$0.down.2.r;
#X obj 81 62 del 600;
#X obj 103 616 t a a a a;
#X msg 80 663 35;
#X msg 270 657 20;
#X msg 580 669 65;
#X msg 772 676 80;
#X obj 13 37 t a a a a b b b;
#X obj 543 205 s \$0.list.sel;
#X obj 543 47 f \$0;
#X obj 543 144 list;
#X obj 113 260 s \$0.delete;
#X msg 116 92 1;
#X msg 81 90 0;
#X obj 81 121 change;
#X obj 81 143 sel 0 1;
#X obj 113 211 until;
#X obj 81 165 t b b;
#X msg 168 79 map 0 \, map 1;
#X msg 39 697 pos 20 \$1;
#X msg 229 691 pos 20 \$1;
#X msg 540 703 pos 20 \$1;
#X msg 731 710 pos 20 \$1;
#X msg 366 504 \$1;
#X msg 398 478 set \, adddollar \$1;
#X obj 366 525 list;
#X obj 366 431 t b a;
#X obj 366 452 list append;
#X obj 366 382 moses 1;
#X obj 412 404 moses;
#X msg 413 524 symbol empty;
#X msg 437 666 20;
#X msg 396 700 pos 20 \$1;
#X obj 366 728 s \$0.mid.r;
#X msg 543 124 \$1.up.1.r \, \$1.up.2.r \, \$1.down.1.r \, \$1.down.2.r
\, \$1.mid.r;
#X msg 543 166 obj 20 50 cnv 14 80 14 empty \$1 empty 7 7 0 10 -228856
-1 0 \;;
#X obj 497 301 s \$0.mid.r;
#X msg 497 280 color 20 -1;
#X obj 543 69 t a a;
#X msg 113 189 6;
#X obj 497 25 t b b b;
#X obj 520 255 s \$0.bg.r;
#X obj 13 343 - 1;
#X obj 199 341 - 2;
#X obj 523 356 + 1;
#X obj 709 354 + 2;
#X msg 520 234 pos 18 18;
#X msg 575 91 obj 20 50 cnv 14 84 78 empty \$1.bg.r empty 7 7 0 10
-1 -1 0 \;;
#X obj 13 560 makefilename %d;
#X obj 13 538 route float;
#X msg 199 586 label \$1;
#X obj 199 563 makefilename %d;
#X obj 199 541 route float;
#X msg 366 595 label \$1;
#X obj 366 572 makefilename %d;
#X obj 366 550 route float;
#X msg 523 600 label \$1;
#X obj 523 577 makefilename %d;
#X obj 523 555 route float;
#X msg 709 596 label \$1;
#X obj 709 573 makefilename %d;
#X obj 709 551 route float;
#X msg 113 232 delete 7;
#X obj 168 101 sendcanvas 4;
#X connect 0 0 1 0;
#X connect 2 0 48 0;
#X connect 3 0 10 0;
#X connect 4 0 6 0;
#X connect 5 0 4 0;
#X connect 6 0 90 0;
#X connect 7 0 8 0;
#X connect 7 1 5 0;
#X connect 8 0 4 0;
#X connect 9 0 14 0;
#X connect 9 1 13 0;
#X connect 10 0 8 1;
#X connect 10 0 19 1;
#X connect 10 0 28 1;
#X connect 10 0 36 1;
#X connect 10 0 68 1;
#X connect 10 1 11 0;
#X connect 11 0 12 0;
#X connect 12 0 13 1;
#X connect 12 0 21 1;
#X connect 12 0 30 1;
#X connect 12 0 38 1;
#X connect 12 0 70 1;
#X connect 13 0 7 0;
#X connect 13 1 14 0;
#X connect 14 0 90 0;
#X connect 15 0 17 0;
#X connect 16 0 15 0;
#X connect 17 0 93 0;
#X connect 18 0 19 0;
#X connect 18 1 16 0;
#X connect 19 0 15 0;
#X connect 20 0 22 0;
#X connect 20 1 21 0;
#X connect 21 0 18 0;
#X connect 21 1 22 0;
#X connect 22 0 93 0;
#X connect 24 0 26 0;
#X connect 25 0 24 0;
#X connect 26 0 99 0;
#X connect 27 0 28 0;
#X connect 27 1 25 0;
#X connect 28 0 24 0;
#X connect 29 0 31 0;
#X connect 29 1 30 0;
#X connect 30 0 27 0;
#X connect 30 1 31 0;
#X connect 31 0 99 0;
#X connect 32 0 34 0;
#X connect 33 0 32 0;
#X connect 34 0 102 0;
#X connect 35 0 36 0;
#X connect 35 1 33 0;
#X connect 36 0 32 0;
#X connect 37 0 39 0;
#X connect 37 1 38 0;
#X connect 38 0 35 0;
#X connect 38 1 39 0;
#X connect 39 0 102 0;
#X connect 42 0 54 0;
#X connect 43 0 44 0;
#X connect 43 1 45 0;
#X connect 43 2 46 0;
#X connect 43 3 47 0;
#X connect 44 0 60 0;
#X connect 45 0 61 0;
#X connect 46 0 62 0;
#X connect 47 0 63 0;
#X connect 48 0 83 0;
#X connect 48 1 69 0;
#X connect 48 1 84 0;
#X connect 48 2 85 0;
#X connect 48 3 86 0;
#X connect 48 4 42 0;
#X connect 48 5 43 0;
#X connect 48 6 53 0;
#X connect 50 0 79 0;
#X connect 51 0 76 0;
#X connect 53 0 55 0;
#X connect 54 0 55 0;
#X connect 55 0 56 0;
#X connect 56 0 58 0;
#X connect 56 1 81 0;
#X connect 57 0 103 0;
#X connect 58 0 59 0;
#X connect 58 1 80 0;
#X connect 59 0 104 0;
#X connect 60 0 1 0;
#X connect 61 0 23 0;
#X connect 62 0 40 0;
#X connect 63 0 41 0;
#X connect 64 0 66 0;
#X connect 65 0 64 0;
#X connect 66 0 96 0;
#X connect 67 0 68 0;
#X connect 67 1 65 0;
#X connect 68 0 64 0;
#X connect 69 0 71 0;
#X connect 69 1 70 0;
#X connect 70 0 67 0;
#X connect 70 1 71 0;
#X connect 71 0 96 0;
#X connect 72 0 73 0;
#X connect 73 0 74 0;
#X connect 75 0 51 0;
#X connect 76 0 49 0;
#X connect 78 0 77 0;
#X connect 79 0 75 0;
#X connect 79 1 88 0;
#X connect 80 0 57 0;
#X connect 81 0 78 0;
#X connect 81 1 87 0;
#X connect 81 2 50 0;
#X connect 83 0 9 0;
#X connect 84 0 20 0;
#X connect 85 0 29 0;
#X connect 86 0 37 0;
#X connect 87 0 82 0;
#X connect 88 0 49 0;
#X connect 89 0 0 0;
#X connect 90 0 89 0;
#X connect 90 1 0 0;
#X connect 91 0 23 0;
#X connect 92 0 91 0;
#X connect 93 0 92 0;
#X connect 93 1 91 0;
#X connect 94 0 74 0;
#X connect 95 0 94 0;
#X connect 96 0 95 0;
#X connect 96 1 94 0;
#X connect 97 0 40 0;
#X connect 98 0 97 0;
#X connect 99 0 98 0;
#X connect 99 1 97 0;
#X connect 100 0 41 0;
#X connect 101 0 100 0;
#X connect 102 0 101 0;
#X connect 102 1 100 0;
#X connect 103 0 52 0;
#X restore 181 488 pd side.labels;
#X obj 15 296 t a a;
#X obj 103 331 t a a a;
#X obj 249 14 declare -stdpath extra/iemguts;
#X obj 15 116 sel 2 0;
#X obj 219 238 r \$1;
#X obj 219 260 route set.list;
#X obj 219 282 list;
#X obj 257 328 r \$1;
#X obj 257 350 route set.default;
#X msg 257 370 1;
#X obj 257 393 t a b;
#X obj 196 555 r \$0.MTX;
#X obj 196 577 route setinstid;
#X obj 196 626 list;
#X msg 196 650 return \$1;
#X obj 196 672 s \$1;
#X obj 318 556 r \$1;
#X obj 318 578 route get.current;
#X obj 318 600 b;
#X obj 15 274 change;
#X obj 103 306 list append empty;
#X obj 347 422 r \$1;
#X obj 347 444 route set.current;
#X obj 347 466 list;
#X obj 347 507 s \$0.MTX;
#X msg 347 487 setinstid \$1;
#X obj 196 599 t b a;
#X obj 15 351 t b a a;
#X connect 0 0 21 0;
#X connect 1 0 3 0;
#X connect 1 1 12 0;
#X connect 2 0 5 0;
#X connect 2 1 12 0;
#X connect 3 0 4 0;
#X connect 4 0 28 0;
#X connect 5 0 6 0;
#X connect 6 0 28 0;
#X connect 8 0 7 0;
#X connect 11 0 34 0;
#X connect 12 0 51 0;
#X connect 12 1 22 0;
#X connect 13 0 28 1;
#X connect 14 0 16 0;
#X connect 15 0 14 0;
#X connect 16 0 18 0;
#X connect 17 0 14 0;
#X connect 18 0 8 0;
#X connect 19 0 20 0;
#X connect 20 0 27 0;
#X connect 21 0 10 0;
#X connect 22 0 9 0;
#X connect 23 0 24 0;
#X connect 25 0 23 0;
#X connect 26 0 25 0;
#X connect 26 1 23 0;
#X connect 27 0 26 0;
#X connect 28 0 29 0;
#X connect 29 0 50 0;
#X connect 31 0 58 0;
#X connect 31 1 30 0;
#X connect 32 0 13 0;
#X connect 32 1 17 1;
#X connect 32 2 30 1;
#X connect 34 0 1 0;
#X connect 34 1 2 0;
#X connect 35 0 36 0;
#X connect 36 0 37 0;
#X connect 37 0 51 1;
#X connect 38 0 39 0;
#X connect 39 0 40 0;
#X connect 40 0 41 0;
#X connect 41 0 58 0;
#X connect 41 1 51 0;
#X connect 42 0 43 0;
#X connect 43 0 57 0;
#X connect 44 0 45 0;
#X connect 45 0 46 0;
#X connect 47 0 48 0;
#X connect 48 0 49 0;
#X connect 49 0 44 0;
#X connect 50 0 31 0;
#X connect 51 0 32 0;
#X connect 52 0 53 0;
#X connect 53 0 54 0;
#X connect 54 0 56 0;
#X connect 56 0 55 0;
#X connect 57 0 44 0;
#X connect 57 1 44 1;
#X connect 58 0 17 0;
#X connect 58 1 15 0;
#X connect 58 2 3 1;
#X connect 58 2 5 1;
#X restore 21 150 pd selector.code;
#X obj 21 171 namecanvas \$0.list.sel;
#X obj 22 192 canvasdelete;
#X obj 23 215 r \$0.delete;
#X obj 23 237 sendcanvas;
#X text 164 238 Roman Haefeli \, 2010-04-02;
#X connect 4 0 5 0;
#X coords 0 -1 1 1 80 14 2 20 50;
