#N canvas 340 282 615 396 10;
#X obj 167 29 r \$0.channel.s;
#X obj 167 53 t a a;
#X obj 167 75 *;
#X obj 397 161 rmstodb;
#X obj 397 184 - 100;
#X obj 397 247 int;
#X obj 20 22 vsl 18 9 0 0 0 0 \$0.reset \$0.label Σ 4 6 0 10 -261234
-261234 -1 0 1;
#X obj 20 36 vsl 18 114 0 1.5 0 0 \$0.channel.s \$0.channel.r empty
2 9 0 9 -261234 -258113 -1 0 1;
#X msg 397 321 label \$1;
#X obj 397 342 s \$0.channel.r;
#X obj 397 267 sel -100;
#X msg 397 294 symbol;
#X msg 299 97 1;
#X obj 299 118 s \$0.channel.r;
#X obj 465 17 loadbang;
#X obj 379 16 r \$1.MTX;
#X obj 379 38 route reset;
#X obj 167 101 t a a;
#X obj 167 178 list trim;
#X obj 167 200 s \$1.MTX;
#X obj 450 295 makefilename %3d;
#N canvas 655 161 493 214 state.save 0;
#X obj 30 13 inlet;
#X obj 12 78 f;
#X obj 12 34 r \$1.MTX;
#X obj 12 55 route getpreset;
#X obj 44 147 list trim;
#X obj 44 168 s \$1.MTX;
#X obj 340 164 s \$0.channel.r;
#X obj 340 29 r \$1.MTX;
#X obj 340 50 route sublevel;
#X obj 340 72 route \$2;
#X obj 340 98 + 100;
#X obj 340 120 dbtorms;
#X obj 340 142 pow 0.5;
#X obj 12 100 sel 0;
#X obj 44 124 list prepend preset mastermainlevel;
#X connect 0 0 1 1;
#X connect 1 0 13 0;
#X connect 2 0 3 0;
#X connect 3 0 1 0;
#X connect 4 0 5 0;
#X connect 7 0 8 0;
#X connect 8 0 9 0;
#X connect 9 0 10 0;
#X connect 10 0 11 0;
#X connect 11 0 12 0;
#X connect 12 0 6 0;
#X connect 13 1 14 0;
#X connect 14 0 4 0;
#X restore 487 235 pd state.save;
#X obj 379 61 s \$0.reset;
#X obj 299 16 r \$0.reset;
#X obj 167 156 list prepend mastermainlevel;
#X connect 0 0 1 0;
#X connect 1 0 2 0;
#X connect 1 1 2 1;
#X connect 2 0 17 0;
#X connect 3 0 4 0;
#X connect 4 0 5 0;
#X connect 4 0 21 0;
#X connect 5 0 10 0;
#X connect 8 0 9 0;
#X connect 10 0 11 0;
#X connect 10 1 20 0;
#X connect 11 0 8 0;
#X connect 12 0 13 0;
#X connect 14 0 12 0;
#X connect 15 0 16 0;
#X connect 16 0 22 0;
#X connect 17 0 24 0;
#X connect 17 1 3 0;
#X connect 18 0 19 0;
#X connect 20 0 8 0;
#X connect 23 0 12 0;
#X connect 24 0 18 0;
#X coords 0 -1 1 1 18 133 2 20 20;
