#N canvas 81 72 620 469 10;
#X obj 167 29 r \$0.channel.s;
#X obj 167 53 t a a;
#X obj 167 75 *;
#X obj 397 161 rmstodb;
#X obj 397 184 - 100;
#X obj 397 247 int;
#X obj 20 22 vsl 18 9 0 0 0 0 \$0.reset \$0.label  1 4 6 0 10 -249661
-249661 -1 0 1;
#X obj 20 50 vsl 18 100 0 1.5 0 0 \$0.channel.s \$0.channel.r   0 2
9 0 9 -253822 -124831 -1 6600 1;
#X msg 397 321 label \$1;
#X obj 397 342 s \$0.channel.r;
#X obj 397 267 sel -100;
#X msg 397 294 symbol -∞;
#X msg 299 97 1;
#X obj 299 118 s \$0.channel.r;
#X obj 465 17 loadbang;
#X obj 465 46 \$2;
#X msg 465 93 label \$1;
#X obj 465 117 s \$0.label;
#X obj 15 193 route colorchange;
#X obj 15 214 sel \$2;
#N canvas 23 165 225 187 getcolor 0;
#X obj 11 8 inlet;
#X obj 11 30 t a a a;
#X obj 11 126 pack f f f;
#X obj 11 151 outlet;
#X obj 78 101 tabread \$1.color.b;
#X obj 44 82 tabread \$1.color.g;
#X obj 11 62 tabread \$1.color.r;
#X connect 0 0 1 0;
#X connect 1 0 6 0;
#X connect 1 1 5 0;
#X connect 1 2 4 0;
#X connect 2 0 3 0;
#X connect 4 0 2 2;
#X connect 5 0 2 1;
#X connect 6 0 2 0;
#X restore 15 257 pd getcolor;
#X obj 15 236 \$2;
#X obj 15 439 s \$0.channel.r;
#X obj 219 400 s \$0.label;
#X obj 15 327 clr.conv;
#X msg 219 371 color \$1 \$1 -1;
#X obj 88 356 clr.conv;
#X msg 15 416 color \$1 \$2 -1;
#X obj 15 358 pack f f;
#X obj 360 38 r \$1.MTX;
#X obj 360 60 route reset;
#X obj 15 280 t a b a;
#X msg 88 331 120 120 120;
#X obj 219 337 clr.conv;
#X obj 15 304 bright.ness 100;
#X obj 15 172 r \$1.MTX;
#X obj 167 101 t a a;
#X obj 167 178 list trim;
#X obj 167 200 s \$1.MTX;
#X obj 165 233 catch~ \$1.\$2.MASTER;
#X obj 164 278 dac~ \$2;
#X obj 20 34 human.readable.number \$0.filter.s \$0.filter.r;
#X obj 450 295 makefilename %3d;
#X obj 109 438 s \$0.filter.r;
#N canvas 449 394 298 274 low.cut.filter 0;
#X obj 21 14 inlet~;
#X obj 21 226 outlet~;
#N canvas 951 196 300 226 state.save 0;
#X obj 27 13 inlet;
#X obj 12 78 f;
#X obj 12 34 r \$1.MTX;
#X obj 12 55 route getpreset;
#X obj 51 148 list trim;
#X obj 51 169 s \$1.MTX;
#X obj 127 14 r \$1.MTX;
#X obj 127 57 route \$2;
#X obj 127 35 route lowcutfreq;
#X obj 51 125 list prepend preset lowcutfreq \$2;
#X obj 127 80 outlet;
#X obj 12 100 sel 0 5;
#X connect 0 0 1 1;
#X connect 1 0 11 0;
#X connect 2 0 3 0;
#X connect 3 0 1 0;
#X connect 4 0 5 0;
#X connect 6 0 8 0;
#X connect 7 0 10 0;
#X connect 7 0 1 1;
#X connect 8 0 7 0;
#X connect 9 0 4 0;
#X connect 11 2 9 0;
#X restore 107 92 pd state.save;
#X obj 170 157 s \$0.filter.r;
#X obj 21 194 hp4_butt~ 5 200;
#X msg 107 122 set \$1;
#X obj 81 15 r \$0.filter.s;
#X obj 170 15 loadbang;
#X msg 170 58 5;
#X obj 81 37 int;
#X obj 183 35 r \$0.reset;
#X connect 0 0 4 0;
#X connect 2 0 5 0;
#X connect 2 0 4 1;
#X connect 4 0 1 0;
#X connect 5 0 3 0;
#X connect 6 0 9 0;
#X connect 7 0 8 0;
#X connect 8 0 3 0;
#X connect 9 0 2 0;
#X connect 9 0 4 1;
#X connect 10 0 8 0;
#X restore 165 255 pd low.cut.filter;
#N canvas 1124 44 493 214 state.save 0;
#X obj 30 13 inlet;
#X obj 12 78 f;
#X obj 12 34 r \$1.MTX;
#X obj 12 55 route getpreset;
#X obj 44 147 list trim;
#X obj 44 168 s \$1.MTX;
#X obj 340 164 s \$0.channel.r;
#X obj 340 29 r \$1.MTX;
#X obj 340 72 route \$2;
#X obj 340 98 + 100;
#X obj 340 120 dbtorms;
#X obj 340 142 pow 0.5;
#X obj 12 100 sel 0;
#X obj 44 124 list prepend preset mastermixlevel \$2;
#X obj 340 50 route mastermixlevel;
#X connect 0 0 1 1;
#X connect 1 0 12 0;
#X connect 2 0 3 0;
#X connect 3 0 1 0;
#X connect 4 0 5 0;
#X connect 7 0 14 0;
#X connect 8 0 9 0;
#X connect 9 0 10 0;
#X connect 10 0 11 0;
#X connect 11 0 6 0;
#X connect 12 1 13 0;
#X connect 13 0 4 0;
#X connect 14 0 8 0;
#X restore 487 235 pd state.save;
#X msg 109 417 color \$1 \$1 -1;
#X obj 465 70 makefilename %2d;
#X obj 360 83 s \$0.reset;
#X obj 299 16 r \$0.reset;
#X obj 167 156 list prepend mastermixamp \$2;
#X connect 0 0 1 0;
#X connect 1 0 2 0;
#X connect 1 1 2 1;
#X connect 2 0 36 0;
#X connect 3 0 4 0;
#X connect 4 0 5 0;
#X connect 4 0 45 0;
#X connect 5 0 10 0;
#X connect 8 0 9 0;
#X connect 10 0 11 0;
#X connect 10 1 42 0;
#X connect 11 0 8 0;
#X connect 12 0 13 0;
#X connect 14 0 12 0;
#X connect 14 0 15 0;
#X connect 15 0 47 0;
#X connect 16 0 17 0;
#X connect 18 0 19 0;
#X connect 19 0 21 0;
#X connect 20 0 31 0;
#X connect 21 0 20 0;
#X connect 24 0 28 0;
#X connect 25 0 23 0;
#X connect 26 0 28 1;
#X connect 27 0 22 0;
#X connect 28 0 27 0;
#X connect 28 0 46 0;
#X connect 29 0 30 0;
#X connect 30 0 48 0;
#X connect 31 0 34 0;
#X connect 31 1 32 0;
#X connect 31 2 33 0;
#X connect 32 0 26 0;
#X connect 33 0 25 0;
#X connect 34 0 24 0;
#X connect 35 0 18 0;
#X connect 36 0 50 0;
#X connect 36 1 3 0;
#X connect 37 0 38 0;
#X connect 39 0 44 0;
#X connect 42 0 8 0;
#X connect 44 0 40 0;
#X connect 46 0 43 0;
#X connect 47 0 16 0;
#X connect 49 0 12 0;
#X connect 50 0 37 0;
#X coords 0 -1 1 1 18 133 2 20 20;
