#N canvas 219 227 186 310 10;
#X obj 17 269 throw~ \$1.\$3.MIX;
#X obj 81 45 r \$1.MTX;
#X obj 81 66 route route;
#X obj 81 86 route \$2;
#X obj 81 108 route \$3;
#X msg 34 190 \$1 50;
#X obj 34 211 line~;
#X obj 17 234 *~;
#X obj 16 9 receive~ \$1.\$2.ROUTER;
#X obj 113 244 switch~;
#X obj 81 130 t a a;
#X obj 113 156 sel 0;
#X obj 113 201 del 52;
#X msg 113 222 0;
#X msg 145 223 1;
#X msg 126 179 stop;
#X connect 1 0 2 0;
#X connect 2 0 3 0;
#X connect 3 0 4 0;
#X connect 4 0 10 0;
#X connect 5 0 6 0;
#X connect 6 0 7 1;
#X connect 7 0 0 0;
#X connect 8 0 7 0;
#X connect 10 0 5 0;
#X connect 10 1 11 0;
#X connect 11 0 12 0;
#X connect 11 1 14 0;
#X connect 11 1 15 0;
#X connect 12 0 13 0;
#X connect 13 0 9 0;
#X connect 14 0 9 0;
#X connect 15 0 12 0;
