#N canvas 0 561 716 248 10;
#N canvas 213 208 570 187 gui.shizzle 0;
#N canvas 254 278 435 288 display.background 0;
#X obj 32 126 clr.conv;
#X msg 32 150 color \$1 \$1 -1;
#X msg 32 100 220 220 220;
#X msg 55 79 255 127 127;
#X obj 12 10 r \$0.MTX;
#X obj 32 54 sel 0 1;
#X obj 32 173 s \$0.inst1.id.r;
#X obj 12 32 route display1;
#X obj 202 14 r \$0.MTX;
#X obj 202 37 route pause1;
#X obj 220 65 sel 0 1;
#X obj 220 183 s \$0.pause1.r;
#X obj 220 138 clr.conv;
#X msg 220 162 color \$1 \$1 -1;
#X msg 220 112 240 240 240;
#X msg 243 91 255 191 191;
#X obj 202 228 s \$0.MTX;
#X msg 12 198 duration1.highlight \$1;
#X obj 12 220 s \$0.MTX;
#X msg 202 206 setpause1.highlight \$1;
#X connect 0 0 1 0;
#X connect 1 0 6 0;
#X connect 2 0 0 0;
#X connect 3 0 0 0;
#X connect 4 0 7 0;
#X connect 5 0 2 0;
#X connect 5 1 3 0;
#X connect 7 0 5 0;
#X connect 7 0 17 0;
#X connect 8 0 9 0;
#X connect 9 0 10 0;
#X connect 9 0 19 0;
#X connect 10 0 14 0;
#X connect 10 1 15 0;
#X connect 12 0 13 0;
#X connect 13 0 11 0;
#X connect 14 0 12 0;
#X connect 15 0 12 0;
#X connect 17 0 18 0;
#X connect 19 0 16 0;
#X restore 8 84 pd display.background 1;
#N canvas 254 278 435 288 display.background 0;
#X obj 32 126 clr.conv;
#X msg 32 150 color \$1 \$1 -1;
#X msg 32 100 220 220 220;
#X msg 55 79 255 127 127;
#X obj 12 10 r \$0.MTX;
#X obj 32 54 sel 0 1;
#X obj 202 14 r \$0.MTX;
#X obj 220 65 sel 0 1;
#X obj 220 138 clr.conv;
#X msg 220 162 color \$1 \$1 -1;
#X msg 220 112 240 240 240;
#X msg 243 91 255 191 191;
#X obj 202 228 s \$0.MTX;
#X obj 12 220 s \$0.MTX;
#X obj 12 32 route display2;
#X obj 32 173 s \$0.inst2.id.r;
#X msg 12 198 duration2.highlight \$1;
#X obj 202 37 route pause2;
#X obj 220 183 s \$0.pause2.r;
#X msg 202 206 setpause2.highlight \$1;
#X connect 0 0 1 0;
#X connect 1 0 15 0;
#X connect 2 0 0 0;
#X connect 3 0 0 0;
#X connect 4 0 14 0;
#X connect 5 0 2 0;
#X connect 5 1 3 0;
#X connect 6 0 17 0;
#X connect 7 0 10 0;
#X connect 7 1 11 0;
#X connect 8 0 9 0;
#X connect 9 0 18 0;
#X connect 10 0 8 0;
#X connect 11 0 8 0;
#X connect 14 0 5 0;
#X connect 14 0 16 0;
#X connect 16 0 13 0;
#X connect 17 0 7 0;
#X connect 17 0 19 0;
#X connect 19 0 12 0;
#X restore 195 84 pd display.background 2;
#N canvas 254 278 435 288 display.background 0;
#X obj 32 126 clr.conv;
#X msg 32 150 color \$1 \$1 -1;
#X msg 32 100 220 220 220;
#X msg 55 79 255 127 127;
#X obj 12 10 r \$0.MTX;
#X obj 32 54 sel 0 1;
#X obj 202 14 r \$0.MTX;
#X obj 220 65 sel 0 1;
#X obj 220 138 clr.conv;
#X msg 220 162 color \$1 \$1 -1;
#X msg 220 112 240 240 240;
#X msg 243 91 255 191 191;
#X obj 202 228 s \$0.MTX;
#X obj 12 220 s \$0.MTX;
#X obj 12 32 route display3;
#X obj 32 173 s \$0.inst3.id.r;
#X msg 12 198 duration3.highlight \$1;
#X obj 202 37 route pause3;
#X obj 220 183 s \$0.pause3.r;
#X msg 202 206 setpause3.highlight \$1;
#X connect 0 0 1 0;
#X connect 1 0 15 0;
#X connect 2 0 0 0;
#X connect 3 0 0 0;
#X connect 4 0 14 0;
#X connect 5 0 2 0;
#X connect 5 1 3 0;
#X connect 6 0 17 0;
#X connect 7 0 10 0;
#X connect 7 1 11 0;
#X connect 8 0 9 0;
#X connect 9 0 18 0;
#X connect 10 0 8 0;
#X connect 11 0 8 0;
#X connect 14 0 5 0;
#X connect 14 0 16 0;
#X connect 16 0 13 0;
#X connect 17 0 7 0;
#X connect 17 0 19 0;
#X connect 19 0 12 0;
#X restore 378 85 pd display.background 3;
#N canvas 259 16 398 456 instance.id 0;
#X obj 23 89 s \$1.MTX;
#X obj 23 111 r \$1.MTX;
#X obj 23 155 list prepend set.list;
#X obj 23 177 list trim;
#X obj 23 20 loadbang;
#X obj 32 326 route return;
#X obj 32 348 list;
#X obj 32 391 s \$0.MTX;
#X obj 23 42 t b b;
#X obj 186 250 r \$0.MTX;
#X obj 186 298 t b a b;
#X msg 186 322 1;
#X msg 232 322 0;
#X obj 32 299 spigot 1;
#X msg 208 372 set.current \$1;
#X obj 208 349 list;
#X obj 23 223 s \$0.inst.1;
#X obj 32 269 r \$0.inst.1;
#X msg 32 370 setinstid1 \$1;
#X obj 186 274 route setinstid1;
#X obj 208 402 s \$0.inst.1;
#X msg 23 68 getinstancelist.time;
#X obj 23 133 route instancelist.time;
#X connect 1 0 22 0;
#X connect 2 0 3 0;
#X connect 3 0 16 0;
#X connect 4 0 8 0;
#X connect 5 0 6 0;
#X connect 6 0 18 0;
#X connect 8 0 21 0;
#X connect 9 0 19 0;
#X connect 10 0 11 0;
#X connect 10 1 15 0;
#X connect 10 2 12 0;
#X connect 11 0 13 1;
#X connect 12 0 13 1;
#X connect 13 0 5 0;
#X connect 14 0 20 0;
#X connect 15 0 14 0;
#X connect 17 0 13 0;
#X connect 18 0 7 0;
#X connect 19 0 10 0;
#X connect 21 0 0 0;
#X connect 22 0 2 0;
#X restore 8 38 pd instance.id 1;
#N canvas 259 16 398 456 instance.id 0;
#X obj 23 89 s \$1.MTX;
#X obj 23 111 r \$1.MTX;
#X obj 23 155 list prepend set.list;
#X obj 23 177 list trim;
#X obj 23 20 loadbang;
#X obj 32 326 route return;
#X obj 32 348 list;
#X obj 32 391 s \$0.MTX;
#X obj 23 42 t b b;
#X obj 186 250 r \$0.MTX;
#X obj 186 298 t b a b;
#X msg 186 322 1;
#X msg 232 322 0;
#X obj 32 299 spigot 1;
#X msg 208 372 set.current \$1;
#X obj 208 349 list;
#X obj 23 223 s \$0.inst.2;
#X obj 32 269 r \$0.inst.2;
#X msg 32 370 setinstid2 \$1;
#X obj 186 274 route setinstid2;
#X obj 208 403 s \$0.inst.2;
#X msg 23 68 getinstancelist.time;
#X obj 23 133 route instancelist.time;
#X connect 1 0 22 0;
#X connect 2 0 3 0;
#X connect 3 0 16 0;
#X connect 4 0 8 0;
#X connect 5 0 6 0;
#X connect 6 0 18 0;
#X connect 8 0 21 0;
#X connect 9 0 19 0;
#X connect 10 0 11 0;
#X connect 10 1 15 0;
#X connect 10 2 12 0;
#X connect 11 0 13 1;
#X connect 12 0 13 1;
#X connect 13 0 5 0;
#X connect 14 0 20 0;
#X connect 15 0 14 0;
#X connect 17 0 13 0;
#X connect 18 0 7 0;
#X connect 19 0 10 0;
#X connect 21 0 0 0;
#X connect 22 0 2 0;
#X restore 193 37 pd instance.id 2;
#N canvas 259 16 398 456 instance.id 0;
#X obj 23 89 s \$1.MTX;
#X obj 23 111 r \$1.MTX;
#X obj 23 155 list prepend set.list;
#X obj 23 177 list trim;
#X obj 23 20 loadbang;
#X obj 32 326 route return;
#X obj 32 348 list;
#X obj 32 391 s \$0.MTX;
#X obj 23 42 t b b;
#X obj 186 250 r \$0.MTX;
#X obj 186 298 t b a b;
#X msg 186 322 1;
#X msg 232 322 0;
#X obj 32 299 spigot 1;
#X msg 208 372 set.current \$1;
#X obj 208 349 list;
#X obj 23 223 s \$0.inst.3;
#X obj 32 269 r \$0.inst.3;
#X msg 32 370 setinstid3 \$1;
#X obj 186 274 route setinstid3;
#X obj 208 402 s \$0.inst.3;
#X msg 23 68 getinstancelist.time;
#X obj 23 133 route instancelist.time;
#X connect 1 0 22 0;
#X connect 2 0 3 0;
#X connect 3 0 16 0;
#X connect 4 0 8 0;
#X connect 5 0 6 0;
#X connect 6 0 18 0;
#X connect 8 0 21 0;
#X connect 9 0 19 0;
#X connect 10 0 11 0;
#X connect 10 1 15 0;
#X connect 10 2 12 0;
#X connect 11 0 13 1;
#X connect 12 0 13 1;
#X connect 13 0 5 0;
#X connect 14 0 20 0;
#X connect 15 0 14 0;
#X connect 17 0 13 0;
#X connect 18 0 7 0;
#X connect 19 0 10 0;
#X connect 21 0 0 0;
#X connect 22 0 2 0;
#X restore 383 34 pd instance.id 3;
#X restore 20 126 pd gui.shizzle;
#N canvas 233 75 309 275 timer.stuff 0;
#X obj 13 240 s \$0.MTX;
#X obj 13 20 r \$0.MTX;
#N canvas 47 38 353 634 step1_del 0;
#X obj 69 13 r \$0.MTX;
#X obj 69 99 * 1000;
#X obj 11 142 del;
#X obj 11 7 inlet;
#X obj 11 576 outlet;
#X obj 67 146 route stopall;
#X msg 67 168 stop;
#X obj 59 211 r \$0.MTX;
#X obj 11 276 list;
#X obj 59 255 list;
#X obj 11 297 sel <none>;
#X obj 78 387 s \$1.MTX;
#X obj 78 343 list append;
#X obj 67 124 r \$0.MTX;
#X obj 192 409 r \$0.MTX;
#X obj 192 431 route setinstid1;
#X obj 80 423 r \$1.MTX;
#X obj 80 445 route loopend;
#N canvas 0 0 564 295 sel 0;
#X obj 20 16 inlet;
#X obj 20 38 list;
#X obj 20 60 route float symbol;
#X obj 20 189 sel -1234;
#X obj 99 191 sel <none>;
#X obj 20 229 outlet;
#X obj 237 18 inlet;
#X obj 237 40 list;
#X obj 237 62 route float symbol;
#X obj 237 84 t a b;
#X obj 298 84 t b a;
#X msg 269 142 symbol <none>;
#X msg 298 118 -1234;
#X connect 0 0 1 0;
#X connect 1 0 2 0;
#X connect 2 0 3 0;
#X connect 2 1 4 0;
#X connect 3 0 5 0;
#X connect 4 0 5 0;
#X connect 6 0 7 0;
#X connect 7 0 8 0;
#X connect 8 0 9 0;
#X connect 8 1 10 0;
#X connect 9 0 3 1;
#X connect 9 1 11 0;
#X connect 10 0 12 0;
#X connect 10 1 4 1;
#X connect 11 0 4 1;
#X connect 12 0 3 1;
#X restore 80 513 pd sel;
#X obj 80 488 spigot;
#X msg 186 501 1;
#X obj 78 320 t a b;
#X obj 80 536 t b b;
#X msg 223 501 0;
#X obj 186 531 t a a;
#X obj 186 579 s \$0.MTX;
#X obj 223 480 route stopall;
#X obj 223 458 r \$0.MTX;
#X msg 186 557 display1 \$1;
#X msg 204 169 pause1 \$1;
#X obj 204 190 s \$0.MTX;
#X msg 243 132 1;
#X msg 204 134 0;
#X obj 11 38 t b b;
#X obj 11 173 t b b;
#X obj 69 34 route setpause1;
#X obj 59 233 route setinstid1 duration1;
#X msg 78 365 \$1 timeplay \$2;
#X connect 0 0 35 0;
#X connect 1 0 2 1;
#X connect 2 0 34 0;
#X connect 3 0 33 0;
#X connect 5 0 6 0;
#X connect 5 0 32 0;
#X connect 6 0 2 0;
#X connect 7 0 36 0;
#X connect 8 0 10 0;
#X connect 9 0 8 1;
#X connect 10 0 4 0;
#X connect 10 1 21 0;
#X connect 12 0 37 0;
#X connect 13 0 5 0;
#X connect 14 0 15 0;
#X connect 15 0 18 1;
#X connect 16 0 17 0;
#X connect 17 0 19 0;
#X connect 18 0 22 0;
#X connect 19 0 18 0;
#X connect 20 0 24 0;
#X connect 21 0 12 0;
#X connect 21 1 20 0;
#X connect 22 0 4 0;
#X connect 22 1 23 0;
#X connect 23 0 24 0;
#X connect 24 0 28 0;
#X connect 24 1 19 1;
#X connect 26 0 23 0;
#X connect 27 0 26 0;
#X connect 28 0 25 0;
#X connect 29 0 30 0;
#X connect 31 0 29 0;
#X connect 32 0 29 0;
#X connect 33 0 2 0;
#X connect 33 1 31 0;
#X connect 34 0 8 0;
#X connect 34 1 32 0;
#X connect 35 0 1 0;
#X connect 36 0 9 0;
#X connect 36 1 12 1;
#X connect 37 0 11 0;
#X restore 13 122 pd step1_del;
#X obj 13 42 route ctlplay;
#N canvas 47 38 338 609 step2_del 0;
#X obj 117 39 r \$0.MTX;
#X obj 117 110 * 1000;
#X obj 11 147 del;
#X obj 11 7 inlet;
#X obj 11 576 outlet;
#X obj 115 155 route stopall;
#X msg 115 179 stop;
#X obj 59 211 r \$0.MTX;
#X obj 11 276 list;
#X obj 59 255 list;
#X obj 11 297 sel <none>;
#X obj 78 387 s \$1.MTX;
#X obj 78 343 list append;
#X obj 115 135 r \$0.MTX;
#X obj 192 409 r \$0.MTX;
#X obj 80 423 r \$1.MTX;
#X obj 80 445 route loopend;
#N canvas 0 0 564 295 sel 0;
#X obj 20 16 inlet;
#X obj 20 38 list;
#X obj 20 60 route float symbol;
#X obj 20 189 sel -1234;
#X obj 99 191 sel <none>;
#X obj 20 229 outlet;
#X obj 237 18 inlet;
#X obj 237 40 list;
#X obj 237 62 route float symbol;
#X obj 237 84 t a b;
#X obj 298 84 t b a;
#X msg 269 142 symbol <none>;
#X msg 298 118 -1234;
#X connect 0 0 1 0;
#X connect 1 0 2 0;
#X connect 2 0 3 0;
#X connect 2 1 4 0;
#X connect 3 0 5 0;
#X connect 4 0 5 0;
#X connect 6 0 7 0;
#X connect 7 0 8 0;
#X connect 8 0 9 0;
#X connect 8 1 10 0;
#X connect 9 0 3 1;
#X connect 9 1 11 0;
#X connect 10 0 12 0;
#X connect 10 1 4 1;
#X connect 11 0 4 1;
#X connect 12 0 3 1;
#X restore 80 513 pd sel;
#X obj 80 488 spigot;
#X msg 186 501 1;
#X obj 78 320 t a b;
#X obj 80 536 t b b;
#X msg 223 501 0;
#X obj 186 531 t a a;
#X obj 186 579 s \$0.MTX;
#X obj 223 480 route stopall;
#X obj 223 458 r \$0.MTX;
#X obj 192 431 route setinstid2;
#X msg 186 557 display2 \$1;
#X obj 231 177 s \$0.MTX;
#X msg 270 119 1;
#X msg 231 121 0;
#X obj 11 95 t b b;
#X obj 11 180 t b b;
#X msg 231 156 pause2 \$1;
#X obj 117 60 route setpause2;
#X obj 59 233 route setinstid2 duration2;
#X msg 78 365 \$1 timeplay \$2;
#X connect 0 0 35 0;
#X connect 1 0 2 1;
#X connect 2 0 33 0;
#X connect 3 0 32 0;
#X connect 5 0 6 0;
#X connect 5 0 31 0;
#X connect 6 0 2 0;
#X connect 7 0 36 0;
#X connect 8 0 10 0;
#X connect 9 0 8 1;
#X connect 10 0 4 0;
#X connect 10 1 20 0;
#X connect 12 0 37 0;
#X connect 13 0 5 0;
#X connect 14 0 27 0;
#X connect 15 0 16 0;
#X connect 16 0 18 0;
#X connect 17 0 21 0;
#X connect 18 0 17 0;
#X connect 19 0 23 0;
#X connect 20 0 12 0;
#X connect 20 1 19 0;
#X connect 21 0 4 0;
#X connect 21 1 22 0;
#X connect 22 0 23 0;
#X connect 23 0 28 0;
#X connect 23 1 18 1;
#X connect 25 0 22 0;
#X connect 26 0 25 0;
#X connect 27 0 17 1;
#X connect 28 0 24 0;
#X connect 30 0 34 0;
#X connect 31 0 34 0;
#X connect 32 0 2 0;
#X connect 32 1 30 0;
#X connect 33 0 8 0;
#X connect 33 1 31 0;
#X connect 34 0 29 0;
#X connect 35 0 1 0;
#X connect 36 0 9 0;
#X connect 36 1 12 1;
#X connect 37 0 11 0;
#X restore 105 122 pd step2_del;
#N canvas 47 38 338 609 step3_del 0;
#X obj 117 29 r \$0.MTX;
#X obj 117 110 * 1000;
#X obj 11 147 del;
#X obj 11 7 inlet;
#X obj 11 576 outlet;
#X obj 115 157 route stopall;
#X msg 115 179 stop;
#X obj 59 211 r \$0.MTX;
#X obj 11 276 list;
#X obj 59 255 list;
#X obj 11 297 sel <none>;
#X obj 78 387 s \$1.MTX;
#X obj 78 343 list append;
#X obj 115 135 r \$0.MTX;
#X obj 192 409 r \$0.MTX;
#X obj 80 423 r \$1.MTX;
#X obj 80 445 route loopend;
#N canvas 0 0 564 295 sel 0;
#X obj 20 16 inlet;
#X obj 20 38 list;
#X obj 20 60 route float symbol;
#X obj 20 189 sel -1234;
#X obj 99 191 sel <none>;
#X obj 20 229 outlet;
#X obj 237 18 inlet;
#X obj 237 40 list;
#X obj 237 62 route float symbol;
#X obj 237 84 t a b;
#X obj 298 84 t b a;
#X msg 269 142 symbol <none>;
#X msg 298 118 -1234;
#X connect 0 0 1 0;
#X connect 1 0 2 0;
#X connect 2 0 3 0;
#X connect 2 1 4 0;
#X connect 3 0 5 0;
#X connect 4 0 5 0;
#X connect 6 0 7 0;
#X connect 7 0 8 0;
#X connect 8 0 9 0;
#X connect 8 1 10 0;
#X connect 9 0 3 1;
#X connect 9 1 11 0;
#X connect 10 0 12 0;
#X connect 10 1 4 1;
#X connect 11 0 4 1;
#X connect 12 0 3 1;
#X restore 80 513 pd sel;
#X obj 80 488 spigot;
#X msg 186 501 1;
#X obj 78 320 t a b;
#X obj 80 536 t b b;
#X msg 223 501 0;
#X obj 186 531 t a a;
#X obj 186 579 s \$0.MTX;
#X obj 223 480 route stopall;
#X obj 223 458 r \$0.MTX;
#X obj 192 431 route setinstid3;
#X msg 186 557 display3 \$1;
#X obj 233 156 s \$0.MTX;
#X msg 272 98 1;
#X msg 233 100 0;
#X obj 11 56 t b b;
#X obj 11 192 t b b;
#X msg 233 135 pause3 \$1;
#X obj 117 50 route setpause3;
#X obj 59 233 route setinstid3 duration3;
#X msg 78 365 \$1 timeplay \$2;
#X connect 0 0 35 0;
#X connect 1 0 2 1;
#X connect 2 0 33 0;
#X connect 3 0 32 0;
#X connect 5 0 6 0;
#X connect 5 0 31 0;
#X connect 6 0 2 0;
#X connect 7 0 36 0;
#X connect 8 0 10 0;
#X connect 9 0 8 1;
#X connect 10 0 4 0;
#X connect 10 1 20 0;
#X connect 12 0 37 0;
#X connect 13 0 5 0;
#X connect 14 0 27 0;
#X connect 15 0 16 0;
#X connect 16 0 18 0;
#X connect 17 0 21 0;
#X connect 18 0 17 0;
#X connect 19 0 23 0;
#X connect 20 0 12 0;
#X connect 20 1 19 0;
#X connect 21 0 4 0;
#X connect 21 1 22 0;
#X connect 22 0 23 0;
#X connect 23 0 28 0;
#X connect 23 1 18 1;
#X connect 25 0 22 0;
#X connect 26 0 25 0;
#X connect 27 0 17 1;
#X connect 28 0 24 0;
#X connect 30 0 34 0;
#X connect 31 0 34 0;
#X connect 32 0 2 0;
#X connect 32 1 30 0;
#X connect 33 0 8 0;
#X connect 33 1 31 0;
#X connect 34 0 29 0;
#X connect 35 0 1 0;
#X connect 36 0 9 0;
#X connect 36 1 12 1;
#X connect 37 0 11 0;
#X restore 196 122 pd step3_del;
#X msg 13 215 stop;
#X obj 13 64 t b b b b;
#X obj 13 191 serial.once;
#X msg 73 149 reset;
#X connect 1 0 3 0;
#X connect 2 0 8 0;
#X connect 3 0 7 0;
#X connect 4 0 8 1;
#X connect 5 0 8 2;
#X connect 6 0 0 0;
#X connect 7 0 2 0;
#X connect 7 1 4 0;
#X connect 7 2 5 0;
#X connect 7 3 9 0;
#X connect 8 0 6 0;
#X connect 9 0 8 0;
#X restore 20 99 pd timer.stuff;
#N canvas 365 293 499 185 state.save 0;
#X obj 8 97 loadbang;
#X obj 8 141 s \$0.MTX;
#X text 6 75 --INIT----;
#X obj 128 95 route reset;
#N canvas 0 0 480 465 step1 0;
#X obj 88 62 r \$0.MTX;
#X obj 14 17 r \$1.MTX;
#X obj 14 39 route getpreset;
#X obj 14 303 s \$1.MTX;
#X obj 313 335 s \$0.MTX;
#X obj 14 283 list trim;
#X obj 14 260 list prepend preset \$2 step1;
#X obj 171 111 list;
#X obj 14 214 list append;
#X obj 14 236 list append;
#X obj 14 193 list append;
#X obj 14 75 b;
#X obj 313 177 r \$0.MTX;
#X obj 313 199 route step1;
#X obj 313 221 list;
#X obj 313 243 t a a a;
#X msg 336 289 setinstid1 \$2;
#X msg 313 312 setpause1 \$1;
#X msg 359 265 duration1 \$3;
#X obj 88 84 route setpause1 setinstid1 duration1;
#X connect 0 0 19 0;
#X connect 1 0 2 0;
#X connect 2 0 11 0;
#X connect 5 0 3 0;
#X connect 6 0 5 0;
#X connect 7 0 8 1;
#X connect 8 0 9 0;
#X connect 9 0 6 0;
#X connect 10 0 8 0;
#X connect 11 0 10 0;
#X connect 12 0 13 0;
#X connect 13 0 14 0;
#X connect 14 0 15 0;
#X connect 15 0 17 0;
#X connect 15 1 16 0;
#X connect 15 2 18 0;
#X connect 16 0 4 0;
#X connect 17 0 4 0;
#X connect 18 0 4 0;
#X connect 19 0 10 1;
#X connect 19 1 7 0;
#X connect 19 2 9 1;
#X restore 7 20 pd step1;
#N canvas 0 0 484 429 step2 0;
#X obj 88 62 r \$0.MTX;
#X obj 14 17 r \$1.MTX;
#X obj 14 39 route getpreset;
#X obj 14 303 s \$1.MTX;
#X obj 313 377 s \$0.MTX;
#X obj 14 283 list trim;
#X obj 171 110 list;
#X obj 14 214 list append;
#X obj 14 236 list append;
#X obj 14 193 list append;
#X obj 14 75 b;
#X obj 313 177 r \$0.MTX;
#X obj 313 221 list;
#X obj 313 243 t a a a;
#X obj 14 260 list prepend preset \$2 step2;
#X obj 313 199 route step2;
#X msg 336 310 setinstid2 \$2;
#X msg 313 352 setpause2 \$1;
#X msg 359 265 duration2 \$3;
#X obj 88 84 route setpause2 setinstid2 duration2;
#X connect 0 0 19 0;
#X connect 1 0 2 0;
#X connect 2 0 10 0;
#X connect 5 0 3 0;
#X connect 6 0 7 1;
#X connect 7 0 8 0;
#X connect 8 0 14 0;
#X connect 9 0 7 0;
#X connect 10 0 9 0;
#X connect 11 0 15 0;
#X connect 12 0 13 0;
#X connect 13 0 17 0;
#X connect 13 1 16 0;
#X connect 13 2 18 0;
#X connect 14 0 5 0;
#X connect 15 0 12 0;
#X connect 16 0 4 0;
#X connect 17 0 4 0;
#X connect 18 0 4 0;
#X connect 19 0 9 1;
#X connect 19 1 6 0;
#X connect 19 2 8 1;
#X restore 77 20 pd step2;
#N canvas 0 0 474 519 step3 0;
#X obj 88 62 r \$0.MTX;
#X obj 14 17 r \$1.MTX;
#X obj 14 39 route getpreset;
#X obj 14 303 s \$1.MTX;
#X obj 313 381 s \$0.MTX;
#X obj 14 283 list trim;
#X obj 171 111 list;
#X obj 14 214 list append;
#X obj 14 236 list append;
#X obj 14 193 list append;
#X obj 14 75 b;
#X obj 313 177 r \$0.MTX;
#X obj 313 221 list;
#X obj 313 243 t a a a;
#X obj 14 260 list prepend preset \$2 step3;
#X obj 313 199 route step3;
#X msg 336 310 setinstid3 \$2;
#X msg 313 352 setpause3 \$1;
#X msg 359 265 duration3 \$3;
#X obj 88 84 route setpause3 setinstid3 duration3;
#X connect 0 0 19 0;
#X connect 1 0 2 0;
#X connect 2 0 10 0;
#X connect 5 0 3 0;
#X connect 6 0 7 1;
#X connect 7 0 8 0;
#X connect 8 0 14 0;
#X connect 9 0 7 0;
#X connect 10 0 9 0;
#X connect 11 0 15 0;
#X connect 12 0 13 0;
#X connect 13 0 17 0;
#X connect 13 1 16 0;
#X connect 13 2 18 0;
#X connect 14 0 5 0;
#X connect 15 0 12 0;
#X connect 16 0 4 0;
#X connect 17 0 4 0;
#X connect 18 0 4 0;
#X connect 19 0 9 1;
#X connect 19 1 6 0;
#X connect 19 2 8 1;
#X restore 147 20 pd step3;
#X obj 128 73 r \$0.MTX;
#X msg 8 119 step1 0 <none> 0 \, step2 0 <none> 0 \, step3 0 <none>
0;
#X connect 0 0 8 0;
#X connect 3 0 8 0;
#X connect 7 0 3 0;
#X connect 8 0 1 0;
#X restore 20 153 pd state.save;
#X text 20 48 arguments: <\$0_from_parent> <id>;
#X obj 20 207 external.control \$0 \$1 \$2;
#X obj 21 21 cnv 8 8 12 empty \$0.pause1.r empty 20 12 0 14 -249661
-1 0;
#X obj 181 21 cnv 8 8 12 empty \$0.pause2.r empty 20 12 0 14 -249661
-1 0;
#X obj 341 21 cnv 8 8 12 empty \$0.pause3.r empty 20 12 0 14 -249661
-1 0;
#X obj 30 20 gui.mmss \$0 setpause1;
#X obj 190 20 gui.mmss \$0 setpause2;
#X obj 350 20 gui.mmss \$0 setpause3;
#X obj 488 21 cnv 12 12 12 empty empty \$2 20 7 0 10 -233017 -66577
0;
#X obj 145 20 gui.mmss \$0 duration1;
#X obj 305 20 gui.mmss \$0 duration2;
#X obj 465 20 gui.mmss \$0 duration3;
#X obj 20 180 parent.comm \$0 \$1 \$2 1;
#X obj 65 20 list.selector \$0.inst.1;
#X obj 225 20 list.selector \$0.inst.2;
#X obj 385 20 list.selector \$0.inst.3;
#X text 515 201 Roman Haefeli \, 2010;
#X coords 0 -1 1 1 480 14 2 20 20;
