#N canvas 0 0 598 406 10;
#X obj 108 35 route reset;
#X msg 108 60 reset;
#X obj 225 36 route loopend;
#X msg 225 81 loopend \$1;
#X obj 338 42 route stopall;
#X obj 26 157 route whichinstances;
#X msg 338 63 stopall;
#X obj 338 20 r \$2.MTX;
#X obj 338 85 s \$1.MTX;
#X obj 225 58 list append;
#X obj 225 14 r \$1.MTX;
#X obj 225 103 s \$2.MTX;
#X obj 108 82 s \$1.MTX;
#X obj 108 13 r \$2.MTX;
#X obj 24 35 route \$3;
#X obj 24 13 r \$2.MTX;
#X obj 24 58 s \$1.MTX;
#X obj 26 135 r \$2.MTX;
#X obj 26 307 list append \$3;
#X obj 26 362 s \$2.MTX;
#X obj 169 251 >> 1;
#X obj 169 273 & 1;
#X obj 26 255 & 1;
#X msg 26 329 instanceid loop \$1;
#X text 314 149 \$4: bitmask for play type;
#X obj 26 203 \$4;
#X obj 169 295 sel 1;
#X obj 26 277 sel 1;
#X obj 26 225 t a a;
#X obj 169 318 list append \$3;
#X obj 169 366 s \$2.MTX;
#X msg 169 340 instanceid time \$1;
#X text 339 176 X_ : timeplay;
#X text 339 195 _X : looplay;
#X obj 354 309 loadbang;
#X obj 26 179 b;
#X obj 354 353 s \$2.MTX;
#X msg 354 331 register.instances;
#X connect 0 0 1 0;
#X connect 1 0 12 0;
#X connect 2 0 9 0;
#X connect 3 0 11 0;
#X connect 4 0 6 0;
#X connect 5 0 35 0;
#X connect 6 0 8 0;
#X connect 7 0 4 0;
#X connect 9 0 3 0;
#X connect 10 0 2 0;
#X connect 13 0 0 0;
#X connect 14 0 16 0;
#X connect 15 0 14 0;
#X connect 17 0 5 0;
#X connect 18 0 23 0;
#X connect 20 0 21 0;
#X connect 21 0 26 0;
#X connect 22 0 27 0;
#X connect 23 0 19 0;
#X connect 25 0 28 0;
#X connect 26 0 29 0;
#X connect 27 0 18 0;
#X connect 28 0 22 0;
#X connect 28 1 20 0;
#X connect 29 0 31 0;
#X connect 31 0 30 0;
#X connect 34 0 37 0;
#X connect 35 0 25 0;
#X connect 37 0 36 0;
