#N canvas 0 0 306 417 10;
#X obj 32 275 sel dummy;
#X obj 158 119 symbol2list /;
#X obj 32 129 symbol2list /;
#X obj 158 145 list length;
#X obj 32 179 list split;
#X obj 32 231 list2symbol /;
#X obj 65 202 list2symbol /;
#X obj 32 27 inlet;
#X obj 158 32 inlet;
#X obj 158 94 t a a;
#X obj 215 33 loadbang;
#X obj 158 60 symbol \$1;
#X obj 32 253 root.slash;
#X msg 32 297 1;
#X msg 92 297 0;
#X obj 32 382 outlet;
#X obj 32 319 t a b;
#X obj 102 355 list append;
#X obj 102 383 outlet;
#X connect 0 0 13 0;
#X connect 0 1 14 0;
#X connect 1 0 3 0;
#X connect 2 0 4 0;
#X connect 3 0 4 1;
#X connect 4 0 5 0;
#X connect 4 1 6 0;
#X connect 5 0 12 0;
#X connect 6 0 17 1;
#X connect 7 0 2 0;
#X connect 8 0 11 0;
#X connect 9 0 1 0;
#X connect 9 1 0 1;
#X connect 10 0 11 0;
#X connect 11 0 9 0;
#X connect 12 0 0 0;
#X connect 13 0 16 0;
#X connect 14 0 15 0;
#X connect 16 0 15 0;
#X connect 16 1 17 0;
#X connect 17 0 18 0;
