#N canvas 39 410 582 403 10;
#N canvas 213 208 196 188 gui.shizzle 0;
#N canvas 0 0 276 712 instance.id 0;
#X obj 14 10 loadbang;
#X obj 15 116 sel 0 2;
#X obj 15 143 t b b;
#X obj 59 143 t b b;
#X obj 15 178 f;
#X obj 15 199 - 1;
#X obj 59 179 f;
#X obj 59 200 + 1;
#X obj 15 520 s \$0.MTX;
#X msg 15 493 setinstid \$1;
#X obj 135 215 s \$0.inst.id.r;
#X obj 14 54 s \$0.inst.id.r;
#X obj 15 81 r \$0.inst.id.s;
#X obj 103 172 t b b;
#X obj 15 276 t a a;
#X obj 103 258 s \$1.MTX;
#X obj 103 280 r \$1.MTX;
#X obj 103 324 t a a;
#X obj 103 346 list length;
#X msg 15 429 \$1;
#X msg 47 403 set \, adddollar \$1;
#X obj 15 450 list;
#X obj 15 377 list append;
#X obj 15 356 t b a;
#X obj 15 472 t a a;
#X obj 16 550 r \$0.MTX;
#X obj 16 572 route setinstid;
#X msg 14 32 set 1;
#X msg 135 193 set 1;
#X msg 16 662 label \$1;
#X obj 16 684 s \$0.inst.id.r;
#X obj 16 640 makefilename %d;
#X obj 16 618 route float;
#X obj 16 596 list;
#X obj 15 228 min;
#X obj 15 250 max 1;
#X msg 103 238 getinstancelist.loop;
#X obj 103 302 route instancelist.loop;
#X connect 0 0 27 0;
#X connect 1 0 2 0;
#X connect 1 1 3 0;
#X connect 2 0 4 0;
#X connect 2 1 13 0;
#X connect 3 0 6 0;
#X connect 3 1 13 0;
#X connect 4 0 5 0;
#X connect 5 0 34 0;
#X connect 6 0 7 0;
#X connect 7 0 34 0;
#X connect 9 0 8 0;
#X connect 12 0 1 0;
#X connect 13 0 36 0;
#X connect 13 1 28 0;
#X connect 14 0 23 0;
#X connect 14 1 4 1;
#X connect 14 1 6 1;
#X connect 16 0 37 0;
#X connect 17 0 18 0;
#X connect 17 1 22 1;
#X connect 18 0 34 1;
#X connect 19 0 21 0;
#X connect 20 0 19 0;
#X connect 21 0 24 0;
#X connect 22 0 19 0;
#X connect 23 0 22 0;
#X connect 23 1 20 0;
#X connect 24 0 9 0;
#X connect 25 0 26 0;
#X connect 26 0 33 0;
#X connect 27 0 11 0;
#X connect 28 0 10 0;
#X connect 29 0 30 0;
#X connect 31 0 29 0;
#X connect 32 0 31 0;
#X connect 32 1 29 0;
#X connect 33 0 32 0;
#X connect 34 0 35 0;
#X connect 35 0 14 0;
#X connect 36 0 15 0;
#X connect 37 0 17 0;
#X restore 8 38 pd instance.id;
#N canvas 254 278 278 256 display.background 0;
#X obj 51 204 s \$0.inst.id.r;
#X obj 55 116 clr.conv;
#X msg 55 140 color \$1 \$1 -1;
#X msg 55 90 220 220 220;
#X msg 78 69 255 127 127;
#X obj 55 0 r \$0.MTX;
#X obj 55 22 route display;
#X obj 55 44 sel 0 1;
#X obj 93 177 s \$0.play.r;
#X connect 1 0 2 0;
#X connect 2 0 0 0;
#X connect 2 0 8 0;
#X connect 3 0 1 0;
#X connect 4 0 1 0;
#X connect 5 0 6 0;
#X connect 6 0 7 0;
#X connect 7 0 3 0;
#X connect 7 1 4 0;
#X restore 8 84 pd display.background;
#X restore 21 119 pd gui.shizzle;
#X obj 60 22 vsl 80 9 0 2 0 0 \$0.inst.id.s \$0.inst.id.r 0 7 5 0 10
-228856 -228856 -1 700 1;
#X obj 379 12 r \$0.MTX;
#X obj 292 58 b;
#X obj 292 80 list;
#X obj 379 56 list;
#X obj 292 101 sel <none>;
#X obj 310 183 s \$1.MTX;
#X obj 20 22 vsl 40 9 0 2 0 0 \$0.play.s \$0.play.r play 7 5 0 10 -228856
-228856 -1 0 1;
#X obj 310 138 t a b;
#X obj 421 197 r \$0.MTX;
#X obj 309 212 r \$1.MTX;
#X obj 309 234 route loopend;
#N canvas 0 0 564 295 sel 0;
#X obj 20 16 inlet;
#X obj 20 38 list;
#X obj 20 60 route float symbol;
#X obj 20 189 sel -1234;
#X obj 99 191 sel <none>;
#X obj 20 229 outlet;
#X obj 237 18 inlet;
#X obj 237 40 list;
#X obj 237 62 route float symbol;
#X obj 237 84 t a b;
#X obj 298 84 t b a;
#X msg 269 142 symbol <none>;
#X msg 298 118 -1234;
#X connect 0 0 1 0;
#X connect 1 0 2 0;
#X connect 2 0 3 0;
#X connect 2 1 4 0;
#X connect 3 0 5 0;
#X connect 4 0 5 0;
#X connect 6 0 7 0;
#X connect 7 0 8 0;
#X connect 8 0 9 0;
#X connect 8 1 10 0;
#X connect 9 0 3 1;
#X connect 9 1 11 0;
#X connect 10 0 12 0;
#X connect 10 1 4 1;
#X connect 11 0 4 1;
#X connect 12 0 3 1;
#X restore 309 302 pd sel;
#X obj 309 277 spigot;
#X msg 415 290 1;
#X obj 309 325 t b b;
#X msg 452 290 0;
#X obj 415 320 t a a;
#X obj 415 368 s \$0.MTX;
#X obj 452 269 route stopall;
#X obj 421 219 route setinstid;
#X msg 415 346 display \$1;
#X text 11 53 arguments: <\$0_from_parent>;
#X msg 310 161 \$1 loopplay 1;
#X obj 379 34 route setinstid;
#X obj 292 17 r \$0.play.s;
#X obj 452 247 r \$1.MTX;
#X obj 38 186 loadbang;
#X msg 38 208 setinstid <none>;
#X obj 38 230 s \$0.MTX;
#X connect 2 0 25 0;
#X connect 3 0 4 0;
#X connect 4 0 6 0;
#X connect 5 0 4 1;
#X connect 6 1 9 0;
#X connect 9 0 24 0;
#X connect 9 1 15 0;
#X connect 10 0 21 0;
#X connect 11 0 12 0;
#X connect 12 0 14 0;
#X connect 13 0 16 0;
#X connect 14 0 13 0;
#X connect 15 0 18 0;
#X connect 16 1 17 0;
#X connect 17 0 18 0;
#X connect 18 0 22 0;
#X connect 18 1 14 1;
#X connect 20 0 17 0;
#X connect 21 0 13 1;
#X connect 22 0 19 0;
#X connect 24 0 7 0;
#X connect 25 0 5 0;
#X connect 26 0 3 0;
#X connect 27 0 20 0;
#X connect 28 0 29 0;
#X connect 29 0 30 0;
#X coords 0 -1 1 1 120 14 2 20 20;
