#N canvas 105 142 721 186 10;
#N canvas 44 236 1333 340 receivers 0;
#X obj 319 70 r \$1.s\$2.7;
#X obj 362 113 r \$1.s\$2.8;
#X obj 440 68 r \$1.s\$2.9;
#X obj 485 115 r \$1.s\$2.10;
#X obj 560 66 r \$1.s\$2.11;
#X obj 604 116 r \$1.s\$2.12;
#X obj 689 68 r \$1.s\$2.13;
#X obj 728 116 r \$1.s\$2.14;
#X obj 795 71 r \$1.s\$2.15;
#X obj 832 118 r \$1.s\$2.16;
#X obj 899 69 r \$1.s\$2.17;
#X obj 928 119 r \$1.s\$2.18;
#X obj 1001 67 r \$1.s\$2.19;
#X obj 1029 118 r \$1.s\$2.20;
#X obj 1107 70 r \$1.s\$2.21;
#X obj 1138 117 r \$1.s\$2.22;
#X obj 1209 71 r \$1.s\$2.23;
#X obj 1229 119 r \$1.s\$2.24;
#X obj 422 306 s \$1.MTX;
#X msg 8 87 1 \$1;
#X msg 60 132 2 \$1;
#X msg 110 86 3 \$1;
#X msg 170 135 4 \$1;
#X msg 220 90 5 \$1;
#X msg 264 137 6 \$1;
#X msg 319 92 7 \$1;
#X msg 362 139 8 \$1;
#X msg 440 90 9 \$1;
#X msg 485 137 10 \$1;
#X msg 560 88 11 \$1;
#X msg 604 138 12 \$1;
#X msg 689 90 13 \$1;
#X msg 728 138 14 \$1;
#X msg 795 93 15 \$1;
#X msg 832 140 16 \$1;
#X msg 899 91 17 \$1;
#X msg 928 141 18 \$1;
#X msg 1001 89 19 \$1;
#X msg 1029 140 20 \$1;
#X msg 1107 92 21 \$1;
#X msg 1138 139 22 \$1;
#X msg 1209 93 23 \$1;
#X msg 1229 141 24 \$1;
#X obj 8 65 r \$1.s\$2.1;
#X obj 60 110 r \$1.s\$2.2;
#X obj 110 64 r \$1.s\$2.3;
#X obj 170 113 r \$1.s\$2.4;
#X obj 220 68 r \$1.s\$2.5;
#X obj 264 115 r \$1.s\$2.6;
#X obj 422 284 list trim;
#X obj 1073 197 r \$1.s\$2.load;
#X obj 422 261 list prepend event \$2;
#X obj 1071 281 r \$1.s\$2.clear;
#X msg 1071 303 clear \$1;
#X obj 1163 195 r \$1.r\$2.load;
#X obj 1163 217 route range;
#X msg 1163 239 \$1;
#X msg 1073 251 load \$1;
#X obj 1073 225 f;
#X text 1140 258 this is an ugly hack i dont;
#X text 1160 270 want to explain;
#X obj 934 217 r \$1.s\$2.pointer;
#X msg 934 239 pointer;
#X connect 0 0 25 0;
#X connect 1 0 26 0;
#X connect 2 0 27 0;
#X connect 3 0 28 0;
#X connect 4 0 29 0;
#X connect 5 0 30 0;
#X connect 6 0 31 0;
#X connect 7 0 32 0;
#X connect 8 0 33 0;
#X connect 9 0 34 0;
#X connect 10 0 35 0;
#X connect 11 0 36 0;
#X connect 12 0 37 0;
#X connect 13 0 38 0;
#X connect 14 0 39 0;
#X connect 15 0 40 0;
#X connect 16 0 41 0;
#X connect 17 0 42 0;
#X connect 19 0 51 0;
#X connect 20 0 51 0;
#X connect 21 0 51 0;
#X connect 22 0 51 0;
#X connect 23 0 51 0;
#X connect 24 0 51 0;
#X connect 25 0 51 0;
#X connect 26 0 51 0;
#X connect 27 0 51 0;
#X connect 28 0 51 0;
#X connect 29 0 51 0;
#X connect 30 0 51 0;
#X connect 31 0 51 0;
#X connect 32 0 51 0;
#X connect 33 0 51 0;
#X connect 34 0 51 0;
#X connect 35 0 51 0;
#X connect 36 0 51 0;
#X connect 37 0 51 0;
#X connect 38 0 51 0;
#X connect 39 0 51 0;
#X connect 40 0 51 0;
#X connect 41 0 51 0;
#X connect 42 0 51 0;
#X connect 43 0 19 0;
#X connect 44 0 20 0;
#X connect 45 0 21 0;
#X connect 46 0 22 0;
#X connect 47 0 23 0;
#X connect 48 0 24 0;
#X connect 49 0 18 0;
#X connect 50 0 58 0;
#X connect 51 0 49 0;
#X connect 52 0 53 0;
#X connect 53 0 51 0;
#X connect 54 0 55 0;
#X connect 55 0 56 0;
#X connect 56 0 58 1;
#X connect 57 0 51 0;
#X connect 58 0 57 0;
#X connect 61 0 62 0;
#X connect 62 0 51 0;
#X restore 9 63 pd receivers;
#N canvas 85 228 921 426 state.save 0;
#X obj 18 26 r \$1.MTX;
#X obj 18 48 route route;
#X obj 18 70 route \$2;
#X obj 18 92 t a a;
#X msg 18 114 \$2;
#X obj 18 136 tabwrite \$0.routing;
#X msg 148 115 \$1;
#X obj 224 30 table \$0.routing 25;
#X obj 27 191 r \$1.MTX;
#X obj 27 213 route getpreset;
#X obj 27 257 t a a;
#X obj 27 279 tabread \$0.routing;
#X obj 27 301 sel 1;
#X obj 27 323 f;
#X obj 27 366 list trim;
#X msg 132 69 15 1;
#X obj 27 388 s \$1.MTX;
#X obj 291 204 r \$1.MTX;
#X obj 346 247 route \$2;
#X obj 346 268 list;
#X obj 291 261 b;
#X obj 291 301 list append;
#X obj 358 346 list prepend preset load \$2;
#X obj 358 368 list trim;
#X obj 358 390 s \$1.MTX;
#X obj 402 278 b;
#X obj 291 323 route bang;
#X text 27 168 --------ROUTING-----------;
#X text 290 176 -----FILE-----------------;
#N canvas 365 152 124 205 seq24 0;
#X obj 9 13 inlet;
#X obj 9 35 t b b;
#X msg 9 57 24;
#X obj 9 79 until;
#X obj 9 101 f;
#X obj 9 123 + 1;
#X obj 9 145 t a a;
#X msg 47 55 0;
#X obj 41 166 outlet;
#X connect 0 0 1 0;
#X connect 1 0 2 0;
#X connect 1 1 7 0;
#X connect 2 0 3 0;
#X connect 3 0 4 0;
#X connect 4 0 5 0;
#X connect 5 0 6 0;
#X connect 6 0 4 1;
#X connect 6 1 8 0;
#X connect 7 0 4 1;
#X restore 27 235 pd seq24;
#X text 603 11 -----RESET-----------;
#X obj 721 32 r \$1.MTX;
#X obj 721 231 list trim;
#X obj 721 253 s \$1.MTX;
#N canvas 365 152 124 205 seq24 0;
#X obj 9 13 inlet;
#X obj 9 35 t b b;
#X msg 9 57 24;
#X obj 9 79 until;
#X obj 9 101 f;
#X obj 9 123 + 1;
#X obj 9 145 t a a;
#X msg 47 55 0;
#X obj 41 166 outlet;
#X connect 0 0 1 0;
#X connect 1 0 2 0;
#X connect 1 1 7 0;
#X connect 2 0 3 0;
#X connect 3 0 4 0;
#X connect 4 0 5 0;
#X connect 5 0 6 0;
#X connect 6 0 4 1;
#X connect 6 1 8 0;
#X connect 7 0 4 1;
#X restore 721 76 pd seq24;
#X obj 721 54 route reset;
#X obj 27 344 list prepend preset routeset \$2;
#X obj 721 187 list append 1;
#X obj 721 209 list prepend routereset \$2;
#X obj 721 121 tabread \$0.routing;
#X obj 721 143 sel 1;
#X obj 721 165 f;
#X obj 721 98 t a a;
#X obj 291 225 route getpreset load reset setre;
#X obj 456 248 route \$2;
#X connect 0 0 1 0;
#X connect 1 0 2 0;
#X connect 2 0 3 0;
#X connect 3 0 4 0;
#X connect 3 1 6 0;
#X connect 4 0 5 0;
#X connect 6 0 5 1;
#X connect 8 0 9 0;
#X connect 9 0 29 0;
#X connect 10 0 11 0;
#X connect 10 1 13 1;
#X connect 11 0 12 0;
#X connect 12 0 13 0;
#X connect 13 0 36 0;
#X connect 14 0 16 0;
#X connect 15 0 3 0;
#X connect 17 0 43 0;
#X connect 18 0 19 0;
#X connect 19 0 21 1;
#X connect 20 0 21 0;
#X connect 21 0 26 0;
#X connect 22 0 23 0;
#X connect 23 0 24 0;
#X connect 25 0 21 1;
#X connect 26 1 22 0;
#X connect 29 0 10 0;
#X connect 31 0 35 0;
#X connect 32 0 33 0;
#X connect 34 0 42 0;
#X connect 35 0 34 0;
#X connect 36 0 14 0;
#X connect 37 0 38 0;
#X connect 38 0 32 0;
#X connect 39 0 40 0;
#X connect 40 0 41 0;
#X connect 41 0 37 0;
#X connect 42 0 39 0;
#X connect 42 1 41 1;
#X connect 43 0 20 0;
#X connect 43 1 18 0;
#X connect 43 2 25 0;
#X connect 43 3 44 0;
#X connect 44 0 25 0;
#X restore 10 128 pd state.save;
#X obj 436 11 cnv 15 15 15 empty empty _\$2 20 8 0 10 -233017 -66577
0;
#X obj 23 10 hsl 13 17 0 0 0 0 \$1.s\$2.1 \$1.r\$2.1 empty -2 -8 0
10 -262144 -262144 -1 0 1;
#X obj 41 10 hsl 13 17 0 0 0 0 \$1.s\$2.2 \$1.r\$2.2 empty -2 -8 0
10 -262144 -262144 -1 0 1;
#X obj 59 10 hsl 13 17 0 0 0 0 \$1.s\$2.3 \$1.r\$2.3 empty -2 -8 0
10 -262144 -262144 -1 0 1;
#X obj 77 10 hsl 13 17 0 0 0 0 \$1.s\$2.4 \$1.r\$2.4 empty -2 -8 0
10 -262144 -262144 -1 0 1;
#X obj 95 10 hsl 13 17 0 0 0 0 \$1.s\$2.5 \$1.r\$2.5 empty -2 -8 0
10 -262144 -262144 -1 0 1;
#X obj 113 10 hsl 13 17 0 0 0 0 \$1.s\$2.6 \$1.r\$2.6 empty -2 -8 0
10 -262144 -262144 -1 0 1;
#X obj 131 10 hsl 13 17 0 0 0 0 \$1.s\$2.7 \$1.r\$2.7 empty -2 -8 0
10 -262144 -262144 -1 0 1;
#X obj 149 10 hsl 13 17 0 0 0 0 \$1.s\$2.8 \$1.r\$2.8 empty -2 -8 0
10 -262144 -262144 -1 0 1;
#X obj 167 10 hsl 13 17 0 0 0 0 \$1.s\$2.9 \$1.r\$2.9 empty -2 -8 0
10 -262144 -262144 -1 0 1;
#X obj 185 10 hsl 13 17 0 0 0 0 \$1.s\$2.10 \$1.r\$2.10 empty -2 -8
0 10 -262144 -262144 -1 0 1;
#X obj 203 10 hsl 13 17 0 0 0 0 \$1.s\$2.11 \$1.r\$2.11 empty -2 -8
0 10 -262144 -262144 -1 0 1;
#X obj 221 10 hsl 13 17 0 0 0 0 \$1.s\$2.12 \$1.r\$2.12 empty -2 -8
0 10 -262144 -262144 -1 0 1;
#X obj 239 10 hsl 13 17 0 0 0 0 \$1.s\$2.13 \$1.r\$2.13 empty -2 -8
0 10 -262144 -262144 -1 0 1;
#X obj 257 10 hsl 13 17 0 0 0 0 \$1.s\$2.14 \$1.r\$2.14 empty -2 -8
0 10 -262144 -262144 -1 0 1;
#X obj 275 10 hsl 13 17 0 0 0 0 \$1.s\$2.15 \$1.r\$2.15 empty -2 -8
0 10 -262144 -262144 -1 0 1;
#X obj 293 10 hsl 13 17 0 0 0 0 \$1.s\$2.16 \$1.r\$2.16 empty -2 -8
0 10 -262144 -262144 -1 0 1;
#X obj 311 10 hsl 13 17 0 0 0 0 \$1.s\$2.17 \$1.r\$2.17 empty -2 -8
0 10 -262144 -262144 -1 0 1;
#X obj 329 10 hsl 13 17 0 0 0 0 \$1.s\$2.18 \$1.r\$2.18 empty -2 -8
0 10 -262144 -262144 -1 0 1;
#X obj 347 10 hsl 13 17 0 0 0 0 \$1.s\$2.19 \$1.r\$2.19 empty -2 -8
0 10 -262144 -262144 -1 0 1;
#X obj 365 10 hsl 13 17 0 0 0 0 \$1.s\$2.20 \$1.r\$2.20 empty -2 -8
0 10 -262144 -262144 -1 0 1;
#X obj 383 10 hsl 13 17 0 0 0 0 \$1.s\$2.21 \$1.r\$2.21 empty -2 -8
0 10 -262144 -262144 -1 0 1;
#X obj 401 10 hsl 13 17 0 0 0 0 \$1.s\$2.22 \$1.r\$2.22 empty -2 -8
0 10 -262144 -262144 -1 0 1;
#X obj 419 10 hsl 13 17 0 0 0 0 \$1.s\$2.23 \$1.r\$2.23 empty -2 -8
0 10 -262144 -262144 -1 0 1;
#X obj 437 10 hsl 13 17 0 0 0 0 \$1.s\$2.24 \$1.r\$2.24 empty -2 -8
0 10 -262144 -262144 -1 0 1;
#X obj 13 10 hsl 5 17 0 0 0 0 \$1.s\$2.pointer \$1.r\$2.pointer empty
-2 -8 0 10 -249661 -249661 -1 0 1;
#N canvas 177 18 229 288 pointer.colors 0;
#X obj 41 9 r \$1.MTX;
#X obj 41 92 sel 0 1;
#X obj 41 196 clr.conv;
#X obj 41 244 s \$1.r\$2.pointer;
#X msg 41 221 color \$1 \$1 -1;
#X obj 41 31 route steps;
#X obj 41 57 >= \$2;
#X msg 41 172 192 192 192;
#N canvas 105 329 383 258 mix.color 0;
#X obj 63 137 + 240;
#X obj 110 138 + 240;
#X obj 168 138 + 240;
#X obj 63 106 * 15;
#X obj 110 107 * -113;
#X obj 168 107 * -113;
#X obj 63 182 pack f f f;
#X obj 63 44 inlet;
#X obj 63 66 t a a a;
#X text 176 65 255 127 127 <-> 240 240 240;
#X obj 63 204 outlet;
#X connect 0 0 6 0;
#X connect 1 0 6 1;
#X connect 2 0 6 2;
#X connect 3 0 0 0;
#X connect 4 0 1 0;
#X connect 5 0 2 0;
#X connect 6 0 10 0;
#X connect 7 0 8 0;
#X connect 8 0 3 0;
#X connect 8 1 4 0;
#X connect 8 2 5 0;
#X restore 64 141 pd mix.color;
#X msg 64 118 0;
#X obj 123 79 hsl 50 15 0 1 0 0 empty empty empty -2 -8 0 10 -262144
-1 -1 0 1;
#X connect 0 0 5 0;
#X connect 1 0 7 0;
#X connect 1 1 9 0;
#X connect 2 0 4 0;
#X connect 4 0 3 0;
#X connect 5 0 6 0;
#X connect 6 0 1 0;
#X connect 7 0 2 0;
#X connect 8 0 2 0;
#X connect 9 0 8 0;
#X connect 10 0 8 0;
#X restore 10 101 pd pointer.colors;
#X coords 0 -1 1 1 442 17 2 10 10;
