#N canvas 136 401 582 403 10;
#N canvas 210 227 196 188 gui.shizzle 1;
#N canvas 254 278 278 256 display.background 0;
#X obj 51 204 s \$0.inst.id.r;
#X obj 55 116 clr.conv;
#X msg 55 140 color \$1 \$1 -1;
#X msg 55 90 220 220 220;
#X msg 78 69 255 127 127;
#X obj 55 0 r \$0.MTX;
#X obj 55 22 route display;
#X obj 55 44 sel 0 1;
#X obj 93 177 s \$0.play.r;
#X connect 1 0 2 0;
#X connect 2 0 0 0;
#X connect 2 0 8 0;
#X connect 3 0 1 0;
#X connect 4 0 1 0;
#X connect 5 0 6 0;
#X connect 6 0 7 0;
#X connect 7 0 3 0;
#X connect 7 1 4 0;
#X restore 8 84 pd display.background;
#N canvas 1282 315 398 456 instance.id 0;
#X obj 23 89 s \$1.MTX;
#X obj 23 111 r \$1.MTX;
#X msg 23 68 getinstancelist.loop;
#X obj 23 133 route instancelist.loop;
#X obj 23 155 list prepend set.list;
#X obj 23 177 list trim;
#X obj 23 223 s \$0.inst;
#X obj 23 20 loadbang;
#X obj 32 269 r \$0.inst;
#X obj 32 326 route return;
#X obj 32 348 list;
#X msg 32 370 setinstid \$1;
#X obj 32 391 s \$0.MTX;
#X obj 23 42 t b b;
#X obj 186 250 r \$0.MTX;
#X obj 186 274 route setinstid;
#X obj 186 298 t b a b;
#X msg 186 322 1;
#X msg 232 322 0;
#X obj 32 299 spigot 1;
#X msg 208 372 set.current \$1;
#X obj 208 349 list;
#X obj 208 402 s \$0.inst;
#X connect 1 0 3 0;
#X connect 2 0 0 0;
#X connect 3 0 4 0;
#X connect 4 0 5 0;
#X connect 5 0 6 0;
#X connect 7 0 13 0;
#X connect 8 0 19 0;
#X connect 9 0 10 0;
#X connect 10 0 11 0;
#X connect 11 0 12 0;
#X connect 13 0 2 0;
#X connect 14 0 15 0;
#X connect 15 0 16 0;
#X connect 16 0 17 0;
#X connect 16 1 21 0;
#X connect 16 2 18 0;
#X connect 17 0 19 1;
#X connect 18 0 19 1;
#X connect 19 0 9 0;
#X connect 20 0 22 0;
#X connect 21 0 20 0;
#X restore 8 38 pd instance.id;
#X restore 21 119 pd gui.shizzle;
#X obj 379 12 r \$0.MTX;
#X obj 292 58 b;
#X obj 292 80 list;
#X obj 379 56 list;
#X obj 292 101 sel <none>;
#X obj 310 183 s \$1.MTX;
#X obj 20 22 vsl 40 9 0 2 0 0 \$0.play.s \$0.play.r play 7 5 0 10 -228856
-228856 -1 0 1;
#X obj 310 138 t a b;
#X obj 421 197 r \$0.MTX;
#X obj 309 212 r \$1.MTX;
#X obj 309 234 route loopend;
#N canvas 0 0 564 295 sel 0;
#X obj 20 16 inlet;
#X obj 20 38 list;
#X obj 20 60 route float symbol;
#X obj 20 189 sel -1234;
#X obj 99 191 sel <none>;
#X obj 20 229 outlet;
#X obj 237 18 inlet;
#X obj 237 40 list;
#X obj 237 62 route float symbol;
#X obj 237 84 t a b;
#X obj 298 84 t b a;
#X msg 269 142 symbol <none>;
#X msg 298 118 -1234;
#X connect 0 0 1 0;
#X connect 1 0 2 0;
#X connect 2 0 3 0;
#X connect 2 1 4 0;
#X connect 3 0 5 0;
#X connect 4 0 5 0;
#X connect 6 0 7 0;
#X connect 7 0 8 0;
#X connect 8 0 9 0;
#X connect 8 1 10 0;
#X connect 9 0 3 1;
#X connect 9 1 11 0;
#X connect 10 0 12 0;
#X connect 10 1 4 1;
#X connect 11 0 4 1;
#X connect 12 0 3 1;
#X restore 309 302 pd sel;
#X obj 309 277 spigot;
#X msg 415 290 1;
#X obj 309 325 t b b;
#X msg 452 290 0;
#X obj 415 320 t a a;
#X obj 415 368 s \$0.MTX;
#X obj 452 269 route stopall;
#X obj 421 219 route setinstid;
#X msg 415 346 display \$1;
#X text 11 53 arguments: <\$0_from_parent>;
#X msg 310 161 \$1 loopplay 1;
#X obj 379 34 route setinstid;
#X obj 292 17 r \$0.play.s;
#X obj 452 247 r \$1.MTX;
#X obj 38 186 loadbang;
#X msg 38 208 setinstid <none>;
#X obj 38 230 s \$0.MTX;
#X obj 60 20 list.selector \$0.inst;
#X connect 1 0 24 0;
#X connect 2 0 3 0;
#X connect 3 0 5 0;
#X connect 4 0 3 1;
#X connect 5 1 8 0;
#X connect 8 0 23 0;
#X connect 8 1 14 0;
#X connect 9 0 20 0;
#X connect 10 0 11 0;
#X connect 11 0 13 0;
#X connect 12 0 15 0;
#X connect 13 0 12 0;
#X connect 14 0 17 0;
#X connect 15 1 16 0;
#X connect 16 0 17 0;
#X connect 17 0 21 0;
#X connect 17 1 13 1;
#X connect 19 0 16 0;
#X connect 20 0 12 1;
#X connect 21 0 18 0;
#X connect 23 0 6 0;
#X connect 24 0 4 0;
#X connect 25 0 2 0;
#X connect 26 0 19 0;
#X connect 27 0 28 0;
#X connect 28 0 29 0;
#X coords 0 -1 1 1 120 14 2 20 20;
