#N canvas 105 142 721 186 10;
#X obj 13 10 hsl 13 17 0 0 0 0 \$1.s\$2.1 \$1.r\$2.1 empty -2 -8 0
10 -262144 -262144 -1 0 1;
#X obj 31 10 hsl 13 17 0 0 0 0 \$1.s\$2.2 \$1.r\$2.2 empty -2 -8 0
10 -262144 -262144 -1 0 1;
#X obj 49 10 hsl 13 17 0 0 0 0 \$1.s\$2.3 \$1.r\$2.3 empty -2 -8 0
10 -262144 -262144 -1 0 1;
#X obj 67 10 hsl 13 17 0 0 0 0 \$1.s\$2.4 \$1.r\$2.4 empty -2 -8 0
10 -262144 -262144 -1 0 1;
#X obj 85 10 hsl 13 17 0 0 0 0 \$1.s\$2.5 \$1.r\$2.5 empty -2 -8 0
10 -262144 -262144 -1 0 1;
#X obj 103 10 hsl 13 17 0 0 0 0 \$1.s\$2.6 \$1.r\$2.6 empty -2 -8 0
10 -262144 -262144 -1 0 1;
#X obj 121 10 hsl 13 17 0 0 0 0 \$1.s\$2.7 \$1.r\$2.7 empty -2 -8 0
10 -262144 -262144 -1 0 1;
#X obj 139 10 hsl 13 17 0 0 0 0 \$1.s\$2.8 \$1.r\$2.8 empty -2 -8 0
10 -262144 -262144 -1 0 1;
#X obj 157 10 hsl 13 17 0 0 0 0 \$1.s\$2.9 \$1.r\$2.9 empty -2 -8 0
10 -262144 -262144 -1 0 1;
#X obj 175 10 hsl 13 17 0 0 0 0 \$1.s\$2.10 \$1.r\$2.10 empty -2 -8
0 10 -262144 -262144 -1 0 1;
#X obj 193 10 hsl 13 17 0 0 0 0 \$1.s\$2.11 \$1.r\$2.11 empty -2 -8
0 10 -262144 -262144 -1 0 1;
#X obj 211 10 hsl 13 17 0 0 0 0 \$1.s\$2.12 \$1.r\$2.12 empty -2 -8
0 10 -262144 -262144 -1 0 1;
#X obj 229 10 hsl 13 17 0 0 0 0 \$1.s\$2.13 \$1.r\$2.13 empty -2 -8
0 10 -262144 -262144 -1 0 1;
#X obj 247 10 hsl 13 17 0 0 0 0 \$1.s\$2.14 \$1.r\$2.14 empty -2 -8
0 10 -262144 -262144 -1 0 1;
#X obj 265 10 hsl 13 17 0 0 0 0 \$1.s\$2.15 \$1.r\$2.15 empty -2 -8
0 10 -262144 -262144 -1 0 1;
#X obj 283 10 hsl 13 17 0 0 0 0 \$1.s\$2.16 \$1.r\$2.16 empty -2 -8
0 10 -262144 -262144 -1 0 1;
#X obj 301 10 hsl 13 17 0 0 0 0 \$1.s\$2.17 \$1.r\$2.17 empty -2 -8
0 10 -262144 -262144 -1 0 1;
#X obj 319 10 hsl 13 17 0 0 0 0 \$1.s\$2.18 \$1.r\$2.18 empty -2 -8
0 10 -262144 -262144 -1 0 1;
#X obj 337 10 hsl 13 17 0 0 0 0 \$1.s\$2.19 \$1.r\$2.19 empty -2 -8
0 10 -262144 -262144 -1 0 1;
#X obj 355 10 hsl 13 17 0 0 0 0 \$1.s\$2.20 \$1.r\$2.20 empty -2 -8
0 10 -262144 -262144 -1 0 1;
#X obj 373 10 hsl 13 17 0 0 0 0 \$1.s\$2.21 \$1.r\$2.21 empty -2 -8
0 10 -262144 -262144 -1 0 1;
#X obj 391 10 hsl 13 17 0 0 0 0 \$1.s\$2.22 \$1.r\$2.22 empty -2 -8
0 10 -262144 -262144 -1 0 1;
#X obj 409 10 hsl 13 17 0 0 0 0 \$1.s\$2.23 \$1.r\$2.23 empty -2 -8
0 10 -262144 -262144 -1 0 1;
#X obj 427 10 hsl 13 17 0 0 0 0 \$1.s\$2.24 \$1.r\$2.24 empty -2 -8
0 10 -262144 -262144 -1 0 1;
#X obj 690 10 hsl 5 17 0 0 0 0 \$1.s\$2.clear \$1.r\$2.clear empty
-2 -8 0 10 -262144 -262144 -1 0 1;
#N canvas 44 236 1333 340 receivers 0;
#X obj 319 70 r \$1.s\$2.7;
#X obj 362 113 r \$1.s\$2.8;
#X obj 440 68 r \$1.s\$2.9;
#X obj 485 115 r \$1.s\$2.10;
#X obj 560 66 r \$1.s\$2.11;
#X obj 604 116 r \$1.s\$2.12;
#X obj 689 68 r \$1.s\$2.13;
#X obj 728 116 r \$1.s\$2.14;
#X obj 795 71 r \$1.s\$2.15;
#X obj 832 118 r \$1.s\$2.16;
#X obj 899 69 r \$1.s\$2.17;
#X obj 928 119 r \$1.s\$2.18;
#X obj 1001 67 r \$1.s\$2.19;
#X obj 1029 118 r \$1.s\$2.20;
#X obj 1107 70 r \$1.s\$2.21;
#X obj 1138 117 r \$1.s\$2.22;
#X obj 1209 71 r \$1.s\$2.23;
#X obj 1229 119 r \$1.s\$2.24;
#X obj 422 306 s \$1.MTX;
#X msg 8 87 1 \$1;
#X msg 60 132 2 \$1;
#X msg 110 86 3 \$1;
#X msg 170 135 4 \$1;
#X msg 220 90 5 \$1;
#X msg 264 137 6 \$1;
#X msg 319 92 7 \$1;
#X msg 362 139 8 \$1;
#X msg 440 90 9 \$1;
#X msg 485 137 10 \$1;
#X msg 560 88 11 \$1;
#X msg 604 138 12 \$1;
#X msg 689 90 13 \$1;
#X msg 728 138 14 \$1;
#X msg 795 93 15 \$1;
#X msg 832 140 16 \$1;
#X msg 899 91 17 \$1;
#X msg 928 141 18 \$1;
#X msg 1001 89 19 \$1;
#X msg 1029 140 20 \$1;
#X msg 1107 92 21 \$1;
#X msg 1138 139 22 \$1;
#X msg 1209 93 23 \$1;
#X msg 1229 141 24 \$1;
#X obj 8 65 r \$1.s\$2.1;
#X obj 60 110 r \$1.s\$2.2;
#X obj 110 64 r \$1.s\$2.3;
#X obj 170 113 r \$1.s\$2.4;
#X obj 220 68 r \$1.s\$2.5;
#X obj 264 115 r \$1.s\$2.6;
#X obj 422 284 list trim;
#X obj 1073 197 r \$1.s\$2.load;
#X obj 422 261 list prepend event \$2;
#X obj 1071 281 r \$1.s\$2.clear;
#X msg 1071 303 clear \$1;
#X obj 1163 195 r \$1.r\$2.load;
#X obj 1163 217 route range;
#X msg 1163 239 \$1;
#X msg 1073 251 load \$1;
#X obj 1073 225 f;
#X text 1140 258 this is an ugly hack i dont;
#X text 1160 270 want to explain;
#X connect 0 0 25 0;
#X connect 1 0 26 0;
#X connect 2 0 27 0;
#X connect 3 0 28 0;
#X connect 4 0 29 0;
#X connect 5 0 30 0;
#X connect 6 0 31 0;
#X connect 7 0 32 0;
#X connect 8 0 33 0;
#X connect 9 0 34 0;
#X connect 10 0 35 0;
#X connect 11 0 36 0;
#X connect 12 0 37 0;
#X connect 13 0 38 0;
#X connect 14 0 39 0;
#X connect 15 0 40 0;
#X connect 16 0 41 0;
#X connect 17 0 42 0;
#X connect 19 0 51 0;
#X connect 20 0 51 0;
#X connect 21 0 51 0;
#X connect 22 0 51 0;
#X connect 23 0 51 0;
#X connect 24 0 51 0;
#X connect 25 0 51 0;
#X connect 26 0 51 0;
#X connect 27 0 51 0;
#X connect 28 0 51 0;
#X connect 29 0 51 0;
#X connect 30 0 51 0;
#X connect 31 0 51 0;
#X connect 32 0 51 0;
#X connect 33 0 51 0;
#X connect 34 0 51 0;
#X connect 35 0 51 0;
#X connect 36 0 51 0;
#X connect 37 0 51 0;
#X connect 38 0 51 0;
#X connect 39 0 51 0;
#X connect 40 0 51 0;
#X connect 41 0 51 0;
#X connect 42 0 51 0;
#X connect 43 0 19 0;
#X connect 44 0 20 0;
#X connect 45 0 21 0;
#X connect 46 0 22 0;
#X connect 47 0 23 0;
#X connect 48 0 24 0;
#X connect 49 0 18 0;
#X connect 50 0 58 0;
#X connect 51 0 49 0;
#X connect 52 0 53 0;
#X connect 53 0 51 0;
#X connect 54 0 55 0;
#X connect 55 0 56 0;
#X connect 56 0 58 1;
#X connect 57 0 51 0;
#X connect 58 0 57 0;
#X restore 10 58 pd receivers;
#N canvas 159 161 590 629 audio.file.info 0;
#X obj 25 13 r \$1.MTX;
#X obj 25 35 list split 2;
#X msg 25 57 \$2 \$1;
#X obj 25 79 list append;
#X obj 25 101 route \$2;
#X obj 24 187 route load;
#X obj 24 209 list;
#X obj 24 454 pack f f f f;
#X obj 24 524 list prepend props;
#X obj 24 502 list prepend;
#X obj 24 569 s \$0.PLAYER;
#X obj 25 123 s \$0.PLAYER;
#X obj 24 164 r \$0.PLAYER;
#X obj 251 37 r \$0.PLAYER;
#X obj 24 546 list trim;
#X obj 251 58 route props;
#X obj 251 82 list;
#X obj 251 104 t a a;
#X msg 251 126 \$3;
#X msg 357 223 symbol \$1;
#X obj 251 150 t a b;
#X obj 251 178 until;
#X obj 251 206 f;
#X obj 293 178 \$2;
#X obj 295 205 + 1;
#X obj 283 251 list append;
#X obj 283 275 list prepend setload;
#X obj 283 408 list trim;
#X obj 283 457 s \$1.MTX;
#X obj 283 297 list append \$2;
#X text 281 476 setload <dest_id> <filename> <src_id>;
#X text 26 601 props <filename> <frames> <channels> <bitdepth> <sr>
;
#N canvas 576 157 591 267 check.channel.no 0;
#X obj 22 15 inlet;
#X obj 68 177 outlet;
#X obj 22 38 t a a;
#X msg 22 62 \$2;
#X obj 68 133 b;
#X obj 68 155 list append;
#X obj 168 171 list prepend ERROR;
#X obj 168 213 s \$1.MTX;
#X obj 168 192 list trim;
#X msg 168 149 \$1-channel files not supported. Use something betweeen
1-8;
#X obj 22 86 moses 1;
#X obj 68 109 moses 9;
#X connect 0 0 2 0;
#X connect 2 0 3 0;
#X connect 2 1 5 1;
#X connect 3 0 10 0;
#X connect 4 0 5 0;
#X connect 5 0 1 0;
#X connect 6 0 8 0;
#X connect 8 0 7 0;
#X connect 9 0 6 0;
#X connect 10 0 9 0;
#X connect 10 1 11 0;
#X connect 11 0 4 0;
#X connect 11 1 9 0;
#X restore 24 478 pd check.channel.no;
#X obj 283 321 t a a;
#X text 383 388 first unload;
#X obj 283 432 t a a;
#X obj 251 227 t a a;
#X obj 315 365 sel \$2;
#X msg 315 342 \$2;
#X msg 315 388 clear \$1;
#X obj 24 352 soundfile_info;
#X obj 24 373 t a a a a;
#X msg 24 395 \$3;
#X msg 44 423 \$5;
#X msg 64 397 \$6;
#X obj 78 424 * 8;
#X msg 105 400 \$1;
#N canvas 900 497 256 215 get.soundfiles.path 0;
#X obj 42 141 list;
#X obj 10 11 inlet;
#X obj 10 188 outlet;
#X obj 10 165 list append;
#X obj 10 33 t b b;
#X msg 42 54 get.soundfiles.path;
#X obj 42 75 s \$1.MTX;
#X obj 42 97 r \$1.MTX;
#X obj 42 119 route soundfiles.path;
#X connect 0 0 3 1;
#X connect 1 0 4 0;
#X connect 3 0 2 0;
#X connect 4 0 3 0;
#X connect 4 1 5 0;
#X connect 5 0 6 0;
#X connect 7 0 8 0;
#X connect 8 0 0 0;
#X restore 47 261 pd get.soundfiles.path;
#X obj 24 230 t a b a;
#X obj 24 302 list prepend;
#X msg 24 326 read \$1/\$2;
#X connect 0 0 1 0;
#X connect 1 0 2 0;
#X connect 1 1 3 1;
#X connect 2 0 3 0;
#X connect 3 0 4 0;
#X connect 4 0 11 0;
#X connect 5 0 6 0;
#X connect 6 0 48 0;
#X connect 7 0 32 0;
#X connect 8 0 14 0;
#X connect 9 0 8 0;
#X connect 12 0 5 0;
#X connect 13 0 15 0;
#X connect 14 0 10 0;
#X connect 15 0 16 0;
#X connect 16 0 17 0;
#X connect 17 0 18 0;
#X connect 17 1 19 0;
#X connect 18 0 20 0;
#X connect 19 0 25 1;
#X connect 20 0 21 0;
#X connect 20 1 23 0;
#X connect 21 0 22 0;
#X connect 22 0 36 0;
#X connect 23 0 22 1;
#X connect 24 0 22 1;
#X connect 25 0 26 0;
#X connect 26 0 29 0;
#X connect 27 0 35 0;
#X connect 29 0 33 0;
#X connect 32 0 9 0;
#X connect 33 0 27 0;
#X connect 33 1 38 0;
#X connect 35 0 28 0;
#X connect 36 0 24 0;
#X connect 36 1 25 0;
#X connect 37 1 39 0;
#X connect 38 0 37 0;
#X connect 39 0 27 0;
#X connect 40 0 41 0;
#X connect 41 0 42 0;
#X connect 41 1 43 0;
#X connect 41 2 44 0;
#X connect 41 3 46 0;
#X connect 42 0 7 0;
#X connect 43 0 7 1;
#X connect 44 0 45 0;
#X connect 45 0 7 2;
#X connect 46 0 7 3;
#X connect 47 0 49 1;
#X connect 48 0 49 0;
#X connect 48 1 47 0;
#X connect 48 2 9 1;
#X connect 49 0 50 0;
#X connect 50 0 40 0;
#X restore 10 81 pd audio.file.info;
#N canvas 1192 44 488 662 audio.player 0;
#X text 121 34 props <filename> <frames> <channels> <bitdepth> <sr>
;
#X obj 17 13 r \$0.PLAYER;
#X obj 17 33 route props;
#X obj 17 54 list;
#X msg 98 106 \$3;
#X obj 17 128 list prepend;
#X obj 17 77 t a a a;
#X obj 17 219 list;
#X obj 166 78 r \$1.MTX;
#X obj 166 125 route \$2;
#X msg 166 148 0;
#X obj 17 619 th.row \$1 \$2 1;
#X obj 99 260 r \$1.MTX;
#X obj 36 599 th.row \$1 \$2 2;
#X obj 56 578 th.row \$1 \$2 3;
#X obj 76 558 th.row \$1 \$2 4;
#X obj 96 537 th.row \$1 \$2 5;
#X obj 115 517 th.row \$1 \$2 6;
#X obj 135 496 th.row \$1 \$2 7;
#X obj 323 345 switch~;
#X obj 155 476 th.row \$1 \$2 8;
#X obj 175 455 read.msg \$1 \$2;
#X obj 17 433 readmanychsf~ 0 32 1024;
#X msg 49 195 channels \$1;
#X obj 17 170 t a a;
#X obj 166 101 route setclear;
#X obj 99 281 route player;
#X obj 323 216 r \$1.MTX;
#X obj 323 237 route player;
#X msg 323 287 1;
#X msg 366 287 0;
#X obj 323 318 *;
#X msg 63 267 1;
#X obj 323 259 route play stop;
#X obj 17 243 t a b b;
#N canvas 900 497 256 215 get.soundfiles.path 0;
#X obj 42 141 list;
#X obj 10 11 inlet;
#X obj 10 188 outlet;
#X obj 10 165 list append;
#X obj 10 33 t b b;
#X msg 42 54 get.soundfiles.path;
#X obj 42 75 s \$1.MTX;
#X obj 42 97 r \$1.MTX;
#X obj 42 119 route soundfiles.path;
#X connect 0 0 3 1;
#X connect 1 0 4 0;
#X connect 3 0 2 0;
#X connect 4 0 3 0;
#X connect 4 1 5 0;
#X connect 5 0 6 0;
#X connect 7 0 8 0;
#X connect 8 0 0 0;
#X restore 40 312 pd get.soundfiles.path;
#X msg 17 289 symbol \$2;
#X obj 17 340 list prepend;
#X msg 17 362 symbol \$1/\$2;
#X obj 17 384 t a a;
#X msg 17 406 open \$1;
#X obj 261 513 route ready;
#X obj 261 535 sel 1;
#X obj 261 557 symbol;
#X msg 261 579 INFO soundfiled loaded: \$1;
#X obj 263 621 s \$1.MTX;
#X connect 1 0 2 0;
#X connect 2 0 3 0;
#X connect 3 0 6 0;
#X connect 4 0 5 1;
#X connect 5 0 24 0;
#X connect 6 0 5 0;
#X connect 6 1 4 0;
#X connect 7 0 34 0;
#X connect 8 0 25 0;
#X connect 9 0 10 0;
#X connect 10 0 23 0;
#X connect 10 0 31 1;
#X connect 12 0 26 0;
#X connect 22 0 11 0;
#X connect 22 1 13 0;
#X connect 22 2 14 0;
#X connect 22 3 15 0;
#X connect 22 4 16 0;
#X connect 22 5 17 0;
#X connect 22 6 18 0;
#X connect 22 7 20 0;
#X connect 22 8 21 0;
#X connect 23 0 22 0;
#X connect 24 0 7 0;
#X connect 24 1 23 0;
#X connect 25 0 9 0;
#X connect 26 0 22 0;
#X connect 27 0 28 0;
#X connect 28 0 33 0;
#X connect 29 0 31 0;
#X connect 30 0 31 0;
#X connect 31 0 19 0;
#X connect 32 0 31 1;
#X connect 33 0 29 0;
#X connect 33 1 30 0;
#X connect 34 0 36 0;
#X connect 34 1 35 0;
#X connect 34 2 32 0;
#X connect 35 0 37 1;
#X connect 36 0 37 0;
#X connect 37 0 38 0;
#X connect 38 0 39 0;
#X connect 39 0 40 0;
#X connect 40 0 22 0;
#X connect 41 0 42 0;
#X connect 42 0 43 0;
#X connect 43 0 44 0;
#X connect 44 0 45 0;
#X restore 10 127 pd audio.player;
#N canvas 779 92 464 634 master.slave.logic 0;
#X obj 249 98 r \$1.MTX;
#X obj 42 45 r \$1.MTX;
#X obj 42 68 route clear;
#X obj 42 91 sel \$2;
#X obj 42 137 list append;
#X obj 42 159 list trim;
#X obj 42 181 s \$1.MTX;
#X obj 38 232 r \$1.MTX;
#X text 41 202 setre <master>;
#X obj 38 305 sel 0;
#X obj 70 352 list prepend setclear \$2;
#X obj 70 374 list trim;
#X obj 70 397 s \$1.MTX;
#X obj 38 328 t b b;
#X obj 38 442 s \$0.PLAYER;
#X msg 38 420 unload;
#X msg 42 114 setre;
#X obj 38 254 route setre;
#X obj 249 144 route \$2;
#X obj 249 167 list;
#X msg 249 191 \$2;
#X text 237 260 'who is my master?';
#X text 276 192 master;
#X obj 249 121 route setload setclear;
#X obj 352 146 route \$2;
#X text 312 144 me;
#X obj 249 224 t a a;
#X msg 352 171 0;
#X obj 116 112 sel 0;
#X connect 0 0 23 0;
#X connect 1 0 2 0;
#X connect 2 0 3 0;
#X connect 3 0 16 0;
#X connect 4 0 5 0;
#X connect 5 0 6 0;
#X connect 7 0 17 0;
#X connect 9 0 13 0;
#X connect 10 0 11 0;
#X connect 11 0 12 0;
#X connect 13 0 15 0;
#X connect 13 1 10 0;
#X connect 15 0 14 0;
#X connect 16 0 4 0;
#X connect 17 0 9 0;
#X connect 18 0 19 0;
#X connect 19 0 20 0;
#X connect 20 0 26 0;
#X connect 23 0 18 0;
#X connect 23 1 24 0;
#X connect 24 0 27 0;
#X connect 26 0 28 0;
#X connect 26 1 9 1;
#X connect 27 0 26 0;
#X connect 28 0 4 1;
#X connect 28 1 4 1;
#X restore 10 104 pd master.slave.logic;
#N canvas 451 85 921 426 state.save 0;
#X obj 18 26 r \$1.MTX;
#X obj 18 48 route route;
#X obj 18 70 route \$2;
#X obj 18 92 t a a;
#X msg 18 114 \$2;
#X obj 18 136 tabwrite \$0.routing;
#X msg 148 115 \$1;
#X obj 224 30 table \$0.routing 25;
#X obj 27 191 r \$1.MTX;
#X obj 27 213 route getpreset;
#X obj 27 257 t a a;
#X obj 27 279 tabread \$0.routing;
#X obj 27 301 sel 1;
#X obj 27 323 f;
#X obj 27 366 list trim;
#X msg 132 69 15 1;
#X obj 27 388 s \$1.MTX;
#X obj 291 204 r \$1.MTX;
#X obj 291 261 b;
#X obj 291 301 list append;
#X obj 358 368 list trim;
#X obj 358 390 s \$1.MTX;
#X obj 349 271 b;
#X obj 291 323 route bang;
#X text 27 168 --------ROUTING-----------;
#X text 290 176 -----FILE-----------------;
#N canvas 365 152 124 205 seq24 0;
#X obj 9 13 inlet;
#X obj 9 35 t b b;
#X msg 9 57 24;
#X obj 9 79 until;
#X obj 9 101 f;
#X obj 9 123 + 1;
#X obj 9 145 t a a;
#X msg 47 55 0;
#X obj 41 166 outlet;
#X connect 0 0 1 0;
#X connect 1 0 2 0;
#X connect 1 1 7 0;
#X connect 2 0 3 0;
#X connect 3 0 4 0;
#X connect 4 0 5 0;
#X connect 5 0 6 0;
#X connect 6 0 4 1;
#X connect 6 1 8 0;
#X connect 7 0 4 1;
#X restore 27 235 pd seq24;
#X text 603 11 -----RESET-----------;
#X obj 602 30 r \$1.MTX;
#X obj 602 51 route reset;
#X obj 602 73 b;
#X obj 602 95 \$2;
#X msg 602 116 setclear \$1;
#X obj 602 136 s \$1.MTX;
#X obj 721 32 r \$1.MTX;
#X obj 721 231 list trim;
#X obj 721 253 s \$1.MTX;
#N canvas 365 152 124 205 seq24 0;
#X obj 9 13 inlet;
#X obj 9 35 t b b;
#X msg 9 57 24;
#X obj 9 79 until;
#X obj 9 101 f;
#X obj 9 123 + 1;
#X obj 9 145 t a a;
#X msg 47 55 0;
#X obj 41 166 outlet;
#X connect 0 0 1 0;
#X connect 1 0 2 0;
#X connect 1 1 7 0;
#X connect 2 0 3 0;
#X connect 3 0 4 0;
#X connect 4 0 5 0;
#X connect 5 0 6 0;
#X connect 6 0 4 1;
#X connect 6 1 8 0;
#X connect 7 0 4 1;
#X restore 721 76 pd seq24;
#X obj 721 54 route reset;
#X obj 27 344 list prepend preset routeset \$2;
#X obj 721 187 list append 1;
#X obj 721 209 list prepend routereset \$2;
#X obj 721 121 tabread \$0.routing;
#X obj 721 143 sel 1;
#X obj 721 165 f;
#X obj 721 98 t a a;
#X obj 397 247 route \$2;
#X obj 291 225 route getpreset reset setre;
#X obj 471 207 r \$0.PLAYER;
#X obj 471 229 route props;
#X msg 471 272 symbol \$1;
#X obj 358 346 list prepend preset load \$2;
#X obj 471 251 list;
#X connect 0 0 1 0;
#X connect 1 0 2 0;
#X connect 2 0 3 0;
#X connect 3 0 4 0;
#X connect 3 1 6 0;
#X connect 4 0 5 0;
#X connect 6 0 5 1;
#X connect 8 0 9 0;
#X connect 9 0 26 0;
#X connect 10 0 11 0;
#X connect 10 1 13 1;
#X connect 11 0 12 0;
#X connect 12 0 13 0;
#X connect 13 0 39 0;
#X connect 14 0 16 0;
#X connect 15 0 3 0;
#X connect 17 0 47 0;
#X connect 18 0 19 0;
#X connect 19 0 23 0;
#X connect 20 0 21 0;
#X connect 22 0 19 1;
#X connect 23 1 51 0;
#X connect 26 0 10 0;
#X connect 28 0 29 0;
#X connect 29 0 30 0;
#X connect 30 0 31 0;
#X connect 31 0 32 0;
#X connect 32 0 33 0;
#X connect 34 0 38 0;
#X connect 35 0 36 0;
#X connect 37 0 45 0;
#X connect 38 0 37 0;
#X connect 39 0 14 0;
#X connect 40 0 41 0;
#X connect 41 0 35 0;
#X connect 42 0 43 0;
#X connect 43 0 44 0;
#X connect 44 0 40 0;
#X connect 45 0 42 0;
#X connect 45 1 44 1;
#X connect 46 0 22 0;
#X connect 47 0 18 0;
#X connect 47 1 22 0;
#X connect 47 2 46 0;
#X connect 48 0 49 0;
#X connect 49 0 52 0;
#X connect 50 0 19 1;
#X connect 51 0 20 0;
#X connect 52 0 50 0;
#X restore 10 150 pd state.save;
#X obj 442 10 bng 17 250 50 0 \$1.s\$2.load empty empty 17 7 0 10 -262144
-1 -1;
#X obj 460 10 bng 17 250 50 0 \$1.s\$2.load empty empty 17 7 0 10 -262144
-1 -1;
#X obj 478 10 bng 17 250 50 0 \$1.s\$2.load empty empty 17 7 0 10 -262144
-1 -1;
#X obj 496 10 bng 17 250 50 0 \$1.s\$2.load empty empty 17 7 0 10 -262144
-1 -1;
#X obj 514 10 bng 17 250 50 0 \$1.s\$2.load empty empty 17 7 0 10 -262144
-1 -1;
#X obj 532 10 bng 17 250 50 0 \$1.s\$2.load empty empty 17 7 0 10 -262144
-1 -1;
#X obj 550 10 bng 17 250 50 0 \$1.s\$2.load empty empty 17 7 0 10 -262144
-1 -1;
#X obj 568 10 bng 17 250 50 0 \$1.s\$2.load empty empty 17 7 0 10 -262144
-1 -1;
#X obj 586 10 bng 17 250 50 0 \$1.s\$2.load empty empty 17 7 0 10 -262144
-1 -1;
#X obj 604 10 bng 17 250 50 0 \$1.s\$2.load empty empty 17 7 0 10 -262144
-1 -1;
#X obj 622 10 bng 17 250 50 0 \$1.s\$2.load empty empty 17 7 0 10 -262144
-1 -1;
#X obj 640 10 bng 17 250 50 0 \$1.s\$2.load empty empty 17 7 0 10 -262144
-1 -1;
#X obj 658 10 bng 17 250 50 0 \$1.s\$2.load empty empty 17 7 0 10 -262144
-1 -1;
#X obj 670 10 bng 17 250 50 0 \$1.s\$2.load empty empty 17 7 0 10 -262144
-1 -1;
#X obj 445 10 hsl 240 17 0 0 0 0 \$0.bli \$1.r\$2.load empty 2 9 1
10 -262144 -262144 -1 0 1;
#X coords 0 -1 1 1 687 17 2 10 10;
