#N canvas 668 0 444 279 10;
#X obj 331 27 r \$0.MTX;
#X obj 315 47 spigot;
#X obj 399 32 tgl 15 0 empty empty empty 17 7 0 10 -262144 -1 -1 0
1;
#X obj 20 20 cnv 14 254 14 empty \$0.front.label.r live1 6 8 0 10 -237184
-1 0;
#X obj 20 35 cnv 14 254 35 empty \$0.front.background.r empty 20 12
0 14 -237184 -1 0;
#X obj 28 51 hsl 60 14 1 1 0 0 \$0.front.prelisten.s \$0.front.prelisten.r
prelisten 4 7 0 10 -228856 -228856 -1 0 1;
#X obj 93 51 hsl 52 14 1 1 0 0 \$0.front.stop.s \$0.front.stop.r stop
7 7 0 10 -228856 -228856 -1 0 1;
#X obj 208 51 hsl 59 14 1 1 0 0 \$0.bli \$0.front.length 0:00.00 6
8 0 10 -228856 -228856 -1 0 1;
#X obj 150 51 hsl 53 14 1 1 0 0 \$0.front.details.s \$0.front.details.r
details 7 7 0 10 -228856 -228856 -1 0 1;
#N canvas 143 0 712 552 matrix.router 0;
#X obj 17 419 chn.fader \$0 1 \$1;
#X obj 605 453 namecanvas \$2;
#X obj 450 420 cnv 14 254 14 empty \$0.front.label.r live1 6 8 0 10
-237184 -1 0;
#X obj 450 435 cnv 14 254 104 empty \$0.front.background.r empty 20
12 0 14 -237184 -1 0;
#X obj 458 451 hsl 60 14 1 1 0 0 \$0.front.prelisten.s \$0.front.prelisten.r
prelisten 4 7 0 10 -228856 -228856 -1 0 1;
#X obj 523 451 hsl 52 14 1 1 0 0 \$0.front.stop.s \$0.front.stop.r
stop 7 7 0 10 -228856 -228856 -1 0 1;
#X obj 638 451 hsl 59 14 1 1 0 0 \$0.bli \$0.front.length 0:00.00 6
8 0 10 -228856 -228856 -1 0 1;
#X obj 580 451 hsl 53 14 1 1 0 0 \$0.front.hide.s \$0.front.hide.r
hide 7 7 0 10 -228856 -228856 -1 0 1;
#X obj 17 181 player.row.live \$0 11;
#X obj 35 419 chn.fader \$0 2 \$1;
#X obj 53 419 chn.fader \$0 3 \$1;
#X obj 71 419 chn.fader \$0 4 \$1;
#X obj 89 419 chn.fader \$0 5 \$1;
#X obj 107 419 chn.fader \$0 6 \$1;
#X obj 125 419 chn.fader \$0 7 \$1;
#X obj 143 419 chn.fader \$0 8 \$1;
#X obj 161 419 chn.fader \$0 9 \$1;
#X obj 179 419 chn.fader \$0 10 \$1;
#X obj 197 419 chn.fader \$0 11 \$1;
#X obj 215 419 chn.fader \$0 12 \$1;
#X obj 233 419 chn.fader \$0 13 \$1;
#X obj 251 419 chn.fader \$0 14 \$1;
#X obj 269 419 chn.fader \$0 15 \$1;
#X obj 287 419 chn.fader \$0 16 \$1;
#X obj 305 419 chn.fader \$0 17 \$1;
#X obj 323 419 chn.fader \$0 18 \$1;
#X obj 341 419 chn.fader \$0 19 \$1;
#X obj 359 419 chn.fader \$0 20 \$1;
#X obj 377 419 chn.fader \$0 21 \$1;
#X obj 395 419 chn.fader \$0 22 \$1;
#X obj 413 419 chn.fader \$0 23 \$1;
#X obj 431 419 chn.fader \$0 24 \$1;
#X obj 580 436 hsl 117 15 0 10 0 0 \$0.fadeout.s \$0.fadeout.r 0.0s
4 8 0 10 -262144 -166441 -1 0 1;
#X obj 458 436 hsl 117 15 0 10 0 0 \$0.fadein.s \$0.fadein.r 0.0s 4
8 0 10 -262144 -166441 -1 0 1;
#X obj 17 28 player.row.live \$0 2;
#X obj 17 147 player.row.live \$0 9;
#X obj 17 11 player.row.live \$0 1;
#X obj 17 45 player.row.live \$0 3;
#X obj 17 62 player.row.live \$0 4;
#X obj 17 79 player.row.live \$0 5;
#X obj 17 96 player.row.live \$0 6;
#X obj 17 113 player.row.live \$0 7;
#X obj 17 130 player.row.live \$0 8;
#X obj 17 164 player.row.live \$0 10;
#X obj 17 198 player.row.live \$0 12;
#X obj 17 215 player.row.live \$0 13;
#X obj 17 232 player.row.live \$0 14;
#X obj 17 249 player.row.live \$0 15;
#X obj 17 266 player.row.live \$0 16;
#X obj 17 283 player.row.live \$0 17;
#X obj 17 300 player.row.live \$0 18;
#X obj 17 317 player.row.live \$0 19;
#X obj 17 334 player.row.live \$0 20;
#X obj 17 351 player.row.live \$0 21;
#X obj 17 368 player.row.live \$0 22;
#X obj 17 385 player.row.live \$0 23;
#X obj 17 402 player.row.live \$0 24;
#X obj 455 520 cnv 14 244 14 empty empty empty 20 12 0 14 -262144 -1
0;
#X symbolatom 455 520 34 0 0 0 - #0.description.r #0.description.s
;
#X restore 26 107 pd matrix.router;
#X obj 230 233 s \$0.MTX;
#X msg 230 208 reset;
#N canvas 195 112 367 556 state.save 0;
#X obj 19 10 r \$1.MTX;
#X obj 19 32 route getpreset;
#X msg 19 54 getpreset;
#X obj 19 76 s \$0.MTX;
#X obj 17 136 route preset;
#X obj 17 159 list prepend preset \$2;
#X obj 17 114 r \$0.MTX;
#X obj 17 181 list trim;
#X obj 17 203 s \$1.MTX;
#X obj 111 332 r \$0.MTX;
#X obj 13 294 r \$0.MTX;
#X obj 13 316 route getpreset;
#X obj 13 488 list prepend preset;
#X obj 13 511 list trim;
#X obj 13 533 s \$0.MTX;
#X obj 23 381 f;
#X obj 107 389 f;
#X obj 23 416 sel 0;
#X obj 107 419 sel 0;
#X obj 13 338 t b b b b;
#X msg 19 447 fadein \$1;
#X msg 110 446 fadeout \$1;
#X obj 203 403 list append;
#X obj 203 425 sel empty;
#X msg 203 447 description \$1;
#X obj 111 354 route fadein fadeout description;
#X connect 0 0 1 0;
#X connect 1 0 2 0;
#X connect 2 0 3 0;
#X connect 4 0 5 0;
#X connect 5 0 7 0;
#X connect 6 0 4 0;
#X connect 7 0 8 0;
#X connect 9 0 25 0;
#X connect 10 0 11 0;
#X connect 11 0 19 0;
#X connect 12 0 13 0;
#X connect 13 0 14 0;
#X connect 15 0 17 0;
#X connect 16 0 18 0;
#X connect 17 1 20 0;
#X connect 18 1 21 0;
#X connect 19 0 15 0;
#X connect 19 1 16 0;
#X connect 19 2 22 0;
#X connect 20 0 12 0;
#X connect 21 0 12 0;
#X connect 22 0 23 0;
#X connect 23 1 24 0;
#X connect 24 0 12 0;
#X connect 25 0 15 1;
#X connect 25 1 16 1;
#X connect 25 2 22 1;
#X restore 26 199 pd state.save;
#N canvas 318 473 434 281 gui.guts 0;
#N canvas 391 242 435 634 toggle 0;
#X obj 22 16 r \$0.MTX;
#X obj 37 434 s;
#X msg 37 259 \$3;
#X obj 37 280 sel 0 1;
#X obj 194 260 list prepend \$0;
#X msg 106 377 color \$1 \$1 -1;
#X msg 37 403 range \$1 \$1;
#X msg 37 320 1;
#X msg 69 321 0;
#X msg 194 281 symbol \$1.r\$2.\$3;
#X obj 22 118 t a a;
#X obj 22 162 route float;
#X obj 22 182 b;
#X obj 22 203 list append;
#X msg 22 140 \$2;
#X obj 22 36 route event;
#X obj 106 354 clr.conv;
#X obj 22 505 list prepend route;
#X obj 22 547 s \$0.MTX;
#X obj 22 526 list trim;
#X obj 22 458 unpack f f f;
#X obj 22 481 pack f f f;
#X obj 37 358 t a a;
#X text 22 568 route <row> <col> <0/1>;
#N canvas 203 201 215 248 clr.on 0;
#X obj 15 153 tabread \$1.color.r;
#X obj 38 131 tabread \$1.color.g;
#X obj 61 111 tabread \$1.color.b;
#X obj 15 25 inlet;
#X obj 80 25 inlet;
#X obj 15 61 f;
#X obj 15 182 pack f f f;
#X obj 15 214 outlet;
#X obj 15 86 t 0 0 0;
#X connect 0 0 6 0;
#X connect 1 0 6 1;
#X connect 2 0 6 2;
#X connect 3 0 5 0;
#X connect 4 0 5 1;
#X connect 5 0 8 0;
#X connect 6 0 7 0;
#X connect 8 0 0 0;
#X connect 8 1 1 0;
#X connect 8 2 2 0;
#X restore 106 313 pd clr.on;
#X obj 22 238 t a a b b b b b b b b a a;
#X msg 166 286 \$2;
#N canvas 203 201 214 286 clr.off 0;
#X obj 15 153 tabread \$1.color.r;
#X obj 38 131 tabread \$1.color.g;
#X obj 61 111 tabread \$1.color.b;
#X obj 15 25 inlet;
#X obj 80 25 inlet;
#X obj 15 61 f;
#X obj 15 182 pack f f f;
#X obj 15 239 outlet;
#X obj 15 86 t 0 0 0;
#X obj 15 207 bright.ness 220;
#X connect 0 0 6 0;
#X connect 1 0 6 1;
#X connect 2 0 6 2;
#X connect 3 0 5 0;
#X connect 4 0 5 1;
#X connect 5 0 8 0;
#X connect 6 0 9 0;
#X connect 8 0 0 0;
#X connect 8 1 1 0;
#X connect 8 2 2 0;
#X connect 9 0 7 0;
#X restore 124 333 pd clr.off;
#N canvas 73 44 447 324 colorize.em 0;
#X obj 23 14 inlet;
#X obj 23 238 outlet;
#N canvas 820 459 177 146 speedlim 0;
#X msg 121 80 1;
#X msg 122 54 0;
#X obj 11 58 t a b b;
#X obj 34 81 del 100;
#X obj 11 38 spigot 1;
#X obj 11 14 inlet;
#X obj 11 101 outlet;
#X connect 0 0 4 1;
#X connect 1 0 4 1;
#X connect 2 0 6 0;
#X connect 2 1 3 0;
#X connect 2 2 1 0;
#X connect 3 0 0 0;
#X connect 4 0 2 0;
#X connect 5 0 4 0;
#X restore 23 141 pd speedlim;
#X obj 274 25 r \$0.MTX;
#X obj 274 47 route colorchange;
#X obj 274 68 t b a b;
#N canvas 0 0 156 226 seq24 0;
#X obj 26 24 inlet;
#X msg 26 68 24;
#X obj 26 90 until;
#X obj 26 112 f;
#X obj 26 134 + 1;
#X obj 58 179 outlet;
#X obj 26 46 t b b;
#X msg 73 91 0;
#X obj 26 156 t a a;
#X connect 0 0 6 0;
#X connect 1 0 2 0;
#X connect 2 0 3 0;
#X connect 3 0 4 0;
#X connect 4 0 8 0;
#X connect 6 0 1 0;
#X connect 6 1 7 0;
#X connect 7 0 3 1;
#X connect 8 0 3 1;
#X connect 8 1 5 0;
#X restore 297 149 pd seq24;
#X obj 297 126 t b a;
#X obj 297 173 pack f f;
#X obj 297 194 list prepend \$0;
#X msg 297 216 \; \$1.r\$2.\$3 bang \;;
#X msg 274 94 0;
#X msg 320 94 1;
#X obj 23 76 route 0 1;
#X obj 23 51 list prepend 0;
#X obj 110 116 list split 2;
#X obj 152 136 * -1;
#X obj 152 156 + 1;
#X obj 110 184 list append;
#X connect 0 0 14 0;
#X connect 2 0 1 0;
#X connect 3 0 4 0;
#X connect 4 0 5 0;
#X connect 5 0 11 0;
#X connect 5 1 7 0;
#X connect 5 2 12 0;
#X connect 6 0 8 0;
#X connect 7 0 6 0;
#X connect 7 1 8 1;
#X connect 8 0 9 0;
#X connect 9 0 10 0;
#X connect 11 0 14 1;
#X connect 12 0 14 1;
#X connect 13 0 2 0;
#X connect 13 1 15 0;
#X connect 14 0 13 0;
#X connect 15 0 18 0;
#X connect 15 1 16 0;
#X connect 16 0 17 0;
#X connect 17 0 18 1;
#X connect 18 0 1 0;
#X restore 22 75 pd colorize.em;
#X obj 135 56 r \$0.MTX;
#X obj 135 76 route routereset routeset;
#X obj 221 98 list append 0;
#X connect 0 0 15 0;
#X connect 2 0 3 0;
#X connect 3 0 7 0;
#X connect 3 0 24 0;
#X connect 3 1 8 0;
#X connect 3 1 27 0;
#X connect 4 0 9 0;
#X connect 5 0 1 0;
#X connect 6 0 1 0;
#X connect 7 0 22 0;
#X connect 8 0 22 0;
#X connect 9 0 1 1;
#X connect 10 0 14 0;
#X connect 10 1 13 1;
#X connect 11 0 12 0;
#X connect 12 0 13 0;
#X connect 13 0 25 0;
#X connect 14 0 11 0;
#X connect 15 0 28 0;
#X connect 16 0 5 0;
#X connect 17 0 19 0;
#X connect 19 0 18 0;
#X connect 20 0 21 0;
#X connect 20 1 21 1;
#X connect 21 0 17 0;
#X connect 22 0 6 0;
#X connect 22 1 21 2;
#X connect 24 0 16 0;
#X connect 25 0 20 0;
#X connect 25 1 2 0;
#X connect 25 10 26 0;
#X connect 25 11 4 0;
#X connect 26 0 24 1;
#X connect 26 0 27 1;
#X connect 27 0 16 0;
#X connect 28 0 10 0;
#X connect 29 0 30 0;
#X connect 30 0 10 0;
#X connect 30 1 31 0;
#X connect 31 0 10 0;
#X restore 30 93 pd toggle routing;
#N canvas 722 305 387 534 prelisten.stop.details 0;
#N canvas 367 611 291 254 prelisten.colors 0;
#X obj 13 155 clr.conv;
#X msg 13 134 220 220 220;
#X obj 13 87 route 0 1;
#X obj 13 5 inlet;
#X obj 13 204 s \$0.front.prelisten.r;
#X msg 43 114 255 0 0;
#X msg 13 182 color \$1 \$1 -1;
#X connect 0 0 6 0;
#X connect 1 0 0 0;
#X connect 2 0 1 0;
#X connect 2 1 5 0;
#X connect 3 0 2 0;
#X connect 5 0 0 0;
#X connect 6 0 4 0;
#X restore 11 176 pd prelisten.colors;
#X obj 11 15 r \$0.MTX;
#X msg 65 102 0;
#X obj 14 220 r \$0.front.stop.s;
#N canvas 367 611 291 254 stop.colors 0;
#X obj 13 155 clr.conv;
#X msg 13 134 220 220 220;
#X obj 13 87 route 0 1;
#X obj 13 5 inlet;
#X msg 13 182 color \$1 \$1 -1;
#X msg 43 112 100 100 100;
#X obj 13 204 s \$0.front.stop.r;
#X connect 0 0 4 0;
#X connect 1 0 0 0;
#X connect 2 0 1 0;
#X connect 2 1 5 0;
#X connect 3 0 2 0;
#X connect 4 0 6 0;
#X connect 5 0 0 0;
#X restore 14 340 pd stop.colors;
#X obj 14 242 b;
#X obj 14 262 t b b;
#X msg 46 310 0;
#X msg 14 303 1;
#X obj 46 288 del 100;
#X obj 15 395 b;
#X obj 15 415 t b b;
#X msg 47 463 0;
#X msg 15 456 1;
#X obj 47 441 del 100;
#X obj 15 373 r \$0.front.details.s;
#N canvas 367 611 291 254 details.colors 0;
#X obj 13 155 clr.conv;
#X msg 13 134 220 220 220;
#X obj 13 87 route 0 1;
#X obj 13 5 inlet;
#X msg 13 182 color \$1 \$1 -1;
#X msg 43 112 100 100 100;
#X obj 13 204 s \$0.front.details.r;
#X connect 0 0 4 0;
#X connect 1 0 0 0;
#X connect 2 0 1 0;
#X connect 2 1 5 0;
#X connect 3 0 2 0;
#X connect 4 0 6 0;
#X connect 5 0 0 0;
#X restore 15 493 pd details.colors;
#X obj 200 40 r \$0.front.details.s;
#X msg 200 109 vis 1;
#X obj 200 133 s \$2;
#X obj 200 61 b;
#X obj 200 85 delay 300;
#X obj 208 351 b;
#X obj 208 371 t b b;
#X msg 240 419 0;
#X msg 208 412 1;
#X obj 240 397 del 100;
#X obj 208 329 r \$0.front.hide.s;
#X obj 202 251 s \$2;
#X obj 202 179 b;
#X obj 202 203 delay 300;
#X obj 202 159 r \$0.front.hide.s;
#X msg 202 227 vis 0;
#X obj 11 40 route start stop;
#X obj 11 125 f;
#X msg 29 101 1;
#X obj 11 60 b;
#N canvas 367 611 291 254 hide.colors 0;
#X obj 13 155 clr.conv;
#X msg 13 134 220 220 220;
#X obj 13 87 route 0 1;
#X obj 13 5 inlet;
#X msg 13 182 color \$1 \$1 -1;
#X msg 43 112 100 100 100;
#X obj 13 204 s \$0.front.hide.r;
#X connect 0 0 4 0;
#X connect 1 0 0 0;
#X connect 2 0 1 0;
#X connect 2 1 5 0;
#X connect 3 0 2 0;
#X connect 4 0 6 0;
#X connect 5 0 0 0;
#X restore 208 449 pd hide.colors;
#X obj 21 78 r \$0.front.prelisten.s;
#X connect 1 0 33 0;
#X connect 2 0 0 0;
#X connect 2 0 34 1;
#X connect 3 0 5 0;
#X connect 5 0 6 0;
#X connect 6 0 8 0;
#X connect 6 1 9 0;
#X connect 7 0 4 0;
#X connect 8 0 4 0;
#X connect 9 0 7 0;
#X connect 10 0 11 0;
#X connect 11 0 13 0;
#X connect 11 1 14 0;
#X connect 12 0 16 0;
#X connect 13 0 16 0;
#X connect 14 0 12 0;
#X connect 15 0 10 0;
#X connect 17 0 20 0;
#X connect 18 0 19 0;
#X connect 20 0 21 0;
#X connect 21 0 18 0;
#X connect 22 0 23 0;
#X connect 23 0 25 0;
#X connect 23 1 26 0;
#X connect 24 0 37 0;
#X connect 25 0 37 0;
#X connect 26 0 24 0;
#X connect 27 0 22 0;
#X connect 29 0 30 0;
#X connect 30 0 32 0;
#X connect 31 0 29 0;
#X connect 32 0 28 0;
#X connect 33 0 36 0;
#X connect 33 1 2 0;
#X connect 34 0 0 0;
#X connect 35 0 34 1;
#X connect 36 0 34 0;
#X connect 38 0 35 0;
#X restore 30 61 pd prelisten.stop.details;
#N canvas 489 447 283 228 background.label 0;
#N canvas 367 611 224 141 background.label.colors 0;
#X obj 13 28 clr.conv;
#X obj 13 5 inlet;
#X msg 13 57 color \$1 \$1 -1;
#X obj 13 79 s \$0.front.background.r;
#X obj 27 99 s \$0.front.label.r;
#X connect 0 0 2 0;
#X connect 1 0 0 0;
#X connect 2 0 3 0;
#X connect 2 0 4 0;
#X restore 13 137 pd background.label.colors;
#X obj 13 -10 r \$0.MTX;
#X obj 157 59 loadbang;
#X msg 13 95 255 230 230;
#X msg 104 95 230 230 255;
#X obj 13 13 route start stop;
#X connect 1 0 5 0;
#X connect 2 0 4 0;
#X connect 3 0 0 0;
#X connect 4 0 0 0;
#X connect 5 0 3 0;
#X connect 5 1 4 0;
#X restore 213 61 pd background.label;
#N canvas 172 178 190 134 color.stuff 0;
#X obj 34 38 route colorchange;
#X msg 34 60 colorchange \$1;
#X obj 34 82 s \$0.MTX;
#X obj 34 16 r \$1.MTX;
#X connect 0 0 1 0;
#X connect 1 0 2 0;
#X connect 3 0 0 0;
#X restore 222 101 pd color.stuff;
#N canvas 550 275 804 476 fadein.fadeout 0;
#X obj 16 126 makefilename %.1f;
#X msg 16 148 label \$1s;
#X msg 16 40 fadein \$1;
#X obj 16 62 s \$0.MTX;
#X obj 16 84 r \$0.MTX;
#X obj 16 106 route fadein;
#X obj 16 19 r \$0.fadein.s;
#X obj 16 169 s \$0.fadein.r;
#X obj 161 125 makefilename %.1f;
#X msg 161 147 label \$1s;
#X obj 161 61 s \$0.MTX;
#X obj 161 83 r \$0.MTX;
#X obj 161 18 r \$0.fadeout.s;
#X msg 161 39 fadeout \$1;
#X obj 161 105 route fadeout;
#X obj 161 168 s \$0.fadeout.r;
#X msg 238 147 set \$1;
#X msg 90 148 set \$1;
#X obj 402 155 f;
#X msg 402 245 fadeinnow \$1;
#X obj 497 165 f;
#X msg 497 245 fadeoutnow \$1;
#X obj 24 255 loadbang;
#X msg 24 286 fadein 0 \, fadeout 0;
#X obj 24 308 s \$0.MTX;
#X obj 116 242 r \$0.MTX;
#X obj 116 264 route reset;
#X obj 320 33 r \$0.MTX;
#X obj 438 38 r \$0.MTX;
#X obj 402 291 s \$0.MTX;
#X obj 438 60 route fadein fadeout;
#X obj 320 100 t b;
#X obj 320 59 route start stop;
#X obj 374 100 b;
#X connect 0 0 1 0;
#X connect 1 0 7 0;
#X connect 2 0 3 0;
#X connect 4 0 5 0;
#X connect 5 0 0 0;
#X connect 5 0 17 0;
#X connect 6 0 2 0;
#X connect 8 0 9 0;
#X connect 9 0 15 0;
#X connect 11 0 14 0;
#X connect 12 0 13 0;
#X connect 13 0 10 0;
#X connect 14 0 8 0;
#X connect 14 0 16 0;
#X connect 16 0 15 0;
#X connect 17 0 7 0;
#X connect 18 0 19 0;
#X connect 19 0 29 0;
#X connect 20 0 21 0;
#X connect 21 0 29 0;
#X connect 22 0 23 0;
#X connect 23 0 24 0;
#X connect 25 0 26 0;
#X connect 26 0 23 0;
#X connect 27 0 32 0;
#X connect 28 0 30 0;
#X connect 30 0 18 1;
#X connect 30 1 20 1;
#X connect 31 0 18 0;
#X connect 32 0 31 0;
#X connect 32 1 33 0;
#X connect 33 0 20 0;
#X restore 219 21 pd fadein.fadeout;
#N canvas 769 662 567 165 play.logic 0;
#X obj 33 25 r \$0.MTX;
#X msg 33 69 start;
#X obj 33 91 s \$0.MTX;
#X obj 151 23 r \$0.MTX;
#X obj 151 131 s \$0.MTX;
#X obj 151 45 route ctlstop;
#X msg 151 109 stop;
#X obj 264 20 r \$0.front.prelisten.s;
#X obj 264 42 b;
#X obj 264 64 del 0;
#X obj 264 108 s \$0.MTX;
#X obj 343 67 b;
#X obj 343 111 s \$0.MTX;
#X msg 343 89 ctlstop;
#X obj 343 45 r \$0.front.stop.s;
#X obj 33 47 route ctlplay;
#X msg 264 86 ctlplay;
#X obj 151 67 b;
#X obj 151 89 del 0;
#X connect 0 0 15 0;
#X connect 1 0 2 0;
#X connect 3 0 5 0;
#X connect 5 0 17 0;
#X connect 6 0 4 0;
#X connect 7 0 8 0;
#X connect 8 0 9 0;
#X connect 9 0 16 0;
#X connect 11 0 13 0;
#X connect 13 0 12 0;
#X connect 14 0 11 0;
#X connect 15 0 1 0;
#X connect 16 0 10 0;
#X connect 17 0 18 0;
#X connect 18 0 6 0;
#X restore 30 27 pd play.logic;
#N canvas 192 128 453 358 description 0;
#X obj 11 329 s \$0.front.label.r;
#X obj 11 15 loadbang;
#X msg 11 303 label \$1;
#X obj 11 282 makefilename %d;
#X obj 11 260 route float;
#X obj 11 115 list append \$2;
#X obj 153 147 makefilename %c;
#X obj 153 173 list prepend \$2;
#X obj 153 195 list append;
#X msg 153 123 32;
#X obj 153 103 t b a;
#X msg 153 216 symbol \$1\$2-\$2\$3;
#X obj 296 172 s \$0.description.r;
#X obj 295 11 r \$0.description.s;
#X msg 296 151 set \$1;
#X obj 79 14 r \$0.MTX;
#X obj 79 36 route description;
#X obj 153 82 list;
#X obj 296 86 r \$0.MTX;
#X obj 296 108 route description;
#X msg 295 33 description \$1;
#X obj 295 55 s \$0.MTX;
#X obj 296 130 list;
#X obj 79 58 route empty;
#X obj 79 82 b;
#X obj 306 228 r \$0.MTX;
#X obj 306 250 route reset;
#X msg 306 272 description empty;
#X obj 306 294 s \$0.MTX;
#X connect 1 0 5 0;
#X connect 2 0 0 0;
#X connect 3 0 2 0;
#X connect 4 0 3 0;
#X connect 4 1 2 0;
#X connect 5 0 4 0;
#X connect 6 0 7 0;
#X connect 7 0 8 0;
#X connect 8 0 11 0;
#X connect 9 0 6 0;
#X connect 10 0 9 0;
#X connect 10 1 8 1;
#X connect 11 0 4 0;
#X connect 13 0 20 0;
#X connect 14 0 12 0;
#X connect 15 0 16 0;
#X connect 16 0 23 0;
#X connect 17 0 10 0;
#X connect 18 0 19 0;
#X connect 19 0 22 0;
#X connect 20 0 21 0;
#X connect 22 0 14 0;
#X connect 23 0 24 0;
#X connect 23 1 17 0;
#X connect 24 0 5 0;
#X connect 25 0 26 0;
#X connect 26 0 27 0;
#X connect 27 0 28 0;
#X restore 220 129 pd description;
#X restore 26 130 pd gui.guts;
#N canvas 512 251 267 339 signal.guts 0;
#N canvas 649 82 634 651 matrix.mixer 0;
#X obj 66 31 catch~ \$0.1.ROUTER;
#X obj 83 52 catch~ \$0.2.ROUTER;
#X obj 100 73 catch~ \$0.3.ROUTER;
#X obj 116 94 catch~ \$0.4.ROUTER;
#X obj 133 115 catch~ \$0.5.ROUTER;
#X obj 150 135 catch~ \$0.6.ROUTER;
#X obj 166 157 catch~ \$0.7.ROUTER;
#X obj 183 178 catch~ \$0.8.ROUTER;
#X obj 200 201 catch~ \$0.9.ROUTER;
#X obj 216 221 catch~ \$0.10.ROUTER;
#X obj 233 243 catch~ \$0.11.ROUTER;
#X obj 250 265 catch~ \$0.12.ROUTER;
#X obj 265 30 catch~ \$0.13.ROUTER;
#X obj 282 51 catch~ \$0.14.ROUTER;
#X obj 299 72 catch~ \$0.15.ROUTER;
#X obj 315 93 catch~ \$0.16.ROUTER;
#X obj 333 114 catch~ \$0.17.ROUTER;
#X obj 350 134 catch~ \$0.18.ROUTER;
#X obj 366 156 catch~ \$0.19.ROUTER;
#X obj 383 177 catch~ \$0.20.ROUTER;
#X obj 400 200 catch~ \$0.21.ROUTER;
#X obj 416 220 catch~ \$0.22.ROUTER;
#X obj 433 242 catch~ \$0.23.ROUTER;
#X obj 450 264 catch~ \$0.24.ROUTER;
#X obj 51 594 throw~ \$1.1.MASTER;
#X obj 69 570 throw~ \$1.2.MASTER;
#X obj 87 548 throw~ \$1.3.MASTER;
#X obj 105 527 throw~ \$1.4.MASTER;
#X obj 123 507 throw~ \$1.5.MASTER;
#X obj 141 486 throw~ \$1.6.MASTER;
#X obj 159 464 throw~ \$1.7.MASTER;
#X obj 177 443 throw~ \$1.8.MASTER;
#X obj 196 421 throw~ \$1.9.MASTER;
#X obj 214 400 throw~ \$1.10.MASTER;
#X obj 232 378 throw~ \$1.11.MASTER;
#X obj 250 357 throw~ \$1.12.MASTER;
#X obj 268 594 throw~ \$1.13.MASTER;
#X obj 286 570 throw~ \$1.14.MASTER;
#X obj 304 548 throw~ \$1.15.MASTER;
#X obj 322 527 throw~ \$1.16.MASTER;
#X obj 341 507 throw~ \$1.17.MASTER;
#X obj 359 486 throw~ \$1.18.MASTER;
#X obj 377 464 throw~ \$1.19.MASTER;
#X obj 395 443 throw~ \$1.20.MASTER;
#X obj 413 421 throw~ \$1.21.MASTER;
#X obj 431 400 throw~ \$1.22.MASTER;
#X obj 449 378 throw~ \$1.23.MASTER;
#X obj 468 357 throw~ \$1.24.MASTER;
#X obj 50 209 r \$0.MTX;
#X obj 50 231 route matrix~;
#X obj 467 285 r \$0.MTX;
#X obj 467 307 route mtxfadetime;
#X obj 50 329 mtx_mul~ 24 24 100 . . . . . . . . . . . . . . . . .
. . . .;
#X connect 0 0 52 1;
#X connect 1 0 52 2;
#X connect 2 0 52 3;
#X connect 3 0 52 4;
#X connect 4 0 52 5;
#X connect 5 0 52 6;
#X connect 6 0 52 7;
#X connect 7 0 52 8;
#X connect 8 0 52 9;
#X connect 9 0 52 10;
#X connect 10 0 52 11;
#X connect 11 0 52 12;
#X connect 12 0 52 13;
#X connect 13 0 52 14;
#X connect 14 0 52 15;
#X connect 15 0 52 16;
#X connect 16 0 52 17;
#X connect 17 0 52 18;
#X connect 18 0 52 19;
#X connect 19 0 52 20;
#X connect 20 0 52 21;
#X connect 21 0 52 22;
#X connect 22 0 52 23;
#X connect 23 0 52 24;
#X connect 48 0 49 0;
#X connect 49 0 52 0;
#X connect 50 0 51 0;
#X connect 51 0 52 25;
#X connect 52 0 24 0;
#X connect 52 1 25 0;
#X connect 52 2 26 0;
#X connect 52 3 27 0;
#X connect 52 4 28 0;
#X connect 52 5 29 0;
#X connect 52 6 30 0;
#X connect 52 7 31 0;
#X connect 52 8 32 0;
#X connect 52 9 33 0;
#X connect 52 10 34 0;
#X connect 52 11 35 0;
#X connect 52 12 36 0;
#X connect 52 13 37 0;
#X connect 52 14 38 0;
#X connect 52 15 39 0;
#X connect 52 16 40 0;
#X connect 52 17 41 0;
#X connect 52 18 42 0;
#X connect 52 19 43 0;
#X connect 52 20 44 0;
#X connect 52 21 45 0;
#X connect 52 22 46 0;
#X connect 52 23 47 0;
#X restore 20 57 pd matrix.mixer;
#N canvas 335 155 972 702 matrix.manager 0;
#X obj 10 9 r \$0.MTX;
#X obj 10 31 route route;
#X obj 10 312 matrix;
#X obj 49 289 matrix;
#X obj 10 76 t b a;
#X msg 49 269 zeros 24;
#X obj 10 505 s \$0.MTX;
#X obj 10 459 list prepend matrix~;
#X obj 10 484 list trim;
#X obj 49 246 loadbang;
#X msg 10 53 element \$2 \$1 \$3;
#X obj 150 10 r \$0.MTX;
#X obj 150 32 route submixlevel;
#X msg 150 55 row \$1 \$2 \$2 \$2 \$2 \$2 \$2 \$2 \$2 \$2 \$2 \$2 \$2
\$2 \$2 \$2 \$2 \$2 \$2 \$2 \$2 \$2 \$2 \$2 \$2;
#X obj 150 90 t b b a;
#X msg 308 147 row \$1 \$2 \$2 \$2 \$2 \$2 \$2 \$2 \$2 \$2 \$2 \$2
\$2 \$2 \$2 \$2 \$2 \$2 \$2 \$2 \$2 \$2 \$2 \$2 \$2;
#X obj 308 182 t b b a;
#X obj 308 124 route mastermixlevel;
#X obj 308 102 r \$1.MTX;
#N canvas 0 0 230 264 slowing.down 0;
#X obj 25 119 f;
#X obj 25 166 sel 1;
#X obj 25 44 t b b;
#X obj 25 142 spigot 1;
#X obj 25 191 t b b b;
#X msg 144 165 0;
#X msg 57 81 1;
#X msg 146 120 1;
#X obj 114 93 t b b;
#X obj 114 71 del 200;
#X obj 25 21 inlet;
#X obj 25 216 outlet;
#X connect 0 0 3 0;
#X connect 1 0 4 0;
#X connect 2 0 0 0;
#X connect 2 1 6 0;
#X connect 3 0 1 0;
#X connect 4 0 11 0;
#X connect 4 1 9 0;
#X connect 4 2 5 0;
#X connect 5 0 3 1;
#X connect 5 0 0 1;
#X connect 6 0 0 1;
#X connect 7 0 3 1;
#X connect 8 0 0 0;
#X connect 8 1 7 0;
#X connect 9 0 8 0;
#X connect 10 0 2 0;
#X restore 10 206 pd slowing.down;
#X obj 10 162 t b;
#X obj 173 155 matrix 24 24;
#X obj 331 249 matrix 24 24;
#X obj 418 559 t b a;
#X obj 395 451 s \$0.MTX;
#X msg 395 360 0;
#X obj 395 382 t b a b;
#X msg 441 407 0;
#X msg 395 407 100;
#X msg 395 430 mtxfadetime \$1;
#X obj 506 232 r \$0.MTX;
#X obj 506 261 route fadeinnow fadeoutnow;
#X obj 506 327 t a b;
#X msg 506 361 0 \, 1 \$1;
#X obj 506 400 line 0 100;
#X msg 595 373 0 \$1;
#X obj 506 296 * 1000;
#X obj 595 326 * 1000;
#X obj 507 463 f;
#X obj 507 433 spigot 1;
#X text 425 208 === FADING IN / OUT ===;
#X obj 507 487 t a a;
#X obj 507 509 *;
#X text 679 181 === AVOID CLICKS ON LOOP BOUNDARIES ===;
#X obj 74 343 mtx_mul;
#X obj 10 371 mtx_.*;
#X obj 10 341 mtx_.*;
#X obj 10 405 mtx_.* 1;
#X text 130 341 <-to make it load on pd-extended;
#X obj 595 305 max 0;
#X obj 595 283 - 0.1;
#X floatatom 443 623 5 0 0 0 - - -;
#X connect 0 0 1 0;
#X connect 1 0 10 0;
#X connect 2 0 46 0;
#X connect 3 0 2 1;
#X connect 4 0 20 0;
#X connect 4 1 2 0;
#X connect 5 0 3 0;
#X connect 7 0 8 0;
#X connect 8 0 6 0;
#X connect 9 0 5 0;
#X connect 10 0 4 0;
#X connect 11 0 12 0;
#X connect 12 0 13 0;
#X connect 13 0 14 0;
#X connect 14 0 20 0;
#X connect 14 1 21 0;
#X connect 14 2 21 0;
#X connect 15 0 16 0;
#X connect 16 0 20 0;
#X connect 16 1 22 0;
#X connect 16 2 22 0;
#X connect 17 0 15 0;
#X connect 18 0 17 0;
#X connect 19 0 2 0;
#X connect 20 0 19 0;
#X connect 21 0 46 1;
#X connect 22 0 45 1;
#X connect 23 0 2 0;
#X connect 23 1 47 1;
#X connect 23 1 51 0;
#X connect 25 0 26 0;
#X connect 26 0 28 0;
#X connect 26 1 23 0;
#X connect 26 2 27 0;
#X connect 27 0 29 0;
#X connect 28 0 29 0;
#X connect 29 0 24 0;
#X connect 30 0 31 0;
#X connect 31 0 36 0;
#X connect 31 1 50 0;
#X connect 32 0 33 0;
#X connect 32 1 25 0;
#X connect 33 0 34 0;
#X connect 34 0 39 0;
#X connect 35 0 34 0;
#X connect 36 0 32 0;
#X connect 37 0 35 0;
#X connect 38 0 41 0;
#X connect 39 0 38 0;
#X connect 41 0 42 0;
#X connect 41 1 42 1;
#X connect 42 0 23 0;
#X connect 45 0 47 0;
#X connect 46 0 45 0;
#X connect 47 0 7 0;
#X connect 49 0 37 0;
#X connect 50 0 49 0;
#X restore 20 83 pd matrix.manager;
#X restore 26 153 pd signal.guts;
#X obj 26 245 external.control \$0 \$1 \$2;
#X obj 313 123 r \$0.MTX;
#X obj 313 145 route start stop;
#X msg 313 167 1;
#X obj 313 189 switch~;
#X msg 367 167 0;
#X obj 150 36 hsl 117 15 0 10 0 0 \$0.fadeout.s \$0.fadeout.r 0.0s
4 8 0 10 -262144 -166441 -1 0 1;
#X obj 28 36 hsl 117 15 0 10 0 0 \$0.fadein.s \$0.fadein.r 0.0s 4 8
0 10 -262144 -166441 -1 0 1;
#X obj 26 222 parent.comm \$0 \$1 \$2 2;
#X obj 331 76 print \$0.DEBUG;
#X connect 0 0 1 0;
#X connect 1 0 24 0;
#X connect 2 0 1 1;
#X connect 11 0 10 0;
#X connect 16 0 17 0;
#X connect 17 0 18 0;
#X connect 17 1 20 0;
#X connect 18 0 19 0;
#X connect 20 0 19 0;
#X coords 0 -1 1 1 254 50 1 20 20;
