#N canvas 173 84 498 367 10;
#N canvas 913 277 272 270 get.presets.path 0;
#X obj 84 181 list;
#X obj 10 205 list append;
#X obj 84 137 r \$1.MTX;
#X obj 10 23 r \$0.MTX;
#X obj 10 249 s \$0.MTX;
#X obj 84 115 s \$1.MTX;
#X obj 10 67 t b b;
#X obj 10 45 route get.presets.path;
#X msg 84 94 get.presets.path;
#X obj 84 159 route presets.path;
#X msg 10 227 presets.path \$1;
#X connect 0 0 1 1;
#X connect 1 0 10 0;
#X connect 2 0 9 0;
#X connect 3 0 7 0;
#X connect 6 0 1 0;
#X connect 6 1 8 0;
#X connect 7 0 6 0;
#X connect 8 0 5 0;
#X connect 9 0 0 0;
#X connect 10 0 4 0;
#X restore 22 187 pd get.presets.path;
#N canvas 411 279 375 151 stderr.stuff 0;
#X obj 27 21 r \$0.MTX;
#X obj 27 43 route INFO;
#X obj 27 65 list prepend INFO;
#X obj 27 87 list trim;
#X obj 27 109 s \$1.MTX;
#X obj 183 25 r \$0.MTX;
#X obj 183 91 list trim;
#X obj 183 113 s \$1.MTX;
#X obj 183 69 list prepend ERROR;
#X obj 183 47 route ERROR;
#X connect 0 0 1 0;
#X connect 1 0 2 0;
#X connect 2 0 3 0;
#X connect 3 0 4 0;
#X connect 5 0 9 0;
#X connect 6 0 7 0;
#X connect 8 0 6 0;
#X connect 9 0 8 0;
#X restore 22 210 pd stderr.stuff;
#X obj 254 222 r \$0.MTX;
#N canvas 95 83 504 561 state.save 0;
#X msg 332 202 getpreset;
#X obj 332 274 route preset;
#X obj 284 490 textfile;
#X obj 284 467 r \$0.stsv.i.0;
#X obj 284 531 s \$0.stsv.o.0;
#X obj 332 297 list prepend add;
#X obj 332 319 list trim;
#X obj 21 31 r \$0.MTX;
#X obj 43 332 s \$0.stsv.i.0;
#X obj 52 395 s \$0.stsv.i.0;
#X obj 20 353 t b b;
#X msg 52 374 rewind;
#X obj 20 445 until;
#X obj 337 512 s \$0.stsv.o.1;
#X obj 52 423 r \$0.stsv.o.1;
#X obj 20 467 s \$0.stsv.i.0;
#X obj 21 493 r \$0.stsv.o.0;
#X obj 286 42 r \$0.MTX;
#X obj 286 107 t a b;
#X obj 286 86 list;
#X msg 318 130 clear;
#X obj 318 151 s \$0.stsv.i.0;
#X text 24 13 ---LOAD------;
#X text 287 20 ---SAVE------;
#X obj 332 340 s \$0.stsv.i.0;
#X obj 309 391 s \$0.stsv.i.0;
#X msg 43 311 read \$1 cr;
#X msg 309 366 write \$1 cr;
#X obj 21 145 route <no_preset>;
#N canvas 0 0 221 274 absolute.path 0;
#X obj 21 40 list;
#X obj 21 62 t a b;
#X msg 53 82 get.presets.path;
#X obj 53 148 route presets.path;
#X obj 53 170 list;
#X obj 21 202 list append;
#X obj 21 13 inlet;
#X obj 21 246 outlet;
#X msg 21 225 symbol \$2/\$1;
#X obj 53 104 s \$1.MTX;
#X obj 53 126 r \$1.MTX;
#X connect 0 0 1 0;
#X connect 1 0 5 0;
#X connect 1 1 2 0;
#X connect 2 0 9 0;
#X connect 3 0 4 0;
#X connect 4 0 5 1;
#X connect 5 0 8 0;
#X connect 6 0 0 0;
#X connect 8 0 7 0;
#X connect 10 0 3 0;
#X restore 20 219 pd absolute.path;
#N canvas 0 0 285 292 load.display.commands 0;
#X obj 12 68 t a b;
#X msg 143 148 loaddisplay 1;
#X obj 12 128 del 1000;
#X obj 12 45 list;
#X obj 12 106 t b a;
#X obj 12 149 list;
#X obj 12 22 inlet;
#X obj 44 246 outlet;
#X obj 12 171 t b a;
#X msg 12 194 loaddisplay 0;
#X obj 143 238 s \$0.MTX;
#X connect 0 0 4 0;
#X connect 0 1 1 0;
#X connect 1 0 10 0;
#X connect 2 0 5 0;
#X connect 3 0 0 0;
#X connect 4 0 2 0;
#X connect 4 1 5 1;
#X connect 5 0 8 0;
#X connect 6 0 3 0;
#X connect 8 0 9 0;
#X connect 8 1 7 0;
#X connect 9 0 10 0;
#X restore 20 194 pd load.display.commands;
#X obj 20 246 t b a a;
#X msg 66 267 INFO loading preset: \$1;
#X obj 66 288 s \$0.MTX;
#X obj 286 179 t a a b;
#X msg 286 414 INFO preset saved: \$1;
#X obj 286 435 s \$0.MTX;
#X obj 21 53 route load.day.preset;
#X obj 286 64 route save.day.preset;
#X obj 332 225 s \$1.MTX;
#X obj 332 251 r \$1.MTX;
#X obj 21 516 s \$1.MTX;
#X obj 21 75 t a b;
#X msg 61 96 send.reset;
#X obj 61 118 s \$0.MTX;
#X connect 0 0 39 0;
#X connect 1 0 5 0;
#X connect 2 0 4 0;
#X connect 2 1 13 0;
#X connect 3 0 2 0;
#X connect 5 0 6 0;
#X connect 6 0 24 0;
#X connect 7 0 37 0;
#X connect 10 0 12 0;
#X connect 10 1 11 0;
#X connect 11 0 9 0;
#X connect 12 0 15 0;
#X connect 14 0 12 1;
#X connect 16 0 41 0;
#X connect 17 0 38 0;
#X connect 18 0 34 0;
#X connect 18 1 20 0;
#X connect 19 0 18 0;
#X connect 20 0 21 0;
#X connect 26 0 8 0;
#X connect 27 0 25 0;
#X connect 28 1 30 0;
#X connect 29 0 31 0;
#X connect 30 0 29 0;
#X connect 31 0 10 0;
#X connect 31 1 26 0;
#X connect 31 2 32 0;
#X connect 32 0 33 0;
#X connect 34 0 35 0;
#X connect 34 1 27 0;
#X connect 34 2 0 0;
#X connect 35 0 36 0;
#X connect 37 0 42 0;
#X connect 38 0 19 0;
#X connect 40 0 1 0;
#X connect 42 0 28 0;
#X connect 42 1 43 0;
#X connect 43 0 44 0;
#X restore 22 253 pd state.save;
#N canvas 552 328 393 155 state.save.week 0;
#N canvas 208 46 658 495 preset.dow.gui 0;
#N canvas 214 435 195 320 preset.load 0;
#X obj 40 188 clr.conv;
#X msg 40 167 220 220 220;
#X msg 40 215 color \$1 \$1 -1;
#X msg 72 131 100 100 100;
#X obj 40 237 s \$0.preset.load.r;
#X obj 17 28 r \$0.preset.load.s;
#X obj 40 104 del 100;
#N canvas 0 0 450 300 wait 0;
#X obj 11 13 inlet;
#X obj 11 34 b;
#X obj 11 61 spigot 1;
#X obj 11 84 t b b b;
#X msg 83 84 0;
#X msg 128 78 1;
#X obj 128 56 del 300;
#X obj 11 105 outlet;
#X connect 0 0 1 0;
#X connect 1 0 2 0;
#X connect 2 0 3 0;
#X connect 3 0 7 0;
#X connect 3 1 6 0;
#X connect 3 2 4 0;
#X connect 4 0 2 1;
#X connect 5 0 2 1;
#X connect 6 0 5 0;
#X restore 17 49 pd wait;
#X obj 17 74 t b b b;
#X obj 17 259 outlet;
#X connect 0 0 2 0;
#X connect 1 0 0 0;
#X connect 2 0 4 0;
#X connect 3 0 0 0;
#X connect 5 0 7 0;
#X connect 6 0 1 0;
#X connect 7 0 8 0;
#X connect 8 0 9 0;
#X connect 8 1 6 0;
#X connect 8 2 3 0;
#X restore 15 12 pd preset.load;
#N canvas 214 323 195 320 preset.save 0;
#X obj 40 188 clr.conv;
#X msg 40 167 220 220 220;
#X msg 40 215 color \$1 \$1 -1;
#X msg 72 131 100 100 100;
#X obj 40 104 del 100;
#N canvas 0 0 450 300 wait 0;
#X obj 11 13 inlet;
#X obj 11 34 b;
#X obj 11 61 spigot 1;
#X obj 11 84 t b b b;
#X msg 83 84 0;
#X msg 128 78 1;
#X obj 128 56 del 300;
#X obj 11 105 outlet;
#X connect 0 0 1 0;
#X connect 1 0 2 0;
#X connect 2 0 3 0;
#X connect 3 0 7 0;
#X connect 3 1 6 0;
#X connect 3 2 4 0;
#X connect 4 0 2 1;
#X connect 5 0 2 1;
#X connect 6 0 5 0;
#X restore 17 49 pd wait;
#X obj 17 74 t b b b;
#X obj 17 259 outlet;
#X obj 17 28 r \$0.preset.save.s;
#X obj 40 237 s \$0.preset.save.r;
#X connect 0 0 2 0;
#X connect 1 0 0 0;
#X connect 2 0 9 0;
#X connect 3 0 0 0;
#X connect 4 0 1 0;
#X connect 5 0 6 0;
#X connect 6 0 7 0;
#X connect 6 1 4 0;
#X connect 6 2 3 0;
#X connect 8 0 5 0;
#X restore 194 15 pd preset.save;
#N canvas 214 323 195 320 preset.saveas 0;
#X obj 40 188 clr.conv;
#X msg 40 167 220 220 220;
#X msg 40 215 color \$1 \$1 -1;
#X msg 72 131 100 100 100;
#X obj 40 104 del 100;
#N canvas 0 0 450 300 wait 0;
#X obj 11 13 inlet;
#X obj 11 34 b;
#X obj 11 61 spigot 1;
#X obj 11 84 t b b b;
#X msg 83 84 0;
#X msg 128 78 1;
#X obj 128 56 del 300;
#X obj 11 105 outlet;
#X connect 0 0 1 0;
#X connect 1 0 2 0;
#X connect 2 0 3 0;
#X connect 3 0 7 0;
#X connect 3 1 6 0;
#X connect 3 2 4 0;
#X connect 4 0 2 1;
#X connect 5 0 2 1;
#X connect 6 0 5 0;
#X restore 17 49 pd wait;
#X obj 17 74 t b b b;
#X obj 17 259 outlet;
#X obj 17 28 r \$0.preset.saveas.s;
#X obj 40 237 s \$0.preset.saveas.r;
#X connect 0 0 2 0;
#X connect 1 0 0 0;
#X connect 2 0 9 0;
#X connect 3 0 0 0;
#X connect 4 0 1 0;
#X connect 5 0 6 0;
#X connect 6 0 7 0;
#X connect 6 1 4 0;
#X connect 6 2 3 0;
#X connect 8 0 5 0;
#X restore 210 138 pd preset.saveas;
#X obj 15 83 openpanel;
#X obj 194 80 list append <no_preset>;
#X obj 15 154 s \$0.MTX;
#X obj 194 111 sel <no_preset>;
#X obj 194 447 s \$0.MTX;
#X obj 194 195 savepanel;
#X obj 194 272 t a a;
#X msg 419 327 label \$1;
#X obj 419 350 s \$0.preset.file.r;
#X msg 226 299 currentpreset \$1;
#X obj 226 322 s \$0.MTX;
#X obj 419 262 r \$0.MTX;
#X obj 419 284 route currentpreset;
#X obj 352 15 r \$0.MTX;
#X obj 352 36 route currentpreset;
#X obj 419 305 list;
#X obj 352 58 list;
#X obj 421 160 r \$0.MTX;
#X obj 421 182 route reset;
#X obj 421 227 s \$0.MTX;
#N canvas 36 85 582 257 check.validity 0;
#X obj 13 11 inlet;
#X obj 13 198 outlet;
#X obj 13 173 list append;
#X obj 145 119 b;
#X obj 145 140 list;
#X obj 145 199 s \$0.MTX;
#N canvas 0 0 159 205 get.preset.path 0;
#X msg 9 51 get.presets.path;
#X obj 9 72 s \$0.MTX;
#X obj 9 94 r \$0.MTX;
#X obj 9 116 route presets.path;
#X obj 9 138 list;
#X obj 9 25 inlet;
#X obj 9 160 outlet;
#X connect 0 0 1 0;
#X connect 2 0 3 0;
#X connect 3 0 4 0;
#X connect 4 0 6 0;
#X connect 5 0 0 0;
#X restore 80 65 pd get.preset.path;
#X obj 13 36 t a b;
#X obj 80 91 t a a;
#X obj 13 115 path.is.in;
#X obj 13 137 sel 1 0;
#X msg 145 164 ERROR Cannot load files from this location. Please move
your presetfiles to the folder: \$1;
#X connect 0 0 7 0;
#X connect 2 0 1 0;
#X connect 3 0 4 0;
#X connect 4 0 11 0;
#X connect 6 0 8 0;
#X connect 7 0 9 0;
#X connect 7 1 6 0;
#X connect 8 0 9 1;
#X connect 8 1 4 1;
#X connect 9 0 10 0;
#X connect 9 1 2 1;
#X connect 10 0 2 0;
#X connect 10 1 3 0;
#X connect 11 0 5 0;
#X restore 15 107 pd check.validity;
#N canvas 913 221 256 215 get.preset.path 0;
#X msg 42 54 get.presets.path;
#X obj 42 75 s \$0.MTX;
#X obj 42 97 r \$0.MTX;
#X obj 42 119 route presets.path;
#X obj 42 141 list;
#X obj 10 11 inlet;
#X obj 10 188 outlet;
#X obj 10 165 list append;
#X obj 10 33 t b b;
#X connect 0 0 1 0;
#X connect 2 0 3 0;
#X connect 3 0 4 0;
#X connect 4 0 7 1;
#X connect 5 0 8 0;
#X connect 7 0 6 0;
#X connect 8 0 7 0;
#X connect 8 1 0 0;
#X restore 15 42 pd get.preset.path;
#N canvas 913 193 256 215 get.preset.path 0;
#X msg 42 54 get.presets.path;
#X obj 42 75 s \$0.MTX;
#X obj 42 97 r \$0.MTX;
#X obj 42 119 route presets.path;
#X obj 42 141 list;
#X obj 10 11 inlet;
#X obj 10 188 outlet;
#X obj 10 165 list append;
#X obj 10 33 t b b;
#X connect 0 0 1 0;
#X connect 2 0 3 0;
#X connect 3 0 4 0;
#X connect 4 0 7 1;
#X connect 5 0 8 0;
#X connect 7 0 6 0;
#X connect 8 0 7 0;
#X connect 8 1 0 0;
#X restore 226 375 pd get.preset.path;
#X obj 194 352 t a b;
#X obj 194 399 list prepend;
#N canvas 36 85 545 329 check.validity 0;
#X obj 13 11 inlet;
#X obj 13 177 outlet;
#X obj 13 56 t a b;
#X obj 13 124 sel dummy;
#X obj 13 154 list append;
#X obj 231 82 t a;
#N canvas 84 49 207 298 path-1 0;
#X obj 20 58 symbol2list /;
#X obj 20 80 t a a;
#X obj 87 103 list length;
#X obj 87 146 max 0;
#X obj 20 168 list split;
#X obj 20 192 list2symbol /;
#X obj 87 124 - 1;
#X obj 20 34 inlet;
#X obj 20 259 outlet;
#X obj 116 251 outlet;
#X text 86 271 basename;
#X obj 20 220 root.slash;
#X connect 0 0 1 0;
#X connect 1 0 4 0;
#X connect 1 1 2 0;
#X connect 2 0 6 0;
#X connect 3 0 4 1;
#X connect 4 0 5 0;
#X connect 4 1 9 0;
#X connect 5 0 11 0;
#X connect 6 0 3 0;
#X connect 7 0 0 0;
#X connect 11 0 8 0;
#X restore 13 32 pd path-1;
#X obj 126 158 b;
#X obj 126 179 list;
#X text 263 85 basename;
#X obj 126 238 s \$0.MTX;
#N canvas 0 0 159 205 get.preset.path 0;
#X msg 9 51 get.presets.path;
#X obj 9 72 s \$0.MTX;
#X obj 9 94 r \$0.MTX;
#X obj 9 116 route presets.path;
#X obj 9 138 list;
#X obj 9 25 inlet;
#X obj 9 160 outlet;
#X connect 0 0 1 0;
#X connect 2 0 3 0;
#X connect 3 0 4 0;
#X connect 4 0 6 0;
#X connect 5 0 0 0;
#X restore 45 78 pd get.preset.path;
#X msg 126 203 ERROR Cannot save presets to this location. Please save
your presetfiles in the preset folder: \$1;
#X connect 0 0 6 0;
#X connect 2 0 3 0;
#X connect 2 1 11 0;
#X connect 3 0 4 0;
#X connect 3 1 7 0;
#X connect 4 0 1 0;
#X connect 5 0 4 1;
#X connect 6 0 2 0;
#X connect 6 1 5 0;
#X connect 7 0 8 0;
#X connect 8 0 12 0;
#X connect 11 0 8 1;
#X connect 11 0 3 1;
#X connect 12 0 10 0;
#X restore 194 223 pd check.validity;
#N canvas 913 193 256 215 get.preset.path 0;
#X msg 42 54 get.presets.path;
#X obj 42 75 s \$0.MTX;
#X obj 42 97 r \$0.MTX;
#X obj 42 119 route presets.path;
#X obj 42 141 list;
#X obj 10 11 inlet;
#X obj 10 188 outlet;
#X obj 10 165 list append;
#X obj 10 33 t b b;
#X connect 0 0 1 0;
#X connect 2 0 3 0;
#X connect 3 0 4 0;
#X connect 4 0 7 1;
#X connect 5 0 8 0;
#X connect 7 0 6 0;
#X connect 8 0 7 0;
#X connect 8 1 0 0;
#X restore 194 165 pd get.preset.path;
#X msg 194 423 savepreset \$1/\$2;
#X obj 10 353 s \$0.MTX;
#X obj 10 226 r \$0.MTX;
#X obj 10 248 route presetvalid loadpreset;
#X obj 10 270 b;
#X obj 106 268 list;
#X obj 10 307 list;
#X msg 421 204 currentpreset <no_preset>;
#X msg 15 130 loadpreset \$1;
#X msg 10 330 clear \, currentpreset \$1;
#X obj 544 171 loadbang;
#X connect 0 0 24 0;
#X connect 1 0 4 0;
#X connect 2 0 29 0;
#X connect 3 0 23 0;
#X connect 4 0 6 0;
#X connect 6 0 29 0;
#X connect 6 1 26 0;
#X connect 8 0 28 0;
#X connect 9 0 26 0;
#X connect 9 1 12 0;
#X connect 10 0 11 0;
#X connect 12 0 13 0;
#X connect 14 0 15 0;
#X connect 15 0 18 0;
#X connect 16 0 17 0;
#X connect 17 0 19 0;
#X connect 18 0 10 0;
#X connect 19 0 4 1;
#X connect 20 0 21 0;
#X connect 21 0 37 0;
#X connect 23 0 38 0;
#X connect 24 0 3 0;
#X connect 25 0 27 1;
#X connect 26 0 27 0;
#X connect 26 1 25 0;
#X connect 27 0 30 0;
#X connect 28 0 9 0;
#X connect 29 0 8 0;
#X connect 30 0 7 0;
#X connect 32 0 33 0;
#X connect 33 0 34 0;
#X connect 33 1 35 0;
#X connect 34 0 36 0;
#X connect 35 0 36 1;
#X connect 36 0 39 0;
#X connect 37 0 22 0;
#X connect 38 0 5 0;
#X connect 39 0 31 0;
#X connect 40 0 37 0;
#X restore 9 13 pd preset.dow.gui;
#N canvas 95 83 614 654 state.save.dow 0;
#X obj 326 225 s \$0.MTX;
#X obj 326 251 r \$0.MTX;
#X obj 284 490 textfile;
#X obj 326 297 list prepend add;
#X obj 326 319 list trim;
#X obj 20 283 t b b;
#X msg 52 304 rewind;
#X obj 52 412 until;
#X obj 53 483 s \$0.MTX;
#X obj 286 42 r \$0.MTX;
#X obj 286 107 t a b;
#X obj 286 86 list;
#X msg 318 130 clear;
#X text 24 13 ---LOAD------;
#X text 287 20 ---SAVE------;
#X msg 43 241 read \$1 cr;
#X msg 306 366 write \$1 cr;
#X obj 21 75 route <no_preset>;
#N canvas 1459 293 221 274 absolute.path 0;
#X obj 21 40 list;
#X obj 21 62 t a b;
#X msg 53 82 get.presets.path;
#X obj 53 104 s \$0.MTX;
#X obj 53 126 r \$0.MTX;
#X obj 53 148 route presets.path;
#X obj 53 170 list;
#X obj 21 202 list append;
#X obj 21 13 inlet;
#X obj 21 246 outlet;
#X msg 21 225 symbol \$2/\$1;
#X connect 0 0 1 0;
#X connect 1 0 7 0;
#X connect 1 1 2 0;
#X connect 2 0 3 0;
#X connect 4 0 5 0;
#X connect 5 0 6 0;
#X connect 6 0 7 1;
#X connect 7 0 10 0;
#X connect 8 0 0 0;
#X connect 10 0 9 0;
#X restore 20 149 pd absolute.path;
#X obj 20 176 t b a a;
#X obj 66 218 s \$0.MTX;
#X obj 286 435 s \$0.MTX;
#X msg 66 197 INFO loading weekprogram: \$1;
#X msg 286 414 INFO weekprogram saved: \$1;
#X msg 326 202 get.dow.preset;
#X obj 326 274 route dow.preset;
#X obj 318 151 s \$0.week.i.0;
#X obj 43 262 s \$0.week.i.0;
#X obj 52 325 s \$0.week.i.0;
#X obj 84 390 r \$0.week.o.1;
#X obj 52 434 s \$0.week.i.0;
#X obj 53 460 r \$0.week.o.0;
#X obj 326 340 s \$0.week.i.0;
#X obj 306 391 s \$0.week.i.0;
#X obj 284 467 r \$0.week.i.0;
#X obj 337 512 s \$0.week.o.1;
#X obj 284 531 s \$0.week.o.0;
#X obj 286 64 route savepreset;
#X obj 286 179 t a a b b;
#X msg 404 235 <weekprogram>;
#N canvas 1136 44 513 321 check.weekpr.validity 0;
#X obj 16 16 inlet;
#X obj 16 289 outlet;
#X obj 48 60 s \$0.week.i.0;
#X obj 48 82 r \$0.week.o.0;
#X obj 48 104 list;
#X obj 16 128 list;
#X obj 16 38 t b b;
#X msg 16 150 symbol \$1;
#X obj 16 172 select <weekprogram>;
#X obj 153 215 s \$0.MTX;
#X msg 153 193 ERROR This is not a valid weekprogram preset.;
#X obj 16 194 t b b;
#X msg 48 238 presetvalid;
#X obj 48 260 s \$0.MTX;
#X obj 48 216 del 0;
#X connect 0 0 6 0;
#X connect 3 0 4 0;
#X connect 4 0 5 1;
#X connect 5 0 7 0;
#X connect 6 0 5 0;
#X connect 6 1 2 0;
#X connect 7 0 8 0;
#X connect 8 0 11 0;
#X connect 8 1 10 0;
#X connect 10 0 9 0;
#X connect 11 0 1 0;
#X connect 11 1 14 0;
#X connect 12 0 13 0;
#X connect 14 0 12 0;
#X restore 20 350 pd check.weekpr.validity;
#X obj 20 372 t b b;
#X msg 20 503 weekpreset.loaded;
#X obj 20 525 s \$0.MTX;
#X obj 21 31 r \$0.MTX;
#X obj 21 53 route finalpreset;
#X connect 1 0 25 0;
#X connect 2 0 36 0;
#X connect 2 1 35 0;
#X connect 3 0 4 0;
#X connect 4 0 32 0;
#X connect 5 0 40 0;
#X connect 5 1 6 0;
#X connect 6 0 28 0;
#X connect 7 0 30 0;
#X connect 9 0 37 0;
#X connect 10 0 38 0;
#X connect 10 1 12 0;
#X connect 11 0 10 0;
#X connect 12 0 26 0;
#X connect 15 0 27 0;
#X connect 16 0 33 0;
#X connect 17 1 18 0;
#X connect 18 0 19 0;
#X connect 19 0 5 0;
#X connect 19 1 15 0;
#X connect 19 2 22 0;
#X connect 22 0 20 0;
#X connect 23 0 21 0;
#X connect 24 0 0 0;
#X connect 25 0 3 0;
#X connect 29 0 7 1;
#X connect 31 0 8 0;
#X connect 34 0 2 0;
#X connect 37 0 11 0;
#X connect 38 0 23 0;
#X connect 38 1 16 0;
#X connect 38 2 24 0;
#X connect 38 3 39 0;
#X connect 39 0 3 0;
#X connect 40 0 41 0;
#X connect 41 0 42 0;
#X connect 41 1 7 0;
#X connect 42 0 43 0;
#X connect 44 0 45 0;
#X connect 45 0 17 0;
#X restore 10 38 pd state.save.dow;
#N canvas 745 44 450 300 auto.week.gui 0;
#X obj 13 25 r \$0.MTX;
#X obj 13 47 route autoweekpreset;
#X msg 13 92 autoweekenable \$1;
#X obj 13 115 s \$0.MTX;
#N canvas 234 320 288 402 auto.week.enable.button 0;
#X obj 43 275 clr.conv;
#X msg 43 302 color \$1 \$1 -1;
#N canvas 1195 44 450 300 wait 0;
#X obj 11 13 inlet;
#X obj 11 34 b;
#X obj 11 61 spigot 1;
#X obj 11 84 t b b b;
#X msg 83 84 0;
#X msg 128 78 1;
#X obj 128 56 del 300;
#X obj 11 105 outlet;
#X connect 0 0 1 0;
#X connect 1 0 2 0;
#X connect 2 0 3 0;
#X connect 3 0 7 0;
#X connect 3 1 6 0;
#X connect 3 2 4 0;
#X connect 4 0 2 1;
#X connect 5 0 2 1;
#X connect 6 0 5 0;
#X restore 16 27 pd wait;
#X obj 16 357 outlet;
#X obj 16 6 r \$0.auto.week.enable.s;
#X obj 43 324 s \$0.auto.week.enable.r;
#X obj 16 85 ==;
#X obj 50 90 t a;
#X obj 171 8 inlet;
#X obj 171 30 ==;
#X obj 26 62 t b a;
#X obj 16 172 t a a;
#X obj 43 197 sel 0 1;
#X msg 158 238 disabled;
#X msg 217 237 enabled;
#X obj 158 261 list;
#X msg 158 283 label \$1;
#X msg 62 221 255 128 128;
#X msg 43 249 220 220 220;
#X obj 87 136 loadbang;
#X msg 87 158 0;
#X connect 0 0 1 0;
#X connect 1 0 5 0;
#X connect 2 0 6 0;
#X connect 4 0 2 0;
#X connect 6 0 7 0;
#X connect 6 0 11 0;
#X connect 7 0 6 1;
#X connect 8 0 9 0;
#X connect 9 0 10 0;
#X connect 10 0 6 0;
#X connect 10 1 6 1;
#X connect 11 0 3 0;
#X connect 11 1 12 0;
#X connect 12 0 18 0;
#X connect 12 0 13 0;
#X connect 12 1 17 0;
#X connect 12 1 14 0;
#X connect 13 0 15 0;
#X connect 14 0 15 0;
#X connect 15 0 16 0;
#X connect 16 0 5 0;
#X connect 17 0 0 0;
#X connect 18 0 0 0;
#X connect 19 0 20 0;
#X connect 20 0 12 0;
#X restore 13 70 pd auto.week.enable.button;
#X connect 0 0 1 0;
#X connect 1 0 4 0;
#X connect 2 0 3 0;
#X connect 4 0 2 0;
#X restore 11 63 pd auto.week.gui;
#N canvas 689 78 527 437 auto.vs.default.week.preset.logic 0;
#N canvas 1081 331 221 274 absolute.path 0;
#X obj 21 40 list;
#X obj 21 62 t a b;
#X msg 53 82 get.presets.path;
#X obj 53 104 s \$0.MTX;
#X obj 53 126 r \$0.MTX;
#X obj 53 148 route presets.path;
#X obj 53 170 list;
#X obj 21 202 list append;
#X obj 21 13 inlet;
#X obj 21 246 outlet;
#X msg 21 225 symbol \$2/\$1;
#X connect 0 0 1 0;
#X connect 1 0 7 0;
#X connect 1 1 2 0;
#X connect 2 0 3 0;
#X connect 4 0 5 0;
#X connect 5 0 6 0;
#X connect 6 0 7 1;
#X connect 7 0 10 0;
#X connect 8 0 0 0;
#X connect 10 0 9 0;
#X restore 49 195 pd absolute.path;
#N canvas 926 128 219 293 check.weekpr.validity 0;
#X obj 16 16 inlet;
#X obj 16 240 outlet;
#X obj 35 99 textfile;
#X msg 35 77 read \$1 cr \, rewind \, bang;
#X obj 35 158 select <weekprogram>;
#X obj 16 37 t b a b;
#X msg 63 184 0;
#X msg 35 184 1;
#X obj 16 214 f;
#X obj 35 121 list split 1;
#X connect 0 0 5 0;
#X connect 2 0 9 0;
#X connect 3 0 2 0;
#X connect 4 0 7 0;
#X connect 5 0 8 0;
#X connect 5 1 3 0;
#X connect 5 2 6 0;
#X connect 6 0 8 1;
#X connect 7 0 8 1;
#X connect 8 0 1 0;
#X connect 9 0 4 0;
#X restore 49 217 pd check.weekpr.validity;
#X obj 49 19 r \$0.MTX;
#X obj 49 41 route autoweekenable loadpreset;
#X msg 49 386 finalpreset \$1;
#X obj 49 411 s \$0.MTX;
#X obj 224 136 list;
#X obj 49 111 iso.week;
#X obj 49 65 sel 1 0;
#X obj 224 264 spigot;
#X msg 257 203 1;
#X obj 49 157 t a a;
#X obj 49 241 sel 1 0;
#X obj 49 271 symbol;
#X msg 49 133 symbol woche\$1;
#X obj 49 293 t a b;
#X msg 237 234 0;
#X obj 49 87 delay 99;
#X text 104 88 <- wait until preset path is set;
#X connect 0 0 1 0;
#X connect 1 0 12 0;
#X connect 2 0 3 0;
#X connect 3 0 8 0;
#X connect 3 1 6 0;
#X connect 4 0 5 0;
#X connect 6 0 9 0;
#X connect 7 0 14 0;
#X connect 8 0 17 0;
#X connect 8 1 10 0;
#X connect 9 0 4 0;
#X connect 10 0 9 1;
#X connect 11 0 0 0;
#X connect 11 1 13 1;
#X connect 12 0 13 0;
#X connect 12 1 10 0;
#X connect 13 0 15 0;
#X connect 14 0 11 0;
#X connect 15 0 4 0;
#X connect 15 1 16 0;
#X connect 16 0 9 1;
#X connect 17 0 7 0;
#X restore 10 88 pd auto.vs.default.week.preset.logic;
#X restore 22 231 pd state.save.week;
#N canvas 1136 44 526 177 load.display 0;
#X obj 15 15 r \$0.MTX;
#X obj 15 37 route loaddisplay;
#N canvas 346 140 431 113 loading....... 0;
#X obj 14 15 cnv 15 15 15 empty empty ...loading.preset... 20 12 0
30 -262144 -66577 0;
#X obj 24 47 cnv 15 60 40 empty empty empty 20 12 0 14 -233017 -66577
0;
#X obj 85 47 cnv 15 60 40 empty empty empty 20 12 0 14 -191407 -66577
0;
#X obj 146 47 cnv 15 60 40 empty empty empty 20 12 0 14 -162280 -66577
0;
#X obj 207 47 cnv 15 60 40 empty empty empty 20 12 0 14 -128992 -66577
0;
#X obj 268 47 cnv 15 60 40 empty empty empty 20 12 0 14 -99865 -66577
0;
#X obj 329 47 cnv 15 60 40 empty empty empty 20 12 0 14 -66577 -66577
0;
#X restore 303 100 pd loading.......;
#X msg 15 63 vis \$1;
#X obj 15 98 s pd-loading.......;
#X connect 0 0 1 0;
#X connect 1 0 3 0;
#X connect 3 0 4 0;
#X restore 21 307 pd load.display;
#N canvas 374 195 667 246 parent.comm 0;
#X obj 21 14 r \$0.MTX;
#X obj 21 36 route currentpreset;
#X obj 21 58 list;
#X msg 21 80 currentpreset \$1;
#X obj 21 102 s \$1.MTX;
#X msg 404 152 reset;
#X obj 404 173 s \$0.MTX;
#X obj 404 21 r \$1.MTX;
#X obj 404 43 route reset;
#X obj 517 19 r \$0.MTX;
#X obj 517 41 route send.reset;
#X obj 404 125 spigot 1;
#X obj 517 63 t b b b;
#X msg 517 85 1;
#X msg 563 85 0;
#X msg 540 120 reset;
#X obj 540 142 s \$1.MTX;
#X obj 240 19 r \$1.MTX;
#X obj 240 41 route loadpreset;
#X obj 240 63 list;
#X msg 240 85 loadpreset \$1;
#X obj 240 107 s \$0.MTX;
#X obj 22 126 r \$0.MTX;
#X obj 22 170 list;
#X obj 22 214 s \$1.MTX;
#X obj 241 131 r \$1.MTX;
#X obj 241 175 list;
#X obj 241 219 s \$0.MTX;
#X obj 22 148 route autoweekenable;
#X msg 22 192 autoweekenable \$1;
#X obj 241 153 route autoweekpreset;
#X msg 241 197 autoweekpreset \$1;
#X connect 0 0 1 0;
#X connect 1 0 2 0;
#X connect 2 0 3 0;
#X connect 3 0 4 0;
#X connect 5 0 6 0;
#X connect 7 0 8 0;
#X connect 8 0 11 0;
#X connect 9 0 10 0;
#X connect 10 0 12 0;
#X connect 11 0 5 0;
#X connect 12 0 13 0;
#X connect 12 1 15 0;
#X connect 12 2 14 0;
#X connect 13 0 11 1;
#X connect 14 0 11 1;
#X connect 15 0 16 0;
#X connect 17 0 18 0;
#X connect 18 0 19 0;
#X connect 19 0 20 0;
#X connect 20 0 21 0;
#X connect 22 0 28 0;
#X connect 23 0 29 0;
#X connect 25 0 30 0;
#X connect 26 0 31 0;
#X connect 28 0 23 0;
#X connect 29 0 24 0;
#X connect 30 0 26 0;
#X connect 31 0 27 0;
#X restore 21 331 pd parent.comm;
#X obj 20 20 cnv 14 442 156 empty empty week.preset 6 8 0 10 -237184
-1 0;
#X obj 163 50 hsl 292 14 1 1 0 0 \$0.preset.file.s \$0.preset.file.r
normalewoche 4 7 0 10 -249661 -249661 -1 0 1;
#X obj 64 50 bng 14 250 50 0 \$0.preset.save.s empty empty 17 7 0 10
-262144 -1 -1;
#X obj 79 50 bng 14 250 50 0 \$0.preset.save.s empty empty 17 7 0 10
-262144 -1 -1;
#X obj 89 50 bng 14 250 50 0 \$0.preset.save.s empty empty 17 7 0 10
-262144 -1 -1;
#X obj 67 50 hsl 34 14 1 1 0 0 \$0.blubli.s \$0.preset.save.r save
4 7 0 10 -228856 -228856 -1 0 1;
#X obj 103 50 bng 14 250 50 0 \$0.preset.saveas.s empty empty 17 7
0 10 -262144 -1 -1;
#X obj 117 50 bng 14 250 50 0 \$0.preset.saveas.s empty empty 17 7
0 10 -262144 -1 -1;
#X obj 131 50 bng 14 250 50 0 \$0.preset.saveas.s empty empty 17 7
0 10 -262144 -1 -1;
#X obj 146 50 bng 14 250 50 0 \$0.preset.saveas.s empty empty 17 7
0 10 -262144 -1 -1;
#X obj 25 50 bng 14 250 50 0 \$0.preset.load.s empty empty 17 7 0 10
-262144 -1 -1;
#X obj 38 50 bng 14 250 50 0 \$0.preset.load.s empty empty 17 7 0 10
-262144 -1 -1;
#X obj 49 50 bng 14 250 50 0 \$0.preset.load.s empty empty 17 7 0 10
-262144 -1 -1;
#X obj 28 50 hsl 34 14 1 1 0 0 \$0.blubli \$0.preset.load.r load 4
7 0 10 -228856 -228856 -1 0 1;
#X obj 254 268 print WEEK.PRESET;
#X obj 327 221 tgl 15 0 empty empty empty 17 7 0 10 -262144 -1 -1 0
1;
#X text 314 245 DEBUG;
#X obj 254 244 spigot;
#N canvas 222 371 267 184 load.today 0;
#X obj 19 19 r \$0.MTX;
#X obj 19 41 route weekpreset.loaded;
#X obj 19 63 b;
#X obj 19 85 date . . . . .;
#X msg 76 110 load.today \$1;
#X obj 76 132 s \$0.MTX;
#X connect 0 0 1 0;
#X connect 1 0 2 0;
#X connect 2 0 3 0;
#X connect 3 3 4 0;
#X connect 4 0 5 0;
#X restore 20 281 pd load.today;
#X obj 25 73 preset.week.day \$0 1;
#X obj 25 101 preset.week.day \$0 3;
#X obj 25 87 preset.week.day \$0 2;
#X obj 25 115 preset.week.day \$0 4;
#X obj 25 129 preset.week.day \$0 5;
#X obj 25 143 preset.week.day \$0 6;
#X obj 25 157 preset.week.day \$0 0;
#X obj 163 36 hsl 292 14 1 1 0 0 \$0.autoweek.preset.s \$0.autoweek.preset.r
<disabled> 4 7 0 10 -249661 -249661 -1 0 1;
#X text 332 340 Roman Haefeli \, 2012;
#X text 24 35 auto.week;
#X obj 106 50 hsl 52 14 1 1 0 0 \$0.blubli.s \$0.auto.week.enabled.r
saveas 4 7 0 10 -228856 -228856 -1 0 1;
#X obj 103 36 bng 14 250 50 0 \$0.auto.week.enable.s empty empty 17
7 0 10 -262144 -1 -1;
#X obj 117 36 bng 14 250 50 0 \$0.auto.week.enable.s empty empty 17
7 0 10 -262144 -1 -1;
#X obj 134 36 bng 14 250 50 0 \$0.auto.week.enable.s empty empty 17
7 0 10 -262144 -1 -1;
#X obj 146 36 bng 14 250 50 0 \$0.auto.week.enable.s empty empty 17
7 0 10 -262144 -1 -1;
#X obj 106 36 hsl 52 14 1 1 0 0 \$0.blubli.s \$0.auto.week.enable.r
disabled 2 7 0 10 -228856 -228856 -1 0 1;
#X obj 376 226 r \$0.preset.file.r;
#X obj 376 248 print DEBUG;
#X connect 2 0 24 0;
#X connect 22 0 24 1;
#X connect 24 0 21 0;
#X connect 42 0 43 0;
#X coords 0 -1 1 1 442 156 2 20 20;
