#N canvas 531 169 486 181 10;
#X obj 223 20 hsl 227 14 1 1 0 0 \$0.preset.file.s \$0.preset.file.r
<no_preset> 4 7 0 10 -249661 -249661 -1 0 1;
#X obj 124 20 bng 14 250 50 0 \$0.preset.save.s empty empty 17 7 0
10 -262144 -1 -1;
#X obj 139 20 bng 14 250 50 0 \$0.preset.save.s empty empty 17 7 0
10 -262144 -1 -1;
#X obj 149 20 bng 14 250 50 0 \$0.preset.save.s empty empty 17 7 0
10 -262144 -1 -1;
#X obj 127 20 hsl 34 14 1 1 0 0 \$0.blubli.s \$0.preset.save.r save
4 7 0 10 -228856 -228856 -1 0 1;
#X obj 163 20 bng 14 250 50 0 \$0.preset.saveas.s empty empty 17 7
0 10 -262144 -1 -1;
#X obj 178 20 bng 14 250 50 0 \$0.preset.saveas.s empty empty 17 7
0 10 -262144 -1 -1;
#X obj 191 20 bng 14 250 50 0 \$0.preset.saveas.s empty empty 17 7
0 10 -262144 -1 -1;
#X obj 206 20 bng 14 250 50 0 \$0.preset.saveas.s empty empty 17 7
0 10 -262144 -1 -1;
#X obj 166 20 hsl 52 14 1 1 0 0 \$0.blubli.s \$0.preset.saveas.r saveas
4 7 0 10 -228856 -228856 -1 0 1;
#X obj 85 20 bng 14 250 50 0 \$0.preset.load.s empty empty 17 7 0 10
-262144 -1 -1;
#X obj 98 20 bng 14 250 50 0 \$0.preset.load.s empty empty 17 7 0 10
-262144 -1 -1;
#X obj 109 20 bng 14 250 50 0 \$0.preset.load.s empty empty 17 7 0
10 -262144 -1 -1;
#X obj 88 20 hsl 34 14 1 1 0 0 \$0.blubli \$0.preset.load.r load 4
7 0 10 -228856 -228856 -1 0 1;
#X obj 23 20 hsl 60 14 1 1 0 0 \$0.preset.dow.s \$0.preset.dow.r monday
4 7 0 10 -228856 -228856 -1 0 1;
#N canvas 208 46 806 598 some.stuff 0;
#N canvas 214 323 195 320 preset.load 0;
#X obj 40 188 clr.conv;
#X msg 40 167 220 220 220;
#X msg 40 215 color \$1 \$1 -1;
#X msg 72 131 100 100 100;
#X obj 40 237 s \$0.preset.load.r;
#X obj 17 28 r \$0.preset.load.s;
#X obj 40 104 del 100;
#N canvas 0 0 450 300 wait 0;
#X obj 11 13 inlet;
#X obj 11 34 b;
#X obj 11 61 spigot 1;
#X obj 11 84 t b b b;
#X msg 83 84 0;
#X msg 128 78 1;
#X obj 128 56 del 300;
#X obj 11 105 outlet;
#X connect 0 0 1 0;
#X connect 1 0 2 0;
#X connect 2 0 3 0;
#X connect 3 0 7 0;
#X connect 3 1 6 0;
#X connect 3 2 4 0;
#X connect 4 0 2 1;
#X connect 5 0 2 1;
#X connect 6 0 5 0;
#X restore 17 49 pd wait;
#X obj 17 74 t b b b;
#X obj 17 259 outlet;
#X connect 0 0 2 0;
#X connect 1 0 0 0;
#X connect 2 0 4 0;
#X connect 3 0 0 0;
#X connect 5 0 7 0;
#X connect 6 0 1 0;
#X connect 7 0 8 0;
#X connect 8 0 9 0;
#X connect 8 1 6 0;
#X connect 8 2 3 0;
#X restore 15 12 pd preset.load;
#N canvas 214 323 195 320 preset.save 0;
#X obj 40 188 clr.conv;
#X msg 40 167 220 220 220;
#X msg 40 215 color \$1 \$1 -1;
#X msg 72 131 100 100 100;
#X obj 40 104 del 100;
#N canvas 0 0 450 300 wait 0;
#X obj 11 13 inlet;
#X obj 11 34 b;
#X obj 11 61 spigot 1;
#X obj 11 84 t b b b;
#X msg 83 84 0;
#X msg 128 78 1;
#X obj 128 56 del 300;
#X obj 11 105 outlet;
#X connect 0 0 1 0;
#X connect 1 0 2 0;
#X connect 2 0 3 0;
#X connect 3 0 7 0;
#X connect 3 1 6 0;
#X connect 3 2 4 0;
#X connect 4 0 2 1;
#X connect 5 0 2 1;
#X connect 6 0 5 0;
#X restore 17 49 pd wait;
#X obj 17 74 t b b b;
#X obj 17 259 outlet;
#X obj 17 28 r \$0.preset.save.s;
#X obj 40 237 s \$0.preset.save.r;
#X connect 0 0 2 0;
#X connect 1 0 0 0;
#X connect 2 0 9 0;
#X connect 3 0 0 0;
#X connect 4 0 1 0;
#X connect 5 0 6 0;
#X connect 6 0 7 0;
#X connect 6 1 4 0;
#X connect 6 2 3 0;
#X connect 8 0 5 0;
#X restore 194 15 pd preset.save;
#N canvas 214 323 195 320 preset.saveas 0;
#X obj 40 188 clr.conv;
#X msg 40 167 220 220 220;
#X msg 40 215 color \$1 \$1 -1;
#X msg 72 131 100 100 100;
#X obj 40 104 del 100;
#N canvas 0 0 450 300 wait 0;
#X obj 11 13 inlet;
#X obj 11 34 b;
#X obj 11 61 spigot 1;
#X obj 11 84 t b b b;
#X msg 83 84 0;
#X msg 128 78 1;
#X obj 128 56 del 300;
#X obj 11 105 outlet;
#X connect 0 0 1 0;
#X connect 1 0 2 0;
#X connect 2 0 3 0;
#X connect 3 0 7 0;
#X connect 3 1 6 0;
#X connect 3 2 4 0;
#X connect 4 0 2 1;
#X connect 5 0 2 1;
#X connect 6 0 5 0;
#X restore 17 49 pd wait;
#X obj 17 74 t b b b;
#X obj 17 259 outlet;
#X obj 17 28 r \$0.preset.saveas.s;
#X obj 40 237 s \$0.preset.saveas.r;
#X connect 0 0 2 0;
#X connect 1 0 0 0;
#X connect 2 0 9 0;
#X connect 3 0 0 0;
#X connect 4 0 1 0;
#X connect 5 0 6 0;
#X connect 6 0 7 0;
#X connect 6 1 4 0;
#X connect 6 2 3 0;
#X connect 8 0 5 0;
#X restore 210 138 pd preset.saveas;
#X obj 15 83 openpanel;
#X obj 194 80 list append <no_preset>;
#X obj 15 154 s \$0.MTX;
#X obj 194 111 sel <no_preset>;
#X obj 194 195 savepanel;
#X obj 194 272 t a a;
#X msg 506 202 label \$1;
#X obj 506 225 s \$0.preset.file.r;
#X obj 226 322 s \$0.MTX;
#X obj 506 137 r \$0.MTX;
#X obj 352 15 r \$0.MTX;
#X obj 506 180 list;
#X obj 352 58 list;
#X obj 511 43 route reset;
#X obj 511 88 s \$0.MTX;
#N canvas 913 193 256 215 get.preset.path 0;
#X msg 42 54 get.presets.path;
#X obj 42 119 route presets.path;
#X obj 42 141 list;
#X obj 10 11 inlet;
#X obj 10 188 outlet;
#X obj 10 165 list append;
#X obj 10 33 t b b;
#X obj 42 75 s \$1.MTX;
#X obj 42 97 r \$1.MTX;
#X connect 0 0 7 0;
#X connect 1 0 2 0;
#X connect 2 0 5 1;
#X connect 3 0 6 0;
#X connect 5 0 4 0;
#X connect 6 0 5 0;
#X connect 6 1 0 0;
#X connect 8 0 1 0;
#X restore 15 42 pd get.preset.path;
#N canvas 913 193 256 215 get.preset.path 0;
#X msg 42 54 get.presets.path;
#X obj 42 119 route presets.path;
#X obj 42 141 list;
#X obj 10 11 inlet;
#X obj 10 188 outlet;
#X obj 10 165 list append;
#X obj 10 33 t b b;
#X obj 42 75 s \$1.MTX;
#X obj 42 97 r \$1.MTX;
#X connect 0 0 7 0;
#X connect 1 0 2 0;
#X connect 2 0 5 1;
#X connect 3 0 6 0;
#X connect 5 0 4 0;
#X connect 6 0 5 0;
#X connect 6 1 0 0;
#X connect 8 0 1 0;
#X restore 226 375 pd get.preset.path;
#X obj 194 352 t a b;
#X obj 194 399 list prepend;
#N canvas 36 85 545 329 check.validity 0;
#X obj 13 11 inlet;
#X obj 13 177 outlet;
#X obj 13 56 t a b;
#X obj 13 124 sel dummy;
#X obj 13 154 list append;
#X obj 231 82 t a;
#N canvas 84 49 207 298 path-1 0;
#X obj 20 58 symbol2list /;
#X obj 20 80 t a a;
#X obj 87 103 list length;
#X obj 87 146 max 0;
#X obj 20 168 list split;
#X obj 20 192 list2symbol /;
#X obj 87 124 - 1;
#X obj 20 34 inlet;
#X obj 20 259 outlet;
#X obj 116 251 outlet;
#X text 86 271 basename;
#X obj 20 220 root.slash;
#X connect 0 0 1 0;
#X connect 1 0 4 0;
#X connect 1 1 2 0;
#X connect 2 0 6 0;
#X connect 3 0 4 1;
#X connect 4 0 5 0;
#X connect 4 1 9 0;
#X connect 5 0 11 0;
#X connect 6 0 3 0;
#X connect 7 0 0 0;
#X connect 11 0 8 0;
#X restore 13 32 pd path-1;
#X obj 126 158 b;
#X obj 126 179 list;
#X text 263 85 basename;
#N canvas 0 0 159 205 get.preset.path 0;
#X msg 9 51 get.presets.path;
#X obj 9 116 route presets.path;
#X obj 9 138 list;
#X obj 9 25 inlet;
#X obj 9 160 outlet;
#X obj 9 94 r \$1.MTX;
#X obj 9 72 s \$1.MTX;
#X connect 0 0 6 0;
#X connect 1 0 2 0;
#X connect 2 0 4 0;
#X connect 3 0 0 0;
#X connect 5 0 1 0;
#X restore 45 78 pd get.preset.path;
#X msg 126 203 ERROR Cannot save presets to this location. Please save
your presetfiles in the preset folder: \$1;
#X obj 126 238 s \$1.MTX;
#X connect 0 0 6 0;
#X connect 2 0 3 0;
#X connect 2 1 10 0;
#X connect 3 0 4 0;
#X connect 3 1 7 0;
#X connect 4 0 1 0;
#X connect 5 0 4 1;
#X connect 6 0 2 0;
#X connect 6 1 5 0;
#X connect 7 0 8 0;
#X connect 8 0 11 0;
#X connect 10 0 8 1;
#X connect 10 0 3 1;
#X connect 11 0 12 0;
#X restore 194 223 pd check.validity;
#N canvas 913 193 256 215 get.preset.path 0;
#X msg 42 54 get.presets.path;
#X obj 42 119 route presets.path;
#X obj 42 141 list;
#X obj 10 11 inlet;
#X obj 10 188 outlet;
#X obj 10 165 list append;
#X obj 10 33 t b b;
#X obj 42 75 s \$1.MTX;
#X obj 42 97 r \$1.MTX;
#X connect 0 0 7 0;
#X connect 1 0 2 0;
#X connect 2 0 5 1;
#X connect 3 0 6 0;
#X connect 5 0 4 0;
#X connect 6 0 5 0;
#X connect 6 1 0 0;
#X connect 8 0 1 0;
#X restore 194 165 pd get.preset.path;
#N canvas 0 0 293 327 day.of.week 0;
#X obj 40 15 loadbang;
#X obj 40 37 \$2;
#X msg 40 209 monday;
#X msg 59 189 tuesday;
#X msg 79 167 wednesday;
#X msg 98 147 thursday;
#X msg 118 127 friday;
#X msg 137 106 saturday;
#X msg 157 85 sunday;
#X obj 40 238 list;
#X msg 40 260 label \$1;
#X obj 40 282 s \$0.preset.dow.r;
#X obj 40 59 select 1 2 3 4 5 6 0;
#X connect 0 0 1 0;
#X connect 1 0 12 0;
#X connect 2 0 9 0;
#X connect 3 0 9 0;
#X connect 4 0 9 0;
#X connect 5 0 9 0;
#X connect 6 0 9 0;
#X connect 7 0 9 0;
#X connect 8 0 9 0;
#X connect 9 0 10 0;
#X connect 10 0 11 0;
#X connect 12 0 2 0;
#X connect 12 1 3 0;
#X connect 12 2 4 0;
#X connect 12 3 5 0;
#X connect 12 4 6 0;
#X connect 12 5 7 0;
#X connect 12 6 8 0;
#X restore 12 231 pd day.of.week;
#X obj 511 21 r \$1.MTX;
#X obj 473 399 f \$2;
#X obj 441 567 s \$1.MTX;
#X msg 473 421 today.is \$1;
#X msg 15 130 todaypreset \$1;
#X msg 511 66 todaypreset <no_preset>;
#X obj 352 36 route todaypreset;
#X obj 506 159 route todaypreset;
#X msg 226 299 todaypreset \$1;
#N canvas 0 0 450 300 wait 0;
#X obj 11 13 inlet;
#X obj 11 34 b;
#X obj 11 61 spigot 1;
#X obj 11 84 t b b b;
#X msg 83 84 0;
#X msg 128 78 1;
#X obj 128 56 del 300;
#X obj 11 105 outlet;
#X connect 0 0 1 0;
#X connect 1 0 2 0;
#X connect 2 0 3 0;
#X connect 3 0 7 0;
#X connect 3 1 6 0;
#X connect 3 2 4 0;
#X connect 4 0 2 1;
#X connect 5 0 2 1;
#X connect 6 0 5 0;
#X restore 441 295 pd wait;
#X obj 441 274 r \$0.preset.dow.s;
#N canvas 0 0 185 214 dow.state 0;
#X obj 12 24 inlet;
#X obj 12 46 sel 0 1;
#X obj 12 123 clr.conv;
#X msg 12 150 color \$1 \$1 -1;
#X obj 12 172 s \$0.preset.dow.r;
#X msg 35 72 255 127 127;
#X msg 12 95 220 220 220;
#X connect 0 0 1 0;
#X connect 1 0 6 0;
#X connect 1 1 5 0;
#X connect 2 0 3 0;
#X connect 3 0 4 0;
#X connect 5 0 2 0;
#X connect 6 0 2 0;
#X restore 652 408 pd dow.state;
#X obj 194 520 s \$1.MTX;
#X obj 226 467 f \$2;
#X msg 226 493 today.is \$1;
#X obj 194 445 t a b;
#X obj 441 378 t b b;
#X obj 468 450 r \$0.MTX;
#X obj 468 472 route todaypreset;
#X obj 468 494 list;
#X obj 441 520 list;
#X obj 652 260 r \$1.MTX;
#X obj 652 386 == \$2;
#X obj 652 288 route today.is;
#X obj 634 37 loadbang;
#X obj 691 333 route reset;
#X obj 691 311 r \$1.MTX;
#X msg 441 542 load.day.preset \$1;
#X msg 194 423 save.day.preset \$1/\$2;
#X obj 502 295 r \$1.MTX;
#X obj 502 317 route load.today;
#X obj 502 339 route \$2;
#N canvas 36 85 582 257 check.validity 0;
#X obj 13 11 inlet;
#X obj 13 198 outlet;
#X obj 13 173 list append;
#X obj 145 119 b;
#X obj 145 140 list;
#N canvas 0 0 159 205 get.preset.path 0;
#X msg 9 51 get.presets.path;
#X obj 9 116 route presets.path;
#X obj 9 138 list;
#X obj 9 25 inlet;
#X obj 9 160 outlet;
#X obj 9 72 s \$1.MTX;
#X obj 9 94 r \$1.MTX;
#X connect 0 0 5 0;
#X connect 1 0 2 0;
#X connect 2 0 4 0;
#X connect 3 0 0 0;
#X connect 6 0 1 0;
#X restore 80 65 pd get.preset.path;
#X obj 13 36 t a b;
#X obj 80 91 t a a;
#X obj 13 115 path.is.in;
#X obj 13 137 sel 1 0;
#X msg 145 164 ERROR Cannot load files from this location. Please move
your presetfiles to the folder: \$1;
#X obj 145 199 s \$1.MTX;
#X connect 0 0 6 0;
#X connect 2 0 1 0;
#X connect 3 0 4 0;
#X connect 4 0 10 0;
#X connect 5 0 7 0;
#X connect 6 0 8 0;
#X connect 6 1 5 0;
#X connect 7 0 8 1;
#X connect 7 1 4 1;
#X connect 8 0 9 0;
#X connect 8 1 2 1;
#X connect 9 0 2 0;
#X connect 9 1 3 0;
#X connect 10 0 11 0;
#X restore 15 108 pd check.validity;
#X msg 691 355 -1;
#X connect 0 0 18 0;
#X connect 1 0 4 0;
#X connect 2 0 23 0;
#X connect 3 0 57 0;
#X connect 4 0 6 0;
#X connect 6 0 23 0;
#X connect 6 1 20 0;
#X connect 7 0 22 0;
#X connect 8 0 20 0;
#X connect 8 1 33 0;
#X connect 9 0 10 0;
#X connect 12 0 32 0;
#X connect 13 0 31 0;
#X connect 14 0 9 0;
#X connect 15 0 4 1;
#X connect 16 0 30 0;
#X connect 18 0 3 0;
#X connect 19 0 21 1;
#X connect 20 0 21 0;
#X connect 20 1 19 0;
#X connect 21 0 53 0;
#X connect 22 0 8 0;
#X connect 23 0 7 0;
#X connect 25 0 16 0;
#X connect 26 0 28 0;
#X connect 28 0 27 0;
#X connect 29 0 5 0;
#X connect 30 0 17 0;
#X connect 31 0 15 0;
#X connect 32 0 14 0;
#X connect 33 0 11 0;
#X connect 34 0 41 0;
#X connect 35 0 34 0;
#X connect 38 0 39 0;
#X connect 39 0 37 0;
#X connect 40 0 37 0;
#X connect 40 1 38 0;
#X connect 41 0 45 0;
#X connect 41 1 26 0;
#X connect 42 0 43 0;
#X connect 43 0 44 0;
#X connect 44 0 45 1;
#X connect 45 0 52 0;
#X connect 46 0 48 0;
#X connect 47 0 36 0;
#X connect 48 0 47 0;
#X connect 49 0 30 0;
#X connect 50 0 58 0;
#X connect 51 0 50 0;
#X connect 52 0 27 0;
#X connect 53 0 40 0;
#X connect 54 0 55 0;
#X connect 55 0 56 0;
#X connect 56 0 41 0;
#X connect 57 0 29 0;
#X connect 58 0 47 0;
#X restore 23 85 pd some.stuff;
#N canvas 0 0 513 223 state.save 0;
#X obj 38 62 r \$0.MTX;
#X obj 38 85 route todaypreset;
#X obj 10 105 list;
#X obj 10 17 r \$1.MTX;
#X obj 10 39 route get.dow.preset;
#X obj 10 61 b;
#X obj 10 127 list prepend dow.preset \$2 preset;
#X obj 10 149 list trim;
#X obj 10 171 s \$1.MTX;
#X obj 336 60 r \$1.MTX;
#X obj 336 82 route \$2;
#X obj 336 104 route preset;
#X obj 336 126 list;
#X msg 336 148 todaypreset \$1;
#X obj 336 170 s \$0.MTX;
#X connect 0 0 1 0;
#X connect 1 0 2 1;
#X connect 2 0 6 0;
#X connect 3 0 4 0;
#X connect 4 0 5 0;
#X connect 5 0 2 0;
#X connect 6 0 7 0;
#X connect 7 0 8 0;
#X connect 9 0 10 0;
#X connect 10 0 11 0;
#X connect 11 0 12 0;
#X connect 12 0 13 0;
#X connect 13 0 14 0;
#X restore 25 118 pd state.save;
#X coords 0 -1 1 1 432 14 2 20 20;
