#N canvas 381 0 721 649 10;
#X obj 27 17 inlet;
#X obj 362 14 inlet;
#N canvas 225 107 159 137 imply_0 0;
#X obj 12 32 list split 2;
#X msg 93 54 \$1 0;
#X obj 12 78 t a;
#X obj 12 10 inlet;
#X obj 12 99 outlet;
#X connect 0 0 2 0;
#X connect 0 2 1 0;
#X connect 1 0 2 0;
#X connect 2 0 4 0;
#X connect 3 0 0 0;
#X restore 362 36 pd imply_0;
#N canvas 225 107 159 137 imply_0 0;
#X obj 12 32 list split 2;
#X msg 93 54 \$1 0;
#X obj 12 78 t a;
#X obj 12 10 inlet;
#X obj 12 99 outlet;
#X connect 0 0 2 0;
#X connect 0 2 1 0;
#X connect 1 0 2 0;
#X connect 2 0 4 0;
#X connect 3 0 0 0;
#X restore 27 39 pd imply_0;
#N canvas 64 287 335 386 timeleft 0;
#X obj 13 62 delay;
#X msg 45 84 1;
#X msg 13 84 0;
#X obj 13 138 route 1;
#X obj 13 208 timer;
#X obj 13 32 t a b a;
#X obj 13 230 pack f f;
#X obj 13 252 t a a;
#X msg 45 277 \$1;
#X msg 13 277 \$2;
#X obj 13 302 -;
#X obj 13 108 t a a;
#X obj 13 9 inlet;
#X obj 104 145 list append;
#X obj 104 64 b;
#X obj 104 13 inlet;
#X obj 104 167 route 1 0;
#X msg 134 282 1e+16;
#X obj 13 344 outlet;
#X obj 104 187 b;
#X connect 0 0 2 0;
#X connect 1 0 11 0;
#X connect 2 0 11 0;
#X connect 3 0 4 0;
#X connect 4 0 6 0;
#X connect 5 0 0 0;
#X connect 5 1 1 0;
#X connect 5 2 6 1;
#X connect 6 0 7 0;
#X connect 7 0 9 0;
#X connect 7 1 8 0;
#X connect 8 0 10 1;
#X connect 9 0 10 0;
#X connect 10 0 18 0;
#X connect 11 0 3 0;
#X connect 11 1 13 1;
#X connect 12 0 5 0;
#X connect 13 0 16 0;
#X connect 14 0 13 0;
#X connect 15 0 14 0;
#X connect 16 0 19 0;
#X connect 16 1 17 0;
#X connect 17 0 18 0;
#X connect 19 0 4 1;
#X restore 50 137 pd timeleft;
#N canvas 64 287 335 386 timeleft 0;
#X obj 13 62 delay;
#X msg 45 84 1;
#X msg 13 84 0;
#X obj 13 138 route 1;
#X obj 13 208 timer;
#X obj 13 32 t a b a;
#X obj 13 230 pack f f;
#X obj 13 252 t a a;
#X msg 45 277 \$1;
#X msg 13 277 \$2;
#X obj 13 302 -;
#X obj 13 108 t a a;
#X obj 13 9 inlet;
#X obj 104 145 list append;
#X obj 104 64 b;
#X obj 104 13 inlet;
#X obj 104 167 route 1 0;
#X msg 134 282 1e+16;
#X obj 13 344 outlet;
#X obj 104 187 b;
#X connect 0 0 2 0;
#X connect 1 0 11 0;
#X connect 2 0 11 0;
#X connect 3 0 4 0;
#X connect 4 0 6 0;
#X connect 5 0 0 0;
#X connect 5 1 1 0;
#X connect 5 2 6 1;
#X connect 6 0 7 0;
#X connect 7 0 9 0;
#X connect 7 1 8 0;
#X connect 8 0 10 1;
#X connect 9 0 10 0;
#X connect 10 0 18 0;
#X connect 11 0 3 0;
#X connect 11 1 13 1;
#X connect 12 0 5 0;
#X connect 13 0 16 0;
#X connect 14 0 13 0;
#X connect 15 0 14 0;
#X connect 16 0 19 0;
#X connect 16 1 17 0;
#X connect 17 0 18 0;
#X connect 19 0 4 1;
#X restore 385 138 pd timeleft;
#X obj 225 107 t b b;
#X msg 117 11 1 3000;
#X msg 186 12 2 5000;
#X msg 514 34 2 5000;
#X msg 528 56 3 1000;
#X obj 27 68 t b a a;
#X msg 50 116 \$2;
#X obj 362 60 t b a a;
#X msg 497 14 1 3000;
#X msg 385 113 \$2;
#X floatatom 455 460 5 0 0 0 - - -;
#X obj 448 484 print RIGHT;
#X obj 16 544 print LEFT;
#X obj 139 312 r \$0.current.left;
#X obj 51 339 list append 0;
#X obj 51 396 list append;
#X obj 73 92 s \$0.ramp.left;
#X obj 125 373 r \$0.ramp.left;
#X obj 62 438 print LEFT;
#X obj 188 277 t a a;
#X obj 408 83 s \$0.ramp.right;
#X obj 380 339 list append 0;
#X obj 380 396 list append;
#X obj 468 312 r \$0.current.right;
#X obj 454 373 r \$0.ramp.right;
#X obj 209 204 min;
#X floatatom 214 237 5 0 0 0 - - -;
#X obj 301 568 hsl 128 15 0 10 0 0 empty empty empty -2 -8 0 10 -262144
-1 -1 2540 1;
#X msg 266 484 4 3000;
#X obj 342 456 metro 100;
#X obj 341 430 tgl 15 0 empty empty empty 17 7 0 10 -262144 -1 -1 0
1;
#X floatatom 403 430 5 0 0 0 - - -;
#X obj 184 617 print;
#X obj 353 487 bng 15 250 50 0 empty empty empty 17 7 0 10 -262144
-1 -1;
#X obj 462 195 hsl 128 15 0 127 0 0 empty empty empty -2 -8 0 10 -262144
-1 -1 0 1;
#X obj 459 224 / 127;
#X obj 264 363 tgl 15 0 empty empty empty 17 7 0 10 -262144 -1 -1 0
1;
#X msg 255 451 0 0;
#X msg 263 425 2 2000;
#X obj 213 524 line.helper;
#X obj 164 540 bng 15 250 50 0 empty empty empty 17 7 0 10 -262144
-1 -1;
#X obj 254 384 metro 1000;
#X msg 346 522 10 10000;
#X obj 207 581 print;
#X connect 0 0 3 0;
#X connect 1 0 2 0;
#X connect 2 0 13 0;
#X connect 3 0 11 0;
#X connect 4 0 31 0;
#X connect 5 0 31 1;
#X connect 6 0 4 1;
#X connect 6 1 5 1;
#X connect 7 0 3 0;
#X connect 8 0 3 0;
#X connect 9 0 2 0;
#X connect 10 0 2 0;
#X connect 11 0 6 0;
#X connect 11 1 12 0;
#X connect 11 2 22 0;
#X connect 12 0 4 0;
#X connect 13 0 6 0;
#X connect 13 1 15 0;
#X connect 13 2 26 0;
#X connect 14 0 2 0;
#X connect 15 0 5 0;
#X connect 16 0 17 0;
#X connect 19 0 20 1;
#X connect 20 0 21 0;
#X connect 21 0 24 0;
#X connect 23 0 21 1;
#X connect 25 0 20 0;
#X connect 25 1 27 0;
#X connect 27 0 28 0;
#X connect 29 0 27 1;
#X connect 30 0 28 1;
#X connect 31 0 32 0;
#X connect 34 0 45 0;
#X connect 35 0 45 1;
#X connect 36 0 35 0;
#X connect 37 0 35 1;
#X connect 39 0 45 1;
#X connect 40 0 41 0;
#X connect 42 0 47 0;
#X connect 43 0 45 0;
#X connect 44 0 45 0;
#X connect 45 0 49 0;
#X connect 45 1 33 0;
#X connect 47 0 46 0;
#X connect 47 0 44 0;
#X connect 48 0 45 0;
