#N canvas 134 166 259 349 10;
#X obj 18 23 inlet;
#X obj 18 280 list prepend status \$2;
#X obj 18 301 list trim;
#X obj 18 323 s \$1.MTX;
#X obj 18 67 t b a;
#X obj 18 112 f;
#X msg 18 256 length \$1;
#X obj 18 45 route length ready;
#X obj 70 104 sel 0 1;
#X msg 106 149 1;
#X msg 70 127 0;
#X obj 106 127 del 50;
#X msg 70 178 ready \$1;
#X obj 18 89 del 40;
#X obj 18 204 t a a;
#X obj 50 229 outlet;
#X connect 0 0 7 0;
#X connect 1 0 2 0;
#X connect 2 0 3 0;
#X connect 4 0 13 0;
#X connect 4 1 5 1;
#X connect 5 0 14 0;
#X connect 6 0 1 0;
#X connect 7 0 4 0;
#X connect 7 1 8 0;
#X connect 8 0 10 0;
#X connect 8 1 11 0;
#X connect 9 0 12 0;
#X connect 10 0 12 0;
#X connect 11 0 9 0;
#X connect 12 0 1 0;
#X connect 13 0 5 0;
#X connect 14 0 6 0;
#X connect 14 1 15 0;
