#N canvas 248 35 807 653 10;
#X declare -stdpath extra/iemlib -lib iemlib;
#X obj 22 373 soundfiler;
#X obj 22 245 symbol;
#X obj 22 291 list append 0;
#X obj 87 194 t b a;
#X obj 463 552 outlet~;
#X msg 22 338 read -skip \$2 \$1 \$3.1.buffer \$3.2.buffer \$3.3.buffer
\$3.4.buffer;
#X obj 479 533 outlet~;
#X obj 496 513 outlet~;
#X obj 511 493 outlet~;
#X obj 463 181 tabplay~ \$0.1.buffer;
#X obj 22 12 inlet;
#X obj 22 313 list append \$0;
#X obj 479 253 tabplay~ \$0.2.buffer;
#X obj 496 278 tabplay~ \$0.3.buffer;
#X obj 512 301 tabplay~ \$0.4.buffer;
#X obj 22 33 s \$0.READANY;
#X obj 22 75 r \$0.READANY;
#X obj 185 423 table \$0.1.buffer 16384;
#X obj 185 442 table \$0.2.buffer 16384;
#X obj 185 461 table \$0.3.buffer 16384;
#X obj 185 480 table \$0.4.buffer 16384;
#N canvas 0 0 457 374 feedback 0;
#X obj 141 178 /;
#X obj 164 150 samplerate~;
#X msg 141 198 outlet length \$1;
#X obj 16 312 s \$0.READANY;
#X msg 39 236 outlet samplerate \$1;
#X obj 16 60 t b b a;
#X obj 39 147 samplerate~;
#X msg 16 267 0 \, 1;
#X msg 16 289 outlet ready \$1;
#X obj 16 10 r \$0.READANY;
#X obj 16 32 route open;
#X obj 141 40 symbol;
#X obj 141 126 t a b a;
#X msg 291 199 samplesize \$1;
#X obj 141 85 soundfile_info;
#X msg 141 106 \$3;
#X msg 141 63 read \$1;
#X connect 0 0 2 0;
#X connect 1 0 0 1;
#X connect 2 0 3 0;
#X connect 4 0 3 0;
#X connect 5 0 7 0;
#X connect 5 1 6 0;
#X connect 5 2 11 0;
#X connect 6 0 4 0;
#X connect 7 0 8 0;
#X connect 8 0 3 0;
#X connect 9 0 10 0;
#X connect 10 0 5 0;
#X connect 11 0 16 0;
#X connect 12 0 0 0;
#X connect 12 1 1 0;
#X connect 12 2 13 0;
#X connect 13 0 3 0;
#X connect 14 0 15 0;
#X connect 15 0 12 0;
#X connect 16 0 14 0;
#X restore 24 555 pd feedback;
#X text 68 14 methods: open \, play \, pause \, stop \, pcm_seek \,
time_seek;
#N canvas 574 591 163 189 time_seek 0;
#X obj 10 14 r \$0.READANY;
#X obj 10 39 route time_seek;
#X obj 10 105 *;
#X obj 42 82 samplerate~;
#X msg 10 125 pcm_seek \$1;
#X obj 10 147 s \$0.READANY;
#X obj 10 61 t a b;
#X connect 0 0 1 0;
#X connect 1 0 6 0;
#X connect 2 0 4 0;
#X connect 3 0 2 1;
#X connect 4 0 5 0;
#X connect 6 0 2 0;
#X connect 6 1 3 0;
#X restore 24 499 pd time_seek;
#X obj 22 125 t a b;
#X obj 22 100 route open position;
#X msg 600 203 eob;
#X obj 600 225 s \$0.READANY;
#X obj 463 110 r \$0.READANY;
#X obj 463 135 route tabplay;
#X obj 54 170 s \$0.READANY;
#X msg 54 148 position 0;
#N canvas 232 320 285 291 play 0;
#X obj 11 118 f;
#X obj 29 70 r \$0.READANY;
#X obj 29 95 route position;
#X obj 11 139 + 16384;
#X obj 11 183 s \$0.READANY;
#X msg 11 161 position \$1;
#X msg -21 213 tabplay bang;
#X obj -21 235 s \$0.READANY;
#X obj -21 68 t b b;
#X obj -68 16 r \$0.READANY;
#X obj -68 41 route play eob;
#X connect 0 0 3 0;
#X connect 1 0 2 0;
#X connect 2 0 0 1;
#X connect 3 0 5 0;
#X connect 5 0 4 0;
#X connect 6 0 7 0;
#X connect 8 0 6 0;
#X connect 8 1 0 0;
#X connect 9 0 10 0;
#X connect 10 0 6 0;
#X connect 10 1 8 0;
#X restore 24 415 pd play;
#N canvas 195 604 253 132 stop 0;
#X obj 15 7 r \$0.READANY;
#X obj 15 32 route stop;
#X obj 15 78 s \$0.READANY;
#X msg 15 55 tabplay 17000 \, position 0;
#X connect 0 0 1 0;
#X connect 1 0 3 0;
#X connect 3 0 2 0;
#X restore 24 443 pd stop;
#N canvas 464 60 290 326 pcm_seek 0;
#X obj 21 32 r \$0.READANY;
#X msg 21 271 position \$1;
#X obj 21 294 s \$0.READANY;
#X obj 21 54 route pcm_seek play stop pause;
#X obj 21 79 t b a;
#X msg 124 76 0;
#X msg 72 77 1;
#X obj 21 116 f;
#X obj 21 146 sel 0 1;
#X obj 21 246 f;
#X obj 44 178 t b b;
#X msg 122 266 play;
#X connect 0 0 3 0;
#X connect 1 0 2 0;
#X connect 3 0 4 0;
#X connect 3 1 6 0;
#X connect 3 2 5 0;
#X connect 3 3 5 0;
#X connect 4 0 7 0;
#X connect 4 1 9 1;
#X connect 5 0 7 1;
#X connect 6 0 7 1;
#X connect 7 0 8 0;
#X connect 8 0 9 0;
#X connect 8 1 10 0;
#X connect 9 0 1 0;
#X connect 10 0 11 0;
#X connect 10 1 9 0;
#X connect 11 0 2 0;
#X restore 24 471 pd pcm_seek;
#N canvas 90 149 318 396 detect.end 0;
#X obj 37 22 r \$0.READANY;
#X obj 37 47 route play samplesize position;
#X obj 37 69 b;
#X obj 37 97 f;
#X obj 37 123 -;
#X obj 37 149 t a b;
#X obj 37 192 /;
#X obj 69 171 samplerate~;
#X obj 37 214 * 1000;
#X obj 37 286 delay;
#X obj 37 342 s \$0.READANY;
#X obj 105 208 r \$0.READANY;
#X obj 105 231 route pause stop;
#X msg 105 258 stop;
#X msg 37 313 stop \, outlet bang;
#X connect 0 0 1 0;
#X connect 1 0 2 0;
#X connect 1 1 3 1;
#X connect 1 2 4 1;
#X connect 2 0 3 0;
#X connect 3 0 4 0;
#X connect 4 0 5 0;
#X connect 5 0 6 0;
#X connect 5 1 7 0;
#X connect 6 0 8 0;
#X connect 7 0 6 1;
#X connect 8 0 9 0;
#X connect 9 0 14 0;
#X connect 11 0 12 0;
#X connect 12 0 13 0;
#X connect 12 1 13 0;
#X connect 13 0 9 0;
#X connect 14 0 10 0;
#X restore 24 527 pd detect.end;
#N canvas 631 0 265 419 pause 0;
#X obj 26 32 r \$0.READANY;
#X obj 115 108 f;
#X obj 36 200 timer;
#X obj 36 226 / 1000;
#X obj 36 302 *;
#X obj 68 274 samplerate~;
#X obj 36 327 +;
#X obj 26 57 route pause play position;
#X obj 115 134 t b a;
#X obj 26 79 b;
#X msg 36 350 stop \, position \$1;
#X obj 36 372 s \$0.READANY;
#X obj 26 103 f;
#X obj 83 86 t b b;
#X msg 83 110 1;
#X obj 26 127 sel 1;
#X obj 26 149 t b b;
#X msg 81 139 0;
#X obj 36 247 t a b;
#X connect 0 0 7 0;
#X connect 1 0 8 0;
#X connect 2 0 3 0;
#X connect 3 0 18 0;
#X connect 4 0 6 0;
#X connect 5 0 4 1;
#X connect 6 0 10 0;
#X connect 7 0 9 0;
#X connect 7 1 13 0;
#X connect 7 2 1 1;
#X connect 8 0 2 0;
#X connect 8 1 6 1;
#X connect 9 0 12 0;
#X connect 10 0 11 0;
#X connect 12 0 15 0;
#X connect 13 0 14 0;
#X connect 13 1 1 0;
#X connect 14 0 12 1;
#X connect 15 0 16 0;
#X connect 16 0 2 1;
#X connect 16 1 17 0;
#X connect 17 0 12 1;
#X connect 18 0 4 0;
#X connect 18 1 5 0;
#X restore 24 583 pd pause;
#X text 181 59 this abstraction tries to imitate the interface of [readanysf~]
;
#X obj 185 500 table \$0.5.buffer 16384;
#X obj 185 519 table \$0.6.buffer 16384;
#X obj 185 538 table \$0.7.buffer 16384;
#X obj 185 557 table \$0.8.buffer 16384;
#X text 420 595 Author: Roman Haefeli;
#X obj 463 157 t a a a a a a a a;
#X obj 529 473 outlet~;
#X obj 545 454 outlet~;
#X obj 562 434 outlet~;
#X obj 577 414 outlet~;
#X obj 529 323 tabplay~ \$0.5.buffer;
#X obj 545 345 tabplay~ \$0.6.buffer;
#X obj 562 370 tabplay~ \$0.7.buffer;
#X obj 578 393 tabplay~ \$0.8.buffer;
#X obj 679 451 r \$0.READANY;
#X obj 679 476 route outlet;
#X obj 679 498 outlet;
#X text 183 103 Dependencies:;
#X obj 53 224 spigot;
#X obj 22 265 t a b;
#X msg 167 247 1;
#X obj 468 13 declare -stdpath extra/iemlib -lib iemlib;
#X text 182 118 [iemlib/soundfile_info];
#X text 420 611 Version: 2010-01-31;
#N canvas 169 176 165 107 parent.communication 0;
#X obj 22 7 r \$4.READ;
#X msg 22 49 emulation;
#X obj 22 70 s \$4.READ;
#X obj 22 28 route whatisit;
#X connect 0 0 3 0;
#X connect 1 0 2 0;
#X connect 3 0 1 0;
#X restore 188 152 pd parent.communication;
#X connect 1 0 57 0;
#X connect 2 0 11 0;
#X connect 3 0 56 0;
#X connect 3 1 2 1;
#X connect 5 0 0 0;
#X connect 9 0 4 0;
#X connect 9 1 26 0;
#X connect 10 0 15 0;
#X connect 11 0 5 0;
#X connect 12 0 6 0;
#X connect 13 0 7 0;
#X connect 14 0 8 0;
#X connect 16 0 25 0;
#X connect 24 0 1 0;
#X connect 24 1 31 0;
#X connect 25 0 24 0;
#X connect 25 1 3 0;
#X connect 26 0 27 0;
#X connect 28 0 29 0;
#X connect 29 0 43 0;
#X connect 31 0 30 0;
#X connect 43 0 9 0;
#X connect 43 1 12 0;
#X connect 43 2 13 0;
#X connect 43 3 14 0;
#X connect 43 4 48 0;
#X connect 43 5 49 0;
#X connect 43 6 50 0;
#X connect 43 7 51 0;
#X connect 48 0 44 0;
#X connect 49 0 45 0;
#X connect 50 0 46 0;
#X connect 51 0 47 0;
#X connect 52 0 53 0;
#X connect 53 0 54 0;
#X connect 56 0 1 0;
#X connect 57 0 2 0;
#X connect 57 1 58 0;
#X connect 58 0 56 1;
