#N canvas 124 63 274 449 10;
#X obj 25 38 list;
#X obj 25 61 symbol2list /;
#X obj 25 83 list split 1;
#X obj 25 108 sel <sonoplanes.install.dir>;
#X obj 25 152 symbol2list /;
#X obj 25 174 t a a;
#X obj 57 195 list length;
#X obj 57 217 - 1;
#X obj 57 239 max 0;
#X obj 25 262 list split;
#X obj 25 339 list2symbol /;
#X obj 25 311 list append;
#X obj 25 14 inlet;
#X obj 25 401 outlet;
#X obj 25 371 root.slash;
#X obj 25 130 getdir 1;
#X connect 0 0 1 0;
#X connect 1 0 2 0;
#X connect 2 0 3 0;
#X connect 2 1 11 1;
#X connect 3 0 15 0;
#X connect 3 1 11 0;
#X connect 4 0 5 0;
#X connect 5 0 9 0;
#X connect 5 1 6 0;
#X connect 6 0 7 0;
#X connect 7 0 8 0;
#X connect 8 0 9 1;
#X connect 9 0 11 0;
#X connect 10 0 14 0;
#X connect 11 0 10 0;
#X connect 12 0 0 0;
#X connect 14 0 13 0;
#X connect 15 0 4 0;
