#N canvas 164 72 450 300 10;
#X obj 11 10 inlet;
#X obj 106 35 operating_system;
#X obj 106 57 select linux windows macos;
#X obj 106 12 loadbang;
#X msg 106 89 1;
#X msg 165 88 0;
#X obj 11 115 list prepend 1;
#X obj 11 138 route 0 1;
#X obj 11 174 list;
#X obj 54 175 list;
#X msg 54 196 symbol /\$1;
#X obj 11 232 outlet;
#X text 183 177 adds a root / \, if necessary;
#X connect 0 0 6 0;
#X connect 1 0 2 0;
#X connect 2 0 4 0;
#X connect 2 1 5 0;
#X connect 2 2 4 0;
#X connect 3 0 1 0;
#X connect 4 0 6 1;
#X connect 5 0 6 1;
#X connect 6 0 7 0;
#X connect 7 0 8 0;
#X connect 7 1 9 0;
#X connect 8 0 11 0;
#X connect 9 0 10 0;
#X connect 10 0 11 0;
