#N canvas 0 561 716 248 10;
#N canvas 213 208 570 187 gui.shizzle 0;
#N canvas 0 0 274 646 instance.id 0;
#X obj 15 46 sel 0 2;
#X obj 15 73 t b b;
#X obj 59 73 t b b;
#X obj 15 108 f;
#X obj 15 129 - 1;
#X obj 59 109 f;
#X obj 59 130 + 1;
#X obj 15 450 s \$0.MTX;
#X obj 103 102 t b b;
#X obj 15 212 t a a;
#X obj 103 188 s \$1.MTX;
#X obj 103 210 r \$1.MTX;
#X obj 103 254 t a a;
#X obj 103 276 list length;
#X msg 15 359 \$1;
#X msg 47 333 set \, adddollar \$1;
#X obj 15 380 list;
#X obj 15 307 list append;
#X obj 15 286 t b a;
#X obj 15 402 t a a;
#X obj 16 480 r \$0.MTX;
#X msg 135 123 set 1;
#X msg 16 592 label \$1;
#X obj 16 570 makefilename %d;
#X obj 16 548 route float;
#X obj 16 526 list;
#X obj 146 102 loadbang;
#X obj 15 11 r \$0.inst1.id.s;
#X obj 135 145 s \$0.inst1.id.r;
#X msg 15 423 setinstid1 \$1;
#X obj 16 502 route setinstid1;
#X obj 16 614 s \$0.inst1.id.r;
#X obj 15 156 min;
#X obj 15 178 max 1;
#X msg 103 167 getinstancelist.loop;
#X obj 103 232 route instancelist.loop;
#X connect 0 0 1 0;
#X connect 0 1 2 0;
#X connect 1 0 3 0;
#X connect 1 1 8 0;
#X connect 2 0 5 0;
#X connect 2 1 8 0;
#X connect 3 0 4 0;
#X connect 4 0 32 0;
#X connect 5 0 6 0;
#X connect 6 0 32 0;
#X connect 8 0 34 0;
#X connect 8 1 21 0;
#X connect 9 0 18 0;
#X connect 9 1 3 1;
#X connect 9 1 5 1;
#X connect 11 0 35 0;
#X connect 12 0 13 0;
#X connect 12 1 17 1;
#X connect 13 0 32 1;
#X connect 14 0 16 0;
#X connect 15 0 14 0;
#X connect 16 0 19 0;
#X connect 17 0 14 0;
#X connect 18 0 17 0;
#X connect 18 1 15 0;
#X connect 19 0 29 0;
#X connect 20 0 30 0;
#X connect 21 0 28 0;
#X connect 22 0 31 0;
#X connect 23 0 22 0;
#X connect 24 0 23 0;
#X connect 24 1 22 0;
#X connect 25 0 24 0;
#X connect 26 0 21 0;
#X connect 27 0 0 0;
#X connect 29 0 7 0;
#X connect 30 0 25 0;
#X connect 32 0 33 0;
#X connect 33 0 9 0;
#X connect 34 0 10 0;
#X connect 35 0 12 0;
#X restore 8 38 pd instance.id 1;
#N canvas 0 0 265 435 loop.count 0;
#X obj 10 52 sel 0 2;
#X obj 10 79 t b b;
#X obj 54 79 t b b;
#X obj 10 114 f;
#X obj 10 135 - 1;
#X obj 54 115 f;
#X obj 54 136 + 1;
#X obj 10 212 s \$0.MTX;
#X obj 10 161 max 0;
#X text 10 235 0 means infinite;
#X msg 118 143 set 1;
#X msg 12 373 label \$1;
#X msg 12 351 symbol loop:\$1;
#X obj 12 306 sel 0;
#X msg 12 328 symbol inf;
#X obj 12 262 r \$0.MTX;
#X obj 123 67 r \$0.MTX;
#X obj 118 117 loadbang;
#X obj 10 17 r \$0.loop1.no.s;
#X obj 123 89 route loopcount1;
#X obj 118 164 s \$0.loop1.no.r;
#X msg 10 187 loopcount1 \$1;
#X obj 12 284 route loopcount1;
#X obj 12 395 s \$0.loop1.no.r;
#X connect 0 0 1 0;
#X connect 0 1 2 0;
#X connect 1 0 3 0;
#X connect 1 1 10 0;
#X connect 2 0 5 0;
#X connect 2 1 10 0;
#X connect 3 0 4 0;
#X connect 4 0 8 0;
#X connect 5 0 6 0;
#X connect 6 0 8 0;
#X connect 8 0 21 0;
#X connect 10 0 20 0;
#X connect 11 0 23 0;
#X connect 12 0 11 0;
#X connect 13 0 14 0;
#X connect 13 1 12 0;
#X connect 14 0 12 0;
#X connect 15 0 22 0;
#X connect 16 0 19 0;
#X connect 17 0 10 0;
#X connect 18 0 0 0;
#X connect 19 0 5 1;
#X connect 19 0 3 1;
#X connect 21 0 7 0;
#X connect 22 0 13 0;
#X restore 8 61 pd loop.count 1;
#N canvas 0 0 274 646 instance.id 0;
#X obj 15 46 sel 0 2;
#X obj 15 73 t b b;
#X obj 59 73 t b b;
#X obj 15 108 f;
#X obj 15 129 - 1;
#X obj 59 109 f;
#X obj 59 130 + 1;
#X obj 15 450 s \$0.MTX;
#X obj 103 102 t b b;
#X obj 15 211 t a a;
#X obj 103 188 s \$1.MTX;
#X obj 103 210 r \$1.MTX;
#X obj 103 254 t a a;
#X obj 103 276 list length;
#X msg 15 359 \$1;
#X msg 47 333 set \, adddollar \$1;
#X obj 15 380 list;
#X obj 15 307 list append;
#X obj 15 286 t b a;
#X obj 15 402 t a a;
#X obj 16 480 r \$0.MTX;
#X msg 135 123 set 1;
#X msg 16 592 label \$1;
#X obj 16 570 makefilename %d;
#X obj 16 548 route float;
#X obj 16 526 list;
#X obj 146 102 loadbang;
#X obj 15 11 r \$0.inst2.id.s;
#X obj 135 145 s \$0.inst2.id.r;
#X msg 15 423 setinstid2 \$1;
#X obj 16 502 route setinstid2;
#X obj 16 614 s \$0.inst2.id.r;
#X obj 15 158 min;
#X obj 15 180 max 1;
#X obj 103 232 route instancelist.loop;
#X msg 103 167 getinstancelist.loop;
#X connect 0 0 1 0;
#X connect 0 1 2 0;
#X connect 1 0 3 0;
#X connect 1 1 8 0;
#X connect 2 0 5 0;
#X connect 2 1 8 0;
#X connect 3 0 4 0;
#X connect 4 0 32 0;
#X connect 5 0 6 0;
#X connect 6 0 32 0;
#X connect 8 0 35 0;
#X connect 8 1 21 0;
#X connect 9 0 18 0;
#X connect 9 1 3 1;
#X connect 9 1 5 1;
#X connect 11 0 34 0;
#X connect 12 0 13 0;
#X connect 12 1 17 1;
#X connect 13 0 32 1;
#X connect 14 0 16 0;
#X connect 15 0 14 0;
#X connect 16 0 19 0;
#X connect 17 0 14 0;
#X connect 18 0 17 0;
#X connect 18 1 15 0;
#X connect 19 0 29 0;
#X connect 20 0 30 0;
#X connect 21 0 28 0;
#X connect 22 0 31 0;
#X connect 23 0 22 0;
#X connect 24 0 23 0;
#X connect 24 1 22 0;
#X connect 25 0 24 0;
#X connect 26 0 21 0;
#X connect 27 0 0 0;
#X connect 29 0 7 0;
#X connect 30 0 25 0;
#X connect 32 0 33 0;
#X connect 33 0 9 0;
#X connect 34 0 12 0;
#X connect 35 0 10 0;
#X restore 193 37 pd instance.id 2;
#N canvas 0 0 265 435 loop.count 0;
#X obj 10 52 sel 0 2;
#X obj 10 79 t b b;
#X obj 54 79 t b b;
#X obj 10 114 f;
#X obj 10 135 - 1;
#X obj 54 115 f;
#X obj 54 136 + 1;
#X obj 10 212 s \$0.MTX;
#X obj 10 161 max 0;
#X text 10 235 0 means infinite;
#X msg 118 143 set 1;
#X msg 12 373 label \$1;
#X msg 12 351 symbol loop:\$1;
#X obj 12 306 sel 0;
#X msg 12 328 symbol inf;
#X obj 12 262 r \$0.MTX;
#X obj 123 67 r \$0.MTX;
#X obj 118 117 loadbang;
#X obj 10 17 r \$0.loop2.no.s;
#X obj 123 89 route loopcount2;
#X obj 118 164 s \$0.loop2.no.r;
#X msg 10 187 loopcount2 \$1;
#X obj 12 284 route loopcount2;
#X obj 12 395 s \$0.loop2.no.r;
#X connect 0 0 1 0;
#X connect 0 1 2 0;
#X connect 1 0 3 0;
#X connect 1 1 10 0;
#X connect 2 0 5 0;
#X connect 2 1 10 0;
#X connect 3 0 4 0;
#X connect 4 0 8 0;
#X connect 5 0 6 0;
#X connect 6 0 8 0;
#X connect 8 0 21 0;
#X connect 10 0 20 0;
#X connect 11 0 23 0;
#X connect 12 0 11 0;
#X connect 13 0 14 0;
#X connect 13 1 12 0;
#X connect 14 0 12 0;
#X connect 15 0 22 0;
#X connect 16 0 19 0;
#X connect 17 0 10 0;
#X connect 18 0 0 0;
#X connect 19 0 5 1;
#X connect 19 0 3 1;
#X connect 21 0 7 0;
#X connect 22 0 13 0;
#X restore 193 60 pd loop.count 2;
#N canvas 0 0 274 646 instance.id 0;
#X obj 15 46 sel 0 2;
#X obj 15 73 t b b;
#X obj 59 73 t b b;
#X obj 15 108 f;
#X obj 15 129 - 1;
#X obj 59 109 f;
#X obj 59 130 + 1;
#X obj 15 450 s \$0.MTX;
#X obj 103 102 t b b;
#X obj 15 215 t a a;
#X obj 103 188 s \$1.MTX;
#X obj 103 210 r \$1.MTX;
#X obj 103 254 t a a;
#X obj 103 276 list length;
#X msg 15 359 \$1;
#X msg 47 333 set \, adddollar \$1;
#X obj 15 380 list;
#X obj 15 307 list append;
#X obj 15 286 t b a;
#X obj 15 402 t a a;
#X obj 16 480 r \$0.MTX;
#X msg 135 123 set 1;
#X msg 16 592 label \$1;
#X obj 16 570 makefilename %d;
#X obj 16 548 route float;
#X obj 16 526 list;
#X obj 146 102 loadbang;
#X obj 15 11 r \$0.inst3.id.s;
#X obj 135 145 s \$0.inst3.id.r;
#X msg 15 423 setinstid3 \$1;
#X obj 16 502 route setinstid3;
#X obj 16 614 s \$0.inst3.id.r;
#X obj 15 158 min;
#X obj 15 180 max 1;
#X obj 103 232 route instancelist.loop;
#X msg 103 167 getinstancelist.loop;
#X connect 0 0 1 0;
#X connect 0 1 2 0;
#X connect 1 0 3 0;
#X connect 1 1 8 0;
#X connect 2 0 5 0;
#X connect 2 1 8 0;
#X connect 3 0 4 0;
#X connect 4 0 32 0;
#X connect 5 0 6 0;
#X connect 6 0 32 0;
#X connect 8 0 35 0;
#X connect 8 1 21 0;
#X connect 9 0 18 0;
#X connect 9 1 3 1;
#X connect 9 1 5 1;
#X connect 11 0 34 0;
#X connect 12 0 13 0;
#X connect 12 1 17 1;
#X connect 13 0 32 1;
#X connect 14 0 16 0;
#X connect 15 0 14 0;
#X connect 16 0 19 0;
#X connect 17 0 14 0;
#X connect 18 0 17 0;
#X connect 18 1 15 0;
#X connect 19 0 29 0;
#X connect 20 0 30 0;
#X connect 21 0 28 0;
#X connect 22 0 31 0;
#X connect 23 0 22 0;
#X connect 24 0 23 0;
#X connect 24 1 22 0;
#X connect 25 0 24 0;
#X connect 26 0 21 0;
#X connect 27 0 0 0;
#X connect 29 0 7 0;
#X connect 30 0 25 0;
#X connect 32 0 33 0;
#X connect 33 0 9 0;
#X connect 34 0 12 0;
#X connect 35 0 10 0;
#X restore 383 35 pd instance.id 3;
#N canvas 0 0 265 435 loop.count 0;
#X obj 10 52 sel 0 2;
#X obj 10 79 t b b;
#X obj 54 79 t b b;
#X obj 10 114 f;
#X obj 10 135 - 1;
#X obj 54 115 f;
#X obj 54 136 + 1;
#X obj 10 212 s \$0.MTX;
#X obj 10 161 max 0;
#X text 10 235 0 means infinite;
#X msg 118 143 set 1;
#X msg 12 373 label \$1;
#X msg 12 351 symbol loop:\$1;
#X obj 12 306 sel 0;
#X msg 12 328 symbol inf;
#X obj 12 262 r \$0.MTX;
#X obj 123 67 r \$0.MTX;
#X obj 118 117 loadbang;
#X obj 10 17 r \$0.loop3.no.s;
#X obj 123 89 route loopcount3;
#X obj 118 164 s \$0.loop3.no.r;
#X msg 10 187 loopcount3 \$1;
#X obj 12 284 route loopcount3;
#X obj 12 395 s \$0.loop3.no.r;
#X connect 0 0 1 0;
#X connect 0 1 2 0;
#X connect 1 0 3 0;
#X connect 1 1 10 0;
#X connect 2 0 5 0;
#X connect 2 1 10 0;
#X connect 3 0 4 0;
#X connect 4 0 8 0;
#X connect 5 0 6 0;
#X connect 6 0 8 0;
#X connect 8 0 21 0;
#X connect 10 0 20 0;
#X connect 11 0 23 0;
#X connect 12 0 11 0;
#X connect 13 0 14 0;
#X connect 13 1 12 0;
#X connect 14 0 12 0;
#X connect 15 0 22 0;
#X connect 16 0 19 0;
#X connect 17 0 10 0;
#X connect 18 0 0 0;
#X connect 19 0 5 1;
#X connect 19 0 3 1;
#X connect 21 0 7 0;
#X connect 22 0 13 0;
#X restore 383 58 pd loop.count 3;
#N canvas 254 278 476 317 display.background 0;
#X obj 12 126 clr.conv;
#X msg 12 150 color \$1 \$1 -1;
#X msg 12 100 220 220 220;
#X msg 35 79 255 127 127;
#X obj 12 10 r \$0.MTX;
#X obj 12 54 sel 0 1;
#X obj 39 205 s \$0.inst1.id.r;
#X obj 12 179 s \$0.loop1.no.r;
#X obj 12 32 route display1;
#X obj 202 14 r \$0.MTX;
#X obj 202 38 route pause1;
#X obj 350 67 sel 0 1;
#X obj 350 209 s \$0.pause1.r;
#X obj 350 138 clr.conv;
#X msg 350 162 color \$1 \$1 -1;
#X msg 350 112 240 240 240;
#X msg 373 91 255 191 191;
#X msg 202 183 setpause1.highlight \$1;
#X obj 202 208 s \$0.MTX;
#X connect 0 0 1 0;
#X connect 1 0 6 0;
#X connect 1 0 7 0;
#X connect 2 0 0 0;
#X connect 3 0 0 0;
#X connect 4 0 8 0;
#X connect 5 0 2 0;
#X connect 5 1 3 0;
#X connect 8 0 5 0;
#X connect 9 0 10 0;
#X connect 10 0 11 0;
#X connect 10 0 17 0;
#X connect 11 0 15 0;
#X connect 11 1 16 0;
#X connect 13 0 14 0;
#X connect 14 0 12 0;
#X connect 15 0 13 0;
#X connect 16 0 13 0;
#X connect 17 0 18 0;
#X restore 8 84 pd display.background 1;
#N canvas 295 208 476 317 display.background 0;
#X obj 12 126 clr.conv;
#X msg 12 150 color \$1 \$1 -1;
#X msg 12 100 220 220 220;
#X msg 35 79 255 127 127;
#X obj 12 10 r \$0.MTX;
#X obj 12 54 sel 0 1;
#X obj 202 14 r \$0.MTX;
#X obj 350 67 sel 0 1;
#X obj 350 138 clr.conv;
#X msg 350 162 color \$1 \$1 -1;
#X msg 350 112 240 240 240;
#X msg 373 91 255 191 191;
#X obj 12 32 route display2;
#X obj 12 179 s \$0.loop2.no.r;
#X obj 39 205 s \$0.inst2.id.r;
#X obj 202 38 route pause2;
#X obj 350 227 s \$0.pause2.r;
#X obj 202 208 s \$0.MTX;
#X msg 202 183 setpause2.highlight \$1;
#X connect 0 0 1 0;
#X connect 1 0 13 0;
#X connect 1 0 14 0;
#X connect 2 0 0 0;
#X connect 3 0 0 0;
#X connect 4 0 12 0;
#X connect 5 0 2 0;
#X connect 5 1 3 0;
#X connect 6 0 15 0;
#X connect 7 0 10 0;
#X connect 7 1 11 0;
#X connect 8 0 9 0;
#X connect 9 0 16 0;
#X connect 10 0 8 0;
#X connect 11 0 8 0;
#X connect 12 0 5 0;
#X connect 15 0 7 0;
#X connect 15 0 18 0;
#X connect 18 0 17 0;
#X restore 192 85 pd display.background 2;
#N canvas 252 224 476 317 display.background 0;
#X obj 12 126 clr.conv;
#X msg 12 150 color \$1 \$1 -1;
#X msg 12 100 220 220 220;
#X msg 35 79 255 127 127;
#X obj 12 10 r \$0.MTX;
#X obj 12 54 sel 0 1;
#X obj 202 14 r \$0.MTX;
#X obj 350 67 sel 0 1;
#X obj 350 138 clr.conv;
#X msg 350 162 color \$1 \$1 -1;
#X msg 350 112 240 240 240;
#X msg 373 91 255 191 191;
#X obj 12 32 route display3;
#X obj 12 179 s \$0.loop3.no.r;
#X obj 39 205 s \$0.inst3.id.r;
#X obj 350 227 s \$0.pause3.r;
#X obj 202 38 route pause3;
#X obj 202 208 s \$0.MTX;
#X msg 202 183 setpause3.highlight \$1;
#X connect 0 0 1 0;
#X connect 1 0 13 0;
#X connect 1 0 14 0;
#X connect 2 0 0 0;
#X connect 3 0 0 0;
#X connect 4 0 12 0;
#X connect 5 0 2 0;
#X connect 5 1 3 0;
#X connect 6 0 16 0;
#X connect 7 0 10 0;
#X connect 7 1 11 0;
#X connect 8 0 9 0;
#X connect 9 0 15 0;
#X connect 10 0 8 0;
#X connect 11 0 8 0;
#X connect 12 0 5 0;
#X connect 16 0 7 0;
#X connect 16 0 18 0;
#X connect 18 0 17 0;
#X restore 384 82 pd display.background 3;
#X restore 20 126 pd gui.shizzle;
#N canvas 233 75 149 226 timer.stuff 0;
#X obj 13 185 s \$0.MTX;
#X obj 13 22 r \$0.MTX;
#X obj 13 66 b;
#N canvas 47 38 353 634 step1_del 0;
#X obj 69 13 r \$0.MTX;
#X obj 69 99 * 1000;
#X obj 11 142 del;
#X obj 11 7 inlet;
#X obj 11 576 outlet;
#X obj 67 146 route stopall;
#X msg 67 168 stop;
#X obj 59 211 r \$0.MTX;
#X obj 11 276 list;
#X obj 59 255 list;
#X obj 11 297 sel <none>;
#X msg 78 365 \$1 loopplay \$2;
#X obj 78 387 s \$1.MTX;
#X obj 78 343 list append;
#X obj 59 233 route setinstid1 loopcount1;
#X obj 67 124 r \$0.MTX;
#X obj 192 409 r \$0.MTX;
#X obj 192 431 route setinstid1;
#X obj 80 423 r \$1.MTX;
#X obj 80 445 route loopend;
#N canvas 0 0 564 295 sel 0;
#X obj 20 16 inlet;
#X obj 20 38 list;
#X obj 20 60 route float symbol;
#X obj 20 189 sel -1234;
#X obj 99 191 sel <none>;
#X obj 20 229 outlet;
#X obj 237 18 inlet;
#X obj 237 40 list;
#X obj 237 62 route float symbol;
#X obj 237 84 t a b;
#X obj 298 84 t b a;
#X msg 269 142 symbol <none>;
#X msg 298 118 -1234;
#X connect 0 0 1 0;
#X connect 1 0 2 0;
#X connect 2 0 3 0;
#X connect 2 1 4 0;
#X connect 3 0 5 0;
#X connect 4 0 5 0;
#X connect 6 0 7 0;
#X connect 7 0 8 0;
#X connect 8 0 9 0;
#X connect 8 1 10 0;
#X connect 9 0 3 1;
#X connect 9 1 11 0;
#X connect 10 0 12 0;
#X connect 10 1 4 1;
#X connect 11 0 4 1;
#X connect 12 0 3 1;
#X restore 80 513 pd sel;
#X obj 80 488 spigot;
#X msg 186 501 1;
#X obj 78 320 t a b;
#X obj 80 536 t b b;
#X msg 223 501 0;
#X obj 186 531 t a a;
#X obj 186 579 s \$0.MTX;
#X obj 223 480 route stopall;
#X obj 223 458 r \$0.MTX;
#X msg 186 557 display1 \$1;
#X msg 204 169 pause1 \$1;
#X obj 204 190 s \$0.MTX;
#X msg 243 132 1;
#X msg 204 134 0;
#X obj 11 38 t b b;
#X obj 11 173 t b b;
#X obj 69 34 route setpause1;
#X connect 0 0 37 0;
#X connect 1 0 2 1;
#X connect 2 0 36 0;
#X connect 3 0 35 0;
#X connect 5 0 6 0;
#X connect 5 0 34 0;
#X connect 6 0 2 0;
#X connect 7 0 14 0;
#X connect 8 0 10 0;
#X connect 9 0 8 1;
#X connect 10 0 4 0;
#X connect 10 1 23 0;
#X connect 11 0 12 0;
#X connect 13 0 11 0;
#X connect 14 0 9 0;
#X connect 14 1 13 1;
#X connect 15 0 5 0;
#X connect 16 0 17 0;
#X connect 17 0 20 1;
#X connect 18 0 19 0;
#X connect 19 0 21 0;
#X connect 20 0 24 0;
#X connect 21 0 20 0;
#X connect 22 0 26 0;
#X connect 23 0 13 0;
#X connect 23 1 22 0;
#X connect 24 0 4 0;
#X connect 24 1 25 0;
#X connect 25 0 26 0;
#X connect 26 0 30 0;
#X connect 26 1 21 1;
#X connect 28 0 25 0;
#X connect 29 0 28 0;
#X connect 30 0 27 0;
#X connect 31 0 32 0;
#X connect 33 0 31 0;
#X connect 34 0 31 0;
#X connect 35 0 2 0;
#X connect 35 1 33 0;
#X connect 36 0 8 0;
#X connect 36 1 34 0;
#X connect 37 0 1 0;
#X restore 13 87 pd step1_del;
#X obj 13 44 route ctlplay;
#N canvas 47 38 338 609 step2_del 0;
#X obj 117 39 r \$0.MTX;
#X obj 117 110 * 1000;
#X obj 11 147 del;
#X obj 11 7 inlet;
#X obj 11 576 outlet;
#X obj 115 155 route stopall;
#X msg 115 179 stop;
#X obj 59 211 r \$0.MTX;
#X obj 11 276 list;
#X obj 59 255 list;
#X obj 11 297 sel <none>;
#X msg 78 365 \$1 loopplay \$2;
#X obj 78 387 s \$1.MTX;
#X obj 78 343 list append;
#X obj 115 135 r \$0.MTX;
#X obj 192 409 r \$0.MTX;
#X obj 80 423 r \$1.MTX;
#X obj 80 445 route loopend;
#N canvas 0 0 564 295 sel 0;
#X obj 20 16 inlet;
#X obj 20 38 list;
#X obj 20 60 route float symbol;
#X obj 20 189 sel -1234;
#X obj 99 191 sel <none>;
#X obj 20 229 outlet;
#X obj 237 18 inlet;
#X obj 237 40 list;
#X obj 237 62 route float symbol;
#X obj 237 84 t a b;
#X obj 298 84 t b a;
#X msg 269 142 symbol <none>;
#X msg 298 118 -1234;
#X connect 0 0 1 0;
#X connect 1 0 2 0;
#X connect 2 0 3 0;
#X connect 2 1 4 0;
#X connect 3 0 5 0;
#X connect 4 0 5 0;
#X connect 6 0 7 0;
#X connect 7 0 8 0;
#X connect 8 0 9 0;
#X connect 8 1 10 0;
#X connect 9 0 3 1;
#X connect 9 1 11 0;
#X connect 10 0 12 0;
#X connect 10 1 4 1;
#X connect 11 0 4 1;
#X connect 12 0 3 1;
#X restore 80 513 pd sel;
#X obj 80 488 spigot;
#X msg 186 501 1;
#X obj 78 320 t a b;
#X obj 80 536 t b b;
#X msg 223 501 0;
#X obj 186 531 t a a;
#X obj 186 579 s \$0.MTX;
#X obj 223 480 route stopall;
#X obj 223 458 r \$0.MTX;
#X obj 59 233 route setinstid2 loopcount2;
#X obj 192 431 route setinstid2;
#X msg 186 557 display2 \$1;
#X obj 231 177 s \$0.MTX;
#X msg 270 119 1;
#X msg 231 121 0;
#X obj 11 95 t b b;
#X obj 11 180 t b b;
#X msg 231 156 pause2 \$1;
#X obj 117 60 route setpause2;
#X connect 0 0 37 0;
#X connect 1 0 2 1;
#X connect 2 0 35 0;
#X connect 3 0 34 0;
#X connect 5 0 6 0;
#X connect 5 0 33 0;
#X connect 6 0 2 0;
#X connect 7 0 28 0;
#X connect 8 0 10 0;
#X connect 9 0 8 1;
#X connect 10 0 4 0;
#X connect 10 1 21 0;
#X connect 11 0 12 0;
#X connect 13 0 11 0;
#X connect 14 0 5 0;
#X connect 15 0 29 0;
#X connect 16 0 17 0;
#X connect 17 0 19 0;
#X connect 18 0 22 0;
#X connect 19 0 18 0;
#X connect 20 0 24 0;
#X connect 21 0 13 0;
#X connect 21 1 20 0;
#X connect 22 0 4 0;
#X connect 22 1 23 0;
#X connect 23 0 24 0;
#X connect 24 0 30 0;
#X connect 24 1 19 1;
#X connect 26 0 23 0;
#X connect 27 0 26 0;
#X connect 28 0 9 0;
#X connect 28 1 13 1;
#X connect 29 0 18 1;
#X connect 30 0 25 0;
#X connect 32 0 36 0;
#X connect 33 0 36 0;
#X connect 34 0 2 0;
#X connect 34 1 32 0;
#X connect 35 0 8 0;
#X connect 35 1 33 0;
#X connect 36 0 31 0;
#X connect 37 0 1 0;
#X restore 13 112 pd step2_del;
#N canvas 47 38 338 609 step3_del 0;
#X obj 117 29 r \$0.MTX;
#X obj 117 110 * 1000;
#X obj 11 147 del;
#X obj 11 7 inlet;
#X obj 11 576 outlet;
#X obj 115 157 route stopall;
#X msg 115 179 stop;
#X obj 59 211 r \$0.MTX;
#X obj 11 276 list;
#X obj 59 255 list;
#X obj 11 297 sel <none>;
#X msg 78 365 \$1 loopplay \$2;
#X obj 78 387 s \$1.MTX;
#X obj 78 343 list append;
#X obj 115 135 r \$0.MTX;
#X obj 192 409 r \$0.MTX;
#X obj 80 423 r \$1.MTX;
#X obj 80 445 route loopend;
#N canvas 0 0 564 295 sel 0;
#X obj 20 16 inlet;
#X obj 20 38 list;
#X obj 20 60 route float symbol;
#X obj 20 189 sel -1234;
#X obj 99 191 sel <none>;
#X obj 20 229 outlet;
#X obj 237 18 inlet;
#X obj 237 40 list;
#X obj 237 62 route float symbol;
#X obj 237 84 t a b;
#X obj 298 84 t b a;
#X msg 269 142 symbol <none>;
#X msg 298 118 -1234;
#X connect 0 0 1 0;
#X connect 1 0 2 0;
#X connect 2 0 3 0;
#X connect 2 1 4 0;
#X connect 3 0 5 0;
#X connect 4 0 5 0;
#X connect 6 0 7 0;
#X connect 7 0 8 0;
#X connect 8 0 9 0;
#X connect 8 1 10 0;
#X connect 9 0 3 1;
#X connect 9 1 11 0;
#X connect 10 0 12 0;
#X connect 10 1 4 1;
#X connect 11 0 4 1;
#X connect 12 0 3 1;
#X restore 80 513 pd sel;
#X obj 80 488 spigot;
#X msg 186 501 1;
#X obj 78 320 t a b;
#X obj 80 536 t b b;
#X msg 223 501 0;
#X obj 186 531 t a a;
#X obj 186 579 s \$0.MTX;
#X obj 223 480 route stopall;
#X obj 223 458 r \$0.MTX;
#X obj 59 233 route setinstid3 loopcount3;
#X obj 192 431 route setinstid3;
#X msg 186 557 display3 \$1;
#X obj 233 156 s \$0.MTX;
#X msg 272 98 1;
#X msg 233 100 0;
#X obj 11 56 t b b;
#X obj 11 192 t b b;
#X msg 233 135 pause3 \$1;
#X obj 117 50 route setpause3;
#X connect 0 0 37 0;
#X connect 1 0 2 1;
#X connect 2 0 35 0;
#X connect 3 0 34 0;
#X connect 5 0 6 0;
#X connect 5 0 33 0;
#X connect 6 0 2 0;
#X connect 7 0 28 0;
#X connect 8 0 10 0;
#X connect 9 0 8 1;
#X connect 10 0 4 0;
#X connect 10 1 21 0;
#X connect 11 0 12 0;
#X connect 13 0 11 0;
#X connect 14 0 5 0;
#X connect 15 0 29 0;
#X connect 16 0 17 0;
#X connect 17 0 19 0;
#X connect 18 0 22 0;
#X connect 19 0 18 0;
#X connect 20 0 24 0;
#X connect 21 0 13 0;
#X connect 21 1 20 0;
#X connect 22 0 4 0;
#X connect 22 1 23 0;
#X connect 23 0 24 0;
#X connect 24 0 30 0;
#X connect 24 1 19 1;
#X connect 26 0 23 0;
#X connect 27 0 26 0;
#X connect 28 0 9 0;
#X connect 28 1 13 1;
#X connect 29 0 18 1;
#X connect 30 0 25 0;
#X connect 32 0 36 0;
#X connect 33 0 36 0;
#X connect 34 0 2 0;
#X connect 34 1 32 0;
#X connect 35 0 8 0;
#X connect 35 1 33 0;
#X connect 36 0 31 0;
#X connect 37 0 1 0;
#X restore 13 136 pd step3_del;
#X msg 13 160 stop;
#X connect 1 0 4 0;
#X connect 2 0 3 0;
#X connect 3 0 5 0;
#X connect 4 0 2 0;
#X connect 5 0 6 0;
#X connect 6 0 7 0;
#X connect 7 0 0 0;
#X restore 20 99 pd timer.stuff;
#N canvas 365 293 499 185 state.save 0;
#X obj 8 97 loadbang;
#X obj 8 141 s \$0.MTX;
#X text 6 75 --INIT----;
#X obj 128 95 route reset;
#X msg 8 119 step1 0 <none> 1 \, step2 0 <none> 1 \, step3 0 <none>
1;
#N canvas 0 0 480 465 step1 0;
#X obj 88 62 r \$0.MTX;
#X obj 14 17 r \$1.MTX;
#X obj 14 39 route getpreset;
#X obj 14 303 s \$1.MTX;
#X obj 313 335 s \$0.MTX;
#X obj 14 283 list trim;
#X obj 14 260 list prepend preset \$2 step1;
#X obj 171 111 list;
#X obj 14 214 list append;
#X obj 14 236 list append;
#X obj 14 193 list append;
#X obj 14 75 b;
#X obj 313 177 r \$0.MTX;
#X obj 313 199 route step1;
#X obj 313 221 list;
#X obj 313 243 t a a a;
#X msg 336 289 setinstid1 \$2;
#X msg 359 265 loopcount1 \$3;
#X obj 88 84 route setpause1 setinstid1 loopcount1;
#X msg 313 312 setpause1 \$1;
#X connect 0 0 18 0;
#X connect 1 0 2 0;
#X connect 2 0 11 0;
#X connect 5 0 3 0;
#X connect 6 0 5 0;
#X connect 7 0 8 1;
#X connect 8 0 9 0;
#X connect 9 0 6 0;
#X connect 10 0 8 0;
#X connect 11 0 10 0;
#X connect 12 0 13 0;
#X connect 13 0 14 0;
#X connect 14 0 15 0;
#X connect 15 0 19 0;
#X connect 15 1 16 0;
#X connect 15 2 17 0;
#X connect 16 0 4 0;
#X connect 17 0 4 0;
#X connect 18 0 10 1;
#X connect 18 1 7 0;
#X connect 18 2 9 1;
#X connect 19 0 4 0;
#X restore 7 20 pd step1;
#N canvas 0 0 484 429 step2 0;
#X obj 88 62 r \$0.MTX;
#X obj 14 17 r \$1.MTX;
#X obj 14 39 route getpreset;
#X obj 14 303 s \$1.MTX;
#X obj 313 377 s \$0.MTX;
#X obj 14 283 list trim;
#X obj 171 110 list;
#X obj 14 214 list append;
#X obj 14 236 list append;
#X obj 14 193 list append;
#X obj 14 75 b;
#X obj 313 177 r \$0.MTX;
#X obj 313 221 list;
#X obj 313 243 t a a a;
#X obj 14 260 list prepend preset \$2 step2;
#X obj 313 199 route step2;
#X msg 359 265 loopcount2 \$3;
#X msg 336 310 setinstid2 \$2;
#X obj 88 84 route setpause2 setinstid2 loopcount2;
#X msg 313 352 setpause2 \$1;
#X connect 0 0 18 0;
#X connect 1 0 2 0;
#X connect 2 0 10 0;
#X connect 5 0 3 0;
#X connect 6 0 7 1;
#X connect 7 0 8 0;
#X connect 8 0 14 0;
#X connect 9 0 7 0;
#X connect 10 0 9 0;
#X connect 11 0 15 0;
#X connect 12 0 13 0;
#X connect 13 0 19 0;
#X connect 13 1 17 0;
#X connect 13 2 16 0;
#X connect 14 0 5 0;
#X connect 15 0 12 0;
#X connect 16 0 4 0;
#X connect 17 0 4 0;
#X connect 18 0 9 1;
#X connect 18 1 6 0;
#X connect 18 2 8 1;
#X connect 19 0 4 0;
#X restore 77 20 pd step2;
#N canvas 0 0 474 519 step3 0;
#X obj 88 62 r \$0.MTX;
#X obj 14 17 r \$1.MTX;
#X obj 14 39 route getpreset;
#X obj 14 303 s \$1.MTX;
#X obj 313 381 s \$0.MTX;
#X obj 14 283 list trim;
#X obj 171 111 list;
#X obj 14 214 list append;
#X obj 14 236 list append;
#X obj 14 193 list append;
#X obj 14 75 b;
#X obj 313 177 r \$0.MTX;
#X obj 313 221 list;
#X obj 313 243 t a a a;
#X obj 14 260 list prepend preset \$2 step3;
#X obj 313 199 route step3;
#X msg 359 265 loopcount3 \$3;
#X msg 336 310 setinstid3 \$2;
#X obj 88 84 route setpause3 setinstid3 loopcount3;
#X msg 313 352 setpause3 \$1;
#X connect 0 0 18 0;
#X connect 1 0 2 0;
#X connect 2 0 10 0;
#X connect 5 0 3 0;
#X connect 6 0 7 1;
#X connect 7 0 8 0;
#X connect 8 0 14 0;
#X connect 9 0 7 0;
#X connect 10 0 9 0;
#X connect 11 0 15 0;
#X connect 12 0 13 0;
#X connect 13 0 19 0;
#X connect 13 1 17 0;
#X connect 13 2 16 0;
#X connect 14 0 5 0;
#X connect 15 0 12 0;
#X connect 16 0 4 0;
#X connect 17 0 4 0;
#X connect 18 0 9 1;
#X connect 18 1 6 0;
#X connect 18 2 8 1;
#X connect 19 0 4 0;
#X restore 147 20 pd step3;
#X obj 128 73 r \$0.MTX;
#X connect 0 0 4 0;
#X connect 3 0 4 0;
#X connect 4 0 1 0;
#X connect 8 0 3 0;
#X restore 20 153 pd state.save;
#X text 20 48 arguments: <\$0_from_parent> <id>;
#X obj 65 22 vsl 80 9 0 2 0 0 \$0.inst1.id.s \$0.inst1.id.r <none>
7 5 0 10 -228856 -228856 -1 400 1;
#X obj 562 21 cnv 12 12 12 empty empty \$2 20 7 0 10 -233017 -66577
0;
#X obj 145 22 vsl 60 9 0 2 0 0 \$0.loop1.no.s \$0.loop1.no.r loop:1
7 5 0 10 -228856 -228856 -1 400 1;
#X obj 250 22 vsl 80 9 0 2 0 0 \$0.inst2.id.s \$0.inst2.id.r <none>
7 5 0 10 -228856 -228856 -1 400 1;
#X obj 330 22 vsl 60 9 0 2 0 0 \$0.loop2.no.s \$0.loop2.no.r loop:1
7 5 0 10 -228856 -228856 -1 400 1;
#X obj 435 22 vsl 80 9 0 2 0 0 \$0.inst3.id.s \$0.inst3.id.r <none>
7 5 0 10 -228856 -228856 -1 400 1;
#X obj 515 22 vsl 60 9 0 2 0 0 \$0.loop3.no.s \$0.loop3.no.r loop:1
7 5 0 10 -228856 -228856 -1 400 1;
#X obj 20 207 external.control \$0 \$1 \$2;
#X obj 21 21 cnv 8 8 12 empty \$0.pause1.r empty 20 12 0 14 -249661
-1 0;
#X obj 206 21 cnv 8 8 12 empty \$0.pause2.r empty 20 12 0 14 -249661
-1 0;
#X obj 391 21 cnv 8 8 12 empty \$0.pause3.r empty 20 12 0 14 -249661
-1 0;
#X obj 30 20 gui.mmss \$0 setpause1;
#X obj 215 20 gui.mmss \$0 setpause2;
#X obj 400 20 gui.mmss \$0 setpause3;
#X obj 20 180 parent.comm \$0 \$1 \$2 1;
#X coords 0 -1 1 1 555 14 2 20 20;
