#N canvas 0 0 450 300 10;
#X obj 149 129 == 1;
#X obj 111 131 == 1;
#X obj 196 128 == 1;
#X msg 111 84 1;
#X msg 149 85 1;
#X msg 196 82 1;
#X obj 111 175 &&;
#X obj 149 152 t b a;
#X obj 111 213 &&;
#X obj 196 153 t b a;
#X obj 111 238 sel 1;
#X obj 149 63 b;
#X obj 196 59 b;
#X obj 37 19 inlet;
#X obj 149 16 inlet;
#X obj 196 17 inlet;
#X obj 111 260 outlet;
#X obj 37 39 route reset;
#X msg 37 90 0;
#X obj 111 63 b;
#X connect 0 0 7 0;
#X connect 1 0 6 0;
#X connect 2 0 9 0;
#X connect 3 0 1 0;
#X connect 4 0 0 0;
#X connect 5 0 2 0;
#X connect 6 0 8 0;
#X connect 7 0 6 0;
#X connect 7 1 6 1;
#X connect 8 0 10 0;
#X connect 9 0 8 0;
#X connect 9 1 8 1;
#X connect 10 0 16 0;
#X connect 11 0 4 0;
#X connect 12 0 5 0;
#X connect 13 0 17 0;
#X connect 14 0 11 0;
#X connect 15 0 12 0;
#X connect 17 0 18 0;
#X connect 17 1 19 0;
#X connect 18 0 1 0;
#X connect 18 0 0 0;
#X connect 18 0 2 0;
#X connect 19 0 3 0;
