#N canvas 85 283 451 260 10;
#X obj 20 22 vsl 18 9 0 0 0 0 \$0.button.s \$0.button.r empty 4 6 0
10 -249661 -249661 -1 0 1;
#X obj 16 78 route colorchange;
#X obj 16 99 sel \$2;
#N canvas 23 165 225 187 getcolor 0;
#X obj 11 8 inlet;
#X obj 11 30 t a a a;
#X obj 11 126 pack f f f;
#X obj 11 151 outlet;
#X obj 78 101 tabread \$1.color.b;
#X obj 44 82 tabread \$1.color.g;
#X obj 11 62 tabread \$1.color.r;
#X connect 0 0 1 0;
#X connect 1 0 6 0;
#X connect 1 1 5 0;
#X connect 1 2 4 0;
#X connect 2 0 3 0;
#X connect 4 0 2 2;
#X connect 5 0 2 1;
#X connect 6 0 2 0;
#X restore 16 142 pd getcolor;
#X obj 16 121 \$2;
#X msg 16 187 color \$1 \$1 -1;
#X obj 16 164 clr.conv;
#X obj 16 57 r \$1.MTX;
#X obj 16 206 s \$0.button.r;
#X obj 160 106 spigot 1;
#X msg 162 76 0;
#X obj 162 52 t b b;
#X obj 160 128 t b b;
#X obj 192 149 del 50;
#X msg 244 118 1;
#X obj 160 169 f \$2;
#X msg 160 191 setcolor \$1;
#X obj 160 213 s \$1.MTX;
#X obj 162 30 r \$0.button.s;
#X obj 309 52 loadbang;
#X obj 309 74 f \$2;
#X obj 309 96 makefilename %2d;
#X obj 309 144 s \$0.button.r;
#X msg 309 119 label \$1;
#X connect 1 0 2 0;
#X connect 2 0 4 0;
#X connect 3 0 6 0;
#X connect 4 0 3 0;
#X connect 5 0 8 0;
#X connect 6 0 5 0;
#X connect 7 0 1 0;
#X connect 9 0 12 0;
#X connect 10 0 9 1;
#X connect 11 0 10 0;
#X connect 11 1 9 0;
#X connect 12 0 15 0;
#X connect 12 1 13 0;
#X connect 13 0 14 0;
#X connect 14 0 9 1;
#X connect 15 0 16 0;
#X connect 16 0 17 0;
#X connect 18 0 11 0;
#X connect 19 0 20 0;
#X connect 20 0 21 0;
#X connect 21 0 23 0;
#X connect 23 0 22 0;
#X coords 0 -1 1 1 18 14 2 20 20;
