#N canvas 98 286 241 365 10;
#X obj 24 326 throw~ \$1.dummy;
#X msg 88 299 set \$1.\$2.ROUTER;
#X obj 88 278 list prepend \$1;
#X obj 88 210 + \$3;
#X obj 24 15 inlet~;
#X obj 88 91 r \$1.MTX;
#X obj 88 255 moses;
#X obj 137 206 + 1;
#X obj 88 170 t b a;
#X obj 88 190 f \$2;
#X obj 88 231 - 1;
#X obj 88 111 route row.num;
#X connect 1 0 0 0;
#X connect 2 0 1 0;
#X connect 3 0 10 0;
#X connect 4 0 0 0;
#X connect 5 0 11 0;
#X connect 6 0 2 0;
#X connect 7 0 6 1;
#X connect 8 0 9 0;
#X connect 8 1 7 0;
#X connect 9 0 3 0;
#X connect 10 0 6 0;
#X connect 11 0 8 0;
