#N canvas 39 410 626 432 10;
#N canvas 213 208 196 188 gui.shizzle 0;
#N canvas 0 0 276 712 instance.id 0;
#X obj 14 10 loadbang;
#X obj 15 116 sel 0 2;
#X obj 15 143 t b b;
#X obj 59 143 t b b;
#X obj 15 178 f;
#X obj 15 199 - 1;
#X obj 59 179 f;
#X obj 59 200 + 1;
#X obj 15 520 s \$0.MTX;
#X msg 15 493 setinstid \$1;
#X obj 135 215 s \$0.inst.id.r;
#X obj 14 54 s \$0.inst.id.r;
#X obj 15 81 r \$0.inst.id.s;
#X obj 103 172 t b b;
#X obj 15 276 t a a;
#X obj 103 258 s \$1.MTX;
#X obj 103 280 r \$1.MTX;
#X obj 103 324 t a a;
#X obj 103 346 list length;
#X msg 15 429 \$7;
#X msg 47 403 set \, adddollar \$1;
#X obj 15 450 list;
#X obj 15 377 list append;
#X obj 15 356 t b a;
#X obj 15 472 t a a;
#X obj 16 550 r \$0.MTX;
#X obj 16 572 route setinstid;
#X msg 14 32 set 1;
#X msg 135 193 set 1;
#X msg 16 662 label \$1;
#X obj 16 684 s \$0.inst.id.r;
#X obj 16 640 makefilename %d;
#X obj 16 618 route float;
#X obj 16 596 list;
#X obj 15 228 min;
#X obj 15 250 max 1;
#X msg 103 237 getinstancelist.loop;
#X obj 103 302 route instancelist.loop;
#X connect 0 0 27 0;
#X connect 1 0 2 0;
#X connect 1 1 3 0;
#X connect 2 0 4 0;
#X connect 2 1 13 0;
#X connect 3 0 6 0;
#X connect 3 1 13 0;
#X connect 4 0 5 0;
#X connect 5 0 34 0;
#X connect 6 0 7 0;
#X connect 7 0 34 0;
#X connect 9 0 8 0;
#X connect 12 0 1 0;
#X connect 13 0 36 0;
#X connect 13 1 28 0;
#X connect 14 0 23 0;
#X connect 14 1 4 1;
#X connect 14 1 6 1;
#X connect 16 0 37 0;
#X connect 17 0 18 0;
#X connect 17 1 22 1;
#X connect 18 0 34 1;
#X connect 19 0 21 0;
#X connect 20 0 19 0;
#X connect 21 0 24 0;
#X connect 22 0 19 0;
#X connect 23 0 22 0;
#X connect 23 1 20 0;
#X connect 24 0 9 0;
#X connect 25 0 26 0;
#X connect 26 0 33 0;
#X connect 27 0 11 0;
#X connect 28 0 10 0;
#X connect 29 0 30 0;
#X connect 31 0 29 0;
#X connect 32 0 31 0;
#X connect 32 1 29 0;
#X connect 33 0 32 0;
#X connect 34 0 35 0;
#X connect 35 0 14 0;
#X connect 36 0 15 0;
#X connect 37 0 17 0;
#X restore 8 38 pd instance.id;
#N canvas 0 0 617 390 timer.hhmmss 0;
#X obj 46 20 r \$0.MTX;
#X obj 46 105 route sethour setmin setsec;
#X obj 108 132 * 60;
#X obj 46 131 * 3600;
#X obj 46 216 +;
#X obj 46 153 +;
#X obj 108 169 t b a;
#X obj 170 175 t b a;
#X obj 69 328 s \$0.MTX;
#X obj 345 22 r \$0.MTX;
#X obj 368 176 t a a a;
#X obj 487 220 mod 60;
#X msg 487 242 setsec \$1;
#X obj 429 203 / 60;
#X obj 429 225 int;
#X obj 429 247 mod 60;
#X msg 429 269 setmin \$1;
#X obj 368 246 / 3600;
#X obj 368 269 int;
#X msg 368 291 sethour \$1;
#X obj 368 326 s \$0.MTX;
#X obj 345 104 t b a b;
#X obj 46 67 spigot 1;
#X msg 391 127 0;
#X msg 345 128 1;
#X obj 46 238 t b a b;
#X msg 92 261 0;
#X msg 46 261 1;
#X obj 345 54 spigot 1;
#X msg 69 306 settime \$1;
#X obj 345 82 route settime;
#X connect 0 0 22 0;
#X connect 1 0 3 0;
#X connect 1 1 2 0;
#X connect 1 2 7 0;
#X connect 2 0 6 0;
#X connect 3 0 5 0;
#X connect 4 0 25 0;
#X connect 5 0 4 0;
#X connect 6 0 5 0;
#X connect 6 1 5 1;
#X connect 7 0 4 0;
#X connect 7 1 4 1;
#X connect 9 0 28 0;
#X connect 10 0 17 0;
#X connect 10 1 13 0;
#X connect 10 2 11 0;
#X connect 11 0 12 0;
#X connect 12 0 20 0;
#X connect 13 0 14 0;
#X connect 14 0 15 0;
#X connect 15 0 16 0;
#X connect 16 0 20 0;
#X connect 17 0 18 0;
#X connect 18 0 19 0;
#X connect 19 0 20 0;
#X connect 21 0 24 0;
#X connect 21 1 10 0;
#X connect 21 2 23 0;
#X connect 22 0 1 0;
#X connect 23 0 22 1;
#X connect 24 0 22 1;
#X connect 25 0 27 0;
#X connect 25 1 29 0;
#X connect 25 2 26 0;
#X connect 26 0 28 1;
#X connect 27 0 28 1;
#X connect 28 0 30 0;
#X connect 29 0 8 0;
#X connect 30 0 21 0;
#X restore 8 15 pd timer.hhmmss;
#N canvas 0 0 285 501 loop.count 0;
#X obj 9 6 loadbang;
#X obj 10 112 sel 0 2;
#X obj 10 139 t b b;
#X obj 54 139 t b b;
#X obj 10 174 f;
#X obj 10 195 - 1;
#X obj 54 175 f;
#X obj 54 196 + 1;
#X obj 10 272 s \$0.MTX;
#X obj 9 50 s \$0.loop.no.r;
#X obj 10 77 r \$0.loop.no.s;
#X obj 86 205 s \$0.loop.no.r;
#X obj 10 221 max 0;
#X msg 10 247 loopcount \$1;
#X text 10 295 0 means infinite;
#X msg 86 181 set 1;
#X msg 9 28 set 1;
#X msg 12 433 label \$1;
#X obj 12 455 s \$0.loop.no.r;
#X msg 12 411 symbol loop:\$1;
#X obj 12 366 sel 0;
#X msg 12 388 symbol inf;
#X obj 12 322 r \$0.MTX;
#X obj 12 344 route loopcount;
#X obj 123 127 r \$0.MTX;
#X obj 123 149 route loopcount;
#X connect 0 0 16 0;
#X connect 1 0 2 0;
#X connect 1 1 3 0;
#X connect 2 0 4 0;
#X connect 2 1 15 0;
#X connect 3 0 6 0;
#X connect 3 1 15 0;
#X connect 4 0 5 0;
#X connect 5 0 12 0;
#X connect 6 0 7 0;
#X connect 7 0 12 0;
#X connect 10 0 1 0;
#X connect 12 0 13 0;
#X connect 13 0 8 0;
#X connect 15 0 11 0;
#X connect 16 0 9 0;
#X connect 17 0 18 0;
#X connect 19 0 17 0;
#X connect 20 0 21 0;
#X connect 20 1 19 0;
#X connect 21 0 19 0;
#X connect 22 0 23 0;
#X connect 23 0 20 0;
#X connect 24 0 25 0;
#X connect 25 0 6 1;
#X connect 25 0 4 1;
#X restore 8 61 pd loop.count;
#N canvas 254 278 312 299 display.background 0;
#X obj 37 234 s \$0.inst.id.r;
#X obj 11 263 s \$0.loop.no.r;
#X obj 11 168 clr.conv;
#X msg 11 192 color \$1 \$1 -1;
#X msg 11 142 220 220 220;
#X msg 34 121 255 127 127;
#X obj 11 1 r \$0.MTX;
#X obj 11 23 route display;
#X obj 11 96 sel 0 1;
#X msg 137 99 settime.highlight \$1;
#X obj 137 121 s \$0.MTX;
#X connect 2 0 3 0;
#X connect 3 0 0 0;
#X connect 3 0 1 0;
#X connect 4 0 2 0;
#X connect 5 0 2 0;
#X connect 6 0 7 0;
#X connect 7 0 8 0;
#X connect 7 0 9 0;
#X connect 8 0 4 0;
#X connect 8 1 5 0;
#X connect 9 0 10 0;
#X restore 8 84 pd display.background;
#X restore 21 110 pd gui.shizzle;
#N canvas 77 12 396 370 timer.stuff 0;
#X obj 27 14 loadbang;
#X obj 27 204 ==;
#X obj 69 206 ==;
#X obj 111 205 ==;
#X obj 27 234 &&;
#X obj 27 257 &&;
#X obj 27 278 sel 1;
#X obj 27 34 metro 100;
#X obj 27 85 pack f f f;
#X obj 27 108 t a a a;
#X msg 27 133 \$3;
#X msg 69 133 \$2;
#X msg 111 136 \$1;
#X obj 27 156 change;
#X obj 27 60 time;
#X obj 185 119 r \$0.MTX;
#X obj 185 141 route setsec setmin sethour;
#X msg 27 305 timedtrigger;
#X obj 27 329 s \$0.MTX;
#X connect 0 0 7 0;
#X connect 1 0 4 0;
#X connect 2 0 4 1;
#X connect 3 0 5 1;
#X connect 4 0 5 0;
#X connect 5 0 6 0;
#X connect 6 0 17 0;
#X connect 7 0 14 0;
#X connect 8 0 9 0;
#X connect 9 0 10 0;
#X connect 9 1 11 0;
#X connect 9 2 12 0;
#X connect 10 0 13 0;
#X connect 11 0 2 0;
#X connect 12 0 3 0;
#X connect 13 0 1 0;
#X connect 14 0 8 0;
#X connect 14 1 8 1;
#X connect 14 2 8 2;
#X connect 15 0 16 0;
#X connect 16 0 1 1;
#X connect 16 1 2 1;
#X connect 16 2 3 1;
#X connect 17 0 18 0;
#X restore 21 85 pd timer.stuff;
#N canvas 0 0 501 522 state.save 0;
#X obj 101 62 r \$0.MTX;
#X obj 14 17 r \$1.MTX;
#X obj 14 39 route getpreset;
#X obj 101 134 pack f f f;
#X obj 14 155 list;
#X msg 14 178 time \$1 \$2 \$3;
#X msg 83 241 setinstid \$1;
#X obj 83 220 list;
#X obj 108 199 list;
#X obj 161 266 f;
#X obj 14 114 t b b b;
#X obj 14 322 list;
#X obj 14 345 list prepend preset \$2;
#X obj 53 68 bng 15 250 50 0 empty empty empty 17 7 0 10 -262144 -1
-1;
#X msg 161 287 loopcount \$1;
#X obj 166 107 t b a;
#X obj 231 106 t b a;
#X obj 101 84 route sethour setmin setsec setinstid loopcount;
#X obj 14 388 s \$1.MTX;
#X obj 314 209 r \$1.MTX;
#X obj 314 231 route \$2;
#X obj 314 253 s \$0.MTX;
#X obj 10 454 loadbang;
#X msg 10 476 time 0 0 0 \, setinstid <none> \, loopcount 1;
#X obj 10 498 s \$0.MTX;
#X obj 322 299 r \$0.MTX;
#X obj 322 321 route time;
#X obj 322 343 unpack f f f;
#X msg 403 365 setsec \$1;
#X msg 362 385 setmin \$1;
#X obj 322 431 s \$0.MTX;
#X msg 322 408 sethour \$1;
#X obj 14 368 list trim;
#X text 8 432 --INIT----;
#X obj 130 430 r \$1.MTX;
#X obj 130 452 route reset;
#X connect 0 0 17 0;
#X connect 1 0 2 0;
#X connect 2 0 10 0;
#X connect 3 0 4 1;
#X connect 4 0 5 0;
#X connect 5 0 11 0;
#X connect 6 0 11 0;
#X connect 7 0 6 0;
#X connect 8 0 7 1;
#X connect 9 0 14 0;
#X connect 10 0 4 0;
#X connect 10 1 7 0;
#X connect 10 2 9 0;
#X connect 11 0 12 0;
#X connect 12 0 32 0;
#X connect 13 0 10 0;
#X connect 14 0 11 0;
#X connect 15 0 3 0;
#X connect 15 1 3 1;
#X connect 16 0 3 0;
#X connect 16 1 3 2;
#X connect 17 0 3 0;
#X connect 17 1 15 0;
#X connect 17 2 16 0;
#X connect 17 3 8 0;
#X connect 17 4 9 1;
#X connect 19 0 20 0;
#X connect 20 0 21 0;
#X connect 22 0 23 0;
#X connect 23 0 24 0;
#X connect 25 0 26 0;
#X connect 26 0 27 0;
#X connect 27 0 31 0;
#X connect 27 1 29 0;
#X connect 27 2 28 0;
#X connect 28 0 30 0;
#X connect 29 0 30 0;
#X connect 31 0 30 0;
#X connect 32 0 18 0;
#X connect 34 0 35 0;
#X connect 35 0 23 0;
#X restore 21 135 pd state.save;
#X text 11 53 arguments: <\$0_from_parent> <id>;
#X obj 73 22 vsl 80 9 0 2 0 0 \$0.inst.id.s \$0.inst.id.r <none> 7
5 0 10 -228856 -228856 -1 400 1;
#X obj 292 14 r \$0.MTX;
#X obj 292 36 route timedtrigger setinstid loopcount;
#X obj 292 58 b;
#X obj 292 80 list;
#X obj 379 57 list;
#X obj 292 101 sel <none>;
#X msg 292 179 \$1 loopplay \$2;
#X obj 292 201 s \$1.MTX;
#X obj 200 21 cnv 12 12 12 empty empty \$2 20 7 0 10 -233017 -66577
0;
#X obj 153 22 vsl 60 9 0 2 0 0 \$0.loop.no.s \$0.loop.no.r loop:1 7
5 0 10 -228856 -228856 -1 400 1;
#X obj 292 134 list append;
#X obj 292 156 t a b;
#X obj 403 216 r \$0.MTX;
#X obj 291 230 r \$1.MTX;
#X obj 291 252 route loopend;
#N canvas 0 0 564 295 sel 0;
#X obj 20 16 inlet;
#X obj 20 38 list;
#X obj 20 60 route float symbol;
#X obj 20 189 sel -1234;
#X obj 99 191 sel <none>;
#X obj 20 229 outlet;
#X obj 237 18 inlet;
#X obj 237 40 list;
#X obj 237 62 route float symbol;
#X obj 237 84 t a b;
#X obj 298 84 t b a;
#X msg 269 142 symbol <none>;
#X msg 298 118 -1234;
#X connect 0 0 1 0;
#X connect 1 0 2 0;
#X connect 2 0 3 0;
#X connect 2 1 4 0;
#X connect 3 0 5 0;
#X connect 4 0 5 0;
#X connect 6 0 7 0;
#X connect 7 0 8 0;
#X connect 8 0 9 0;
#X connect 8 1 10 0;
#X connect 9 0 3 1;
#X connect 9 1 11 0;
#X connect 10 0 12 0;
#X connect 10 1 4 1;
#X connect 11 0 4 1;
#X connect 12 0 3 1;
#X restore 291 320 pd sel;
#X obj 291 295 spigot;
#X msg 397 308 1;
#X obj 291 343 t b b;
#X msg 434 308 0;
#X obj 397 338 t a a;
#X obj 397 386 s \$0.MTX;
#X obj 434 287 route stopall;
#X obj 403 238 route setinstid;
#X msg 397 364 display \$1;
#X obj 434 265 r \$1.MTX;
#X obj 20 20 gui.daytime \$0 settime;
#X connect 5 0 6 0;
#X connect 6 0 7 0;
#X connect 6 1 9 0;
#X connect 6 2 15 1;
#X connect 7 0 8 0;
#X connect 8 0 10 0;
#X connect 9 0 8 1;
#X connect 10 1 15 0;
#X connect 11 0 12 0;
#X connect 15 0 16 0;
#X connect 16 0 11 0;
#X connect 16 1 22 0;
#X connect 17 0 28 0;
#X connect 18 0 19 0;
#X connect 19 0 21 0;
#X connect 20 0 23 0;
#X connect 21 0 20 0;
#X connect 22 0 25 0;
#X connect 23 1 24 0;
#X connect 24 0 25 0;
#X connect 25 0 29 0;
#X connect 25 1 21 1;
#X connect 27 0 24 0;
#X connect 28 0 20 1;
#X connect 29 0 26 0;
#X connect 30 0 27 0;
#X coords 0 -1 1 1 193 14 2 20 20;
